<?xml version="1.0" encoding="UTF-8" standalone="no"?>
<!-- Created with Inkscape (http://www.inkscape.org/) -->

<svg
   xmlns:dc="http://purl.org/dc/elements/1.1/"
   xmlns:cc="http://creativecommons.org/ns#"
   xmlns:rdf="http://www.w3.org/1999/02/22-rdf-syntax-ns#"
   xmlns:svg="http://www.w3.org/2000/svg"
   xmlns="http://www.w3.org/2000/svg"
   xmlns:sodipodi="http://sodipodi.sourceforge.net/DTD/sodipodi-0.dtd"
   xmlns:inkscape="http://www.inkscape.org/namespaces/inkscape"
   width="145.6368mm"
   height="110.08162mm"
   viewBox="0 0 145.63679 110.08162"
   version="1.1"
   id="svg8"
   inkscape:version="0.92.1 r15371"
   sodipodi:docname="percentages_red_green.svg">
  <defs
     id="defs2" />
  <sodipodi:namedview
     id="base"
     pagecolor="#ffffff"
     bordercolor="#666666"
     borderopacity="1.0"
     inkscape:pageopacity="0.0"
     inkscape:pageshadow="2"
     inkscape:zoom="1.6434621"
     inkscape:cx="232.85882"
     inkscape:cy="196.78729"
     inkscape:document-units="mm"
     inkscape:current-layer="layer1"
     showgrid="true"
     showguides="false"
     inkscape:snap-bbox="true"
     inkscape:snap-nodes="true"
     inkscape:snap-others="false"
     inkscape:bbox-nodes="true"
     fit-margin-top="0"
     fit-margin-left="0.3"
     fit-margin-right="0"
     fit-margin-bottom="0"
     inkscape:window-width="1920"
     inkscape:window-height="1051"
     inkscape:window-x="0"
     inkscape:window-y="0"
     inkscape:window-maximized="1"
     inkscape:snap-grids="false">
    <inkscape:grid
       type="xygrid"
       id="grid4506"
       originx="-29.024197"
       originy="-108.47914" />
  </sodipodi:namedview>
  <metadata
     id="metadata5">
    <rdf:RDF>
      <cc:Work
         rdf:about="">
        <dc:format>image/svg+xml</dc:format>
        <dc:type
           rdf:resource="http://purl.org/dc/dcmitype/StillImage" />
        <dc:title></dc:title>
      </cc:Work>
    </rdf:RDF>
  </metadata>
  <g
     inkscape:label="Layer 1"
     inkscape:groupmode="layer"
     id="layer1"
     transform="translate(-29.024205,-78.439251)">
    <rect
       style="opacity:1;vector-effect:none;fill:#000000;fill-opacity:1;stroke:none;stroke-width:0.05291667;stroke-linecap:round;stroke-linejoin:bevel;stroke-miterlimit:4;stroke-dasharray:none;stroke-dashoffset:0;stroke-opacity:1;marker:none"
       id="rect4504"
       width="21.16667"
       height="21.166666"
       x="68.791672"
       y="82.687508" />
    <rect
       y="82.687508"
       x="89.958336"
       height="21.166666"
       width="21.16667"
       id="rect4508"
       style="opacity:1;vector-effect:none;fill:#440000;fill-opacity:1;stroke:none;stroke-width:0.05291667;stroke-linecap:round;stroke-linejoin:bevel;stroke-miterlimit:4;stroke-dasharray:none;stroke-dashoffset:0;stroke-opacity:1;marker:none" />
    <rect
       style="opacity:1;vector-effect:none;fill:#880000;fill-opacity:1;stroke:none;stroke-width:0.05291667;stroke-linecap:round;stroke-linejoin:bevel;stroke-miterlimit:4;stroke-dasharray:none;stroke-dashoffset:0;stroke-opacity:1;marker:none"
       id="rect4510"
       width="21.16667"
       height="21.166666"
       x="111.125"
       y="82.6875" />
    <rect
       y="82.6875"
       x="132.29166"
       height="21.166666"
       width="21.16667"
       id="rect4512"
       style="opacity:1;vector-effect:none;fill:#bb0000;fill-opacity:1;stroke:none;stroke-width:0.05291667;stroke-linecap:round;stroke-linejoin:bevel;stroke-miterlimit:4;stroke-dasharray:none;stroke-dashoffset:0;stroke-opacity:1;marker:none" />
    <rect
       style="opacity:1;vector-effect:none;fill:#ff0000;fill-opacity:1;stroke:none;stroke-width:0.05291667;stroke-linecap:round;stroke-linejoin:bevel;stroke-miterlimit:4;stroke-dasharray:none;stroke-dashoffset:0;stroke-opacity:1;marker:none"
       id="rect4514"
       width="21.16667"
       height="21.166666"
       x="153.45833"
       y="82.6875" />
    <g
       aria-label="0% Чер"
       style="font-style:normal;font-variant:normal;font-weight:normal;font-stretch:normal;font-size:4.23333311px;font-family:Lato;-inkscape-font-specification:Lato;font-variant-ligatures:discretionary-ligatures historical-ligatures;font-variant-position:normal;font-variant-caps:normal;font-variant-numeric:lining-nums tabular-nums diagonal-fractions ordinal;font-feature-settings:normal;text-align:center;writing-mode:lr-tb;text-anchor:middle;opacity:1;vector-effect:none;fill:#000000;fill-opacity:1;stroke:none;stroke-width:0.05291667;stroke-linecap:round;stroke-linejoin:bevel;stroke-miterlimit:4;stroke-dasharray:none;stroke-dashoffset:0;stroke-opacity:1;marker:none"
       id="text4575">
      <path
         d="m 72.612449,78.769987 q -0.322461,0 -0.485758,0.318326 -0.161231,0.31626 -0.161231,0.952914 0,0.634586 0.161231,0.952913 0.163297,0.31626 0.485758,0.31626 0.324528,0 0.485758,-0.31626 0.163298,-0.318327 0.163298,-0.952913 0,-0.636654 -0.163298,-0.952914 -0.16123,-0.318326 -0.485758,-0.318326 z m 0,-0.33073 q 0.518831,0 0.791683,0.411345 0.274918,0.409277 0.274918,1.190625 0,0.77928 -0.274918,1.190625 -0.272852,0.409277 -0.791683,0.409277 -0.518831,0 -0.79375,-0.409277 -0.272852,-0.411345 -0.272852,-1.190625 0,-0.781348 0.272852,-1.190625 0.274919,-0.411345 0.79375,-0.411345 z"
         style="fill:#000000;fill-opacity:1;stroke-width:0.05291667"
         id="path4695"
         inkscape:connector-curvature="0" />
      <path
         d="m 77.040086,80.223128 q -0.179834,0 -0.283187,0.152962 -0.101286,0.152962 -0.101286,0.425814 0,0.268717 0.101286,0.423747 0.103353,0.152962 0.283187,0.152962 0.175699,0 0.276985,-0.152962 0.103353,-0.15503 0.103353,-0.423747 0,-0.270785 -0.103353,-0.423747 -0.101286,-0.155029 -0.276985,-0.155029 z m 0,-0.262516 q 0.326595,0 0.518831,0.227376 0.192236,0.227376 0.192236,0.613916 0,0.38654 -0.194303,0.613916 -0.192236,0.225309 -0.516764,0.225309 -0.33073,0 -0.522966,-0.225309 -0.192236,-0.227376 -0.192236,-0.613916 0,-0.388607 0.192236,-0.613916 0.194303,-0.227376 0.522966,-0.227376 z m -2.133203,-1.258838 q -0.177767,0 -0.28112,0.155029 -0.101286,0.152962 -0.101286,0.42168 0,0.272851 0.101286,0.425813 0.101286,0.152963 0.28112,0.152963 0.179834,0 0.281119,-0.152963 0.103353,-0.152962 0.103353,-0.425813 0,-0.266651 -0.103353,-0.42168 -0.103353,-0.155029 -0.281119,-0.155029 z m 1.866552,-0.262517 h 0.330729 l -1.930631,3.201872 h -0.330729 z m -1.866552,0 q 0.326595,0 0.520898,0.227377 0.194303,0.225309 0.194303,0.611849 0,0.390673 -0.194303,0.615983 -0.192236,0.225309 -0.520898,0.225309 -0.328663,0 -0.520899,-0.225309 -0.190169,-0.227377 -0.190169,-0.615983 0,-0.384473 0.192236,-0.611849 0.192237,-0.227377 0.518832,-0.227377 z"
         style="fill:#000000;fill-opacity:1;stroke-width:0.05291667"
         id="path4697"
         inkscape:connector-curvature="0" />
      <path
         d="m 81.403644,81.581184 v -1.265039 h -0.861963 q -0.384473,0 -0.613916,-0.239778 -0.229443,-0.241846 -0.229443,-0.733806 V 78.495068 H 80.1138 v 0.814421 q 0,0.328662 0.128158,0.491959 0.128157,0.163298 0.384472,0.163298 h 0.777214 v -1.469678 h 0.419612 v 3.086116 z"
         style="fill:#000000;fill-opacity:1;stroke-width:0.05291667"
         id="path4699"
         inkscape:connector-curvature="0" />
      <path
         d="m 84.617918,80.328548 v 0.186035 h -1.748731 q 0.02481,0.392741 0.235645,0.599446 0.212907,0.204639 0.591178,0.204639 0.219108,0 0.423747,-0.05374 0.206706,-0.05374 0.409277,-0.161231 v 0.359668 q -0.204639,0.08682 -0.419612,0.132292 -0.214974,0.04548 -0.43615,0.04548 -0.553971,0 -0.878499,-0.322461 -0.322461,-0.322461 -0.322461,-0.872298 0,-0.568441 0.305925,-0.901237 0.307991,-0.334863 0.82889,-0.334863 0.467155,0 0.737939,0.30179 0.272852,0.299723 0.272852,0.816488 z m -0.380339,-0.111621 q -0.0041,-0.312126 -0.1757,-0.498161 -0.169498,-0.186035 -0.450618,-0.186035 -0.318327,0 -0.510563,0.179834 -0.19017,0.179834 -0.219108,0.506429 z"
         style="fill:#000000;fill-opacity:1;stroke-width:0.05291667"
         id="path4701"
         inkscape:connector-curvature="0" />
      <path
         d="m 85.610104,81.233919 v 1.227832 H 85.227699 V 79.26608 h 0.382405 v 0.3514 q 0.11989,-0.206706 0.301791,-0.305924 0.183968,-0.101286 0.438216,-0.101286 0.421679,0 0.684196,0.334863 0.264583,0.334863 0.264583,0.880566 0,0.545704 -0.264583,0.880567 -0.262517,0.334863 -0.684196,0.334863 -0.254248,0 -0.438216,-0.09922 -0.181901,-0.101286 -0.301791,-0.307991 z m 1.293978,-0.80822 q 0,-0.419612 -0.173633,-0.657324 -0.171566,-0.239778 -0.473356,-0.239778 -0.30179,0 -0.475423,0.239778 -0.171566,0.237712 -0.171566,0.657324 0,0.419613 0.171566,0.659392 0.173633,0.237711 0.475423,0.237711 0.30179,0 0.473356,-0.237711 0.173633,-0.239779 0.173633,-0.659392 z"
         style="fill:#000000;fill-opacity:1;stroke-width:0.05291667"
         id="path4703"
         inkscape:connector-curvature="0" />
    </g>
    <g
       aria-label="25% Чер"
       style="font-style:normal;font-variant:normal;font-weight:normal;font-stretch:normal;font-size:4.23333311px;font-family:Lato;-inkscape-font-specification:Lato;font-variant-ligatures:discretionary-ligatures historical-ligatures;font-variant-position:normal;font-variant-caps:normal;font-variant-numeric:lining-nums tabular-nums diagonal-fractions ordinal;font-feature-settings:normal;text-align:center;writing-mode:lr-tb;text-anchor:middle;opacity:1;vector-effect:none;fill:#000000;fill-opacity:1;stroke:none;stroke-width:0.05291667;stroke-linecap:round;stroke-linejoin:bevel;stroke-miterlimit:4;stroke-dasharray:none;stroke-dashoffset:0;stroke-opacity:1;marker:none"
       id="text4579">
      <path
         d="m 91.898076,81.229785 h 1.457275 v 0.351399 h -1.95957 v -0.351399 q 0.237711,-0.24598 0.646989,-0.659392 0.411344,-0.415478 0.516764,-0.535367 0.200505,-0.22531 0.279053,-0.380339 0.08061,-0.157096 0.08061,-0.307991 0,-0.24598 -0.173633,-0.40101 -0.171565,-0.155029 -0.448551,-0.155029 -0.196371,0 -0.415479,0.06821 -0.217041,0.06821 -0.465088,0.206706 v -0.42168 q 0.252181,-0.101286 0.47129,-0.152962 0.219108,-0.05168 0.401009,-0.05168 0.479557,0 0.764811,0.239779 0.285254,0.239779 0.285254,0.640788 0,0.190169 -0.07235,0.361735 -0.07028,0.169499 -0.258382,0.401009 -0.05168,0.05994 -0.328663,0.347266 -0.276985,0.285253 -0.781347,0.799951 z"
         style="fill:#000000;fill-opacity:1;stroke-width:0.05291667"
         id="path4682"
         inkscape:connector-curvature="0" />
      <path
         d="m 94.237985,78.495068 h 1.639176 v 0.3514 H 94.62039 v 0.756543 q 0.09095,-0.03101 0.181901,-0.04548 0.09095,-0.01654 0.181901,-0.01654 0.516765,0 0.818555,0.283187 0.30179,0.283187 0.30179,0.766878 0,0.498161 -0.310058,0.775146 -0.310059,0.274919 -0.874365,0.274919 -0.194304,0 -0.396875,-0.03307 -0.200505,-0.03307 -0.415479,-0.09922 v -0.419612 q 0.186035,0.101286 0.384473,0.150895 0.198437,0.04961 0.419612,0.04961 0.357601,0 0.566374,-0.188102 0.208773,-0.188102 0.208773,-0.510563 0,-0.322461 -0.208773,-0.510563 -0.208773,-0.188102 -0.566374,-0.188102 -0.167431,0 -0.334863,0.03721 -0.165365,0.03721 -0.338997,0.115755 z"
         style="fill:#000000;fill-opacity:1;stroke-width:0.05291667"
         id="path4684"
         inkscape:connector-curvature="0" />
      <path
         d="m 99.554456,80.223128 q -0.179834,0 -0.283187,0.152962 -0.101286,0.152962 -0.101286,0.425814 0,0.268717 0.101286,0.423747 0.103353,0.152962 0.283187,0.152962 0.1757,0 0.276986,-0.152962 0.103352,-0.15503 0.103352,-0.423747 0,-0.270785 -0.103352,-0.423747 -0.101286,-0.155029 -0.276986,-0.155029 z m 0,-0.262516 q 0.326595,0 0.518834,0.227376 0.19223,0.227376 0.19223,0.613916 0,0.38654 -0.1943,0.613916 -0.192236,0.225309 -0.516764,0.225309 -0.330729,0 -0.522966,-0.225309 -0.192236,-0.227376 -0.192236,-0.613916 0,-0.388607 0.192236,-0.613916 0.194304,-0.227376 0.522966,-0.227376 z m -2.133203,-1.258838 q -0.177767,0 -0.28112,0.155029 -0.101286,0.152962 -0.101286,0.42168 0,0.272851 0.101286,0.425813 0.101286,0.152963 0.28112,0.152963 0.179834,0 0.28112,-0.152963 0.103352,-0.152962 0.103352,-0.425813 0,-0.266651 -0.103352,-0.42168 -0.103353,-0.155029 -0.28112,-0.155029 z m 1.866552,-0.262517 h 0.33073 l -1.930632,3.201872 h -0.330729 z m -1.866552,0 q 0.326595,0 0.520898,0.227377 0.194304,0.225309 0.194304,0.611849 0,0.390673 -0.194304,0.615983 -0.192236,0.225309 -0.520898,0.225309 -0.328662,0 -0.520899,-0.225309 -0.190169,-0.227377 -0.190169,-0.615983 0,-0.384473 0.192236,-0.611849 0.192237,-0.227377 0.518832,-0.227377 z"
         style="fill:#000000;fill-opacity:1;stroke-width:0.05291667"
         id="path4686"
         inkscape:connector-curvature="0" />
      <path
         d="m 103.91801,81.581184 v -1.265039 h -0.86196 q -0.38447,0 -0.61392,-0.239778 -0.22944,-0.241846 -0.22944,-0.733806 v -0.847493 h 0.41548 v 0.814421 q 0,0.328662 0.12816,0.491959 0.12815,0.163298 0.38447,0.163298 h 0.77721 v -1.469678 h 0.41962 v 3.086116 z"
         style="fill:#000000;fill-opacity:1;stroke-width:0.05291667"
         id="path4688"
         inkscape:connector-curvature="0" />
      <path
         d="m 107.13229,80.328548 v 0.186035 h -1.74873 q 0.0248,0.392741 0.23564,0.599446 0.21291,0.204639 0.59118,0.204639 0.21911,0 0.42375,-0.05374 0.2067,-0.05374 0.40927,-0.161231 v 0.359668 q -0.20463,0.08682 -0.41961,0.132292 -0.21497,0.04548 -0.43615,0.04548 -0.55397,0 -0.8785,-0.322461 -0.32246,-0.322461 -0.32246,-0.872298 0,-0.568441 0.30593,-0.901237 0.30799,-0.334863 0.82889,-0.334863 0.46715,0 0.73794,0.30179 0.27285,0.299723 0.27285,0.816488 z m -0.38034,-0.111621 q -0.004,-0.312126 -0.1757,-0.498161 -0.1695,-0.186035 -0.45062,-0.186035 -0.31833,0 -0.51056,0.179834 -0.19017,0.179834 -0.21911,0.506429 z"
         style="fill:#000000;fill-opacity:1;stroke-width:0.05291667"
         id="path4690"
         inkscape:connector-curvature="0" />
      <path
         d="m 108.12447,81.233919 v 1.227832 h -0.3824 V 79.26608 h 0.3824 v 0.3514 q 0.11989,-0.206706 0.30179,-0.305924 0.18397,-0.101286 0.43822,-0.101286 0.42168,0 0.6842,0.334863 0.26458,0.334863 0.26458,0.880566 0,0.545704 -0.26458,0.880567 -0.26252,0.334863 -0.6842,0.334863 -0.25425,0 -0.43822,-0.09922 -0.1819,-0.101286 -0.30179,-0.307991 z m 1.29398,-0.80822 q 0,-0.419612 -0.17363,-0.657324 -0.17157,-0.239778 -0.47336,-0.239778 -0.30179,0 -0.47542,0.239778 -0.17157,0.237712 -0.17157,0.657324 0,0.419613 0.17157,0.659392 0.17363,0.237711 0.47542,0.237711 0.30179,0 0.47336,-0.237711 0.17363,-0.239779 0.17363,-0.659392 z"
         style="fill:#000000;fill-opacity:1;stroke-width:0.05291667"
         id="path4692"
         inkscape:connector-curvature="0" />
    </g>
    <g
       aria-label="50% Чер"
       style="font-style:normal;font-variant:normal;font-weight:normal;font-stretch:normal;font-size:4.23333311px;font-family:Lato;-inkscape-font-specification:Lato;font-variant-ligatures:discretionary-ligatures historical-ligatures;font-variant-position:normal;font-variant-caps:normal;font-variant-numeric:lining-nums tabular-nums diagonal-fractions ordinal;font-feature-settings:normal;text-align:center;writing-mode:lr-tb;text-anchor:middle;opacity:1;vector-effect:none;fill:#000000;fill-opacity:1;stroke:none;stroke-width:0.05291667;stroke-linecap:round;stroke-linejoin:bevel;stroke-miterlimit:4;stroke-dasharray:none;stroke-dashoffset:0;stroke-opacity:1;marker:none"
       id="text4583">
      <path
         d="m 112.7092,78.495068 h 1.63917 v 0.3514 h -1.25677 v 0.756543 q 0.091,-0.03101 0.18191,-0.04548 0.0909,-0.01654 0.1819,-0.01654 0.51676,0 0.81855,0.283187 0.30179,0.283187 0.30179,0.766878 0,0.498161 -0.31006,0.775146 -0.31006,0.274919 -0.87436,0.274919 -0.19431,0 -0.39688,-0.03307 -0.2005,-0.03307 -0.41548,-0.09922 v -0.419612 q 0.18604,0.101286 0.38448,0.150895 0.19843,0.04961 0.41961,0.04961 0.3576,0 0.56637,-0.188102 0.20878,-0.188102 0.20878,-0.510563 0,-0.322461 -0.20878,-0.510563 -0.20877,-0.188102 -0.56637,-0.188102 -0.16743,0 -0.33486,0.03721 -0.16537,0.03721 -0.339,0.115755 z"
         style="fill:#000000;fill-opacity:1;stroke-width:0.05291667"
         id="path4669"
         inkscape:connector-curvature="0" />
      <path
         d="m 116.29348,78.769987 q -0.32247,0 -0.48576,0.318326 -0.16123,0.31626 -0.16123,0.952914 0,0.634586 0.16123,0.952913 0.16329,0.31626 0.48576,0.31626 0.32452,0 0.48575,-0.31626 0.1633,-0.318327 0.1633,-0.952913 0,-0.636654 -0.1633,-0.952914 -0.16123,-0.318326 -0.48575,-0.318326 z m 0,-0.33073 q 0.51883,0 0.79168,0.411345 0.27492,0.409277 0.27492,1.190625 0,0.77928 -0.27492,1.190625 -0.27285,0.409277 -0.79168,0.409277 -0.51884,0 -0.79375,-0.409277 -0.27286,-0.411345 -0.27286,-1.190625 0,-0.781348 0.27286,-1.190625 0.27491,-0.411345 0.79375,-0.411345 z"
         style="fill:#000000;fill-opacity:1;stroke-width:0.05291667"
         id="path4671"
         inkscape:connector-curvature="0" />
      <path
         d="m 120.72111,80.223128 q -0.17983,0 -0.28318,0.152962 -0.10129,0.152962 -0.10129,0.425814 0,0.268717 0.10129,0.423747 0.10335,0.152962 0.28318,0.152962 0.1757,0 0.27699,-0.152962 0.10335,-0.15503 0.10335,-0.423747 0,-0.270785 -0.10335,-0.423747 -0.10129,-0.155029 -0.27699,-0.155029 z m 0,-0.262516 q 0.3266,0 0.51883,0.227376 0.19224,0.227376 0.19224,0.613916 0,0.38654 -0.1943,0.613916 -0.19224,0.225309 -0.51677,0.225309 -0.33073,0 -0.52296,-0.225309 -0.19224,-0.227376 -0.19224,-0.613916 0,-0.388607 0.19224,-0.613916 0.1943,-0.227376 0.52296,-0.227376 z m -2.1332,-1.258838 q -0.17777,0 -0.28112,0.155029 -0.10129,0.152962 -0.10129,0.42168 0,0.272851 0.10129,0.425813 0.10129,0.152963 0.28112,0.152963 0.17983,0 0.28112,-0.152963 0.10335,-0.152962 0.10335,-0.425813 0,-0.266651 -0.10335,-0.42168 -0.10335,-0.155029 -0.28112,-0.155029 z m 1.86655,-0.262517 h 0.33073 l -1.93063,3.201872 h -0.33073 z m -1.86655,0 q 0.32659,0 0.5209,0.227377 0.1943,0.225309 0.1943,0.611849 0,0.390673 -0.1943,0.615983 -0.19224,0.225309 -0.5209,0.225309 -0.32866,0 -0.5209,-0.225309 -0.19017,-0.227377 -0.19017,-0.615983 0,-0.384473 0.19224,-0.611849 0.19223,-0.227377 0.51883,-0.227377 z"
         style="fill:#000000;fill-opacity:1;stroke-width:0.05291667"
         id="path4673"
         inkscape:connector-curvature="0" />
      <path
         d="m 125.08467,81.581184 v -1.265039 h -0.86196 q -0.38448,0 -0.61392,-0.239778 -0.22944,-0.241846 -0.22944,-0.733806 v -0.847493 h 0.41548 v 0.814421 q 0,0.328662 0.12815,0.491959 0.12816,0.163298 0.38448,0.163298 h 0.77721 v -1.469678 h 0.41961 v 3.086116 z"
         style="fill:#000000;fill-opacity:1;stroke-width:0.05291667"
         id="path4675"
         inkscape:connector-curvature="0" />
      <path
         d="m 128.29894,80.328548 v 0.186035 h -1.74873 q 0.0248,0.392741 0.23565,0.599446 0.2129,0.204639 0.59118,0.204639 0.2191,0 0.42374,-0.05374 0.20671,-0.05374 0.40928,-0.161231 v 0.359668 q -0.20464,0.08682 -0.41961,0.132292 -0.21498,0.04548 -0.43615,0.04548 -0.55397,0 -0.8785,-0.322461 -0.32246,-0.322461 -0.32246,-0.872298 0,-0.568441 0.30592,-0.901237 0.30799,-0.334863 0.82889,-0.334863 0.46716,0 0.73794,0.30179 0.27285,0.299723 0.27285,0.816488 z m -0.38033,-0.111621 q -0.004,-0.312126 -0.1757,-0.498161 -0.1695,-0.186035 -0.45062,-0.186035 -0.31833,0 -0.51057,0.179834 -0.19017,0.179834 -0.2191,0.506429 z"
         style="fill:#000000;fill-opacity:1;stroke-width:0.05291667"
         id="path4677"
         inkscape:connector-curvature="0" />
      <path
         d="m 129.29113,81.233919 v 1.227832 h -0.38241 V 79.26608 h 0.38241 v 0.3514 q 0.11989,-0.206706 0.30179,-0.305924 0.18397,-0.101286 0.43822,-0.101286 0.42168,0 0.68419,0.334863 0.26459,0.334863 0.26459,0.880566 0,0.545704 -0.26459,0.880567 -0.26251,0.334863 -0.68419,0.334863 -0.25425,0 -0.43822,-0.09922 -0.1819,-0.101286 -0.30179,-0.307991 z m 1.29398,-0.80822 q 0,-0.419612 -0.17363,-0.657324 -0.17157,-0.239778 -0.47336,-0.239778 -0.30179,0 -0.47542,0.239778 -0.17157,0.237712 -0.17157,0.657324 0,0.419613 0.17157,0.659392 0.17363,0.237711 0.47542,0.237711 0.30179,0 0.47336,-0.237711 0.17363,-0.239779 0.17363,-0.659392 z"
         style="fill:#000000;fill-opacity:1;stroke-width:0.05291667"
         id="path4679"
         inkscape:connector-curvature="0" />
    </g>
    <g
       aria-label="75% Чер"
       style="font-style:normal;font-variant:normal;font-weight:normal;font-stretch:normal;font-size:4.23333311px;font-family:Lato;-inkscape-font-specification:Lato;font-variant-ligatures:discretionary-ligatures historical-ligatures;font-variant-position:normal;font-variant-caps:normal;font-variant-numeric:lining-nums tabular-nums diagonal-fractions ordinal;font-feature-settings:normal;text-align:center;writing-mode:lr-tb;text-anchor:middle;opacity:1;vector-effect:none;fill:#000000;fill-opacity:1;stroke:none;stroke-width:0.05291667;stroke-linecap:round;stroke-linejoin:bevel;stroke-miterlimit:4;stroke-dasharray:none;stroke-dashoffset:0;stroke-opacity:1;marker:none"
       id="text4587">
      <path
         d="m 133.76632,78.495068 h 1.98437 v 0.177767 l -1.12034,2.908349 h -0.43615 l 1.0542,-2.734716 h -1.48208 z"
         style="fill:#000000;fill-opacity:1;stroke-width:0.05291667"
         id="path4656"
         inkscape:connector-curvature="0" />
      <path
         d="m 136.57131,78.495068 h 1.63918 v 0.3514 h -1.25677 v 0.756543 q 0.0909,-0.03101 0.1819,-0.04548 0.091,-0.01654 0.1819,-0.01654 0.51676,0 0.81856,0.283187 0.30179,0.283187 0.30179,0.766878 0,0.498161 -0.31006,0.775146 -0.31006,0.274919 -0.87437,0.274919 -0.1943,0 -0.39687,-0.03307 -0.20051,-0.03307 -0.41548,-0.09922 v -0.419612 q 0.18603,0.101286 0.38447,0.150895 0.19844,0.04961 0.41961,0.04961 0.3576,0 0.56638,-0.188102 0.20877,-0.188102 0.20877,-0.510563 0,-0.322461 -0.20877,-0.510563 -0.20878,-0.188102 -0.56638,-0.188102 -0.16743,0 -0.33486,0.03721 -0.16536,0.03721 -0.339,0.115755 z"
         style="fill:#000000;fill-opacity:1;stroke-width:0.05291667"
         id="path4658"
         inkscape:connector-curvature="0" />
      <path
         d="m 141.88778,80.223128 q -0.17983,0 -0.28318,0.152962 -0.10129,0.152962 -0.10129,0.425814 0,0.268717 0.10129,0.423747 0.10335,0.152962 0.28318,0.152962 0.1757,0 0.27699,-0.152962 0.10335,-0.15503 0.10335,-0.423747 0,-0.270785 -0.10335,-0.423747 -0.10129,-0.155029 -0.27699,-0.155029 z m 0,-0.262516 q 0.3266,0 0.51884,0.227376 0.19223,0.227376 0.19223,0.613916 0,0.38654 -0.1943,0.613916 -0.19224,0.225309 -0.51677,0.225309 -0.33073,0 -0.52296,-0.225309 -0.19224,-0.227376 -0.19224,-0.613916 0,-0.388607 0.19224,-0.613916 0.1943,-0.227376 0.52296,-0.227376 z m -2.1332,-1.258838 q -0.17777,0 -0.28112,0.155029 -0.10128,0.152962 -0.10128,0.42168 0,0.272851 0.10128,0.425813 0.10129,0.152963 0.28112,0.152963 0.17984,0 0.28112,-0.152963 0.10335,-0.152962 0.10335,-0.425813 0,-0.266651 -0.10335,-0.42168 -0.10335,-0.155029 -0.28112,-0.155029 z m 1.86655,-0.262517 h 0.33073 l -1.93063,3.201872 h -0.33073 z m -1.86655,0 q 0.3266,0 0.5209,0.227377 0.1943,0.225309 0.1943,0.611849 0,0.390673 -0.1943,0.615983 -0.19224,0.225309 -0.5209,0.225309 -0.32866,0 -0.5209,-0.225309 -0.19017,-0.227377 -0.19017,-0.615983 0,-0.384473 0.19224,-0.611849 0.19224,-0.227377 0.51883,-0.227377 z"
         style="fill:#000000;fill-opacity:1;stroke-width:0.05291667"
         id="path4660"
         inkscape:connector-curvature="0" />
      <path
         d="m 146.25134,81.581184 v -1.265039 h -0.86196 q -0.38447,0 -0.61392,-0.239778 -0.22944,-0.241846 -0.22944,-0.733806 v -0.847493 h 0.41548 v 0.814421 q 0,0.328662 0.12816,0.491959 0.12815,0.163298 0.38447,0.163298 h 0.77721 v -1.469678 h 0.41961 v 3.086116 z"
         style="fill:#000000;fill-opacity:1;stroke-width:0.05291667"
         id="path4662"
         inkscape:connector-curvature="0" />
      <path
         d="m 149.46562,80.328548 v 0.186035 h -1.74873 q 0.0248,0.392741 0.23564,0.599446 0.21291,0.204639 0.59118,0.204639 0.21911,0 0.42374,-0.05374 0.20671,-0.05374 0.40928,-0.161231 v 0.359668 q -0.20464,0.08682 -0.41961,0.132292 -0.21497,0.04548 -0.43615,0.04548 -0.55397,0 -0.8785,-0.322461 -0.32246,-0.322461 -0.32246,-0.872298 0,-0.568441 0.30592,-0.901237 0.308,-0.334863 0.82889,-0.334863 0.46716,0 0.73794,0.30179 0.27286,0.299723 0.27286,0.816488 z m -0.38034,-0.111621 q -0.004,-0.312126 -0.1757,-0.498161 -0.1695,-0.186035 -0.45062,-0.186035 -0.31833,0 -0.51056,0.179834 -0.19017,0.179834 -0.21911,0.506429 z"
         style="fill:#000000;fill-opacity:1;stroke-width:0.05291667"
         id="path4664"
         inkscape:connector-curvature="0" />
      <path
         d="m 150.4578,81.233919 v 1.227832 h -0.3824 V 79.26608 h 0.3824 v 0.3514 q 0.11989,-0.206706 0.30179,-0.305924 0.18397,-0.101286 0.43822,-0.101286 0.42168,0 0.68419,0.334863 0.26459,0.334863 0.26459,0.880566 0,0.545704 -0.26459,0.880567 -0.26251,0.334863 -0.68419,0.334863 -0.25425,0 -0.43822,-0.09922 -0.1819,-0.101286 -0.30179,-0.307991 z m 1.29398,-0.80822 q 0,-0.419612 -0.17363,-0.657324 -0.17157,-0.239778 -0.47336,-0.239778 -0.30179,0 -0.47542,0.239778 -0.17157,0.237712 -0.17157,0.657324 0,0.419613 0.17157,0.659392 0.17363,0.237711 0.47542,0.237711 0.30179,0 0.47336,-0.237711 0.17363,-0.239779 0.17363,-0.659392 z"
         style="fill:#000000;fill-opacity:1;stroke-width:0.05291667"
         id="path4666"
         inkscape:connector-curvature="0" />
    </g>
    <g
       aria-label="100% Чер"
       style="font-style:normal;font-variant:normal;font-weight:normal;font-stretch:normal;font-size:4.23333311px;font-family:Lato;-inkscape-font-specification:Lato;font-variant-ligatures:discretionary-ligatures historical-ligatures;font-variant-position:normal;font-variant-caps:normal;font-variant-numeric:lining-nums tabular-nums diagonal-fractions ordinal;font-feature-settings:normal;text-align:center;writing-mode:lr-tb;text-anchor:middle;opacity:1;vector-effect:none;fill:#000000;fill-opacity:1;stroke:none;stroke-width:0.05291667;stroke-linecap:round;stroke-linejoin:bevel;stroke-miterlimit:4;stroke-dasharray:none;stroke-dashoffset:0;stroke-opacity:1;marker:none"
       id="text4591">
      <path
         d="m 153.76305,81.229785 h 0.68213 v -2.354378 l -0.74208,0.148828 v -0.380339 l 0.73794,-0.148828 h 0.41755 v 2.734717 h 0.68213 v 0.351399 h -1.77767 z"
         style="fill:#000000;fill-opacity:1;stroke-width:0.05291667"
         id="path4641"
         inkscape:connector-curvature="0" />
      <path
         d="m 157.27911,78.769987 q -0.32246,0 -0.48576,0.318326 -0.16123,0.31626 -0.16123,0.952914 0,0.634586 0.16123,0.952913 0.1633,0.31626 0.48576,0.31626 0.32453,0 0.48576,-0.31626 0.1633,-0.318327 0.1633,-0.952913 0,-0.636654 -0.1633,-0.952914 -0.16123,-0.318326 -0.48576,-0.318326 z m 0,-0.33073 q 0.51883,0 0.79169,0.411345 0.27491,0.409277 0.27491,1.190625 0,0.77928 -0.27491,1.190625 -0.27286,0.409277 -0.79169,0.409277 -0.51883,0 -0.79375,-0.409277 -0.27285,-0.411345 -0.27285,-1.190625 0,-0.781348 0.27285,-1.190625 0.27492,-0.411345 0.79375,-0.411345 z"
         style="fill:#000000;fill-opacity:1;stroke-width:0.05291667"
         id="path4643"
         inkscape:connector-curvature="0" />
      <path
         d="m 159.97456,78.769987 q -0.32247,0 -0.48576,0.318326 -0.16123,0.31626 -0.16123,0.952914 0,0.634586 0.16123,0.952913 0.16329,0.31626 0.48576,0.31626 0.32452,0 0.48575,-0.31626 0.1633,-0.318327 0.1633,-0.952913 0,-0.636654 -0.1633,-0.952914 -0.16123,-0.318326 -0.48575,-0.318326 z m 0,-0.33073 q 0.51883,0 0.79168,0.411345 0.27492,0.409277 0.27492,1.190625 0,0.77928 -0.27492,1.190625 -0.27285,0.409277 -0.79168,0.409277 -0.51884,0 -0.79375,-0.409277 -0.27286,-0.411345 -0.27286,-1.190625 0,-0.781348 0.27286,-1.190625 0.27491,-0.411345 0.79375,-0.411345 z"
         style="fill:#000000;fill-opacity:1;stroke-width:0.05291667"
         id="path4645"
         inkscape:connector-curvature="0" />
      <path
         d="m 164.40219,80.223128 q -0.17983,0 -0.28318,0.152962 -0.10129,0.152962 -0.10129,0.425814 0,0.268717 0.10129,0.423747 0.10335,0.152962 0.28318,0.152962 0.1757,0 0.27699,-0.152962 0.10335,-0.15503 0.10335,-0.423747 0,-0.270785 -0.10335,-0.423747 -0.10129,-0.155029 -0.27699,-0.155029 z m 0,-0.262516 q 0.3266,0 0.51883,0.227376 0.19224,0.227376 0.19224,0.613916 0,0.38654 -0.1943,0.613916 -0.19224,0.225309 -0.51677,0.225309 -0.33073,0 -0.52296,-0.225309 -0.19224,-0.227376 -0.19224,-0.613916 0,-0.388607 0.19224,-0.613916 0.1943,-0.227376 0.52296,-0.227376 z m -2.1332,-1.258838 q -0.17777,0 -0.28112,0.155029 -0.10129,0.152962 -0.10129,0.42168 0,0.272851 0.10129,0.425813 0.10129,0.152963 0.28112,0.152963 0.17983,0 0.28112,-0.152963 0.10335,-0.152962 0.10335,-0.425813 0,-0.266651 -0.10335,-0.42168 -0.10335,-0.155029 -0.28112,-0.155029 z m 1.86655,-0.262517 h 0.33073 l -1.93063,3.201872 h -0.33073 z m -1.86655,0 q 0.32659,0 0.5209,0.227377 0.1943,0.225309 0.1943,0.611849 0,0.390673 -0.1943,0.615983 -0.19224,0.225309 -0.5209,0.225309 -0.32866,0 -0.5209,-0.225309 -0.19017,-0.227377 -0.19017,-0.615983 0,-0.384473 0.19224,-0.611849 0.19223,-0.227377 0.51883,-0.227377 z"
         style="fill:#000000;fill-opacity:1;stroke-width:0.05291667"
         id="path4647"
         inkscape:connector-curvature="0" />
      <path
         d="m 168.76575,81.581184 v -1.265039 h -0.86196 q -0.38447,0 -0.61392,-0.239778 -0.22944,-0.241846 -0.22944,-0.733806 v -0.847493 h 0.41548 v 0.814421 q 0,0.328662 0.12815,0.491959 0.12816,0.163298 0.38448,0.163298 h 0.77721 v -1.469678 h 0.41961 v 3.086116 z"
         style="fill:#000000;fill-opacity:1;stroke-width:0.05291667"
         id="path4649"
         inkscape:connector-curvature="0" />
      <path
         d="m 171.98002,80.328548 v 0.186035 h -1.74873 q 0.0248,0.392741 0.23565,0.599446 0.21291,0.204639 0.59118,0.204639 0.21911,0 0.42374,-0.05374 0.20671,-0.05374 0.40928,-0.161231 v 0.359668 q -0.20464,0.08682 -0.41961,0.132292 -0.21498,0.04548 -0.43615,0.04548 -0.55397,0 -0.8785,-0.322461 -0.32246,-0.322461 -0.32246,-0.872298 0,-0.568441 0.30592,-0.901237 0.308,-0.334863 0.82889,-0.334863 0.46716,0 0.73794,0.30179 0.27285,0.299723 0.27285,0.816488 z m -0.38033,-0.111621 q -0.004,-0.312126 -0.1757,-0.498161 -0.1695,-0.186035 -0.45062,-0.186035 -0.31833,0 -0.51057,0.179834 -0.19016,0.179834 -0.2191,0.506429 z"
         style="fill:#000000;fill-opacity:1;stroke-width:0.05291667"
         id="path4651"
         inkscape:connector-curvature="0" />
      <path
         d="m 172.97221,81.233919 v 1.227832 h -0.3824 V 79.26608 h 0.3824 v 0.3514 q 0.11989,-0.206706 0.30179,-0.305924 0.18397,-0.101286 0.43822,-0.101286 0.42168,0 0.68419,0.334863 0.26459,0.334863 0.26459,0.880566 0,0.545704 -0.26459,0.880567 -0.26251,0.334863 -0.68419,0.334863 -0.25425,0 -0.43822,-0.09922 -0.1819,-0.101286 -0.30179,-0.307991 z m 1.29398,-0.80822 q 0,-0.419612 -0.17363,-0.657324 -0.17157,-0.239778 -0.47336,-0.239778 -0.30179,0 -0.47542,0.239778 -0.17157,0.237712 -0.17157,0.657324 0,0.419613 0.17157,0.659392 0.17363,0.237711 0.47542,0.237711 0.30179,0 0.47336,-0.237711 0.17363,-0.239779 0.17363,-0.659392 z"
         style="fill:#000000;fill-opacity:1;stroke-width:0.05291667"
         id="path4653"
         inkscape:connector-curvature="0" />
    </g>
    <g
       aria-label="0% Зелений"
       style="font-style:normal;font-variant:normal;font-weight:normal;font-stretch:normal;font-size:4.93888903px;font-family:Lato;-inkscape-font-specification:Lato;font-variant-ligatures:discretionary-ligatures historical-ligatures;font-variant-position:normal;font-variant-caps:normal;font-variant-numeric:lining-nums tabular-nums diagonal-fractions ordinal;font-feature-settings:normal;text-align:end;writing-mode:lr-tb;text-anchor:end;opacity:1;vector-effect:none;fill:#000000;fill-opacity:1;stroke:none;stroke-width:0.05291667;stroke-linecap:round;stroke-linejoin:bevel;stroke-miterlimit:4;stroke-dasharray:none;stroke-dashoffset:0;stroke-opacity:1;marker:none"
       id="text4595">
      <path
         d="m 36.640899,91.00145 q -0.376204,0 -0.566718,0.371382 -0.188102,0.368969 -0.188102,1.111732 0,0.740351 0.188102,1.111732 0.190514,0.36897 0.566718,0.36897 0.378616,0 0.566718,-0.36897 0.190514,-0.371381 0.190514,-1.111732 0,-0.742763 -0.190514,-1.111732 -0.188102,-0.371382 -0.566718,-0.371382 z m 0,-0.38585 q 0.605303,0 0.92363,0.479901 0.320739,0.477491 0.320739,1.389063 0,0.909161 -0.320739,1.389063 -0.318327,0.47749 -0.92363,0.47749 -0.605303,0 -0.926042,-0.47749 -0.318326,-0.479902 -0.318326,-1.389063 0,-0.911572 0.318326,-1.389063 0.320739,-0.479901 0.926042,-0.479901 z"
         style="text-align:end;text-anchor:end;fill:#000000;fill-opacity:1;stroke-width:0.05291667"
         id="path4622"
         inkscape:connector-curvature="0" />
      <path
         d="m 41.806476,92.696782 q -0.209807,0 -0.330385,0.178456 -0.118167,0.178456 -0.118167,0.496783 0,0.313503 0.118167,0.494371 0.120578,0.178456 0.330385,0.178456 0.204983,0 0.32315,-0.178456 0.120578,-0.180868 0.120578,-0.494371 0,-0.315916 -0.120578,-0.494372 -0.118167,-0.180867 -0.32315,-0.180867 z m 0,-0.306269 q 0.381027,0 0.605303,0.265272 0.224276,0.265273 0.224276,0.716236 0,0.450963 -0.226688,0.716235 -0.224275,0.262861 -0.602891,0.262861 -0.385851,0 -0.610127,-0.262861 -0.224276,-0.265272 -0.224276,-0.716235 0,-0.453375 0.224276,-0.716236 0.226687,-0.265272 0.610127,-0.265272 z m -2.488737,-1.468644 q -0.207395,0 -0.327974,0.180867 -0.118166,0.178456 -0.118166,0.49196 0,0.318327 0.118166,0.496783 0.118167,0.178456 0.327974,0.178456 0.209806,0 0.327973,-0.178456 0.120578,-0.178456 0.120578,-0.496783 0,-0.311092 -0.120578,-0.49196 -0.120579,-0.180867 -0.327973,-0.180867 z M 41.495383,90.6156 h 0.385851 l -2.252403,3.735517 H 39.24298 Z m -2.177644,0 q 0.381027,0 0.607714,0.265272 0.226688,0.262861 0.226688,0.713824 0,0.455786 -0.226688,0.718647 -0.224275,0.262861 -0.607714,0.262861 -0.38344,0 -0.607715,-0.262861 -0.221864,-0.265273 -0.221864,-0.718647 0,-0.448552 0.224275,-0.713824 0.224276,-0.265272 0.605304,-0.265272 z"
         style="text-align:end;text-anchor:end;fill:#000000;fill-opacity:1;stroke-width:0.05291667"
         id="path4624"
         inkscape:connector-curvature="0" />
      <path
         d="m 45.896493,90.6156 q 0.593246,0 0.96945,0.253214 0.376205,0.250803 0.376205,0.680062 0,0.299034 -0.171221,0.506429 -0.171222,0.204983 -0.487137,0.284565 0.349677,0.07476 0.545014,0.311092 0.197749,0.236334 0.197749,0.583599 0,0.554661 -0.429259,0.836814 -0.426848,0.279742 -1.000801,0.279742 -0.294211,0 -0.636653,-0.07958 -0.342443,-0.07958 -0.448552,-0.147106 v -0.501605 q 0.36897,0.214629 0.571542,0.267683 0.204983,0.05064 0.504017,0.05064 0.453375,0 0.704178,-0.173632 0.250803,-0.173633 0.250803,-0.532957 0,-0.318327 -0.224276,-0.496782 -0.221864,-0.180868 -0.69212,-0.180868 h -0.491959 v -0.40032 h 0.511252 q 0.43167,0 0.622184,-0.142283 0.190514,-0.144694 0.190514,-0.414789 0,-0.27733 -0.197749,-0.424436 -0.195337,-0.149517 -0.672827,-0.149517 -0.32315,0 -0.434082,0.02894 -0.110932,0.02894 -0.605303,0.214629 v -0.475078 q 0.272507,-0.09646 0.557072,-0.13746 0.284565,-0.041 0.491959,-0.041 z"
         style="text-align:end;text-anchor:end;fill:#000000;fill-opacity:1;stroke-width:0.05291667"
         id="path4626"
         inkscape:connector-curvature="0" />
      <path
         d="m 50.425416,92.819772 v 0.217041 H 48.38523 q 0.02894,0.458198 0.274919,0.699354 0.248391,0.238745 0.689708,0.238745 0.255626,0 0.494371,-0.0627 0.241157,-0.0627 0.477491,-0.188103 v 0.419613 q -0.238745,0.101286 -0.489548,0.15434 -0.250803,0.05306 -0.508841,0.05306 -0.6463,0 -1.024916,-0.376205 -0.376204,-0.376204 -0.376204,-1.017681 0,-0.663181 0.356912,-1.051443 0.359323,-0.390674 0.967038,-0.390674 0.545014,0 0.860929,0.352089 0.318327,0.349677 0.318327,0.952569 z m -0.443728,-0.130225 q -0.0048,-0.364146 -0.204983,-0.581187 -0.197749,-0.217041 -0.525722,-0.217041 -0.371381,0 -0.595657,0.209806 -0.221864,0.209806 -0.255626,0.590834 z"
         style="text-align:end;text-anchor:end;fill:#000000;fill-opacity:1;stroke-width:0.05291667"
         id="path4628"
         inkscape:connector-curvature="0" />
      <path
         d="m 50.871556,94.281181 v -0.368969 q 0.438905,-0.06752 0.573953,-0.371382 0.163986,-0.426847 0.163986,-1.519287 v -0.441317 h 1.825556 v 2.700955 h -0.443728 v -2.346454 h -0.938099 v 0.267684 q 0,1.041797 -0.212218,1.509641 -0.226688,0.499194 -0.96945,0.569129 z"
         style="text-align:end;text-anchor:end;fill:#000000;fill-opacity:1;stroke-width:0.05291667"
         id="path4630"
         inkscape:connector-curvature="0" />
      <path
         d="m 56.61832,92.819772 v 0.217041 h -2.040186 q 0.02894,0.458198 0.274919,0.699354 0.248391,0.238745 0.689708,0.238745 0.255626,0 0.494371,-0.0627 0.241157,-0.0627 0.47749,-0.188103 v 0.419613 q -0.238745,0.101286 -0.489548,0.15434 -0.250803,0.05306 -0.50884,0.05306 -0.6463,0 -1.024916,-0.376205 -0.376205,-0.376204 -0.376205,-1.017681 0,-0.663181 0.356912,-1.051443 0.359324,-0.390674 0.967038,-0.390674 0.545014,0 0.86093,0.352089 0.318327,0.349677 0.318327,0.952569 z m -0.443729,-0.130225 q -0.0048,-0.364146 -0.204983,-0.581187 -0.197748,-0.217041 -0.525722,-0.217041 -0.371381,0 -0.595657,0.209806 -0.221864,0.209806 -0.255626,0.590834 z"
         style="text-align:end;text-anchor:end;fill:#000000;fill-opacity:1;stroke-width:0.05291667"
         id="path4632"
         inkscape:connector-curvature="0" />
      <path
         d="m 57.329732,91.580226 h 0.44614 v 1.102086 h 1.439705 v -1.102086 h 0.44614 v 2.700955 h -0.44614 v -1.244368 h -1.439705 v 1.244368 h -0.44614 z"
         style="text-align:end;text-anchor:end;fill:#000000;fill-opacity:1;stroke-width:0.05291667"
         id="path4634"
         inkscape:connector-curvature="0" />
      <path
         d="m 62.873923,91.580226 v 2.700955 h -0.441317 v -2.167998 l -1.302246,2.167998 h -0.56913 v -2.700955 h 0.441317 v 2.163176 l 1.299835,-2.163176 z"
         style="text-align:end;text-anchor:end;fill:#000000;fill-opacity:1;stroke-width:0.05291667"
         id="path4636"
         inkscape:connector-curvature="0" />
      <path
         d="m 66.086131,91.580226 v 2.700955 h -0.441317 v -2.167998 l -1.302246,2.167998 h -0.56913 v -2.700955 h 0.441317 v 2.163176 L 65.51459,91.580226 Z M 64.17617,90.528783 h 0.284565 q 0.02653,0.180868 0.142282,0.272507 0.118167,0.08923 0.327973,0.08923 0.207395,0 0.32315,-0.08923 0.115756,-0.08923 0.147106,-0.272507 h 0.284565 q -0.02412,0.344854 -0.21463,0.518487 -0.190513,0.173633 -0.540191,0.173633 -0.349677,0 -0.540191,-0.173633 -0.190513,-0.173633 -0.214629,-0.518487 z"
         style="text-align:end;text-anchor:end;fill:#000000;fill-opacity:1;stroke-width:0.05291667"
         id="path4638"
         inkscape:connector-curvature="0" />
    </g>
    <rect
       y="103.85417"
       x="68.791664"
       height="21.166666"
       width="21.16667"
       id="rect4630"
       style="opacity:1;vector-effect:none;fill:#004400;fill-opacity:1;stroke:none;stroke-width:0.05291667;stroke-linecap:round;stroke-linejoin:bevel;stroke-miterlimit:4;stroke-dasharray:none;stroke-dashoffset:0;stroke-opacity:1;marker:none" />
    <rect
       style="opacity:1;vector-effect:none;fill:#444400;fill-opacity:1;stroke:none;stroke-width:0.05291667;stroke-linecap:round;stroke-linejoin:bevel;stroke-miterlimit:4;stroke-dasharray:none;stroke-dashoffset:0;stroke-opacity:1;marker:none"
       id="rect4632"
       width="21.16667"
       height="21.166666"
       x="89.958336"
       y="103.85417" />
    <rect
       y="103.85416"
       x="111.125"
       height="21.166666"
       width="21.16667"
       id="rect4634"
       style="opacity:1;vector-effect:none;fill:#884400;fill-opacity:1;stroke:none;stroke-width:0.05291667;stroke-linecap:round;stroke-linejoin:bevel;stroke-miterlimit:4;stroke-dasharray:none;stroke-dashoffset:0;stroke-opacity:1;marker:none" />
    <rect
       style="opacity:1;vector-effect:none;fill:#bb4400;fill-opacity:1;stroke:none;stroke-width:0.05291667;stroke-linecap:round;stroke-linejoin:bevel;stroke-miterlimit:4;stroke-dasharray:none;stroke-dashoffset:0;stroke-opacity:1;marker:none"
       id="rect4636"
       width="21.16667"
       height="21.166666"
       x="132.29166"
       y="103.85416" />
    <rect
       y="103.85416"
       x="153.45833"
       height="21.166666"
       width="21.16667"
       id="rect4638"
       style="opacity:1;vector-effect:none;fill:#ff4400;fill-opacity:1;stroke:none;stroke-width:0.05291667;stroke-linecap:round;stroke-linejoin:bevel;stroke-miterlimit:4;stroke-dasharray:none;stroke-dashoffset:0;stroke-opacity:1;marker:none" />
    <g
       aria-label="25% Зелений"
       style="font-style:normal;font-variant:normal;font-weight:normal;font-stretch:normal;font-size:4.93888903px;font-family:Lato;-inkscape-font-specification:Lato;font-variant-ligatures:discretionary-ligatures historical-ligatures;font-variant-position:normal;font-variant-caps:normal;font-variant-numeric:lining-nums tabular-nums diagonal-fractions ordinal;font-feature-settings:normal;text-align:end;writing-mode:lr-tb;text-anchor:end;opacity:1;vector-effect:none;fill:#000000;fill-opacity:1;stroke:none;stroke-width:0.05291667;stroke-linecap:round;stroke-linejoin:bevel;stroke-miterlimit:4;stroke-dasharray:none;stroke-dashoffset:0;stroke-opacity:1;marker:none"
       id="text4642">
      <path
         d="m 32.874032,115.03787 h 1.700154 v 0.40997 h -2.286165 v -0.40997 q 0.27733,-0.28698 0.75482,-0.76929 0.479902,-0.48472 0.602892,-0.62459 0.233922,-0.26287 0.325562,-0.44373 0.09405,-0.18328 0.09405,-0.35933 0,-0.28697 -0.202572,-0.46784 -0.20016,-0.18087 -0.52331,-0.18087 -0.229099,0 -0.484725,0.0796 -0.253214,0.0796 -0.542602,0.24116 V 112.021 q 0.294211,-0.11817 0.549837,-0.17845 0.255626,-0.0603 0.467844,-0.0603 0.559483,0 0.89228,0.27974 0.332796,0.27974 0.332796,0.74758 0,0.22187 -0.0844,0.42203 -0.08199,0.19775 -0.301446,0.46784 -0.06029,0.0699 -0.383439,0.40515 -0.32315,0.33279 -0.911572,0.93327 z"
         style="text-align:end;text-anchor:end;fill:#000000;fill-opacity:1;stroke-width:0.05291667"
         id="path4601"
         inkscape:connector-curvature="0" />
      <path
         d="m 35.603926,111.84737 h 1.912372 v 0.40996 h -1.466233 v 0.88264 q 0.106109,-0.0362 0.212218,-0.0531 0.106109,-0.0193 0.212218,-0.0193 0.602892,0 0.954981,0.33039 0.352088,0.33038 0.352088,0.89469 0,0.58118 -0.361735,0.90433 -0.361735,0.32074 -1.020092,0.32074 -0.226688,0 -0.463021,-0.0386 -0.233922,-0.0386 -0.484725,-0.11576 v -0.48955 q 0.217041,0.11817 0.448551,0.17605 0.231511,0.0579 0.489548,0.0579 0.417201,0 0.66077,-0.21946 0.243568,-0.21945 0.243568,-0.59565 0,-0.37621 -0.243568,-0.59566 -0.243569,-0.21945 -0.66077,-0.21945 -0.195337,0 -0.390674,0.0434 -0.192925,0.0434 -0.395496,0.13504 z"
         style="text-align:end;text-anchor:end;fill:#000000;fill-opacity:1;stroke-width:0.05291667"
         id="path4603"
         inkscape:connector-curvature="0" />
      <path
         d="m 41.806476,113.86344 q -0.209807,0 -0.330385,0.17845 -0.118167,0.17846 -0.118167,0.49679 0,0.3135 0.118167,0.49437 0.120578,0.17845 0.330385,0.17845 0.204983,0 0.32315,-0.17845 0.120578,-0.18087 0.120578,-0.49437 0,-0.31592 -0.120578,-0.49437 -0.118167,-0.18087 -0.32315,-0.18087 z m 0,-0.30627 q 0.381027,0 0.605303,0.26527 0.224276,0.26527 0.224276,0.71624 0,0.45096 -0.226688,0.71623 -0.224275,0.26286 -0.602891,0.26286 -0.385851,0 -0.610127,-0.26286 -0.224275,-0.26527 -0.224275,-0.71623 0,-0.45338 0.224275,-0.71624 0.226688,-0.26527 0.610127,-0.26527 z m -2.488737,-1.46864 q -0.207395,0 -0.327973,0.18086 -0.118167,0.17846 -0.118167,0.49196 0,0.31833 0.118167,0.49679 0.118166,0.17845 0.327973,0.17845 0.209806,0 0.327973,-0.17845 0.120578,-0.17846 0.120578,-0.49679 0,-0.31109 -0.120578,-0.49196 -0.120579,-0.18086 -0.327973,-0.18086 z m 2.177645,-0.30627 h 0.38585 l -2.252403,3.73551 H 39.24298 Z m -2.177645,0 q 0.381027,0 0.607715,0.26527 0.226687,0.26286 0.226687,0.71382 0,0.45579 -0.226687,0.71865 -0.224276,0.26286 -0.607715,0.26286 -0.383439,0 -0.607715,-0.26286 -0.221864,-0.26527 -0.221864,-0.71865 0,-0.44855 0.224275,-0.71382 0.224276,-0.26527 0.605304,-0.26527 z"
         style="text-align:end;text-anchor:end;fill:#000000;fill-opacity:1;stroke-width:0.05291667"
         id="path4605"
         inkscape:connector-curvature="0" />
      <path
         d="m 45.896493,111.78226 q 0.593246,0 0.96945,0.25321 0.376204,0.2508 0.376204,0.68006 0,0.29904 -0.171221,0.50643 -0.171221,0.20498 -0.487136,0.28457 0.349677,0.0748 0.545014,0.31109 0.197748,0.23633 0.197748,0.5836 0,0.55466 -0.429259,0.83681 -0.426847,0.27974 -1.0008,0.27974 -0.294211,0 -0.636654,-0.0796 -0.342442,-0.0796 -0.448551,-0.1471 v -0.50161 q 0.36897,0.21463 0.571541,0.26768 0.204984,0.0507 0.504018,0.0507 0.453374,0 0.704177,-0.17364 0.250803,-0.17363 0.250803,-0.53295 0,-0.31833 -0.224275,-0.49678 -0.221865,-0.18087 -0.69212,-0.18087 h -0.49196 v -0.40032 h 0.511252 q 0.431671,0 0.622185,-0.14229 0.190513,-0.14469 0.190513,-0.41478 0,-0.27733 -0.197748,-0.42444 -0.195337,-0.14952 -0.672827,-0.14952 -0.32315,0 -0.434082,0.0289 -0.110932,0.0289 -0.605303,0.21463 v -0.47508 q 0.272507,-0.0965 0.557071,-0.13746 0.284565,-0.041 0.49196,-0.041 z"
         style="text-align:end;text-anchor:end;fill:#000000;fill-opacity:1;stroke-width:0.05291667"
         id="path4607"
         inkscape:connector-curvature="0" />
      <path
         d="m 50.425416,113.98643 v 0.21704 H 48.38523 q 0.02894,0.4582 0.274919,0.69935 0.248391,0.23875 0.689708,0.23875 0.255626,0 0.494371,-0.0627 0.241157,-0.0627 0.47749,-0.1881 v 0.41961 q -0.238745,0.10128 -0.489548,0.15434 -0.250803,0.053 -0.50884,0.053 -0.6463,0 -1.024916,-0.3762 -0.376205,-0.37621 -0.376205,-1.01768 0,-0.66318 0.356912,-1.05145 0.359324,-0.39067 0.967038,-0.39067 0.545015,0 0.86093,0.35209 0.318327,0.34968 0.318327,0.95257 z m -0.443729,-0.13023 q -0.0048,-0.36414 -0.204983,-0.58118 -0.197748,-0.21704 -0.525721,-0.21704 -0.371382,0 -0.595657,0.2098 -0.221865,0.20981 -0.255627,0.59084 z"
         style="text-align:end;text-anchor:end;fill:#000000;fill-opacity:1;stroke-width:0.05291667"
         id="path4609"
         inkscape:connector-curvature="0" />
      <path
         d="m 50.871556,115.44784 v -0.36897 q 0.438906,-0.0675 0.573953,-0.37138 0.163987,-0.42685 0.163987,-1.51929 v -0.44132 h 1.825556 v 2.70096 h -0.443728 v -2.34646 h -0.9381 v 0.26769 q 0,1.04179 -0.212218,1.50964 -0.226687,0.49919 -0.96945,0.56913 z"
         style="text-align:end;text-anchor:end;fill:#000000;fill-opacity:1;stroke-width:0.05291667"
         id="path4611"
         inkscape:connector-curvature="0" />
      <path
         d="m 56.61832,113.98643 v 0.21704 h -2.040185 q 0.02894,0.4582 0.274918,0.69935 0.248392,0.23875 0.689708,0.23875 0.255626,0 0.494372,-0.0627 0.241156,-0.0627 0.47749,-0.1881 v 0.41961 q -0.238745,0.10128 -0.489548,0.15434 -0.250803,0.053 -0.508841,0.053 -0.6463,0 -1.024916,-0.3762 -0.376204,-0.37621 -0.376204,-1.01768 0,-0.66318 0.356912,-1.05145 0.359323,-0.39067 0.967038,-0.39067 0.545014,0 0.860929,0.35209 0.318327,0.34968 0.318327,0.95257 z m -0.443728,-0.13023 q -0.0048,-0.36414 -0.204983,-0.58118 -0.197749,-0.21704 -0.525722,-0.21704 -0.371381,0 -0.595657,0.2098 -0.221864,0.20981 -0.255626,0.59084 z"
         style="text-align:end;text-anchor:end;fill:#000000;fill-opacity:1;stroke-width:0.05291667"
         id="path4613"
         inkscape:connector-curvature="0" />
      <path
         d="m 57.329732,112.74688 h 0.44614 v 1.10209 h 1.439706 v -1.10209 h 0.44614 v 2.70096 h -0.44614 v -1.24437 h -1.439706 v 1.24437 h -0.44614 z"
         style="text-align:end;text-anchor:end;fill:#000000;fill-opacity:1;stroke-width:0.05291667"
         id="path4615"
         inkscape:connector-curvature="0" />
      <path
         d="m 62.873924,112.74688 v 2.70096 h -0.441317 v -2.168 l -1.302246,2.168 h -0.56913 v -2.70096 h 0.441317 v 2.16318 l 1.299834,-2.16318 z"
         style="text-align:end;text-anchor:end;fill:#000000;fill-opacity:1;stroke-width:0.05291667"
         id="path4617"
         inkscape:connector-curvature="0" />
      <path
         d="m 66.086132,112.74688 v 2.70096 h -0.441317 v -2.168 l -1.302246,2.168 h -0.56913 v -2.70096 h 0.441317 v 2.16318 l 1.299834,-2.16318 z m -1.909961,-1.05144 h 0.284564 q 0.02653,0.18087 0.142283,0.27251 0.118167,0.0892 0.327973,0.0892 0.207395,0 0.32315,-0.0892 0.115755,-0.0892 0.147105,-0.27251 h 0.284565 q -0.02411,0.34485 -0.214629,0.51849 -0.190514,0.17363 -0.540191,0.17363 -0.349677,0 -0.540191,-0.17363 -0.190514,-0.17364 -0.214629,-0.51849 z"
         style="text-align:end;text-anchor:end;fill:#000000;fill-opacity:1;stroke-width:0.05291667"
         id="path4619"
         inkscape:connector-curvature="0" />
    </g>
    <rect
       style="opacity:1;vector-effect:none;fill:#008800;fill-opacity:1;stroke:none;stroke-width:0.05291667;stroke-linecap:round;stroke-linejoin:bevel;stroke-miterlimit:4;stroke-dasharray:none;stroke-dashoffset:0;stroke-opacity:1;marker:none"
       id="rect4644"
       width="21.16667"
       height="21.166666"
       x="68.791664"
       y="125.02082" />
    <rect
       y="125.02082"
       x="89.958328"
       height="21.166666"
       width="21.16667"
       id="rect4646"
       style="opacity:1;vector-effect:none;fill:#448800;fill-opacity:1;stroke:none;stroke-width:0.05291667;stroke-linecap:round;stroke-linejoin:bevel;stroke-miterlimit:4;stroke-dasharray:none;stroke-dashoffset:0;stroke-opacity:1;marker:none" />
    <rect
       style="opacity:1;vector-effect:none;fill:#888800;fill-opacity:1;stroke:none;stroke-width:0.05291667;stroke-linecap:round;stroke-linejoin:bevel;stroke-miterlimit:4;stroke-dasharray:none;stroke-dashoffset:0;stroke-opacity:1;marker:none"
       id="rect4648"
       width="21.16667"
       height="21.166666"
       x="111.125"
       y="125.02082" />
    <rect
       y="125.02082"
       x="132.29166"
       height="21.166666"
       width="21.16667"
       id="rect4650"
       style="opacity:1;vector-effect:none;fill:#bb8800;fill-opacity:1;stroke:none;stroke-width:0.05291667;stroke-linecap:round;stroke-linejoin:bevel;stroke-miterlimit:4;stroke-dasharray:none;stroke-dashoffset:0;stroke-opacity:1;marker:none" />
    <rect
       style="opacity:1;vector-effect:none;fill:#ff8800;fill-opacity:1;stroke:none;stroke-width:0.05291667;stroke-linecap:round;stroke-linejoin:bevel;stroke-miterlimit:4;stroke-dasharray:none;stroke-dashoffset:0;stroke-opacity:1;marker:none"
       id="rect4652"
       width="21.16667"
       height="21.166666"
       x="153.45833"
       y="125.02082" />
    <g
       aria-label="50% Зелений"
       style="font-style:normal;font-variant:normal;font-weight:normal;font-stretch:normal;font-size:4.93888903px;font-family:Lato;-inkscape-font-specification:Lato;font-variant-ligatures:discretionary-ligatures historical-ligatures;font-variant-position:normal;font-variant-caps:normal;font-variant-numeric:lining-nums tabular-nums diagonal-fractions ordinal;font-feature-settings:normal;text-align:end;writing-mode:lr-tb;text-anchor:end;opacity:1;vector-effect:none;fill:#000000;fill-opacity:1;stroke:none;stroke-width:0.05291667;stroke-linecap:round;stroke-linejoin:bevel;stroke-miterlimit:4;stroke-dasharray:none;stroke-dashoffset:0;stroke-opacity:1;marker:none"
       id="text4656">
      <path
         d="m 32.459242,133.014 h 1.912373 v 0.40997 h -1.466233 v 0.88263 q 0.106109,-0.0362 0.212218,-0.0531 0.106109,-0.0193 0.212218,-0.0193 0.602892,0 0.95498,0.33039 0.352089,0.33038 0.352089,0.89469 0,0.58119 -0.361735,0.90434 -0.361735,0.32074 -1.020093,0.32074 -0.226687,0 -0.463021,-0.0386 -0.233922,-0.0386 -0.484725,-0.11575 v -0.48955 q 0.217041,0.11817 0.448552,0.17604 0.23151,0.0579 0.489548,0.0579 0.417201,0 0.660769,-0.21945 0.243569,-0.21945 0.243569,-0.59566 0,-0.3762 -0.243569,-0.59566 -0.243568,-0.21945 -0.660769,-0.21945 -0.195337,0 -0.390674,0.0434 -0.192925,0.0434 -0.395497,0.13505 z"
         style="text-align:end;text-anchor:end;fill:#000000;fill-opacity:1;stroke-width:0.05291667"
         id="path4580"
         inkscape:connector-curvature="0" />
      <path
         d="m 36.640899,133.33474 q -0.376204,0 -0.566718,0.37138 -0.188102,0.36897 -0.188102,1.11173 0,0.74036 0.188102,1.11174 0.190514,0.36897 0.566718,0.36897 0.378616,0 0.566719,-0.36897 0.190513,-0.37138 0.190513,-1.11174 0,-0.74276 -0.190513,-1.11173 -0.188103,-0.37138 -0.566719,-0.37138 z m 0,-0.38585 q 0.605304,0 0.92363,0.4799 0.320739,0.47749 0.320739,1.38906 0,0.90916 -0.320739,1.38907 -0.318326,0.47749 -0.92363,0.47749 -0.605303,0 -0.926041,-0.47749 -0.318327,-0.47991 -0.318327,-1.38907 0,-0.91157 0.318327,-1.38906 0.320738,-0.4799 0.926041,-0.4799 z"
         style="text-align:end;text-anchor:end;fill:#000000;fill-opacity:1;stroke-width:0.05291667"
         id="path4582"
         inkscape:connector-curvature="0" />
      <path
         d="m 41.806476,135.03007 q -0.209807,0 -0.330385,0.17846 -0.118167,0.17845 -0.118167,0.49678 0,0.3135 0.118167,0.49437 0.120578,0.17846 0.330385,0.17846 0.204983,0 0.32315,-0.17846 0.120578,-0.18087 0.120578,-0.49437 0,-0.31591 -0.120578,-0.49437 -0.118167,-0.18087 -0.32315,-0.18087 z m 0,-0.30627 q 0.381027,0 0.605303,0.26528 0.224276,0.26527 0.224276,0.71623 0,0.45096 -0.226688,0.71624 -0.224275,0.26286 -0.602891,0.26286 -0.385851,0 -0.610127,-0.26286 -0.224275,-0.26528 -0.224275,-0.71624 0,-0.45337 0.224275,-0.71623 0.226688,-0.26528 0.610127,-0.26528 z m -2.488737,-1.46864 q -0.207395,0 -0.327973,0.18087 -0.118167,0.17845 -0.118167,0.49196 0,0.31832 0.118167,0.49678 0.118166,0.17845 0.327973,0.17845 0.209806,0 0.327973,-0.17845 0.120578,-0.17846 0.120578,-0.49678 0,-0.3111 -0.120578,-0.49196 -0.120579,-0.18087 -0.327973,-0.18087 z m 2.177645,-0.30627 h 0.38585 l -2.252403,3.73552 H 39.24298 Z m -2.177645,0 q 0.381027,0 0.607715,0.26527 0.226687,0.26286 0.226687,0.71383 0,0.45578 -0.226687,0.71864 -0.224276,0.26286 -0.607715,0.26286 -0.383439,0 -0.607715,-0.26286 -0.221864,-0.26527 -0.221864,-0.71864 0,-0.44856 0.224275,-0.71383 0.224276,-0.26527 0.605304,-0.26527 z"
         style="text-align:end;text-anchor:end;fill:#000000;fill-opacity:1;stroke-width:0.05291667"
         id="path4584"
         inkscape:connector-curvature="0" />
      <path
         d="m 45.896493,132.94889 q 0.593246,0 0.96945,0.25321 0.376204,0.25081 0.376204,0.68007 0,0.29903 -0.171221,0.50643 -0.171221,0.20498 -0.487136,0.28456 0.349677,0.0748 0.545014,0.31109 0.197748,0.23634 0.197748,0.5836 0,0.55466 -0.429259,0.83682 -0.426847,0.27974 -1.0008,0.27974 -0.294211,0 -0.636654,-0.0796 -0.342442,-0.0796 -0.448551,-0.14711 v -0.50161 q 0.36897,0.21463 0.571541,0.26769 0.204984,0.0506 0.504018,0.0506 0.453374,0 0.704177,-0.17363 0.250803,-0.17364 0.250803,-0.53296 0,-0.31833 -0.224275,-0.49678 -0.221865,-0.18087 -0.69212,-0.18087 h -0.49196 v -0.40032 h 0.511252 q 0.431671,0 0.622185,-0.14228 0.190513,-0.1447 0.190513,-0.41479 0,-0.27733 -0.197748,-0.42444 -0.195337,-0.14951 -0.672827,-0.14951 -0.32315,0 -0.434082,0.0289 -0.110932,0.0289 -0.605303,0.21463 v -0.47507 q 0.272507,-0.0965 0.557071,-0.13746 0.284565,-0.041 0.49196,-0.041 z"
         style="text-align:end;text-anchor:end;fill:#000000;fill-opacity:1;stroke-width:0.05291667"
         id="path4586"
         inkscape:connector-curvature="0" />
      <path
         d="m 50.425416,135.15306 v 0.21704 H 48.38523 q 0.02894,0.4582 0.274919,0.69936 0.248391,0.23874 0.689708,0.23874 0.255626,0 0.494371,-0.0627 0.241157,-0.0627 0.47749,-0.1881 v 0.41961 q -0.238745,0.10129 -0.489548,0.15434 -0.250803,0.0531 -0.50884,0.0531 -0.6463,0 -1.024916,-0.37621 -0.376205,-0.3762 -0.376205,-1.01768 0,-0.66318 0.356912,-1.05144 0.359324,-0.39068 0.967038,-0.39068 0.545015,0 0.86093,0.35209 0.318327,0.34968 0.318327,0.95257 z m -0.443729,-0.13022 q -0.0048,-0.36415 -0.204983,-0.58119 -0.197748,-0.21704 -0.525721,-0.21704 -0.371382,0 -0.595657,0.2098 -0.221865,0.20981 -0.255627,0.59084 z"
         style="text-align:end;text-anchor:end;fill:#000000;fill-opacity:1;stroke-width:0.05291667"
         id="path4588"
         inkscape:connector-curvature="0" />
      <path
         d="m 50.871556,136.61447 v -0.36897 q 0.438906,-0.0675 0.573953,-0.37138 0.163987,-0.42685 0.163987,-1.51929 v -0.44131 h 1.825556 v 2.70095 h -0.443728 v -2.34645 h -0.9381 v 0.26768 q 0,1.0418 -0.212218,1.50964 -0.226687,0.4992 -0.96945,0.56913 z"
         style="text-align:end;text-anchor:end;fill:#000000;fill-opacity:1;stroke-width:0.05291667"
         id="path4590"
         inkscape:connector-curvature="0" />
      <path
         d="m 56.61832,135.15306 v 0.21704 h -2.040185 q 0.02894,0.4582 0.274918,0.69936 0.248392,0.23874 0.689708,0.23874 0.255626,0 0.494372,-0.0627 0.241156,-0.0627 0.47749,-0.1881 v 0.41961 q -0.238745,0.10129 -0.489548,0.15434 -0.250803,0.0531 -0.508841,0.0531 -0.6463,0 -1.024916,-0.37621 -0.376204,-0.3762 -0.376204,-1.01768 0,-0.66318 0.356912,-1.05144 0.359323,-0.39068 0.967038,-0.39068 0.545014,0 0.860929,0.35209 0.318327,0.34968 0.318327,0.95257 z m -0.443728,-0.13022 q -0.0048,-0.36415 -0.204983,-0.58119 -0.197749,-0.21704 -0.525722,-0.21704 -0.371381,0 -0.595657,0.2098 -0.221864,0.20981 -0.255626,0.59084 z"
         style="text-align:end;text-anchor:end;fill:#000000;fill-opacity:1;stroke-width:0.05291667"
         id="path4592"
         inkscape:connector-curvature="0" />
      <path
         d="m 57.329732,133.91352 h 0.44614 v 1.10208 h 1.439706 v -1.10208 h 0.44614 v 2.70095 h -0.44614 v -1.24437 h -1.439706 v 1.24437 h -0.44614 z"
         style="text-align:end;text-anchor:end;fill:#000000;fill-opacity:1;stroke-width:0.05291667"
         id="path4594"
         inkscape:connector-curvature="0" />
      <path
         d="m 62.873924,133.91352 v 2.70095 h -0.441317 v -2.168 l -1.302246,2.168 h -0.56913 v -2.70095 h 0.441317 v 2.16317 l 1.299834,-2.16317 z"
         style="text-align:end;text-anchor:end;fill:#000000;fill-opacity:1;stroke-width:0.05291667"
         id="path4596"
         inkscape:connector-curvature="0" />
      <path
         d="m 66.086132,133.91352 v 2.70095 h -0.441317 v -2.168 l -1.302246,2.168 h -0.56913 v -2.70095 h 0.441317 v 2.16317 l 1.299834,-2.16317 z m -1.909961,-1.05145 h 0.284564 q 0.02653,0.18087 0.142283,0.27251 0.118167,0.0892 0.327973,0.0892 0.207395,0 0.32315,-0.0892 0.115755,-0.0892 0.147105,-0.27251 h 0.284565 q -0.02411,0.34486 -0.214629,0.51849 -0.190514,0.17363 -0.540191,0.17363 -0.349677,0 -0.540191,-0.17363 -0.190514,-0.17363 -0.214629,-0.51849 z"
         style="text-align:end;text-anchor:end;fill:#000000;fill-opacity:1;stroke-width:0.05291667"
         id="path4598"
         inkscape:connector-curvature="0" />
    </g>
    <rect
       y="146.18752"
       x="68.791664"
       height="21.166666"
       width="21.16667"
       id="rect4658"
       style="opacity:1;vector-effect:none;fill:#00bb00;fill-opacity:1;stroke:none;stroke-width:0.05291667;stroke-linecap:round;stroke-linejoin:bevel;stroke-miterlimit:4;stroke-dasharray:none;stroke-dashoffset:0;stroke-opacity:1;marker:none" />
    <rect
       style="opacity:1;vector-effect:none;fill:#44bb00;fill-opacity:1;stroke:none;stroke-width:0.05291667;stroke-linecap:round;stroke-linejoin:bevel;stroke-miterlimit:4;stroke-dasharray:none;stroke-dashoffset:0;stroke-opacity:1;marker:none"
       id="rect4660"
       width="21.16667"
       height="21.166666"
       x="89.958328"
       y="146.18752" />
    <rect
       y="146.18752"
       x="111.125"
       height="21.166666"
       width="21.16667"
       id="rect4662"
       style="opacity:1;vector-effect:none;fill:#88bb00;fill-opacity:1;stroke:none;stroke-width:0.05291667;stroke-linecap:round;stroke-linejoin:bevel;stroke-miterlimit:4;stroke-dasharray:none;stroke-dashoffset:0;stroke-opacity:1;marker:none" />
    <rect
       style="opacity:1;vector-effect:none;fill:#bbbb00;fill-opacity:1;stroke:none;stroke-width:0.05291667;stroke-linecap:round;stroke-linejoin:bevel;stroke-miterlimit:4;stroke-dasharray:none;stroke-dashoffset:0;stroke-opacity:1;marker:none"
       id="rect4664"
       width="21.16667"
       height="21.166666"
       x="132.29166"
       y="146.18752" />
    <rect
       y="146.18752"
       x="153.45833"
       height="21.166666"
       width="21.16667"
       id="rect4666"
       style="opacity:1;vector-effect:none;fill:#ffbb00;fill-opacity:1;stroke:none;stroke-width:0.05291667;stroke-linecap:round;stroke-linejoin:bevel;stroke-miterlimit:4;stroke-dasharray:none;stroke-dashoffset:0;stroke-opacity:1;marker:none" />
    <g
       aria-label="75% Зелений"
       style="font-style:normal;font-variant:normal;font-weight:normal;font-stretch:normal;font-size:4.93888903px;font-family:Lato;-inkscape-font-specification:Lato;font-variant-ligatures:discretionary-ligatures historical-ligatures;font-variant-position:normal;font-variant-caps:normal;font-variant-numeric:lining-nums tabular-nums diagonal-fractions ordinal;font-feature-settings:normal;text-align:end;writing-mode:lr-tb;text-anchor:end;opacity:1;vector-effect:none;fill:#000000;fill-opacity:1;stroke:none;stroke-width:0.05291667;stroke-linecap:round;stroke-linejoin:bevel;stroke-miterlimit:4;stroke-dasharray:none;stroke-dashoffset:0;stroke-opacity:1;marker:none"
       id="text4670">
      <path
         d="m 32.331429,154.18069 h 2.315104 v 0.20739 l -1.307069,3.39308 h -0.508841 l 1.2299,-3.1905 h -1.729094 z"
         style="text-align:end;text-anchor:end;fill:#000000;fill-opacity:1;stroke-width:0.05291667"
         id="path4559"
         inkscape:connector-curvature="0" />
      <path
         d="m 35.603926,154.18069 h 1.912372 v 0.40997 h -1.466233 v 0.88263 q 0.106109,-0.0362 0.212218,-0.0531 0.106109,-0.0193 0.212218,-0.0193 0.602892,0 0.954981,0.33039 0.352088,0.33038 0.352088,0.89469 0,0.58119 -0.361735,0.90434 -0.361735,0.32073 -1.020092,0.32073 -0.226688,0 -0.463021,-0.0386 -0.233922,-0.0386 -0.484725,-0.11576 v -0.48954 q 0.217041,0.11816 0.448551,0.17604 0.231511,0.0579 0.489548,0.0579 0.417201,0 0.66077,-0.21946 0.243568,-0.21945 0.243568,-0.59565 0,-0.37621 -0.243568,-0.59566 -0.243569,-0.21945 -0.66077,-0.21945 -0.195337,0 -0.390674,0.0434 -0.192925,0.0434 -0.395496,0.13504 z"
         style="text-align:end;text-anchor:end;fill:#000000;fill-opacity:1;stroke-width:0.05291667"
         id="path4561"
         inkscape:connector-curvature="0" />
      <path
         d="m 41.806476,156.19676 q -0.209807,0 -0.330385,0.17845 -0.118167,0.17846 -0.118167,0.49679 0,0.3135 0.118167,0.49437 0.120578,0.17845 0.330385,0.17845 0.204983,0 0.32315,-0.17845 0.120578,-0.18087 0.120578,-0.49437 0,-0.31592 -0.120578,-0.49437 -0.118167,-0.18087 -0.32315,-0.18087 z m 0,-0.30627 q 0.381027,0 0.605303,0.26527 0.224276,0.26527 0.224276,0.71624 0,0.45096 -0.226688,0.71623 -0.224275,0.26286 -0.602891,0.26286 -0.385851,0 -0.610127,-0.26286 -0.224275,-0.26527 -0.224275,-0.71623 0,-0.45338 0.224275,-0.71624 0.226688,-0.26527 0.610127,-0.26527 z m -2.488737,-1.46864 q -0.207395,0 -0.327973,0.18086 -0.118167,0.17846 -0.118167,0.49196 0,0.31833 0.118167,0.49679 0.118166,0.17845 0.327973,0.17845 0.209806,0 0.327973,-0.17845 0.120578,-0.17846 0.120578,-0.49679 0,-0.31109 -0.120578,-0.49196 -0.120579,-0.18086 -0.327973,-0.18086 z m 2.177645,-0.30627 h 0.38585 l -2.252403,3.73551 H 39.24298 Z m -2.177645,0 q 0.381027,0 0.607715,0.26527 0.226687,0.26286 0.226687,0.71382 0,0.45579 -0.226687,0.71865 -0.224276,0.26286 -0.607715,0.26286 -0.383439,0 -0.607715,-0.26286 -0.221864,-0.26527 -0.221864,-0.71865 0,-0.44855 0.224275,-0.71382 0.224276,-0.26527 0.605304,-0.26527 z"
         style="text-align:end;text-anchor:end;fill:#000000;fill-opacity:1;stroke-width:0.05291667"
         id="path4563"
         inkscape:connector-curvature="0" />
      <path
         d="m 45.896493,154.11558 q 0.593246,0 0.96945,0.25321 0.376204,0.2508 0.376204,0.68006 0,0.29904 -0.171221,0.50643 -0.171221,0.20499 -0.487136,0.28457 0.349677,0.0748 0.545014,0.31109 0.197748,0.23633 0.197748,0.5836 0,0.55466 -0.429259,0.83681 -0.426847,0.27974 -1.0008,0.27974 -0.294211,0 -0.636654,-0.0796 -0.342442,-0.0796 -0.448551,-0.1471 v -0.50161 q 0.36897,0.21463 0.571541,0.26768 0.204984,0.0506 0.504018,0.0506 0.453374,0 0.704177,-0.17364 0.250803,-0.17363 0.250803,-0.53295 0,-0.31833 -0.224275,-0.49678 -0.221865,-0.18087 -0.69212,-0.18087 h -0.49196 v -0.40032 h 0.511252 q 0.431671,0 0.622185,-0.14228 0.190513,-0.1447 0.190513,-0.41479 0,-0.27733 -0.197748,-0.42444 -0.195337,-0.14952 -0.672827,-0.14952 -0.32315,0 -0.434082,0.0289 -0.110932,0.0289 -0.605303,0.21463 v -0.47508 q 0.272507,-0.0965 0.557071,-0.13746 0.284565,-0.041 0.49196,-0.041 z"
         style="text-align:end;text-anchor:end;fill:#000000;fill-opacity:1;stroke-width:0.05291667"
         id="path4565"
         inkscape:connector-curvature="0" />
      <path
         d="m 50.425416,156.31975 v 0.21704 H 48.38523 q 0.02894,0.4582 0.274919,0.69935 0.248391,0.23875 0.689708,0.23875 0.255626,0 0.494371,-0.0627 0.241157,-0.0627 0.47749,-0.1881 v 0.41961 q -0.238745,0.10128 -0.489548,0.15434 -0.250803,0.0531 -0.50884,0.0531 -0.6463,0 -1.024916,-0.3762 -0.376205,-0.3762 -0.376205,-1.01768 0,-0.66318 0.356912,-1.05144 0.359324,-0.39068 0.967038,-0.39068 0.545015,0 0.86093,0.35209 0.318327,0.34968 0.318327,0.95257 z m -0.443729,-0.13023 q -0.0048,-0.36414 -0.204983,-0.58118 -0.197748,-0.21704 -0.525721,-0.21704 -0.371382,0 -0.595657,0.2098 -0.221865,0.20981 -0.255627,0.59084 z"
         style="text-align:end;text-anchor:end;fill:#000000;fill-opacity:1;stroke-width:0.05291667"
         id="path4567"
         inkscape:connector-curvature="0" />
      <path
         d="m 50.871556,157.78116 v -0.36897 q 0.438906,-0.0675 0.573953,-0.37138 0.163987,-0.42685 0.163987,-1.51929 v -0.44132 h 1.825556 v 2.70096 h -0.443728 v -2.34646 h -0.9381 v 0.26769 q 0,1.04179 -0.212218,1.50964 -0.226687,0.49919 -0.96945,0.56913 z"
         style="text-align:end;text-anchor:end;fill:#000000;fill-opacity:1;stroke-width:0.05291667"
         id="path4569"
         inkscape:connector-curvature="0" />
      <path
         d="m 56.61832,156.31975 v 0.21704 h -2.040185 q 0.02894,0.4582 0.274918,0.69935 0.248392,0.23875 0.689708,0.23875 0.255626,0 0.494372,-0.0627 0.241156,-0.0627 0.47749,-0.1881 v 0.41961 q -0.238745,0.10128 -0.489548,0.15434 -0.250803,0.0531 -0.508841,0.0531 -0.6463,0 -1.024916,-0.3762 -0.376204,-0.3762 -0.376204,-1.01768 0,-0.66318 0.356912,-1.05144 0.359323,-0.39068 0.967038,-0.39068 0.545014,0 0.860929,0.35209 0.318327,0.34968 0.318327,0.95257 z m -0.443728,-0.13023 q -0.0048,-0.36414 -0.204983,-0.58118 -0.197749,-0.21704 -0.525722,-0.21704 -0.371381,0 -0.595657,0.2098 -0.221864,0.20981 -0.255626,0.59084 z"
         style="text-align:end;text-anchor:end;fill:#000000;fill-opacity:1;stroke-width:0.05291667"
         id="path4571"
         inkscape:connector-curvature="0" />
      <path
         d="m 57.329732,155.0802 h 0.44614 v 1.10209 h 1.439706 v -1.10209 h 0.44614 v 2.70096 h -0.44614 v -1.24437 h -1.439706 v 1.24437 h -0.44614 z"
         style="text-align:end;text-anchor:end;fill:#000000;fill-opacity:1;stroke-width:0.05291667"
         id="path4573"
         inkscape:connector-curvature="0" />
      <path
         d="m 62.873924,155.0802 v 2.70096 h -0.441317 v -2.168 l -1.302246,2.168 h -0.56913 v -2.70096 h 0.441317 v 2.16318 l 1.299834,-2.16318 z"
         style="text-align:end;text-anchor:end;fill:#000000;fill-opacity:1;stroke-width:0.05291667"
         id="path4575"
         inkscape:connector-curvature="0" />
      <path
         d="m 66.086132,155.0802 v 2.70096 h -0.441317 v -2.168 l -1.302246,2.168 h -0.56913 v -2.70096 h 0.441317 v 2.16318 l 1.299834,-2.16318 z m -1.909961,-1.05144 h 0.284564 q 0.02653,0.18087 0.142283,0.27251 0.118167,0.0892 0.327973,0.0892 0.207395,0 0.32315,-0.0892 0.115755,-0.0892 0.147105,-0.27251 h 0.284565 q -0.02411,0.34485 -0.214629,0.51849 -0.190514,0.17363 -0.540191,0.17363 -0.349677,0 -0.540191,-0.17363 -0.190514,-0.17364 -0.214629,-0.51849 z"
         style="text-align:end;text-anchor:end;fill:#000000;fill-opacity:1;stroke-width:0.05291667"
         id="path4577"
         inkscape:connector-curvature="0" />
    </g>
    <rect
       style="opacity:1;vector-effect:none;fill:#00ff00;fill-opacity:1;stroke:none;stroke-width:0.05291667;stroke-linecap:round;stroke-linejoin:bevel;stroke-miterlimit:4;stroke-dasharray:none;stroke-dashoffset:0;stroke-opacity:1;marker:none"
       id="rect4672"
       width="21.16667"
       height="21.166666"
       x="68.791664"
       y="167.3542" />
    <rect
       y="167.3542"
       x="89.958328"
       height="21.166666"
       width="21.16667"
       id="rect4674"
       style="opacity:1;vector-effect:none;fill:#44ff00;fill-opacity:1;stroke:none;stroke-width:0.05291667;stroke-linecap:round;stroke-linejoin:bevel;stroke-miterlimit:4;stroke-dasharray:none;stroke-dashoffset:0;stroke-opacity:1;marker:none" />
    <rect
       style="opacity:1;vector-effect:none;fill:#88ff00;fill-opacity:1;stroke:none;stroke-width:0.05291667;stroke-linecap:round;stroke-linejoin:bevel;stroke-miterlimit:4;stroke-dasharray:none;stroke-dashoffset:0;stroke-opacity:1;marker:none"
       id="rect4676"
       width="21.16667"
       height="21.166666"
       x="111.125"
       y="167.3542" />
    <rect
       y="167.3542"
       x="132.29166"
       height="21.166666"
       width="21.16667"
       id="rect4678"
       style="opacity:1;vector-effect:none;fill:#bbff00;fill-opacity:1;stroke:none;stroke-width:0.05291667;stroke-linecap:round;stroke-linejoin:bevel;stroke-miterlimit:4;stroke-dasharray:none;stroke-dashoffset:0;stroke-opacity:1;marker:none" />
    <rect
       style="opacity:1;vector-effect:none;fill:#ffff00;fill-opacity:1;stroke:none;stroke-width:0.05291667;stroke-linecap:round;stroke-linejoin:bevel;stroke-miterlimit:4;stroke-dasharray:none;stroke-dashoffset:0;stroke-opacity:1;marker:none"
       id="rect4680"
       width="21.16667"
       height="21.166666"
       x="153.45833"
       y="167.3542" />
    <g
       aria-label="100% Зелений"
       style="font-style:normal;font-variant:normal;font-weight:normal;font-stretch:normal;font-size:4.93888903px;font-family:Lato;-inkscape-font-specification:Lato;font-variant-ligatures:discretionary-ligatures historical-ligatures;font-variant-position:normal;font-variant-caps:normal;font-variant-numeric:lining-nums tabular-nums diagonal-fractions ordinal;font-feature-settings:normal;text-align:end;writing-mode:lr-tb;text-anchor:end;opacity:1;vector-effect:none;fill:#000000;fill-opacity:1;stroke:none;stroke-width:0.05291667;stroke-linecap:round;stroke-linejoin:bevel;stroke-miterlimit:4;stroke-dasharray:none;stroke-dashoffset:0;stroke-opacity:1;marker:none"
       id="text4684">
      <path
         d="m 29.394141,178.53788 h 0.795817 v -2.74678 l -0.865753,0.17364 v -0.44373 l 0.86093,-0.17363 h 0.487136 v 3.1905 h 0.795817 v 0.40997 h -2.073947 z"
         style="text-align:end;text-anchor:end;fill:#000000;fill-opacity:1;stroke-width:0.05291667"
         id="path4536"
         inkscape:connector-curvature="0" />
      <path
         d="m 33.496216,175.66811 q -0.376204,0 -0.566718,0.37139 -0.188102,0.36897 -0.188102,1.11173 0,0.74035 0.188102,1.11173 0.190514,0.36897 0.566718,0.36897 0.378616,0 0.566718,-0.36897 0.190514,-0.37138 0.190514,-1.11173 0,-0.74276 -0.190514,-1.11173 -0.188102,-0.37139 -0.566718,-0.37139 z m 0,-0.38585 q 0.605303,0 0.92363,0.47991 0.320739,0.47749 0.320739,1.38906 0,0.90916 -0.320739,1.38906 -0.318327,0.47749 -0.92363,0.47749 -0.605303,0 -0.926042,-0.47749 -0.318326,-0.4799 -0.318326,-1.38906 0,-0.91157 0.318326,-1.38906 0.320739,-0.47991 0.926042,-0.47991 z"
         style="text-align:end;text-anchor:end;fill:#000000;fill-opacity:1;stroke-width:0.05291667"
         id="path4538"
         inkscape:connector-curvature="0" />
      <path
         d="m 36.640899,175.66811 q -0.376204,0 -0.566718,0.37139 -0.188102,0.36897 -0.188102,1.11173 0,0.74035 0.188102,1.11173 0.190514,0.36897 0.566718,0.36897 0.378616,0 0.566719,-0.36897 0.190513,-0.37138 0.190513,-1.11173 0,-0.74276 -0.190513,-1.11173 -0.188103,-0.37139 -0.566719,-0.37139 z m 0,-0.38585 q 0.605304,0 0.923631,0.47991 0.320738,0.47749 0.320738,1.38906 0,0.90916 -0.320738,1.38906 -0.318327,0.47749 -0.923631,0.47749 -0.605303,0 -0.926041,-0.47749 -0.318327,-0.4799 -0.318327,-1.38906 0,-0.91157 0.318327,-1.38906 0.320738,-0.47991 0.926041,-0.47991 z"
         style="text-align:end;text-anchor:end;fill:#000000;fill-opacity:1;stroke-width:0.05291667"
         id="path4540"
         inkscape:connector-curvature="0" />
      <path
         d="m 41.806475,177.36345 q -0.209806,0 -0.330384,0.17845 -0.118167,0.17846 -0.118167,0.49678 0,0.31351 0.118167,0.49438 0.120578,0.17845 0.330384,0.17845 0.204984,0 0.32315,-0.17845 0.120579,-0.18087 0.120579,-0.49438 0,-0.31591 -0.120579,-0.49437 -0.118166,-0.18086 -0.32315,-0.18086 z m 0,-0.30627 q 0.381028,0 0.605304,0.26527 0.224275,0.26527 0.224275,0.71623 0,0.45097 -0.226687,0.71624 -0.224276,0.26286 -0.602892,0.26286 -0.38585,0 -0.610126,-0.26286 -0.224276,-0.26527 -0.224276,-0.71624 0,-0.45337 0.224276,-0.71623 0.226687,-0.26527 0.610126,-0.26527 z m -2.488737,-1.46865 q -0.207394,0 -0.327973,0.18087 -0.118167,0.17846 -0.118167,0.49196 0,0.31833 0.118167,0.49678 0.118167,0.17846 0.327973,0.17846 0.209807,0 0.327973,-0.17846 0.120579,-0.17845 0.120579,-0.49678 0,-0.31109 -0.120579,-0.49196 -0.120578,-0.18087 -0.327973,-0.18087 z m 2.177645,-0.30627 h 0.385851 l -2.252404,3.73552 h -0.38585 z m -2.177645,0 q 0.381028,0 0.607715,0.26528 0.226687,0.26286 0.226687,0.71382 0,0.45579 -0.226687,0.71865 -0.224276,0.26286 -0.607715,0.26286 -0.383439,0 -0.607715,-0.26286 -0.221864,-0.26528 -0.221864,-0.71865 0,-0.44855 0.224276,-0.71382 0.224276,-0.26528 0.605303,-0.26528 z"
         style="text-align:end;text-anchor:end;fill:#000000;fill-opacity:1;stroke-width:0.05291667"
         id="path4542"
         inkscape:connector-curvature="0" />
      <path
         d="m 45.896494,175.28226 q 0.593245,0 0.96945,0.25322 0.376204,0.2508 0.376204,0.68006 0,0.29903 -0.171221,0.50643 -0.171221,0.20498 -0.487137,0.28456 0.349677,0.0748 0.545014,0.3111 0.197749,0.23633 0.197749,0.5836 0,0.55466 -0.429259,0.83681 -0.426847,0.27974 -1.0008,0.27974 -0.294211,0 -0.636654,-0.0796 -0.342442,-0.0796 -0.448551,-0.14711 v -0.5016 q 0.368969,0.21463 0.571541,0.26768 0.204983,0.0506 0.504017,0.0506 0.453375,0 0.704178,-0.17363 0.250803,-0.17363 0.250803,-0.53295 0,-0.31833 -0.224276,-0.49679 -0.221864,-0.18086 -0.692119,-0.18086 h -0.49196 v -0.40032 h 0.511252 q 0.431671,0 0.622184,-0.14229 0.190514,-0.14469 0.190514,-0.41479 0,-0.27733 -0.197748,-0.42443 -0.195337,-0.14952 -0.672828,-0.14952 -0.32315,0 -0.434082,0.0289 -0.110932,0.0289 -0.605303,0.21463 v -0.47508 q 0.272507,-0.0965 0.557072,-0.13746 0.284565,-0.041 0.49196,-0.041 z"
         style="text-align:end;text-anchor:end;fill:#000000;fill-opacity:1;stroke-width:0.05291667"
         id="path4544"
         inkscape:connector-curvature="0" />
      <path
         d="m 50.425415,177.48644 v 0.21704 H 48.38523 q 0.02894,0.45819 0.274918,0.69935 0.248392,0.23875 0.689708,0.23875 0.255627,0 0.494372,-0.0627 0.241156,-0.0627 0.47749,-0.18811 v 0.41962 q -0.238745,0.10128 -0.489548,0.15434 -0.250803,0.053 -0.508841,0.053 -0.6463,0 -1.024916,-0.3762 -0.376204,-0.37621 -0.376204,-1.01768 0,-0.66319 0.356912,-1.05145 0.359323,-0.39067 0.967038,-0.39067 0.545014,0 0.86093,0.35209 0.318326,0.34967 0.318326,0.95257 z m -0.443728,-0.13023 q -0.0048,-0.36415 -0.204983,-0.58119 -0.197749,-0.21704 -0.525722,-0.21704 -0.371381,0 -0.595657,0.20981 -0.221864,0.20981 -0.255626,0.59083 z"
         style="text-align:end;text-anchor:end;fill:#000000;fill-opacity:1;stroke-width:0.05291667"
         id="path4546"
         inkscape:connector-curvature="0" />
      <path
         d="m 50.871555,178.94785 v -0.36897 q 0.438905,-0.0675 0.573953,-0.37139 0.163987,-0.42684 0.163987,-1.51928 v -0.44132 h 1.825556 v 2.70096 h -0.443729 v -2.34646 h -0.938099 v 0.26768 q 0,1.0418 -0.212218,1.50965 -0.226687,0.49919 -0.96945,0.56913 z"
         style="text-align:end;text-anchor:end;fill:#000000;fill-opacity:1;stroke-width:0.05291667"
         id="path4548"
         inkscape:connector-curvature="0" />
      <path
         d="m 56.618321,177.48644 v 0.21704 h -2.040186 q 0.02894,0.45819 0.274919,0.69935 0.248391,0.23875 0.689708,0.23875 0.255626,0 0.494371,-0.0627 0.241157,-0.0627 0.47749,-0.18811 v 0.41962 q -0.238745,0.10128 -0.489548,0.15434 -0.250803,0.053 -0.50884,0.053 -0.6463,0 -1.024916,-0.3762 -0.376205,-0.37621 -0.376205,-1.01768 0,-0.66319 0.356912,-1.05145 0.359324,-0.39067 0.967039,-0.39067 0.545014,0 0.860929,0.35209 0.318327,0.34967 0.318327,0.95257 z m -0.443729,-0.13023 q -0.0048,-0.36415 -0.204983,-0.58119 -0.197748,-0.21704 -0.525721,-0.21704 -0.371382,0 -0.595657,0.20981 -0.221865,0.20981 -0.255626,0.59083 z"
         style="text-align:end;text-anchor:end;fill:#000000;fill-opacity:1;stroke-width:0.05291667"
         id="path4550"
         inkscape:connector-curvature="0" />
      <path
         d="m 57.329733,176.24689 h 0.44614 v 1.10209 h 1.439705 v -1.10209 h 0.44614 v 2.70096 h -0.44614 v -1.24437 h -1.439705 v 1.24437 h -0.44614 z"
         style="text-align:end;text-anchor:end;fill:#000000;fill-opacity:1;stroke-width:0.05291667"
         id="path4552"
         inkscape:connector-curvature="0" />
      <path
         d="m 62.873924,176.24689 v 2.70096 h -0.441316 v -2.168 l -1.302247,2.168 h -0.569129 v -2.70096 h 0.441316 v 2.16318 l 1.299835,-2.16318 z"
         style="text-align:end;text-anchor:end;fill:#000000;fill-opacity:1;stroke-width:0.05291667"
         id="path4554"
         inkscape:connector-curvature="0" />
      <path
         d="m 66.086132,176.24689 v 2.70096 h -0.441317 v -2.168 l -1.302246,2.168 h -0.56913 v -2.70096 h 0.441317 v 2.16318 l 1.299835,-2.16318 z m -1.909961,-1.05144 h 0.284565 q 0.02653,0.18086 0.142282,0.2725 0.118167,0.0892 0.327974,0.0892 0.207394,0 0.32315,-0.0892 0.115755,-0.0892 0.147105,-0.2725 h 0.284565 q -0.02412,0.34485 -0.214629,0.51848 -0.190514,0.17364 -0.540191,0.17364 -0.349678,0 -0.540191,-0.17364 -0.190514,-0.17363 -0.21463,-0.51848 z"
         style="text-align:end;text-anchor:end;fill:#000000;fill-opacity:1;stroke-width:0.05291667"
         id="path4556"
         inkscape:connector-curvature="0" />
    </g>
    <flowRoot
       xml:space="preserve"
       id="flowRoot4528"
       style="font-style:normal;font-variant:normal;font-weight:normal;font-stretch:normal;font-size:21.33333397px;line-height:25px;font-family:Arial;-inkscape-font-specification:Arial;letter-spacing:0px;word-spacing:0px;fill:none;stroke:#000000;stroke-width:1px;stroke-linecap:butt;stroke-linejoin:miter;stroke-opacity:1"
       transform="matrix(0.26458333,0,0,0.26458333,39.893949,77.943693)"><flowRegion
         id="flowRegion4530"><rect
           id="rect4532"
           width="214.79047"
           height="473.3909"
           x="-97.355453"
           y="4.1688128" /></flowRegion><flowPara
         id="flowPara4534"></flowPara></flowRoot>  </g>
</svg>
