<?xml version="1.0" encoding="UTF-8" standalone="no"?>
<!-- Created with Inkscape (http://www.inkscape.org/) -->

<svg
   xmlns:dc="http://purl.org/dc/elements/1.1/"
   xmlns:cc="http://creativecommons.org/ns#"
   xmlns:rdf="http://www.w3.org/1999/02/22-rdf-syntax-ns#"
   xmlns:svg="http://www.w3.org/2000/svg"
   xmlns="http://www.w3.org/2000/svg"
   xmlns:sodipodi="http://sodipodi.sourceforge.net/DTD/sodipodi-0.dtd"
   xmlns:inkscape="http://www.inkscape.org/namespaces/inkscape"
   width="105.98215mm"
   height="25.910473mm"
   viewBox="0 0 105.98214 25.910473"
   version="1.1"
   id="svg8"
   inkscape:version="0.92.1 r15371"
   sodipodi:docname="percentages_red.svg">
  <defs
     id="defs2" />
  <sodipodi:namedview
     id="base"
     pagecolor="#ffffff"
     bordercolor="#666666"
     borderopacity="1.0"
     inkscape:pageopacity="0.0"
     inkscape:pageshadow="2"
     inkscape:zoom="1.4"
     inkscape:cx="32.910607"
     inkscape:cy="79.781625"
     inkscape:document-units="mm"
     inkscape:current-layer="layer1"
     showgrid="true"
     showguides="false"
     inkscape:snap-bbox="true"
     inkscape:snap-nodes="true"
     inkscape:snap-others="false"
     inkscape:bbox-nodes="true"
     fit-margin-top="0"
     fit-margin-left="0"
     fit-margin-right="0"
     fit-margin-bottom="0"
     inkscape:window-width="1920"
     inkscape:window-height="1051"
     inkscape:window-x="0"
     inkscape:window-y="0"
     inkscape:window-maximized="1">
    <inkscape:grid
       type="xygrid"
       id="grid4506"
       originx="-68.79166"
       originy="-193.14584" />
  </sodipodi:namedview>
  <metadata
     id="metadata5">
    <rdf:RDF>
      <cc:Work
         rdf:about="">
        <dc:format>image/svg+xml</dc:format>
        <dc:type
           rdf:resource="http://purl.org/dc/dcmitype/StillImage" />
        <dc:title />
      </cc:Work>
    </rdf:RDF>
  </metadata>
  <g
     inkscape:label="Layer 1"
     inkscape:groupmode="layer"
     id="layer1"
     transform="translate(-68.791664,-77.943693)">
    <rect
       style="opacity:1;vector-effect:none;fill:#000000;fill-opacity:1;stroke:none;stroke-width:0.05291667;stroke-linecap:round;stroke-linejoin:bevel;stroke-miterlimit:4;stroke-dasharray:none;stroke-dashoffset:0;stroke-opacity:1;marker:none"
       id="rect4504"
       width="21.16667"
       height="21.166666"
       x="68.791664"
       y="82.6875" />
    <rect
       y="82.6875"
       x="89.958328"
       height="21.166666"
       width="21.16667"
       id="rect4508"
       style="opacity:1;vector-effect:none;fill:#40000f;fill-opacity:0.94117647;stroke:none;stroke-width:0.05291667;stroke-linecap:round;stroke-linejoin:bevel;stroke-miterlimit:4;stroke-dasharray:none;stroke-dashoffset:0;stroke-opacity:1;marker:none" />
    <rect
       style="opacity:1;vector-effect:none;fill:#880000;fill-opacity:1;stroke:none;stroke-width:0.05291667;stroke-linecap:round;stroke-linejoin:bevel;stroke-miterlimit:4;stroke-dasharray:none;stroke-dashoffset:0;stroke-opacity:1;marker:none"
       id="rect4510"
       width="21.16667"
       height="21.166666"
       x="111.125"
       y="82.6875" />
    <rect
       y="82.6875"
       x="132.29166"
       height="21.166666"
       width="21.16667"
       id="rect4512"
       style="opacity:1;vector-effect:none;fill:#bb0000;fill-opacity:1;stroke:none;stroke-width:0.05291667;stroke-linecap:round;stroke-linejoin:bevel;stroke-miterlimit:4;stroke-dasharray:none;stroke-dashoffset:0;stroke-opacity:1;marker:none" />
    <rect
       style="opacity:1;vector-effect:none;fill:#ff0000;fill-opacity:1;stroke:none;stroke-width:0.05291667;stroke-linecap:round;stroke-linejoin:bevel;stroke-miterlimit:4;stroke-dasharray:none;stroke-dashoffset:0;stroke-opacity:1;marker:none"
       id="rect4514"
       width="21.16667"
       height="21.166666"
       x="153.45833"
       y="82.6875" />
    <g
       aria-label="0% Чер"
       style="font-style:normal;font-variant:normal;font-weight:normal;font-stretch:normal;font-size:4.23333311px;font-family:Lato;-inkscape-font-specification:Lato;font-variant-ligatures:discretionary-ligatures historical-ligatures;font-variant-position:normal;font-variant-caps:normal;font-variant-numeric:lining-nums tabular-nums diagonal-fractions ordinal;font-feature-settings:normal;text-align:center;writing-mode:lr-tb;text-anchor:middle;opacity:1;vector-effect:none;fill:#000000;fill-opacity:1;stroke:none;stroke-width:0.05291667;stroke-linecap:round;stroke-linejoin:bevel;stroke-miterlimit:4;stroke-dasharray:none;stroke-dashoffset:0;stroke-opacity:1;marker:none"
       id="text4575">
      <path
         d="m 72.612449,78.769987 q -0.322461,0 -0.485758,0.318326 -0.161231,0.31626 -0.161231,0.952914 0,0.634586 0.161231,0.952913 0.163297,0.31626 0.485758,0.31626 0.324528,0 0.485758,-0.31626 0.163298,-0.318327 0.163298,-0.952913 0,-0.636654 -0.163298,-0.952914 -0.16123,-0.318326 -0.485758,-0.318326 z m 0,-0.33073 q 0.518831,0 0.791683,0.411345 0.274918,0.409277 0.274918,1.190625 0,0.77928 -0.274918,1.190625 -0.272852,0.409277 -0.791683,0.409277 -0.518831,0 -0.79375,-0.409277 -0.272852,-0.411345 -0.272852,-1.190625 0,-0.781348 0.272852,-1.190625 0.274919,-0.411345 0.79375,-0.411345 z"
         style="fill:#000000;fill-opacity:1;stroke-width:0.05291667"
         id="path4563" />
      <path
         d="m 77.040086,80.223128 q -0.179834,0 -0.283187,0.152962 -0.101286,0.152962 -0.101286,0.425814 0,0.268717 0.101286,0.423747 0.103353,0.152962 0.283187,0.152962 0.175699,0 0.276985,-0.152962 0.103353,-0.15503 0.103353,-0.423747 0,-0.270785 -0.103353,-0.423747 -0.101286,-0.155029 -0.276985,-0.155029 z m 0,-0.262516 q 0.326595,0 0.518831,0.227376 0.192236,0.227376 0.192236,0.613916 0,0.38654 -0.194303,0.613916 -0.192236,0.225309 -0.516764,0.225309 -0.33073,0 -0.522966,-0.225309 -0.192236,-0.227376 -0.192236,-0.613916 0,-0.388607 0.192236,-0.613916 0.194303,-0.227376 0.522966,-0.227376 z m -2.133203,-1.258838 q -0.177767,0 -0.28112,0.155029 -0.101286,0.152962 -0.101286,0.42168 0,0.272851 0.101286,0.425813 0.101286,0.152963 0.28112,0.152963 0.179834,0 0.281119,-0.152963 0.103353,-0.152962 0.103353,-0.425813 0,-0.266651 -0.103353,-0.42168 -0.103353,-0.155029 -0.281119,-0.155029 z m 1.866552,-0.262517 h 0.330729 l -1.930631,3.201872 h -0.330729 z m -1.866552,0 q 0.326595,0 0.520898,0.227377 0.194303,0.225309 0.194303,0.611849 0,0.390673 -0.194303,0.615983 -0.192236,0.225309 -0.520898,0.225309 -0.328663,0 -0.520899,-0.225309 -0.190169,-0.227377 -0.190169,-0.615983 0,-0.384473 0.192236,-0.611849 0.192237,-0.227377 0.518832,-0.227377 z"
         style="fill:#000000;fill-opacity:1;stroke-width:0.05291667"
         id="path4565" />
      <path
         d="m 81.403644,81.581184 v -1.265039 h -0.861963 q -0.384473,0 -0.613916,-0.239778 -0.229443,-0.241846 -0.229443,-0.733806 V 78.495068 H 80.1138 v 0.814421 q 0,0.328662 0.128158,0.491959 0.128157,0.163298 0.384472,0.163298 h 0.777214 v -1.469678 h 0.419612 v 3.086116 z"
         style="fill:#000000;fill-opacity:1;stroke-width:0.05291667"
         id="path4567" />
      <path
         d="m 84.617918,80.328548 v 0.186035 h -1.748731 q 0.02481,0.392741 0.235645,0.599446 0.212907,0.204639 0.591178,0.204639 0.219108,0 0.423747,-0.05374 0.206706,-0.05374 0.409277,-0.161231 v 0.359668 q -0.204639,0.08682 -0.419612,0.132292 -0.214974,0.04548 -0.43615,0.04548 -0.553971,0 -0.878499,-0.322461 -0.322461,-0.322461 -0.322461,-0.872298 0,-0.568441 0.305925,-0.901237 0.307991,-0.334863 0.82889,-0.334863 0.467155,0 0.737939,0.30179 0.272852,0.299723 0.272852,0.816488 z m -0.380339,-0.111621 q -0.0041,-0.312126 -0.1757,-0.498161 -0.169498,-0.186035 -0.450618,-0.186035 -0.318327,0 -0.510563,0.179834 -0.19017,0.179834 -0.219108,0.506429 z"
         style="fill:#000000;fill-opacity:1;stroke-width:0.05291667"
         id="path4569" />
      <path
         d="m 85.610104,81.233919 v 1.227832 H 85.227699 V 79.26608 h 0.382405 v 0.3514 q 0.11989,-0.206706 0.301791,-0.305924 0.183968,-0.101286 0.438216,-0.101286 0.421679,0 0.684196,0.334863 0.264583,0.334863 0.264583,0.880566 0,0.545704 -0.264583,0.880567 -0.262517,0.334863 -0.684196,0.334863 -0.254248,0 -0.438216,-0.09922 -0.181901,-0.101286 -0.301791,-0.307991 z m 1.293978,-0.80822 q 0,-0.419612 -0.173633,-0.657324 -0.171566,-0.239778 -0.473356,-0.239778 -0.30179,0 -0.475423,0.239778 -0.171566,0.237712 -0.171566,0.657324 0,0.419613 0.171566,0.659392 0.173633,0.237711 0.475423,0.237711 0.30179,0 0.473356,-0.237711 0.173633,-0.239779 0.173633,-0.659392 z"
         style="fill:#000000;fill-opacity:1;stroke-width:0.05291667"
         id="path4571" />
    </g>
    <g
       aria-label="25% Чер"
       style="font-style:normal;font-variant:normal;font-weight:normal;font-stretch:normal;font-size:4.23333311px;font-family:Lato;-inkscape-font-specification:Lato;font-variant-ligatures:discretionary-ligatures historical-ligatures;font-variant-position:normal;font-variant-caps:normal;font-variant-numeric:lining-nums tabular-nums diagonal-fractions ordinal;font-feature-settings:normal;text-align:center;writing-mode:lr-tb;text-anchor:middle;opacity:1;vector-effect:none;fill:#000000;fill-opacity:1;stroke:none;stroke-width:0.05291667;stroke-linecap:round;stroke-linejoin:bevel;stroke-miterlimit:4;stroke-dasharray:none;stroke-dashoffset:0;stroke-opacity:1;marker:none"
       id="text4579">
      <path
         d="m 91.898076,81.229785 h 1.457275 v 0.351399 h -1.95957 v -0.351399 q 0.237711,-0.24598 0.646989,-0.659392 0.411344,-0.415478 0.516764,-0.535367 0.200505,-0.22531 0.279053,-0.380339 0.08061,-0.157096 0.08061,-0.307991 0,-0.24598 -0.173633,-0.40101 -0.171565,-0.155029 -0.448551,-0.155029 -0.196371,0 -0.415479,0.06821 -0.217041,0.06821 -0.465088,0.206706 v -0.42168 q 0.252181,-0.101286 0.47129,-0.152962 0.219108,-0.05168 0.401009,-0.05168 0.479557,0 0.764811,0.239779 0.285254,0.239779 0.285254,0.640788 0,0.190169 -0.07235,0.361735 -0.07028,0.169499 -0.258382,0.401009 -0.05168,0.05994 -0.328663,0.347266 -0.276985,0.285253 -0.781347,0.799951 z"
         style="fill:#000000;fill-opacity:1;stroke-width:0.05291667"
         id="path4550" />
      <path
         d="m 94.237985,78.495068 h 1.639176 v 0.3514 H 94.62039 v 0.756543 q 0.09095,-0.03101 0.181901,-0.04548 0.09095,-0.01654 0.181901,-0.01654 0.516765,0 0.818555,0.283187 0.30179,0.283187 0.30179,0.766878 0,0.498161 -0.310058,0.775146 -0.310059,0.274919 -0.874365,0.274919 -0.194304,0 -0.396875,-0.03307 -0.200505,-0.03307 -0.415479,-0.09922 v -0.419612 q 0.186035,0.101286 0.384473,0.150895 0.198437,0.04961 0.419612,0.04961 0.357601,0 0.566374,-0.188102 0.208773,-0.188102 0.208773,-0.510563 0,-0.322461 -0.208773,-0.510563 -0.208773,-0.188102 -0.566374,-0.188102 -0.167431,0 -0.334863,0.03721 -0.165365,0.03721 -0.338997,0.115755 z"
         style="fill:#000000;fill-opacity:1;stroke-width:0.05291667"
         id="path4552" />
      <path
         d="m 99.554456,80.223128 q -0.179834,0 -0.283187,0.152962 -0.101286,0.152962 -0.101286,0.425814 0,0.268717 0.101286,0.423747 0.103353,0.152962 0.283187,0.152962 0.1757,0 0.276986,-0.152962 0.103352,-0.15503 0.103352,-0.423747 0,-0.270785 -0.103352,-0.423747 -0.101286,-0.155029 -0.276986,-0.155029 z m 0,-0.262516 q 0.326595,0 0.518834,0.227376 0.19223,0.227376 0.19223,0.613916 0,0.38654 -0.1943,0.613916 -0.192236,0.225309 -0.516764,0.225309 -0.330729,0 -0.522966,-0.225309 -0.192236,-0.227376 -0.192236,-0.613916 0,-0.388607 0.192236,-0.613916 0.194304,-0.227376 0.522966,-0.227376 z m -2.133203,-1.258838 q -0.177767,0 -0.28112,0.155029 -0.101286,0.152962 -0.101286,0.42168 0,0.272851 0.101286,0.425813 0.101286,0.152963 0.28112,0.152963 0.179834,0 0.28112,-0.152963 0.103352,-0.152962 0.103352,-0.425813 0,-0.266651 -0.103352,-0.42168 -0.103353,-0.155029 -0.28112,-0.155029 z m 1.866552,-0.262517 h 0.33073 l -1.930632,3.201872 h -0.330729 z m -1.866552,0 q 0.326595,0 0.520898,0.227377 0.194304,0.225309 0.194304,0.611849 0,0.390673 -0.194304,0.615983 -0.192236,0.225309 -0.520898,0.225309 -0.328662,0 -0.520899,-0.225309 -0.190169,-0.227377 -0.190169,-0.615983 0,-0.384473 0.192236,-0.611849 0.192237,-0.227377 0.518832,-0.227377 z"
         style="fill:#000000;fill-opacity:1;stroke-width:0.05291667"
         id="path4554" />
      <path
         d="m 103.91801,81.581184 v -1.265039 h -0.86196 q -0.38447,0 -0.61392,-0.239778 -0.22944,-0.241846 -0.22944,-0.733806 v -0.847493 h 0.41548 v 0.814421 q 0,0.328662 0.12816,0.491959 0.12815,0.163298 0.38447,0.163298 h 0.77721 v -1.469678 h 0.41962 v 3.086116 z"
         style="fill:#000000;fill-opacity:1;stroke-width:0.05291667"
         id="path4556" />
      <path
         d="m 107.13229,80.328548 v 0.186035 h -1.74873 q 0.0248,0.392741 0.23564,0.599446 0.21291,0.204639 0.59118,0.204639 0.21911,0 0.42375,-0.05374 0.2067,-0.05374 0.40927,-0.161231 v 0.359668 q -0.20463,0.08682 -0.41961,0.132292 -0.21497,0.04548 -0.43615,0.04548 -0.55397,0 -0.8785,-0.322461 -0.32246,-0.322461 -0.32246,-0.872298 0,-0.568441 0.30593,-0.901237 0.30799,-0.334863 0.82889,-0.334863 0.46715,0 0.73794,0.30179 0.27285,0.299723 0.27285,0.816488 z m -0.38034,-0.111621 q -0.004,-0.312126 -0.1757,-0.498161 -0.1695,-0.186035 -0.45062,-0.186035 -0.31833,0 -0.51056,0.179834 -0.19017,0.179834 -0.21911,0.506429 z"
         style="fill:#000000;fill-opacity:1;stroke-width:0.05291667"
         id="path4558" />
      <path
         d="m 108.12447,81.233919 v 1.227832 h -0.3824 V 79.26608 h 0.3824 v 0.3514 q 0.11989,-0.206706 0.30179,-0.305924 0.18397,-0.101286 0.43822,-0.101286 0.42168,0 0.6842,0.334863 0.26458,0.334863 0.26458,0.880566 0,0.545704 -0.26458,0.880567 -0.26252,0.334863 -0.6842,0.334863 -0.25425,0 -0.43822,-0.09922 -0.1819,-0.101286 -0.30179,-0.307991 z m 1.29398,-0.80822 q 0,-0.419612 -0.17363,-0.657324 -0.17157,-0.239778 -0.47336,-0.239778 -0.30179,0 -0.47542,0.239778 -0.17157,0.237712 -0.17157,0.657324 0,0.419613 0.17157,0.659392 0.17363,0.237711 0.47542,0.237711 0.30179,0 0.47336,-0.237711 0.17363,-0.239779 0.17363,-0.659392 z"
         style="fill:#000000;fill-opacity:1;stroke-width:0.05291667"
         id="path4560" />
    </g>
    <g
       aria-label="50% Чер"
       style="font-style:normal;font-variant:normal;font-weight:normal;font-stretch:normal;font-size:4.23333311px;font-family:Lato;-inkscape-font-specification:Lato;font-variant-ligatures:discretionary-ligatures historical-ligatures;font-variant-position:normal;font-variant-caps:normal;font-variant-numeric:lining-nums tabular-nums diagonal-fractions ordinal;font-feature-settings:normal;text-align:center;writing-mode:lr-tb;text-anchor:middle;opacity:1;vector-effect:none;fill:#000000;fill-opacity:1;stroke:none;stroke-width:0.05291667;stroke-linecap:round;stroke-linejoin:bevel;stroke-miterlimit:4;stroke-dasharray:none;stroke-dashoffset:0;stroke-opacity:1;marker:none"
       id="text4583">
      <path
         d="m 112.7092,78.495068 h 1.63917 v 0.3514 h -1.25677 v 0.756543 q 0.091,-0.03101 0.18191,-0.04548 0.0909,-0.01654 0.1819,-0.01654 0.51676,0 0.81855,0.283187 0.30179,0.283187 0.30179,0.766878 0,0.498161 -0.31006,0.775146 -0.31006,0.274919 -0.87436,0.274919 -0.19431,0 -0.39688,-0.03307 -0.2005,-0.03307 -0.41548,-0.09922 v -0.419612 q 0.18604,0.101286 0.38448,0.150895 0.19843,0.04961 0.41961,0.04961 0.3576,0 0.56637,-0.188102 0.20878,-0.188102 0.20878,-0.510563 0,-0.322461 -0.20878,-0.510563 -0.20877,-0.188102 -0.56637,-0.188102 -0.16743,0 -0.33486,0.03721 -0.16537,0.03721 -0.339,0.115755 z"
         style="fill:#000000;fill-opacity:1;stroke-width:0.05291667"
         id="path4537" />
      <path
         d="m 116.29348,78.769987 q -0.32247,0 -0.48576,0.318326 -0.16123,0.31626 -0.16123,0.952914 0,0.634586 0.16123,0.952913 0.16329,0.31626 0.48576,0.31626 0.32452,0 0.48575,-0.31626 0.1633,-0.318327 0.1633,-0.952913 0,-0.636654 -0.1633,-0.952914 -0.16123,-0.318326 -0.48575,-0.318326 z m 0,-0.33073 q 0.51883,0 0.79168,0.411345 0.27492,0.409277 0.27492,1.190625 0,0.77928 -0.27492,1.190625 -0.27285,0.409277 -0.79168,0.409277 -0.51884,0 -0.79375,-0.409277 -0.27286,-0.411345 -0.27286,-1.190625 0,-0.781348 0.27286,-1.190625 0.27491,-0.411345 0.79375,-0.411345 z"
         style="fill:#000000;fill-opacity:1;stroke-width:0.05291667"
         id="path4539" />
      <path
         d="m 120.72111,80.223128 q -0.17983,0 -0.28318,0.152962 -0.10129,0.152962 -0.10129,0.425814 0,0.268717 0.10129,0.423747 0.10335,0.152962 0.28318,0.152962 0.1757,0 0.27699,-0.152962 0.10335,-0.15503 0.10335,-0.423747 0,-0.270785 -0.10335,-0.423747 -0.10129,-0.155029 -0.27699,-0.155029 z m 0,-0.262516 q 0.3266,0 0.51883,0.227376 0.19224,0.227376 0.19224,0.613916 0,0.38654 -0.1943,0.613916 -0.19224,0.225309 -0.51677,0.225309 -0.33073,0 -0.52296,-0.225309 -0.19224,-0.227376 -0.19224,-0.613916 0,-0.388607 0.19224,-0.613916 0.1943,-0.227376 0.52296,-0.227376 z m -2.1332,-1.258838 q -0.17777,0 -0.28112,0.155029 -0.10129,0.152962 -0.10129,0.42168 0,0.272851 0.10129,0.425813 0.10129,0.152963 0.28112,0.152963 0.17983,0 0.28112,-0.152963 0.10335,-0.152962 0.10335,-0.425813 0,-0.266651 -0.10335,-0.42168 -0.10335,-0.155029 -0.28112,-0.155029 z m 1.86655,-0.262517 h 0.33073 l -1.93063,3.201872 h -0.33073 z m -1.86655,0 q 0.32659,0 0.5209,0.227377 0.1943,0.225309 0.1943,0.611849 0,0.390673 -0.1943,0.615983 -0.19224,0.225309 -0.5209,0.225309 -0.32866,0 -0.5209,-0.225309 -0.19017,-0.227377 -0.19017,-0.615983 0,-0.384473 0.19224,-0.611849 0.19223,-0.227377 0.51883,-0.227377 z"
         style="fill:#000000;fill-opacity:1;stroke-width:0.05291667"
         id="path4541" />
      <path
         d="m 125.08467,81.581184 v -1.265039 h -0.86196 q -0.38448,0 -0.61392,-0.239778 -0.22944,-0.241846 -0.22944,-0.733806 v -0.847493 h 0.41548 v 0.814421 q 0,0.328662 0.12815,0.491959 0.12816,0.163298 0.38448,0.163298 h 0.77721 v -1.469678 h 0.41961 v 3.086116 z"
         style="fill:#000000;fill-opacity:1;stroke-width:0.05291667"
         id="path4543" />
      <path
         d="m 128.29894,80.328548 v 0.186035 h -1.74873 q 0.0248,0.392741 0.23565,0.599446 0.2129,0.204639 0.59118,0.204639 0.2191,0 0.42374,-0.05374 0.20671,-0.05374 0.40928,-0.161231 v 0.359668 q -0.20464,0.08682 -0.41961,0.132292 -0.21498,0.04548 -0.43615,0.04548 -0.55397,0 -0.8785,-0.322461 -0.32246,-0.322461 -0.32246,-0.872298 0,-0.568441 0.30592,-0.901237 0.30799,-0.334863 0.82889,-0.334863 0.46716,0 0.73794,0.30179 0.27285,0.299723 0.27285,0.816488 z m -0.38033,-0.111621 q -0.004,-0.312126 -0.1757,-0.498161 -0.1695,-0.186035 -0.45062,-0.186035 -0.31833,0 -0.51057,0.179834 -0.19017,0.179834 -0.2191,0.506429 z"
         style="fill:#000000;fill-opacity:1;stroke-width:0.05291667"
         id="path4545" />
      <path
         d="m 129.29113,81.233919 v 1.227832 h -0.38241 V 79.26608 h 0.38241 v 0.3514 q 0.11989,-0.206706 0.30179,-0.305924 0.18397,-0.101286 0.43822,-0.101286 0.42168,0 0.68419,0.334863 0.26459,0.334863 0.26459,0.880566 0,0.545704 -0.26459,0.880567 -0.26251,0.334863 -0.68419,0.334863 -0.25425,0 -0.43822,-0.09922 -0.1819,-0.101286 -0.30179,-0.307991 z m 1.29398,-0.80822 q 0,-0.419612 -0.17363,-0.657324 -0.17157,-0.239778 -0.47336,-0.239778 -0.30179,0 -0.47542,0.239778 -0.17157,0.237712 -0.17157,0.657324 0,0.419613 0.17157,0.659392 0.17363,0.237711 0.47542,0.237711 0.30179,0 0.47336,-0.237711 0.17363,-0.239779 0.17363,-0.659392 z"
         style="fill:#000000;fill-opacity:1;stroke-width:0.05291667"
         id="path4547" />
    </g>
    <g
       aria-label="75% Чер"
       style="font-style:normal;font-variant:normal;font-weight:normal;font-stretch:normal;font-size:4.23333311px;font-family:Lato;-inkscape-font-specification:Lato;font-variant-ligatures:discretionary-ligatures historical-ligatures;font-variant-position:normal;font-variant-caps:normal;font-variant-numeric:lining-nums tabular-nums diagonal-fractions ordinal;font-feature-settings:normal;text-align:center;writing-mode:lr-tb;text-anchor:middle;opacity:1;vector-effect:none;fill:#000000;fill-opacity:1;stroke:none;stroke-width:0.05291667;stroke-linecap:round;stroke-linejoin:bevel;stroke-miterlimit:4;stroke-dasharray:none;stroke-dashoffset:0;stroke-opacity:1;marker:none"
       id="text4587">
      <path
         d="m 133.76632,78.495068 h 1.98437 v 0.177767 l -1.12034,2.908349 h -0.43615 l 1.0542,-2.734716 h -1.48208 z"
         style="fill:#000000;fill-opacity:1;stroke-width:0.05291667"
         id="path4524" />
      <path
         d="m 136.57131,78.495068 h 1.63918 v 0.3514 h -1.25677 v 0.756543 q 0.0909,-0.03101 0.1819,-0.04548 0.091,-0.01654 0.1819,-0.01654 0.51676,0 0.81856,0.283187 0.30179,0.283187 0.30179,0.766878 0,0.498161 -0.31006,0.775146 -0.31006,0.274919 -0.87437,0.274919 -0.1943,0 -0.39687,-0.03307 -0.20051,-0.03307 -0.41548,-0.09922 v -0.419612 q 0.18603,0.101286 0.38447,0.150895 0.19844,0.04961 0.41961,0.04961 0.3576,0 0.56638,-0.188102 0.20877,-0.188102 0.20877,-0.510563 0,-0.322461 -0.20877,-0.510563 -0.20878,-0.188102 -0.56638,-0.188102 -0.16743,0 -0.33486,0.03721 -0.16536,0.03721 -0.339,0.115755 z"
         style="fill:#000000;fill-opacity:1;stroke-width:0.05291667"
         id="path4526" />
      <path
         d="m 141.88778,80.223128 q -0.17983,0 -0.28318,0.152962 -0.10129,0.152962 -0.10129,0.425814 0,0.268717 0.10129,0.423747 0.10335,0.152962 0.28318,0.152962 0.1757,0 0.27699,-0.152962 0.10335,-0.15503 0.10335,-0.423747 0,-0.270785 -0.10335,-0.423747 -0.10129,-0.155029 -0.27699,-0.155029 z m 0,-0.262516 q 0.3266,0 0.51884,0.227376 0.19223,0.227376 0.19223,0.613916 0,0.38654 -0.1943,0.613916 -0.19224,0.225309 -0.51677,0.225309 -0.33073,0 -0.52296,-0.225309 -0.19224,-0.227376 -0.19224,-0.613916 0,-0.388607 0.19224,-0.613916 0.1943,-0.227376 0.52296,-0.227376 z m -2.1332,-1.258838 q -0.17777,0 -0.28112,0.155029 -0.10128,0.152962 -0.10128,0.42168 0,0.272851 0.10128,0.425813 0.10129,0.152963 0.28112,0.152963 0.17984,0 0.28112,-0.152963 0.10335,-0.152962 0.10335,-0.425813 0,-0.266651 -0.10335,-0.42168 -0.10335,-0.155029 -0.28112,-0.155029 z m 1.86655,-0.262517 h 0.33073 l -1.93063,3.201872 h -0.33073 z m -1.86655,0 q 0.3266,0 0.5209,0.227377 0.1943,0.225309 0.1943,0.611849 0,0.390673 -0.1943,0.615983 -0.19224,0.225309 -0.5209,0.225309 -0.32866,0 -0.5209,-0.225309 -0.19017,-0.227377 -0.19017,-0.615983 0,-0.384473 0.19224,-0.611849 0.19224,-0.227377 0.51883,-0.227377 z"
         style="fill:#000000;fill-opacity:1;stroke-width:0.05291667"
         id="path4528" />
      <path
         d="m 146.25134,81.581184 v -1.265039 h -0.86196 q -0.38447,0 -0.61392,-0.239778 -0.22944,-0.241846 -0.22944,-0.733806 v -0.847493 h 0.41548 v 0.814421 q 0,0.328662 0.12816,0.491959 0.12815,0.163298 0.38447,0.163298 h 0.77721 v -1.469678 h 0.41961 v 3.086116 z"
         style="fill:#000000;fill-opacity:1;stroke-width:0.05291667"
         id="path4530" />
      <path
         d="m 149.46562,80.328548 v 0.186035 h -1.74873 q 0.0248,0.392741 0.23564,0.599446 0.21291,0.204639 0.59118,0.204639 0.21911,0 0.42374,-0.05374 0.20671,-0.05374 0.40928,-0.161231 v 0.359668 q -0.20464,0.08682 -0.41961,0.132292 -0.21497,0.04548 -0.43615,0.04548 -0.55397,0 -0.8785,-0.322461 -0.32246,-0.322461 -0.32246,-0.872298 0,-0.568441 0.30592,-0.901237 0.308,-0.334863 0.82889,-0.334863 0.46716,0 0.73794,0.30179 0.27286,0.299723 0.27286,0.816488 z m -0.38034,-0.111621 q -0.004,-0.312126 -0.1757,-0.498161 -0.1695,-0.186035 -0.45062,-0.186035 -0.31833,0 -0.51056,0.179834 -0.19017,0.179834 -0.21911,0.506429 z"
         style="fill:#000000;fill-opacity:1;stroke-width:0.05291667"
         id="path4532" />
      <path
         d="m 150.4578,81.233919 v 1.227832 h -0.3824 V 79.26608 h 0.3824 v 0.3514 q 0.11989,-0.206706 0.30179,-0.305924 0.18397,-0.101286 0.43822,-0.101286 0.42168,0 0.68419,0.334863 0.26459,0.334863 0.26459,0.880566 0,0.545704 -0.26459,0.880567 -0.26251,0.334863 -0.68419,0.334863 -0.25425,0 -0.43822,-0.09922 -0.1819,-0.101286 -0.30179,-0.307991 z m 1.29398,-0.80822 q 0,-0.419612 -0.17363,-0.657324 -0.17157,-0.239778 -0.47336,-0.239778 -0.30179,0 -0.47542,0.239778 -0.17157,0.237712 -0.17157,0.657324 0,0.419613 0.17157,0.659392 0.17363,0.237711 0.47542,0.237711 0.30179,0 0.47336,-0.237711 0.17363,-0.239779 0.17363,-0.659392 z"
         style="fill:#000000;fill-opacity:1;stroke-width:0.05291667"
         id="path4534" />
    </g>
    <g
       aria-label="100% Чер"
       style="font-style:normal;font-variant:normal;font-weight:normal;font-stretch:normal;font-size:4.23333311px;font-family:Lato;-inkscape-font-specification:Lato;font-variant-ligatures:discretionary-ligatures historical-ligatures;font-variant-position:normal;font-variant-caps:normal;font-variant-numeric:lining-nums tabular-nums diagonal-fractions ordinal;font-feature-settings:normal;text-align:center;writing-mode:lr-tb;text-anchor:middle;opacity:1;vector-effect:none;fill:#000000;fill-opacity:1;stroke:none;stroke-width:0.05291667;stroke-linecap:round;stroke-linejoin:bevel;stroke-miterlimit:4;stroke-dasharray:none;stroke-dashoffset:0;stroke-opacity:1;marker:none"
       id="text4591">
      <path
         d="m 153.76305,81.229785 h 0.68213 v -2.354378 l -0.74208,0.148828 v -0.380339 l 0.73794,-0.148828 h 0.41755 v 2.734717 h 0.68213 v 0.351399 h -1.77767 z"
         style="fill:#000000;fill-opacity:1;stroke-width:0.05291667"
         id="path4509" />
      <path
         d="m 157.27911,78.769987 q -0.32246,0 -0.48576,0.318326 -0.16123,0.31626 -0.16123,0.952914 0,0.634586 0.16123,0.952913 0.1633,0.31626 0.48576,0.31626 0.32453,0 0.48576,-0.31626 0.1633,-0.318327 0.1633,-0.952913 0,-0.636654 -0.1633,-0.952914 -0.16123,-0.318326 -0.48576,-0.318326 z m 0,-0.33073 q 0.51883,0 0.79169,0.411345 0.27491,0.409277 0.27491,1.190625 0,0.77928 -0.27491,1.190625 -0.27286,0.409277 -0.79169,0.409277 -0.51883,0 -0.79375,-0.409277 -0.27285,-0.411345 -0.27285,-1.190625 0,-0.781348 0.27285,-1.190625 0.27492,-0.411345 0.79375,-0.411345 z"
         style="fill:#000000;fill-opacity:1;stroke-width:0.05291667"
         id="path4511" />
      <path
         d="m 159.97456,78.769987 q -0.32247,0 -0.48576,0.318326 -0.16123,0.31626 -0.16123,0.952914 0,0.634586 0.16123,0.952913 0.16329,0.31626 0.48576,0.31626 0.32452,0 0.48575,-0.31626 0.1633,-0.318327 0.1633,-0.952913 0,-0.636654 -0.1633,-0.952914 -0.16123,-0.318326 -0.48575,-0.318326 z m 0,-0.33073 q 0.51883,0 0.79168,0.411345 0.27492,0.409277 0.27492,1.190625 0,0.77928 -0.27492,1.190625 -0.27285,0.409277 -0.79168,0.409277 -0.51884,0 -0.79375,-0.409277 -0.27286,-0.411345 -0.27286,-1.190625 0,-0.781348 0.27286,-1.190625 0.27491,-0.411345 0.79375,-0.411345 z"
         style="fill:#000000;fill-opacity:1;stroke-width:0.05291667"
         id="path4513" />
      <path
         d="m 164.40219,80.223128 q -0.17983,0 -0.28318,0.152962 -0.10129,0.152962 -0.10129,0.425814 0,0.268717 0.10129,0.423747 0.10335,0.152962 0.28318,0.152962 0.1757,0 0.27699,-0.152962 0.10335,-0.15503 0.10335,-0.423747 0,-0.270785 -0.10335,-0.423747 -0.10129,-0.155029 -0.27699,-0.155029 z m 0,-0.262516 q 0.3266,0 0.51883,0.227376 0.19224,0.227376 0.19224,0.613916 0,0.38654 -0.1943,0.613916 -0.19224,0.225309 -0.51677,0.225309 -0.33073,0 -0.52296,-0.225309 -0.19224,-0.227376 -0.19224,-0.613916 0,-0.388607 0.19224,-0.613916 0.1943,-0.227376 0.52296,-0.227376 z m -2.1332,-1.258838 q -0.17777,0 -0.28112,0.155029 -0.10129,0.152962 -0.10129,0.42168 0,0.272851 0.10129,0.425813 0.10129,0.152963 0.28112,0.152963 0.17983,0 0.28112,-0.152963 0.10335,-0.152962 0.10335,-0.425813 0,-0.266651 -0.10335,-0.42168 -0.10335,-0.155029 -0.28112,-0.155029 z m 1.86655,-0.262517 h 0.33073 l -1.93063,3.201872 h -0.33073 z m -1.86655,0 q 0.32659,0 0.5209,0.227377 0.1943,0.225309 0.1943,0.611849 0,0.390673 -0.1943,0.615983 -0.19224,0.225309 -0.5209,0.225309 -0.32866,0 -0.5209,-0.225309 -0.19017,-0.227377 -0.19017,-0.615983 0,-0.384473 0.19224,-0.611849 0.19223,-0.227377 0.51883,-0.227377 z"
         style="fill:#000000;fill-opacity:1;stroke-width:0.05291667"
         id="path4515" />
      <path
         d="m 168.76575,81.581184 v -1.265039 h -0.86196 q -0.38447,0 -0.61392,-0.239778 -0.22944,-0.241846 -0.22944,-0.733806 v -0.847493 h 0.41548 v 0.814421 q 0,0.328662 0.12815,0.491959 0.12816,0.163298 0.38448,0.163298 h 0.77721 v -1.469678 h 0.41961 v 3.086116 z"
         style="fill:#000000;fill-opacity:1;stroke-width:0.05291667"
         id="path4517" />
      <path
         d="m 171.98002,80.328548 v 0.186035 h -1.74873 q 0.0248,0.392741 0.23565,0.599446 0.21291,0.204639 0.59118,0.204639 0.21911,0 0.42374,-0.05374 0.20671,-0.05374 0.40928,-0.161231 v 0.359668 q -0.20464,0.08682 -0.41961,0.132292 -0.21498,0.04548 -0.43615,0.04548 -0.55397,0 -0.8785,-0.322461 -0.32246,-0.322461 -0.32246,-0.872298 0,-0.568441 0.30592,-0.901237 0.308,-0.334863 0.82889,-0.334863 0.46716,0 0.73794,0.30179 0.27285,0.299723 0.27285,0.816488 z m -0.38033,-0.111621 q -0.004,-0.312126 -0.1757,-0.498161 -0.1695,-0.186035 -0.45062,-0.186035 -0.31833,0 -0.51057,0.179834 -0.19016,0.179834 -0.2191,0.506429 z"
         style="fill:#000000;fill-opacity:1;stroke-width:0.05291667"
         id="path4519" />
      <path
         d="m 172.97221,81.233919 v 1.227832 h -0.3824 V 79.26608 h 0.3824 v 0.3514 q 0.11989,-0.206706 0.30179,-0.305924 0.18397,-0.101286 0.43822,-0.101286 0.42168,0 0.68419,0.334863 0.26459,0.334863 0.26459,0.880566 0,0.545704 -0.26459,0.880567 -0.26251,0.334863 -0.68419,0.334863 -0.25425,0 -0.43822,-0.09922 -0.1819,-0.101286 -0.30179,-0.307991 z m 1.29398,-0.80822 q 0,-0.419612 -0.17363,-0.657324 -0.17157,-0.239778 -0.47336,-0.239778 -0.30179,0 -0.47542,0.239778 -0.17157,0.237712 -0.17157,0.657324 0,0.419613 0.17157,0.659392 0.17363,0.237711 0.47542,0.237711 0.30179,0 0.47336,-0.237711 0.17363,-0.239779 0.17363,-0.659392 z"
         style="fill:#000000;fill-opacity:1;stroke-width:0.05291667"
         id="path4521" />
    </g>
    <flowRoot
       xml:space="preserve"
       id="flowRoot4500"
       style="fill:none;stroke:black;stroke-opacity:1;stroke-width:1px;stroke-linejoin:miter;stroke-linecap:butt;font-family:Arial;font-size:21.33333333px;line-height:25px;letter-spacing:0px;word-spacing:0px;-inkscape-font-specification:Arial;font-weight:normal;font-style:normal;font-stretch:normal;font-variant:normal"><flowRegion
         id="flowRegion4502"><rect
           id="rect4505"
           width="460"
           height="90"
           x="-39.999973"
           y="-42.070629" /></flowRegion><flowPara
         id="flowPara4507"></flowPara></flowRoot>  </g>
</svg>
