<?xml version="1.0" encoding="UTF-8" standalone="no"?>
<svg
   xmlns:osb="http://www.openswatchbook.org/uri/2009/osb"
   xmlns:dc="http://purl.org/dc/elements/1.1/"
   xmlns:cc="http://creativecommons.org/ns#"
   xmlns:rdf="http://www.w3.org/1999/02/22-rdf-syntax-ns#"
   xmlns:svg="http://www.w3.org/2000/svg"
   xmlns="http://www.w3.org/2000/svg"
   xmlns:xlink="http://www.w3.org/1999/xlink"
   xmlns:sodipodi="http://sodipodi.sourceforge.net/DTD/sodipodi-0.dtd"
   xmlns:inkscape="http://www.inkscape.org/namespaces/inkscape"
   version="1.1"
   id="svg17388"
   viewBox="0 0 1631.745 1125.9638"
   height="317.772mm"
   width="460.51468mm"
   sodipodi:docname="projection-cube_13.svg"
   inkscape:version="0.92.1 r15371">
  <sodipodi:namedview
     pagecolor="#ffffff"
     bordercolor="#666666"
     borderopacity="1"
     objecttolerance="10"
     gridtolerance="10"
     guidetolerance="10"
     inkscape:pageopacity="0"
     inkscape:pageshadow="2"
     inkscape:window-width="1920"
     inkscape:window-height="1051"
     id="namedview23336"
     showgrid="false"
     inkscape:zoom="0.55578119"
     inkscape:cx="544.68436"
     inkscape:cy="496.2661"
     inkscape:window-x="0"
     inkscape:window-y="0"
     inkscape:window-maximized="1"
     inkscape:current-layer="svg17388" />
  <defs
     id="defs17390">
    <linearGradient
       y2="351.71454"
       x2="4180.9253"
       y1="351.71454"
       x1="4019.4543"
       gradientTransform="translate(-22,1174)"
       gradientUnits="userSpaceOnUse"
       id="linearGradient5145"
       xlink:href="#red" />
    <linearGradient
       gradientTransform="rotate(-49.820261,-5451.2932,-27359.65)"
       osb:paint="solid"
       id="red">
      <stop
         id="stop5548"
         offset="0"
         style="stop-color:#e31616;stop-opacity:1;" />
    </linearGradient>
    <linearGradient
       y2="381.53329"
       x2="4081.2812"
       y1="381.53329"
       x1="3983.3206"
       gradientTransform="translate(-22,1174)"
       gradientUnits="userSpaceOnUse"
       id="linearGradient5147"
       xlink:href="#side" />
    <linearGradient
       gradientTransform="matrix(0.9422018,-0.33504593,0.33504593,0.9422018,5215.8889,-2083.0982)"
       osb:paint="solid"
       id="side">
      <stop
         id="stop5530"
         offset="0"
         style="stop-color:#265998;stop-opacity:1;" />
    </linearGradient>
    <linearGradient
       y2="364.30023"
       x2="4139.792"
       y1="364.30023"
       x1="4005.9314"
       gradientTransform="translate(-22,1174)"
       gradientUnits="userSpaceOnUse"
       id="linearGradient5149"
       xlink:href="#top" />
    <linearGradient
       gradientTransform="matrix(0.9422018,-0.33504593,0.33504593,0.9422018,5203.2038,-2086.3603)"
       osb:paint="solid"
       id="top">
      <stop
         id="stop5590"
         offset="0"
         style="stop-color:#f9d455;stop-opacity:1;" />
    </linearGradient>
    <marker
       style="overflow:visible"
       id="marker5109"
       refX="0"
       refY="0"
       orient="auto">
      <path
         transform="matrix(-0.8,0,0,-0.8,-10,0)"
         style="fill:#000000;fill-opacity:1;fill-rule:evenodd;stroke:#000000;stroke-width:1pt;stroke-opacity:1"
         d="M 0,0 5,-5 -12.5,0 5,5 0,0 Z"
         id="path5111" />
    </marker>
    <marker
       style="overflow:visible"
       id="marker5097"
       refX="0"
       refY="0"
       orient="auto">
      <path
         transform="matrix(-0.8,0,0,-0.8,-10,0)"
         style="fill:#000000;fill-opacity:1;fill-rule:evenodd;stroke:#000000;stroke-width:1pt;stroke-opacity:1"
         d="M 0,0 5,-5 -12.5,0 5,5 0,0 Z"
         id="path5099" />
    </marker>
    <marker
       style="overflow:visible"
       id="marker5092"
       refX="0"
       refY="0"
       orient="auto">
      <path
         transform="matrix(-0.8,0,0,-0.8,-10,0)"
         style="fill:#000000;fill-opacity:1;fill-rule:evenodd;stroke:#000000;stroke-width:1pt;stroke-opacity:1"
         d="M 0,0 5,-5 -12.5,0 5,5 0,0 Z"
         id="path4839" />
    </marker>
    <marker
       orient="auto"
       refY="0"
       refX="0"
       id="marker4780"
       style="overflow:visible">
      <path
         id="path4782"
         d="M 0,0 5,-5 -12.5,0 5,5 0,0 Z"
         style="fill:#000000;fill-opacity:1;fill-rule:evenodd;stroke:#000000;stroke-width:1pt;stroke-opacity:1"
         transform="matrix(-0.8,0,0,-0.8,-10,0)" />
    </marker>
    <marker
       orient="auto"
       refY="0"
       refX="0"
       id="marker17490"
       style="overflow:visible">
      <path
         id="path17492"
         d="M 0,0 5,-5 -12.5,0 5,5 0,0 Z"
         style="fill:#000000;fill-opacity:1;fill-rule:evenodd;stroke:#000000;stroke-width:1pt;stroke-opacity:1"
         transform="matrix(-0.8,0,0,-0.8,-10,0)" />
    </marker>
    <marker
       style="overflow:visible"
       id="marker16832"
       refX="0"
       refY="0"
       orient="auto">
      <path
         transform="matrix(-0.8,0,0,-0.8,-10,0)"
         style="fill:#000000;fill-opacity:1;fill-rule:evenodd;stroke:#000000;stroke-width:1pt;stroke-opacity:1"
         d="M 0,0 5,-5 -12.5,0 5,5 0,0 Z"
         id="path16834" />
    </marker>
    <marker
       orient="auto"
       refY="0"
       refX="0"
       id="marker4796"
       style="overflow:visible">
      <path
         id="path4798"
         d="M 0,0 5,-5 -12.5,0 5,5 0,0 Z"
         style="fill:#000000;fill-opacity:1;fill-rule:evenodd;stroke:#000000;stroke-width:1pt;stroke-opacity:1"
         transform="matrix(-0.8,0,0,-0.8,-10,0)" />
    </marker>
    <marker
       style="overflow:visible"
       id="marker4792"
       refX="0"
       refY="0"
       orient="auto">
      <path
         transform="matrix(-0.8,0,0,-0.8,-10,0)"
         style="fill:#000000;fill-opacity:1;fill-rule:evenodd;stroke:#000000;stroke-width:1pt;stroke-opacity:1"
         d="M 0,0 5,-5 -12.5,0 5,5 0,0 Z"
         id="path4794" />
    </marker>
    <marker
       orient="auto"
       refY="0"
       refX="0"
       id="marker4788"
       style="overflow:visible">
      <path
         id="path4790"
         d="M 0,0 5,-5 -12.5,0 5,5 0,0 Z"
         style="fill:#000000;fill-opacity:1;fill-rule:evenodd;stroke:#000000;stroke-width:1pt;stroke-opacity:1"
         transform="matrix(-0.8,0,0,-0.8,-10,0)" />
    </marker>
    <marker
       style="overflow:visible"
       id="marker4784"
       refX="0"
       refY="0"
       orient="auto">
      <path
         transform="matrix(-0.8,0,0,-0.8,-10,0)"
         style="fill:#000000;fill-opacity:1;fill-rule:evenodd;stroke:#000000;stroke-width:1pt;stroke-opacity:1"
         d="M 0,0 5,-5 -12.5,0 5,5 0,0 Z"
         id="path4786" />
    </marker>
    <linearGradient
       y2="1092.722"
       x2="1934.082"
       y1="1092.722"
       x1="1734.1537"
       gradientTransform="rotate(59.75507,1729.0857,454.43621)"
       gradientUnits="userSpaceOnUse"
       id="linearGradient4768"
       xlink:href="#side" />
    <marker
       orient="auto"
       refY="0"
       refX="0"
       id="marker4826"
       style="overflow:visible">
      <path
         id="path4828"
         d="M 0,0 5,-5 -12.5,0 5,5 0,0 Z"
         style="fill:#000000;fill-opacity:1;fill-rule:evenodd;stroke:#000000;stroke-width:1pt;stroke-opacity:1"
         transform="matrix(-0.8,0,0,-0.8,-10,0)" />
    </marker>
    <marker
       style="overflow:visible"
       id="marker4810"
       refX="0"
       refY="0"
       orient="auto">
      <path
         transform="matrix(-0.8,0,0,-0.8,-10,0)"
         style="fill:#000000;fill-opacity:1;fill-rule:evenodd;stroke:#000000;stroke-width:1pt;stroke-opacity:1"
         d="M 0,0 5,-5 -12.5,0 5,5 0,0 Z"
         id="path4812" />
    </marker>
    <linearGradient
       y2="1092.722"
       x2="1934.082"
       y1="1092.722"
       x1="1734.1537"
       gradientTransform="rotate(90,1162.8428,134.17989)"
       gradientUnits="userSpaceOnUse"
       id="linearGradient4766"
       xlink:href="#side" />
    <linearGradient
       y2="1092.722"
       x2="1934.082"
       y1="1092.722"
       x1="1734.1537"
       gradientTransform="rotate(59.75507,1816.1175,504.43631)"
       gradientUnits="userSpaceOnUse"
       id="linearGradient4764"
       xlink:href="#side" />
    <marker
       style="overflow:visible"
       id="marker6311"
       refX="0"
       refY="0"
       orient="auto">
      <path
         transform="matrix(-0.8,0,0,-0.8,-10,0)"
         style="fill:#000000;fill-opacity:1;fill-rule:evenodd;stroke:#000000;stroke-width:1pt;stroke-opacity:1"
         d="M 0,0 5,-5 -12.5,0 5,5 0,0 Z"
         id="path6313" />
    </marker>
    <marker
       style="overflow:visible"
       id="marker4822"
       refX="0"
       refY="0"
       orient="auto">
      <path
         transform="matrix(-0.8,0,0,-0.8,-10,0)"
         style="fill:#000000;fill-opacity:1;fill-rule:evenodd;stroke:#000000;stroke-width:1pt;stroke-opacity:1"
         d="M 0,0 5,-5 -12.5,0 5,5 0,0 Z"
         id="path4824" />
    </marker>
    <marker
       style="overflow:visible"
       id="marker5101"
       refX="0"
       refY="0"
       orient="auto">
      <path
         transform="matrix(-0.8,0,0,-0.8,-10,0)"
         style="fill:#000000;fill-opacity:1;fill-rule:evenodd;stroke:#000000;stroke-width:1pt;stroke-opacity:1"
         d="M 0,0 5,-5 -12.5,0 5,5 0,0 Z"
         id="path5103" />
    </marker>
    <marker
       style="overflow:visible"
       id="marker4818"
       refX="0"
       refY="0"
       orient="auto">
      <path
         transform="matrix(-0.8,0,0,-0.8,-10,0)"
         style="fill:#000000;fill-opacity:1;fill-rule:evenodd;stroke:#000000;stroke-width:1pt;stroke-opacity:1"
         d="M 0,0 5,-5 -12.5,0 5,5 0,0 Z"
         id="path4820" />
    </marker>
    <linearGradient
       gradientTransform="translate(-3141.521,-68.0819)"
       y2="364.30023"
       x2="4139.792"
       y1="364.30023"
       x1="4005.9314"
       gradientUnits="userSpaceOnUse"
       id="linearGradient4762"
       xlink:href="#top" />
    <marker
       orient="auto"
       refY="0"
       refX="0"
       id="marker5113"
       style="overflow:visible">
      <path
         id="path5115"
         d="M 0,0 5,-5 -12.5,0 5,5 0,0 Z"
         style="fill:#000000;fill-opacity:1;fill-rule:evenodd;stroke:#000000;stroke-width:1pt;stroke-opacity:1"
         transform="matrix(-0.8,0,0,-0.8,-10,0)" />
    </marker>
    <linearGradient
       gradientTransform="translate(-3141.521,-68.0819)"
       y2="381.53329"
       x2="4081.2812"
       y1="381.53329"
       x1="3983.3206"
       gradientUnits="userSpaceOnUse"
       id="linearGradient4760"
       xlink:href="#side" />
    <linearGradient
       gradientTransform="translate(-3141.521,-68.0819)"
       y2="351.71454"
       x2="4180.9253"
       y1="351.71454"
       x1="4019.4543"
       gradientUnits="userSpaceOnUse"
       id="linearGradient4758"
       xlink:href="#red" />
    <linearGradient
       y2="1092.722"
       x2="1934.082"
       y1="1092.722"
       x1="1734.1537"
       gradientTransform="rotate(90,1112.8428,84.17989)"
       gradientUnits="userSpaceOnUse"
       id="linearGradient4756"
       xlink:href="#side" />
  </defs>
  <metadata
     id="metadata17393">
    <rdf:RDF>
      <cc:Work
         rdf:about="">
        <dc:format>image/svg+xml</dc:format>
        <dc:type
           rdf:resource="http://purl.org/dc/dcmitype/StillImage" />
        <dc:title />
      </cc:Work>
    </rdf:RDF>
  </metadata>
  <path
     inkscape:connector-curvature="0"
     style="fill:url(#red);fill-opacity:1;stroke:none;stroke-width:1;stroke-linecap:round;stroke-linejoin:round;stroke-miterlimit:4;stroke-dasharray:none;stroke-dashoffset:0;stroke-opacity:1"
     d="m 137.54892,705.41908 h 100 v 200 h -100 z"
     id="rect4676" />
  <path
     inkscape:connector-curvature="0"
     style="fill:url(#linearGradient4756);fill-opacity:1;stroke:none;stroke-width:1;stroke-linecap:round;stroke-linejoin:round;stroke-miterlimit:4;stroke-dasharray:none;stroke-dashoffset:0;stroke-opacity:1"
     d="M 137.54893,705.49086 V 905.4192 H 71.05223 V 705.49086 Z"
     id="rect4678" />
  <path
     inkscape:connector-curvature="0"
     id="path4680"
     d="m 643.01458,170.911 240.6684,418.4944"
     style="fill:none;fill-rule:evenodd;stroke:#000000;stroke-width:1px;stroke-linecap:butt;stroke-linejoin:miter;stroke-opacity:1" />
  <path
     inkscape:connector-curvature="0"
     id="path4682"
     d="m 821.33308,119.30939 43.2856,33.7927 103.517,136.08211 -89.0589,-13.1698 z"
     style="fill:url(#linearGradient4758);fill-opacity:1;fill-rule:evenodd;stroke:none;stroke-width:1px;stroke-linecap:butt;stroke-linejoin:miter;stroke-opacity:1" />
  <path
     inkscape:connector-curvature="0"
     id="path4684"
     d="m 829.37788,201.7985 22.9585,125.6852 26.7866,-51.3892 -57.7899,-156.78521 z"
     style="fill:url(#linearGradient4760);fill-opacity:1;fill-rule:evenodd;stroke:none;stroke-width:1px;stroke-linecap:butt;stroke-linejoin:miter;stroke-opacity:1" />
  <path
     inkscape:connector-curvature="0"
     id="path4686"
     d="m 237.54888,905.4191 425.2647,-699.1528 158.5195,-86.95691"
     style="fill:none;fill-rule:evenodd;stroke:#000000;stroke-width:1px;stroke-linecap:butt;stroke-linejoin:miter;stroke-opacity:1;marker-end:url(#marker5113)" />
  <path
     inkscape:connector-curvature="0"
     id="path4696"
     d="m 968.13568,289.1842 -34.3779,44.2141 -81.4214,-5.9146 26.7866,-51.3892 z"
     style="fill:url(#linearGradient4762);fill-opacity:1;fill-rule:evenodd;stroke:none;stroke-width:1px;stroke-linecap:butt;stroke-linejoin:miter;stroke-opacity:1" />
  <path
     inkscape:connector-curvature="0"
     id="path4688"
     d="m 237.54888,705.4191 508.2237,-355.9406 133.3042,-73.4641"
     style="fill:none;fill-rule:evenodd;stroke:#000000;stroke-width:1;stroke-linecap:butt;stroke-linejoin:miter;stroke-miterlimit:4;stroke-dasharray:1, 1;stroke-dashoffset:0;stroke-opacity:1;marker-end:url(#marker4818)" />
  <path
     inkscape:connector-curvature="0"
     id="path4690"
     d="M 137.54887,905.4191 702.97808,274.7354 829.37788,201.7985"
     style="fill:none;fill-rule:evenodd;stroke:#000000;stroke-width:1px;stroke-linecap:butt;stroke-linejoin:miter;stroke-opacity:1;marker-end:url(#marker5101)" />
  <path
     inkscape:connector-curvature="0"
     id="path4692"
     d="M 137.54887,705.4908 775.11778,400.6231 968.13558,289.1842"
     style="fill:none;fill-rule:evenodd;stroke:#000000;stroke-width:1;stroke-linecap:butt;stroke-linejoin:miter;stroke-miterlimit:4;stroke-dasharray:1, 1;stroke-dashoffset:0;stroke-opacity:1;marker-end:url(#marker4822)" />
  <path
     inkscape:connector-curvature="0"
     id="path4694"
     d="m 71.05227,705.4908 712.94591,-285.948 149.7596,-86.1445"
     style="fill:none;fill-rule:evenodd;stroke:#000000;stroke-width:1;stroke-linecap:butt;stroke-linejoin:miter;stroke-miterlimit:4;stroke-dasharray:1, 1;stroke-dashoffset:0;stroke-opacity:1;marker-end:url(#marker6311)" />
  <path
     inkscape:connector-curvature="0"
     style="fill:none;fill-rule:evenodd;stroke:#000000;stroke-width:1px;stroke-linecap:butt;stroke-linejoin:miter;stroke-opacity:1"
     d="m 335.54148,348.8937 208.1415,360.5117"
     id="path4698" />
  <path
     inkscape:connector-curvature="0"
     style="fill:url(#linearGradient4764);fill-opacity:1;stroke:none;stroke-width:1;stroke-linecap:round;stroke-linejoin:round;stroke-miterlimit:4;stroke-dasharray:none;stroke-dashoffset:0;stroke-opacity:1"
     d="m 1295.3459,713.20131 100.7034,172.71412 -57.4452,33.49422 -100.7034,-172.71411 z"
     id="rect4700" />
  <path
     inkscape:connector-curvature="0"
     style="fill:url(#red);fill-opacity:1;stroke:none;stroke-width:1;stroke-linecap:round;stroke-linejoin:round;stroke-miterlimit:4;stroke-dasharray:none;stroke-dashoffset:0;stroke-opacity:1"
     d="m 1151.5124,797.06547 86.388,-50.36976 100.7395,172.77602 -86.388,50.36975 z"
     id="rect4702" />
  <path
     inkscape:connector-curvature="0"
     style="opacity:0.40100002;fill:url(#linearGradient4766);fill-opacity:1;stroke:none;stroke-width:1;stroke-linecap:round;stroke-linejoin:round;stroke-miterlimit:4;stroke-dasharray:none;stroke-dashoffset:0;stroke-opacity:1"
     d="M 237.54893,705.49086 V 905.4192 h -66.4967 V 705.49086 Z"
     id="rect4704" />
  <path
     inkscape:connector-curvature="0"
     id="path4706"
     d="m 172.05228,707.4908 591.0655,-327.8677 89.2186,-52.1394"
     style="fill:none;fill-rule:evenodd;stroke:#000000;stroke-width:1;stroke-linecap:butt;stroke-linejoin:miter;stroke-miterlimit:4;stroke-dasharray:1, 1;stroke-dashoffset:0;stroke-opacity:1;marker-end:url(#marker4810)" />
  <path
     inkscape:connector-curvature="0"
     id="path4708"
     d="M 171.05218,905.4191 690.59098,253.6409 864.61848,153.10169"
     style="fill:none;fill-rule:evenodd;stroke:#000000;stroke-width:1px;stroke-linecap:butt;stroke-linejoin:miter;stroke-opacity:1;marker-end:url(#marker4826)" />
  <path
     inkscape:connector-curvature="0"
     style="opacity:0.45199998;fill:url(#linearGradient4768);fill-opacity:1;stroke:none;stroke-width:1;stroke-linecap:round;stroke-linejoin:round;stroke-miterlimit:4;stroke-dasharray:none;stroke-dashoffset:0;stroke-opacity:1"
     d="m 1208.9576,763.57119 100.7035,172.71411 -57.4452,33.49423 -100.7034,-172.71412 z"
     id="rect4710" />
  <path
     inkscape:connector-curvature="0"
     id="path4720"
     d="M 1151.5124,797.0654 1083.4172,488.8576 968.13568,289.1842"
     style="fill:none;fill-rule:evenodd;stroke:#000000;stroke-width:1;stroke-linecap:butt;stroke-linejoin:miter;stroke-miterlimit:4;stroke-dasharray:2, 4;stroke-dashoffset:0;stroke-opacity:1;marker-end:url(#marker4784)" />
  <path
     inkscape:connector-curvature="0"
     id="path4722"
     d="M 1237.9003,746.6957 1022.645,524.8196 879.07678,276.0144"
     style="fill:none;fill-rule:evenodd;stroke:#000000;stroke-width:1;stroke-linecap:butt;stroke-linejoin:miter;stroke-miterlimit:4;stroke-dasharray:2, 4;stroke-dashoffset:0;stroke-opacity:1;marker-end:url(#marker4788)" />
  <path
     inkscape:connector-curvature="0"
     id="path4724"
     d="M 1208.9578,763.5713 1042.5744,513.4401 933.75778,333.3983"
     style="fill:none;fill-rule:evenodd;stroke:#000000;stroke-width:1;stroke-linecap:butt;stroke-linejoin:miter;stroke-miterlimit:4;stroke-dasharray:2, 4;stroke-dashoffset:0;stroke-opacity:1;marker-end:url(#marker4792)" />
  <path
     inkscape:connector-curvature="0"
     id="path4726"
     d="M 1295.3459,713.2013 980.24578,549.0292 852.33638,327.4837"
     style="fill:none;fill-rule:evenodd;stroke:#000000;stroke-width:1;stroke-linecap:butt;stroke-linejoin:miter;stroke-miterlimit:4;stroke-dasharray:2, 4;stroke-dashoffset:0;stroke-opacity:1;marker-end:url(#marker4796)" />
  <path
     inkscape:connector-curvature="0"
     id="path4740"
     d="m 267.47908,491.2803 c 7,2 142.9558,51.6408 142.9558,51.6408"
     style="fill:none;fill-rule:evenodd;stroke:#000000;stroke-width:5.80000019;stroke-linecap:butt;stroke-linejoin:miter;stroke-miterlimit:4;stroke-dasharray:none;stroke-opacity:1;marker-end:url(#marker16832)" />
  <path
     inkscape:connector-curvature="0"
     style="fill:none;fill-rule:evenodd;stroke:#000000;stroke-width:5.80000019;stroke-linecap:butt;stroke-linejoin:miter;stroke-miterlimit:4;stroke-dasharray:none;stroke-opacity:1;marker-end:url(#marker17490)"
     d="m 403.58478,197.8184 c 21.5417,-76.52501 90.4485,-126.73401 202.6602,-52.36331"
     id="path4746" />
  <path
     inkscape:connector-curvature="0"
     id="path4748"
     d="m 1068.2148,211.762 c 157.3688,-133.247405 399.4215,-93.03171 425.3827,82.7769 12.9806,87.9042 7.551,200.4467 -56.6918,297.3762 -64.2428,96.9293 -159.9616,79.0641 -158.7284,-32.501 1.2332,-111.5651 109.9807,-132.5716 181.4519,-24.7827 71.4712,107.7889 103.6652,227.5803 97.6363,330.608 -12.0577,206.0554 -238.1745,191.5429 -566.59152,149.4385"
     style="fill:none;fill-rule:evenodd;stroke:#000000;stroke-width:5.80000019;stroke-linecap:butt;stroke-linejoin:miter;stroke-miterlimit:4;stroke-dasharray:none;stroke-opacity:1;marker-end:url(#marker4780)" />
  <path
     inkscape:connector-curvature="0"
     style="fill:none;fill-rule:evenodd;stroke:#000000;stroke-width:1px;stroke-linecap:butt;stroke-linejoin:miter;stroke-opacity:1"
     d="M 1281.6829,376.911 885.01458,603.4054"
     id="path4776" />
  <path
     inkscape:connector-curvature="0"
     id="path4804"
     d="M 1254.3549,518.9124 994.21338,695.4241"
     style="fill:none;fill-rule:evenodd;stroke:#000000;stroke-width:1px;stroke-linecap:butt;stroke-linejoin:miter;stroke-opacity:1" />
  <path
     inkscape:connector-curvature="0"
     style="fill:none;fill-rule:evenodd;stroke:#000000;stroke-width:1;stroke-linecap:butt;stroke-linejoin:miter;stroke-miterlimit:4;stroke-dasharray:6, 6;stroke-dashoffset:0;stroke-opacity:1;marker-end:url(#marker5092)"
     d="M 1252.216,969.7794 1065.2008,500.5205 864.61868,153.10209"
     id="path4830" />
  <path
     inkscape:connector-curvature="0"
     style="fill:none;fill-rule:evenodd;stroke:#000000;stroke-width:1;stroke-linecap:butt;stroke-linejoin:miter;stroke-miterlimit:4;stroke-dasharray:6, 6;stroke-dashoffset:0;stroke-opacity:1;marker-end:url(#marker5097)"
     d="M 1396.0491,885.9153 1017.188,527.0951 829.37788,201.7985"
     id="path5095" />
  <path
     inkscape:connector-curvature="0"
     style="fill:none;fill-rule:evenodd;stroke:#000000;stroke-width:1;stroke-linecap:butt;stroke-linejoin:miter;stroke-miterlimit:4;stroke-dasharray:6, 6;stroke-dashoffset:0;stroke-opacity:1;marker-end:url(#marker5109)"
     d="M 1309.6607,936.2847 1047.3197,510.7297 821.33308,119.30929"
     id="path5107" />
  <g
     id="g5140"
     transform="matrix(-1.0225794,-0.37309222,0.37309222,-1.0225794,4304.4147,3748.7109)">
    <path
       inkscape:connector-curvature="0"
       id="path5134"
       d="m 3940.854,1361.3913 43.2856,33.7927 103.517,136.0821 -89.0589,-13.1698 z"
       style="fill:url(#linearGradient5145);fill-opacity:1;fill-rule:evenodd;stroke:none;stroke-width:1px;stroke-linecap:butt;stroke-linejoin:miter;stroke-opacity:1" />
    <path
       inkscape:connector-curvature="0"
       id="path5136"
       d="m 3948.8988,1443.8804 22.9585,125.6852 26.7866,-51.3892 -57.7899,-156.7852 z"
       style="fill:url(#linearGradient5147);fill-opacity:1;fill-rule:evenodd;stroke:none;stroke-width:1px;stroke-linecap:butt;stroke-linejoin:miter;stroke-opacity:1" />
    <path
       inkscape:connector-curvature="0"
       id="path5138"
       d="m 4087.6566,1531.2661 -34.3779,44.2141 -81.4214,-5.9146 26.7866,-51.3892 z"
       style="fill:url(#linearGradient5149);fill-opacity:1;fill-rule:evenodd;stroke:none;stroke-width:1px;stroke-linecap:butt;stroke-linejoin:miter;stroke-opacity:1" />
  </g>
  <g
     aria-label="Перспектива (триточкова)"
     style="font-style:normal;font-variant:normal;font-weight:normal;font-stretch:normal;font-size:35.00000763px;line-height:30.50787735px;font-family:'Liberation Serif';-inkscape-font-specification:'Liberation Serif';text-align:center;letter-spacing:0px;word-spacing:0px;text-anchor:middle;fill:none;stroke:#000000;stroke-width:0.93749994px;stroke-linecap:butt;stroke-linejoin:miter;stroke-opacity:1"
     id="text13833">
    <path
       d="m 573.21633,996.64178 v -0.90576 l 2.93945,-0.46142 v -20.2002 l -2.93945,-0.44434 v -0.90576 h 23.24219 v 0.90576 l -2.93945,0.44434 v 20.2002 l 2.93945,0.46142 v 0.90576 h -9.16016 v -0.90576 l 2.93946,-0.46142 v -20.01221 h -10.7837 v 20.01221 l 2.93946,0.46142 v 0.90576 z"
       style="text-align:center;text-anchor:middle;fill:#000000;fill-opacity:1;stroke:none;stroke-width:0.93749994px"
       id="path24325" />
    <path
       d="m 601.94436,988.55829 v 0.30761 q 0,2.3584 0.5127,3.67432 0.52978,1.29883 1.60644,1.98242 1.09375,0.6836 2.85401,0.6836 0.92285,0 2.1875,-0.15381 1.26465,-0.15381 2.08496,-0.3418 v 0.95703 q -0.82031,0.52979 -2.23877,0.92286 -1.40137,0.39306 -2.8711,0.39306 -3.74267,0 -5.48584,-2.0166 -1.72607,-2.0166 -1.72607,-6.47705 0,-4.20411 1.76025,-6.27198 1.76026,-2.06787 5.02442,-2.06787 6.16943,0 6.16943,7.00684 v 1.40137 z m 3.7085,-7.04102 q -1.77735,0 -2.73438,1.43555 -0.93994,1.43554 -0.93994,4.23828 h 6.87012 q 0,-3.05908 -0.78613,-4.35791 -0.78614,-1.31592 -2.40967,-1.31592 z"
       style="text-align:center;text-anchor:middle;fill:#000000;fill-opacity:1;stroke:none;stroke-width:0.93749994px"
       id="path24327" />
    <path
       d="m 615.61624,981.77362 -1.82862,-0.42725 v -0.76904 h 4.51172 l 0.0342,0.93994 q 0.71778,-0.61523 1.91407,-0.99121 1.21338,-0.37598 2.46093,-0.37598 3.07618,0 4.75098,2.13623 1.6919,2.13623 1.6919,6.13526 0,4.08447 -1.84571,6.32324 -1.82861,2.23877 -5.29785,2.23877 -1.93115,0 -3.67432,-0.37598 0.10254,1.23047 0.10254,1.93116 v 4.34084 l 2.80274,0.4101 v 0.8033 h -7.65625 v -0.8033 l 2.03369,-0.4101 z m 10.45898,6.64795 q 0,-3.28125 -1.07666,-4.87061 -1.05957,-1.60644 -3.22998,-1.60644 -1.99951,0 -3.33252,0.56396 v 12.83448 q 1.521,0.29052 3.33252,0.29052 4.30664,0 4.30664,-7.21191 z"
       style="text-align:center;text-anchor:middle;fill:#000000;fill-opacity:1;stroke:none;stroke-width:0.93749994px"
       id="path24329" />
    <path
       d="m 644.9766,995.66766 q -0.8374,0.61524 -2.30713,0.97412 -1.46973,0.3418 -3.00781,0.3418 -7.81006,0 -7.81006,-8.49365 0,-4.01612 1.98242,-6.16944 1.99951,-2.17041 5.70801,-2.17041 2.30713,0 5.0415,0.52979 v 4.47754 h -0.93994 l -0.73486,-2.83692 q -1.41846,-0.80322 -3.40088,-0.80322 -4.58008,0 -4.58008,6.97266 0,3.62305 1.38428,5.17822 1.40136,1.53809 4.32373,1.53809 2.49512,0 4.34082,-0.56397 z"
       style="text-align:center;text-anchor:middle;fill:#000000;fill-opacity:1;stroke:none;stroke-width:0.93749994px"
       id="path24331" />
    <path
       d="m 648.80472,981.77362 -2.13623,-0.42725 v -0.76904 h 17.27784 v 0.76904 l -1.94825,0.42725 v 13.67188 l 1.94825,0.42724 v 0.76904 h -6.92139 v -0.76904 l 2.13623,-0.42724 v -13.44971 h -7.51953 v 13.44971 l 1.94824,0.42724 v 0.76904 h -6.92139 v -0.76904 l 2.13623,-0.42724 z"
       style="text-align:center;text-anchor:middle;fill:#000000;fill-opacity:1;stroke:none;stroke-width:0.93749994px"
       id="path24333" />
    <path
       d="m 669.21,988.55829 v 0.30761 q 0,2.3584 0.5127,3.67432 0.52978,1.29883 1.60644,1.98242 1.09375,0.6836 2.85401,0.6836 0.92285,0 2.1875,-0.15381 1.26465,-0.15381 2.08496,-0.3418 v 0.95703 q -0.82031,0.52979 -2.23877,0.92286 -1.40137,0.39306 -2.87109,0.39306 -3.74268,0 -5.48584,-2.0166 -1.72608,-2.0166 -1.72608,-6.47705 0,-4.20411 1.76026,-6.27198 1.76025,-2.06787 5.02441,-2.06787 6.16944,0 6.16944,7.00684 v 1.40137 z m 3.7085,-7.04102 q -1.77734,0 -2.73438,1.43555 -0.93994,1.43554 -0.93994,4.23828 h 6.87012 q 0,-3.05908 -0.78613,-4.35791 -0.78613,-1.31592 -2.40967,-1.31592 z"
       style="text-align:center;text-anchor:middle;fill:#000000;fill-opacity:1;stroke:none;stroke-width:0.93749994px"
       id="path24335" />
    <path
       d="m 683.05278,981.77362 -2.13623,-0.42725 v -0.76904 h 6.92138 v 0.76904 l -1.94824,0.42725 v 7.10937 l 6.5625,-7.07519 -1.6748,-0.46143 v -0.76904 h 5.67383 v 0.76904 l -1.99952,0.39307 -4.58007,4.68262 5.8789,9.05762 1.57227,0.39306 v 0.76904 h -6.40869 v -0.76904 l 1.46972,-0.42724 -4.40918,-6.92139 -2.08496,1.77734 v 5.14405 l 1.94824,0.42724 v 0.76904 h -6.92138 v -0.76904 l 2.13623,-0.42724 z"
       style="text-align:center;text-anchor:middle;fill:#000000;fill-opacity:1;stroke:none;stroke-width:0.93749994px"
       id="path24337" />
    <path
       d="m 711.60992,980.57733 v 4.58008 h -0.93995 l -0.73486,-2.83692 q -1.89697,-0.3247 -3.40088,-0.3247 h -0.64941 v 13.44971 l 2.29004,0.42724 v 0.76904 h -7.60499 v -0.76904 l 2.47803,-0.42724 v -13.44971 h -0.63232 q -1.50391,0 -3.40088,0.3247 l -0.73487,2.83692 h -0.93994 v -4.58008 z"
       style="text-align:center;text-anchor:middle;fill:#000000;fill-opacity:1;stroke:none;stroke-width:0.93749994px"
       id="path24339" />
    <path
       d="m 714.90825,981.77362 -2.13623,-0.42725 v -0.76904 h 6.92139 v 0.76904 l -1.94824,0.42725 v 10.1001 l 7.51953,-8.13477 v -1.96533 l -2.13623,-0.42725 v -0.76904 h 6.92139 v 0.76904 l -1.94824,0.42725 v 13.67188 l 1.94824,0.42724 v 0.76904 h -6.92139 v -0.76904 l 2.13623,-0.42724 v -9.7754 l -7.51953,8.13477 v 1.64063 l 1.94824,0.42724 v 0.76904 h -6.92139 v -0.76904 l 2.13623,-0.42724 z"
       style="text-align:center;text-anchor:middle;fill:#000000;fill-opacity:1;stroke:none;stroke-width:0.93749994px"
       id="path24341" />
    <path
       d="m 731.50249,996.64178 v -0.76904 l 2.13623,-0.42724 v -13.67188 l -2.13623,-0.42725 v -0.76904 h 6.87012 q 3.77686,0 5.33203,0.93994 1.57227,0.93994 1.57227,2.93945 0,1.64063 -0.93994,2.5293 -0.92286,0.88867 -2.63184,1.28174 v 0.13672 q 2.17041,0.23926 3.33252,1.11084 1.16211,0.87158 1.16211,2.61474 0,2.40967 -1.76025,3.46924 -1.74317,1.04248 -5.67383,1.04248 z m 7.00684,-1.36718 q 2.5293,0 3.57178,-0.75196 1.04248,-0.75195 1.04248,-2.46093 0,-1.62354 -1.11084,-2.30713 -1.09375,-0.70069 -3.72559,-0.70069 h -1.81152 v 6.22071 z m -2.03369,-7.5879 h 1.81152 q 2.05078,0 2.97363,-0.68359 0.93995,-0.68359 0.93995,-2.32422 0,-1.38428 -0.95704,-2.05078 -0.93994,-0.68359 -3.0249,-0.68359 h -1.74316 z"
       style="text-align:center;text-anchor:middle;fill:#000000;fill-opacity:1;stroke:none;stroke-width:0.93749994px"
       id="path24343" />
    <path
       d="m 754.88141,980.21844 q 2.63184,0 3.86231,1.07666 1.24756,1.07666 1.24756,3.29834 v 10.85206 l 1.99951,0.42724 v 0.76904 h -4.40918 l -0.32471,-1.60644 q -1.94824,1.94824 -4.97314,1.94824 -4.11866,0 -4.11866,-4.78516 0,-1.60644 0.61524,-2.64892 0.63232,-1.05957 1.99951,-1.60645 1.36719,-0.56396 3.96485,-0.61523 l 2.40966,-0.0684 v -2.51221 q 0,-1.65771 -0.61523,-2.44385 -0.59815,-0.78613 -1.86279,-0.78613 -1.70899,0 -3.12745,0.80322 l -0.58105,1.99951 h -0.95703 v -3.50341 q 2.76855,-0.59815 4.8706,-0.59815 z m 2.27295,8.23731 -2.23877,0.0684 q -2.29004,0.0855 -3.11035,0.88867 -0.80322,0.80322 -0.80322,2.68311 0,3.00781 2.44385,3.00781 1.16211,0 1.99951,-0.25635 0.85449,-0.27344 1.70898,-0.68359 z"
       style="text-align:center;text-anchor:middle;fill:#000000;fill-opacity:1;stroke:none;stroke-width:0.93749994px"
       id="path24345" />
    <path
       d="m 776.03864,988.1994 q 0,4.44336 0.59814,7.09229 0.59815,2.63183 1.87989,4.44336 1.28174,1.81155 3.21289,2.92235 v 1.4356 q -3.38379,-1.7945 -5.29785,-3.9307 -1.89698,-2.11915 -2.80274,-4.99024 -0.88867,-2.88819 -0.88867,-6.97266 0,-4.06738 0.88867,-6.92139 0.88867,-2.87109 2.78565,-4.99023 1.89697,-2.11914 5.31494,-3.93067 v 1.43555 q -2.08496,1.19629 -3.31543,3.07617 -1.23047,1.86279 -1.81153,4.35791 -0.56396,2.49512 -0.56396,6.97266 z"
       style="text-align:center;text-anchor:middle;fill:#000000;fill-opacity:1;stroke:none;stroke-width:0.93749994px"
       id="path24347" />
    <path
       d="m 797.67438,980.57733 v 4.58008 h -0.93994 l -0.73486,-2.83692 q -1.89697,-0.3247 -3.40088,-0.3247 h -0.64941 v 13.44971 l 2.29003,0.42724 v 0.76904 h -7.60498 v -0.76904 l 2.47803,-0.42724 v -13.44971 h -0.63232 q -1.50391,0 -3.40088,0.3247 l -0.73487,2.83692 h -0.93994 v -4.58008 z"
       style="text-align:center;text-anchor:middle;fill:#000000;fill-opacity:1;stroke:none;stroke-width:0.93749994px"
       id="path24349" />
    <path
       d="m 801.21198,981.77362 -1.82861,-0.42725 v -0.76904 h 4.51172 l 0.0342,0.93994 q 0.71778,-0.61523 1.91407,-0.99121 1.21338,-0.37598 2.46094,-0.37598 3.07617,0 4.75097,2.13623 1.6919,2.13623 1.6919,6.13526 0,4.08447 -1.84571,6.32324 -1.82861,2.23877 -5.29785,2.23877 -1.93115,0 -3.67432,-0.37598 0.10254,1.23047 0.10254,1.93116 v 4.34084 l 2.80274,0.4101 v 0.8033 h -7.65625 v -0.8033 l 2.03369,-0.4101 z m 10.45899,6.64795 q 0,-3.28125 -1.07666,-4.87061 -1.05958,-1.60644 -3.22999,-1.60644 -1.99951,0 -3.33252,0.56396 v 12.83448 q 1.521,0.29052 3.33252,0.29052 4.30665,0 4.30665,-7.21191 z"
       style="text-align:center;text-anchor:middle;fill:#000000;fill-opacity:1;stroke:none;stroke-width:0.93749994px"
       id="path24351" />
    <path
       d="m 818.88289,981.77362 -2.13623,-0.42725 v -0.76904 h 6.92139 v 0.76904 l -1.94824,0.42725 v 10.1001 l 7.51953,-8.13477 v -1.96533 l -2.13623,-0.42725 v -0.76904 h 6.92139 v 0.76904 l -1.94824,0.42725 v 13.67188 l 1.94824,0.42724 v 0.76904 h -6.92139 v -0.76904 l 2.13623,-0.42724 v -9.7754 l -7.51953,8.13477 v 1.64063 l 1.94824,0.42724 v 0.76904 h -6.92139 v -0.76904 l 2.13623,-0.42724 z"
       style="text-align:center;text-anchor:middle;fill:#000000;fill-opacity:1;stroke:none;stroke-width:0.93749994px"
       id="path24353" />
    <path
       d="m 849.62752,980.57733 v 4.58008 h -0.93994 l -0.73486,-2.83692 q -1.89697,-0.3247 -3.40088,-0.3247 h -0.64941 v 13.44971 l 2.29004,0.42724 v 0.76904 h -7.60499 v -0.76904 l 2.47803,-0.42724 v -13.44971 h -0.63232 q -1.50391,0 -3.40088,0.3247 l -0.73487,2.83692 h -0.93994 v -4.58008 z"
       style="text-align:center;text-anchor:middle;fill:#000000;fill-opacity:1;stroke:none;stroke-width:0.93749994px"
       id="path24355" />
    <path
       d="m 865.84579,988.52411 q 0,8.45947 -7.51954,8.45947 -3.62304,0 -5.46875,-2.17041 -1.8457,-2.17041 -1.8457,-6.28906 0,-4.06739 1.8457,-6.22071 1.84571,-2.15332 5.60547,-2.15332 3.65723,0 5.52002,2.11914 1.8628,2.10205 1.8628,6.25489 z m -3.07618,0 q 0,-3.69141 -1.07666,-5.34913 -1.07666,-1.65771 -3.3667,-1.65771 -2.23877,0 -3.24707,1.58936 -0.99121,1.58935 -0.99121,5.41748 0,3.87939 1.0083,5.50293 1.02539,1.60644 3.22998,1.60644 2.25586,0 3.34961,-1.6748 1.09375,-1.67481 1.09375,-5.43457 z"
       style="text-align:center;text-anchor:middle;fill:#000000;fill-opacity:1;stroke:none;stroke-width:0.93749994px"
       id="path24357" />
    <path
       d="m 871.79305,987.20819 q 0,1.05957 0.64941,1.74316 0.66651,0.6836 1.81153,0.6836 1.72607,0 4.01611,-0.56397 v -7.29736 l -2.13623,-0.42725 v -0.76904 h 6.92139 v 0.76904 l -1.94824,0.42725 v 13.67188 l 1.94824,0.42724 v 0.76904 h -6.92139 v -0.76904 l 2.13623,-0.42724 v -5.41749 q -1.86279,0.90577 -3.09326,1.26465 -1.21338,0.3418 -2.20459,0.3418 -1.93115,0 -2.97363,-1.12793 -1.04248,-1.12793 -1.04248,-3.24707 v -5.48584 l -2.13624,-0.42725 v -0.76904 h 6.92139 v 0.76904 l -1.94824,0.42725 z"
       style="text-align:center;text-anchor:middle;fill:#000000;fill-opacity:1;stroke:none;stroke-width:0.93749994px"
       id="path24359" />
    <path
       d="m 886.69539,981.77362 -2.13623,-0.42725 v -0.76904 h 6.92139 v 0.76904 l -1.94824,0.42725 v 7.10937 l 6.5625,-7.07519 -1.67481,-0.46143 v -0.76904 h 5.67383 v 0.76904 l -1.99951,0.39307 -4.58008,4.68262 5.87891,9.05762 1.57227,0.39306 v 0.76904 h -6.4087 v -0.76904 l 1.46973,-0.42724 -4.40918,-6.92139 -2.08496,1.77734 v 5.14405 l 1.94824,0.42724 v 0.76904 h -6.92139 v -0.76904 l 2.13623,-0.42724 z"
       style="text-align:center;text-anchor:middle;fill:#000000;fill-opacity:1;stroke:none;stroke-width:0.93749994px"
       id="path24361" />
    <path
       d="m 915.33797,988.52411 q 0,8.45947 -7.51953,8.45947 -3.62305,0 -5.46875,-2.17041 -1.8457,-2.17041 -1.8457,-6.28906 0,-4.06739 1.8457,-6.22071 1.8457,-2.15332 5.60547,-2.15332 3.65723,0 5.52002,2.11914 1.86279,2.10205 1.86279,6.25489 z m -3.07617,0 q 0,-3.69141 -1.07666,-5.34913 -1.07666,-1.65771 -3.3667,-1.65771 -2.23877,0 -3.24707,1.58936 -0.99121,1.58935 -0.99121,5.41748 0,3.87939 1.0083,5.50293 1.02539,1.60644 3.22998,1.60644 2.25586,0 3.34961,-1.6748 1.09375,-1.67481 1.09375,-5.43457 z"
       style="text-align:center;text-anchor:middle;fill:#000000;fill-opacity:1;stroke:none;stroke-width:0.93749994px"
       id="path24363" />
    <path
       d="m 917.30333,996.64178 v -0.76904 l 2.13623,-0.42724 v -13.67188 l -2.13623,-0.42725 v -0.76904 h 6.87012 q 3.77686,0 5.33203,0.93994 1.57227,0.93994 1.57227,2.93945 0,1.64063 -0.93994,2.5293 -0.92285,0.88867 -2.63184,1.28174 v 0.13672 q 2.17041,0.23926 3.33252,1.11084 1.16211,0.87158 1.16211,2.61474 0,2.40967 -1.76025,3.46924 -1.74317,1.04248 -5.67383,1.04248 z m 7.00684,-1.36718 q 2.5293,0 3.57178,-0.75196 1.04248,-0.75195 1.04248,-2.46093 0,-1.62354 -1.11084,-2.30713 -1.09375,-0.70069 -3.72559,-0.70069 h -1.81152 v 6.22071 z m -2.03369,-7.5879 h 1.81152 q 2.05078,0 2.97364,-0.68359 0.93994,-0.68359 0.93994,-2.32422 0,-1.38428 -0.95703,-2.05078 -0.93995,-0.68359 -3.02491,-0.68359 h -1.74316 z"
       style="text-align:center;text-anchor:middle;fill:#000000;fill-opacity:1;stroke:none;stroke-width:0.93749994px"
       id="path24365" />
    <path
       d="m 940.68224,980.21844 q 2.63184,0 3.86231,1.07666 1.24756,1.07666 1.24756,3.29834 v 10.85206 l 1.99951,0.42724 v 0.76904 h -4.40918 l -0.32471,-1.60644 q -1.94824,1.94824 -4.97315,1.94824 -4.11865,0 -4.11865,-4.78516 0,-1.60644 0.61524,-2.64892 0.63232,-1.05957 1.99951,-1.60645 1.36719,-0.56396 3.96484,-0.61523 l 2.40967,-0.0684 v -2.51221 q 0,-1.65771 -0.61523,-2.44385 -0.59815,-0.78613 -1.8628,-0.78613 -1.70898,0 -3.12744,0.80322 l -0.58105,1.99951 h -0.95704 v -3.50341 q 2.76856,-0.59815 4.87061,-0.59815 z m 2.27295,8.23731 -2.23877,0.0684 q -2.29004,0.0855 -3.11035,0.88867 -0.80322,0.80322 -0.80322,2.68311 0,3.00781 2.44384,3.00781 1.16211,0 1.99952,-0.25635 0.85449,-0.27344 1.70898,-0.68359 z"
       style="text-align:center;text-anchor:middle;fill:#000000;fill-opacity:1;stroke:none;stroke-width:0.93749994px"
       id="path24367" />
    <path
       d="m 949.38097,1004.093 v -1.4356 q 1.93115,-1.1108 3.21289,-2.93944 1.28174,-1.81153 1.87988,-4.44336 0.59815,-2.64893 0.59815,-7.0752 0,-4.47754 -0.58106,-6.97266 -0.56396,-2.49512 -1.79443,-4.35791 -1.23047,-1.87988 -3.31543,-3.07617 v -1.43555 q 3.41797,1.82862 5.31494,3.94776 1.89698,2.10205 2.78565,4.97314 0.88867,2.85401 0.88867,6.92139 0,4.06738 -0.88867,6.95557 -0.88867,2.87109 -2.78565,4.99023 -1.89697,2.1191 -5.31494,3.9478 z"
       style="text-align:center;text-anchor:middle;fill:#000000;fill-opacity:1;stroke:none;stroke-width:0.93749994px"
       id="path24369" />
  </g>
  <g
     aria-label="Фокальна точка"
     style="font-style:normal;font-variant:normal;font-weight:normal;font-stretch:normal;font-size:35.00000763px;line-height:30.50787735px;font-family:'Liberation Serif';-inkscape-font-specification:'Liberation Serif';text-align:center;letter-spacing:0px;word-spacing:0px;text-anchor:middle;fill:none;stroke:#000000;stroke-width:0.93749994px;stroke-linecap:butt;stroke-linejoin:miter;stroke-opacity:1"
     id="text13833-0">
    <path
       d="m 107.67919,470.28418 2.93946,0.46143 v 0.90576 h -9.16016 v -0.90576 l 2.93945,-0.46143 v -2.42676 h -1.65771 q -2.768559,0 -4.785161,-0.90576 -2.016602,-0.90576 -3.178712,-2.76856 -1.145019,-1.86279 -1.145019,-4.35791 0,-3.55469 2.375488,-5.57129 2.375489,-2.03369 6.921384,-2.03369 h 1.46973 v -2.13623 l -2.93945,-0.44434 v -0.90576 h 9.16016 v 0.90576 l -2.93946,0.44434 v 2.13623 h 1.48682 q 4.56299,0 6.92139,2.03369 2.37549,2.03369 2.37549,5.57129 0,2.49512 -1.16211,4.35791 -1.14502,1.8628 -3.17872,2.76856 -2.0166,0.90576 -4.76806,0.90576 h -1.67481 z m 0.8374,-3.75977 q 3.19581,0 4.87061,-1.70898 1.67481,-1.70899 1.67481,-4.95606 0,-3.16162 -1.6919,-4.73389 -1.69189,-1.58935 -4.97314,-1.58935 h -0.71778 v 12.98828 z m -11.484373,-6.66504 q 0,3.22998 1.657715,4.95606 1.674808,1.70898 4.887698,1.70898 h 0.82031 v -12.98828 h -0.70068 q -3.28125,0 -4.973148,1.58935 -1.691895,1.57227 -1.691895,4.73389 z"
       style="text-align:center;text-anchor:middle;fill:#000000;fill-opacity:1;stroke:none;stroke-width:0.93749994px"
       id="path24298" />
    <path
       d="m 136.06543,463.53369 q 0,8.45947 -7.51953,8.45947 -3.62305,0 -5.46876,-2.17041 -1.8457,-2.17041 -1.8457,-6.28906 0,-4.06738 1.8457,-6.2207 1.84571,-2.15333 5.60547,-2.15333 3.65723,0 5.52003,2.11915 1.86279,2.10205 1.86279,6.25488 z m -3.07617,0 q 0,-3.69141 -1.07666,-5.34912 -1.07666,-1.65772 -3.3667,-1.65772 -2.23877,0 -3.24708,1.58936 -0.99121,1.58935 -0.99121,5.41748 0,3.8794 1.0083,5.50293 1.0254,1.60645 3.22999,1.60645 2.25586,0 3.34961,-1.67481 1.09375,-1.6748 1.09375,-5.43457 z"
       style="text-align:center;text-anchor:middle;fill:#000000;fill-opacity:1;stroke:none;stroke-width:0.93749994px"
       id="path24300" />
    <path
       d="m 140.16699,456.7832 -2.13623,-0.42725 v -0.76904 h 6.92139 v 0.76904 l -1.94825,0.42725 v 7.10938 l 6.56251,-7.0752 -1.67481,-0.46143 v -0.76904 h 5.67383 v 0.76904 l -1.99951,0.39307 -4.58008,4.68262 5.87891,9.05762 1.57226,0.39306 v 0.76905 h -6.40869 v -0.76905 l 1.46973,-0.42724 -4.40918,-6.92139 -2.08497,1.77734 v 5.14405 l 1.94825,0.42724 v 0.76905 h -6.92139 v -0.76905 l 2.13623,-0.42724 z"
       style="text-align:center;text-anchor:middle;fill:#000000;fill-opacity:1;stroke:none;stroke-width:0.93749994px"
       id="path24302" />
    <path
       d="m 161.81983,455.22802 q 2.63184,0 3.86231,1.07666 1.24756,1.07666 1.24756,3.29834 v 10.85206 l 1.99951,0.42724 v 0.76905 h -4.40918 l -0.32471,-1.60645 q -1.94824,1.94824 -4.97315,1.94824 -4.11865,0 -4.11865,-4.78515 0,-1.60645 0.61524,-2.64893 0.63232,-1.05957 1.99951,-1.60645 1.36719,-0.56396 3.96484,-0.61523 l 2.40967,-0.0684 v -2.51221 q 0,-1.65771 -0.61523,-2.44384 -0.59815,-0.78614 -1.8628,-0.78614 -1.70898,0 -3.12744,0.80323 l -0.58105,1.99951 h -0.95704 v -3.50342 q 2.76856,-0.59815 4.87061,-0.59815 z m 2.27295,8.23731 -2.23877,0.0684 q -2.29004,0.0855 -3.11035,0.88867 -0.80322,0.80322 -0.80322,2.68311 0,3.00781 2.44384,3.00781 1.16211,0 1.99952,-0.25635 0.85449,-0.27343 1.70898,-0.68359 z"
       style="text-align:center;text-anchor:middle;fill:#000000;fill-opacity:1;stroke:none;stroke-width:0.93749994px"
       id="path24304" />
    <path
       d="m 172.21045,470.18164 q 0.75196,0 1.38428,-2.08496 0.64942,-2.08496 1.38428,-6.78467 l 0.71777,-4.52881 -2.23877,-0.42725 v -0.76904 h 12.91993 v 0.76904 l -1.94824,0.42725 v 13.67188 l 1.94824,0.42724 v 0.76905 h -6.92139 v -0.76905 l 2.13623,-0.42724 v -13.44971 h -4.35791 l -0.73486,4.76807 q -0.76905,4.95605 -1.31592,6.7334 -0.52979,1.76025 -1.31592,2.63183 -0.78613,0.85449 -1.94824,0.85449 -0.56397,0 -1.04248,-0.18798 -0.46143,-0.1709 -0.70069,-0.37598 l -0.10254,-2.78565 h 0.76905 l 0.52978,0.90577 q 0.10254,0.18798 0.32471,0.41015 0.23926,0.22217 0.51269,0.22217 z"
       style="text-align:center;text-anchor:middle;fill:#000000;fill-opacity:1;stroke:none;stroke-width:0.93749994px"
       id="path24306" />
    <path
       d="m 194.56398,470.28418 q 2.46094,0 3.46924,-0.76904 1.02539,-0.78614 1.02539,-2.44385 0,-1.62354 -1.0083,-2.30713 -1.0083,-0.70069 -3.48633,-0.70069 h -1.72608 v 6.22071 z m 0.41016,-14.69727 v 0.76904 l -2.13624,0.42725 v 5.91309 h 2.0337 q 3.72558,0 5.48584,1.0083 1.77734,1.0083 1.77734,3.28125 0,2.54639 -1.69189,3.60596 -1.6919,1.05957 -5.62256,1.05957 h -6.95557 v -0.76905 l 2.13623,-0.42724 V 456.7832 l -2.13623,-0.42725 v -0.76904 z"
       style="text-align:center;text-anchor:middle;fill:#000000;fill-opacity:1;stroke:none;stroke-width:0.93749994px"
       id="path24308" />
    <path
       d="m 205.99708,456.7832 -2.13623,-0.42725 v -0.76904 h 6.92139 v 0.76904 l -1.94824,0.42725 v 5.94727 h 7.51953 v -5.94727 l -2.13623,-0.42725 v -0.76904 h 6.92139 v 0.76904 l -1.94824,0.42725 v 13.67188 l 1.94824,0.42724 v 0.76905 h -6.92139 v -0.76905 l 2.13623,-0.42724 v -6.30616 H 208.834 v 6.30616 l 1.94824,0.42724 v 0.76905 h -6.92139 v -0.76905 l 2.13623,-0.42724 z"
       style="text-align:center;text-anchor:middle;fill:#000000;fill-opacity:1;stroke:none;stroke-width:0.93749994px"
       id="path24310" />
    <path
       d="m 229.90578,455.22802 q 2.63184,0 3.86231,1.07666 1.24756,1.07666 1.24756,3.29834 v 10.85206 l 1.99951,0.42724 v 0.76905 h -4.40918 l -0.32471,-1.60645 q -1.94824,1.94824 -4.97314,1.94824 -4.11866,0 -4.11866,-4.78515 0,-1.60645 0.61524,-2.64893 0.63232,-1.05957 1.99951,-1.60645 1.36719,-0.56396 3.96484,-0.61523 l 2.40967,-0.0684 v -2.51221 q 0,-1.65771 -0.61523,-2.44384 -0.59815,-0.78614 -1.86279,-0.78614 -1.70899,0 -3.12745,0.80323 l -0.58105,1.99951 h -0.95703 v -3.50342 q 2.76855,-0.59815 4.8706,-0.59815 z m 2.27295,8.23731 -2.23877,0.0684 q -2.29004,0.0855 -3.11035,0.88867 -0.80322,0.80322 -0.80322,2.68311 0,3.00781 2.44385,3.00781 1.16211,0 1.99951,-0.25635 0.85449,-0.27343 1.70898,-0.68359 z"
       style="text-align:center;text-anchor:middle;fill:#000000;fill-opacity:1;stroke:none;stroke-width:0.93749994px"
       id="path24312" />
    <path
       d="m 261.0093,455.58691 v 4.58008 h -0.93994 l -0.73486,-2.83691 q -1.89698,-0.32471 -3.40088,-0.32471 h -0.64942 v 13.44971 l 2.29004,0.42724 v 0.76905 h -7.60498 v -0.76905 l 2.47803,-0.42724 v -13.44971 h -0.63233 q -1.5039,0 -3.40088,0.32471 l -0.73486,2.83691 h -0.93994 v -4.58008 z"
       style="text-align:center;text-anchor:middle;fill:#000000;fill-opacity:1;stroke:none;stroke-width:0.93749994px"
       id="path24314" />
    <path
       d="m 277.22756,463.53369 q 0,8.45947 -7.51953,8.45947 -3.62305,0 -5.46875,-2.17041 -1.8457,-2.17041 -1.8457,-6.28906 0,-4.06738 1.8457,-6.2207 1.8457,-2.15333 5.60547,-2.15333 3.65723,0 5.52002,2.11915 1.86279,2.10205 1.86279,6.25488 z m -3.07617,0 q 0,-3.69141 -1.07666,-5.34912 -1.07666,-1.65772 -3.3667,-1.65772 -2.23877,0 -3.24707,1.58936 -0.99121,1.58935 -0.99121,5.41748 0,3.8794 1.0083,5.50293 1.02539,1.60645 3.22998,1.60645 2.25586,0 3.34961,-1.67481 1.09375,-1.6748 1.09375,-5.43457 z"
       style="text-align:center;text-anchor:middle;fill:#000000;fill-opacity:1;stroke:none;stroke-width:0.93749994px"
       id="path24316" />
    <path
       d="m 283.17484,462.21777 q 0,1.05957 0.64942,1.74317 0.6665,0.68359 1.81152,0.68359 1.72607,0 4.01611,-0.56397 v -7.29736 l -2.13623,-0.42725 v -0.76904 h 6.92139 v 0.76904 l -1.94824,0.42725 v 13.67188 l 1.94824,0.42724 v 0.76905 h -6.92139 v -0.76905 l 2.13623,-0.42724 v -5.41748 q -1.86279,0.90576 -3.09326,1.26464 -1.21338,0.3418 -2.20459,0.3418 -1.93115,0 -2.97363,-1.12793 -1.04248,-1.12793 -1.04248,-3.24707 v -5.48584 l -2.13623,-0.42725 v -0.76904 h 6.92138 v 0.76904 l -1.94824,0.42725 z"
       style="text-align:center;text-anchor:middle;fill:#000000;fill-opacity:1;stroke:none;stroke-width:0.93749994px"
       id="path24318" />
    <path
       d="m 298.07718,456.7832 -2.13623,-0.42725 v -0.76904 h 6.92139 v 0.76904 l -1.94824,0.42725 v 7.10938 l 6.5625,-7.0752 -1.6748,-0.46143 v -0.76904 h 5.67382 v 0.76904 l -1.99951,0.39307 -4.58008,4.68262 5.87891,9.05762 1.57227,0.39306 v 0.76905 h -6.4087 v -0.76905 l 1.46973,-0.42724 -4.40918,-6.92139 -2.08496,1.77734 v 5.14405 l 1.94824,0.42724 v 0.76905 h -6.92139 v -0.76905 l 2.13623,-0.42724 z"
       style="text-align:center;text-anchor:middle;fill:#000000;fill-opacity:1;stroke:none;stroke-width:0.93749994px"
       id="path24320" />
    <path
       d="m 319.73002,455.22802 q 2.63183,0 3.8623,1.07666 1.24756,1.07666 1.24756,3.29834 v 10.85206 l 1.99951,0.42724 v 0.76905 h -4.40918 l -0.3247,-1.60645 q -1.94825,1.94824 -4.97315,1.94824 -4.11865,0 -4.11865,-4.78515 0,-1.60645 0.61523,-2.64893 0.63233,-1.05957 1.99951,-1.60645 1.36719,-0.56396 3.96485,-0.61523 l 2.40967,-0.0684 v -2.51221 q 0,-1.65771 -0.61524,-2.44384 -0.59814,-0.78614 -1.86279,-0.78614 -1.70899,0 -3.12744,0.80323 l -0.58106,1.99951 h -0.95703 v -3.50342 q 2.76856,-0.59815 4.87061,-0.59815 z m 2.27295,8.23731 -2.23877,0.0684 q -2.29004,0.0855 -3.11035,0.88867 -0.80323,0.80322 -0.80323,2.68311 0,3.00781 2.44385,3.00781 1.16211,0 1.99951,-0.25635 0.85449,-0.27343 1.70899,-0.68359 z"
       style="text-align:center;text-anchor:middle;fill:#000000;fill-opacity:1;stroke:none;stroke-width:0.93749994px"
       id="path24322" />
  </g>
  <g
     aria-label="Проекція"
     style="font-style:normal;font-variant:normal;font-weight:normal;font-stretch:normal;font-size:35.00000763px;line-height:30.50787735px;font-family:'Liberation Serif';-inkscape-font-specification:'Liberation Serif';text-align:center;letter-spacing:0px;word-spacing:0px;text-anchor:middle;fill:none;stroke:#000000;stroke-width:0.93749994px;stroke-linecap:butt;stroke-linejoin:miter;stroke-opacity:1"
     id="text18068">
    <path
       d="m 304.89949,244.82716 v -0.90576 l 2.93945,-0.46142 v -20.2002 l -2.93945,-0.44434 v -0.90576 h 23.24219 v 0.90576 l -2.93945,0.44434 v 20.2002 l 2.93945,0.46142 v 0.90576 h -9.16015 v -0.90576 l 2.93945,-0.46142 v -20.01222 h -10.78369 v 20.01222 l 2.93945,0.46142 v 0.90576 z"
       style="text-align:center;text-anchor:middle;fill:#000000;fill-opacity:1;stroke:none;stroke-width:0.93749994px"
       id="path24281" />
    <path
       d="m 331.78182,229.959 -1.82861,-0.42725 v -0.76904 h 4.51172 l 0.0342,0.93994 q 0.71777,-0.61524 1.91406,-0.99121 1.21338,-0.37598 2.46094,-0.37598 3.07617,0 4.75098,2.13623 1.69189,2.13623 1.69189,6.13526 0,4.08447 -1.8457,6.32324 -1.82862,2.23877 -5.29786,2.23877 -1.93115,0 -3.67431,-0.37598 0.10254,1.23047 0.10254,1.93116 v 4.34082 l 2.80273,0.41015 v 0.80323 h -7.65625 v -0.80323 l 2.03369,-0.41015 z m 10.45899,6.64795 q 0,-3.28125 -1.07666,-4.87061 -1.05957,-1.60645 -3.22998,-1.60645 -1.99952,0 -3.33252,0.56397 v 12.83448 q 1.52099,0.29052 3.33252,0.29052 4.30664,0 4.30664,-7.21191 z"
       style="text-align:center;text-anchor:middle;fill:#000000;fill-opacity:1;stroke:none;stroke-width:0.93749994px"
       id="path24283" />
    <path
       d="m 362.85116,236.70949 q 0,8.45947 -7.51953,8.45947 -3.62305,0 -5.46875,-2.17041 -1.84571,-2.17041 -1.84571,-6.28906 0,-4.06739 1.84571,-6.22071 1.8457,-2.15332 5.60547,-2.15332 3.65723,0 5.52002,2.11914 1.86279,2.10205 1.86279,6.25489 z m -3.07617,0 q 0,-3.69141 -1.07666,-5.34913 -1.07666,-1.65771 -3.3667,-1.65771 -2.23877,0 -3.24707,1.58935 -0.99121,1.58936 -0.99121,5.41749 0,3.87939 1.0083,5.50293 1.02539,1.60644 3.22998,1.60644 2.25586,0 3.34961,-1.6748 1.09375,-1.67481 1.09375,-5.43457 z"
       style="text-align:center;text-anchor:middle;fill:#000000;fill-opacity:1;stroke:none;stroke-width:0.93749994px"
       id="path24285" />
    <path
       d="m 369.03769,236.74367 v 0.30761 q 0,2.3584 0.5127,3.67432 0.52978,1.29883 1.60644,1.98242 1.09375,0.6836 2.85401,0.6836 0.92285,0 2.1875,-0.15381 1.26465,-0.15381 2.08496,-0.3418 v 0.95703 q -0.82031,0.52979 -2.23877,0.92285 -1.40137,0.39307 -2.8711,0.39307 -3.74267,0 -5.48584,-2.0166 -1.72607,-2.0166 -1.72607,-6.47705 0,-4.20411 1.76025,-6.27198 1.76026,-2.06787 5.02442,-2.06787 6.16943,0 6.16943,7.00684 v 1.40137 z m 3.7085,-7.04102 q -1.77735,0 -2.73438,1.43555 -0.93994,1.43554 -0.93994,4.23828 h 6.87012 q 0,-3.05908 -0.78613,-4.35791 -0.78614,-1.31592 -2.40967,-1.31592 z"
       style="text-align:center;text-anchor:middle;fill:#000000;fill-opacity:1;stroke:none;stroke-width:0.93749994px"
       id="path24287" />
    <path
       d="m 382.88046,229.959 -2.13623,-0.42725 v -0.76904 h 6.92139 v 0.76904 l -1.94824,0.42725 v 7.10937 l 6.5625,-7.07519 -1.67481,-0.46143 v -0.76904 h 5.67383 v 0.76904 l -1.99951,0.39307 -4.58008,4.68261 5.87891,9.05762 1.57227,0.39307 v 0.76904 h -6.4087 v -0.76904 l 1.46973,-0.42725 -4.40918,-6.92138 -2.08496,1.77734 v 5.14404 l 1.94824,0.42725 v 0.76904 h -6.92139 v -0.76904 l 2.13623,-0.42725 z"
       style="text-align:center;text-anchor:middle;fill:#000000;fill-opacity:1;stroke:none;stroke-width:0.93749994px"
       id="path24289" />
    <path
       d="m 397.76572,244.82716 v -0.76904 l 2.13624,-0.42725 V 229.959 l -2.13624,-0.42725 v -0.76904 h 6.92139 v 0.76904 l -1.94824,0.42725 v 13.44971 h 7.51953 V 229.959 l -2.13623,-0.42725 v -0.76904 h 6.92139 v 0.76904 l -1.94824,0.42725 v 13.67187 l 1.98242,0.27344 -0.29053,7.69043 h -1.11084 l -1.65771,-6.76758 z"
       style="text-align:center;text-anchor:middle;fill:#000000;fill-opacity:1;stroke:none;stroke-width:0.93749994px"
       id="path24291" />
    <path
       d="m 422.34092,223.51612 q 0,0.75196 -0.54687,1.29883 -0.54688,0.54688 -1.31592,0.54688 -0.75196,0 -1.29883,-0.54688 -0.54688,-0.54687 -0.54688,-1.29883 0,-0.76904 0.54688,-1.31591 0.54687,-0.54688 1.29883,-0.54688 0.76904,0 1.31592,0.54688 0.54687,0.54687 0.54687,1.31591 z m -0.1709,20.11475 2.75147,0.42725 v 0.76904 h -8.32276 v -0.76904 l 2.73438,-0.42725 V 229.959 l -2.27295,-0.42725 v -0.76904 h 5.10986 z"
       style="text-align:center;text-anchor:middle;fill:#000000;fill-opacity:1;stroke:none;stroke-width:0.93749994px"
       id="path24293" />
    <path
       d="m 429.56993,244.82716 h -3.89648 v -0.76904 l 1.38427,-0.39307 3.81104,-6.25488 q -1.70898,-0.39307 -2.66602,-1.521 -0.93994,-1.12793 -0.93994,-2.76855 0,-4.35791 6.80176,-4.35791 h 6.97266 v 0.76904 l -2.13623,0.42725 v 13.67187 l 2.13623,0.42725 v 0.76904 h -7.0752 v -0.76904 l 2.10205,-0.44434 v -5.69091 h -2.49511 z m 6.49414,-14.69727 h -1.74316 q -2.08496,0 -3.04199,0.78614 -0.93994,0.76904 -0.93994,2.29004 0,3.34961 3.72558,3.34961 h 1.99951 z"
       style="text-align:center;text-anchor:middle;fill:#000000;fill-opacity:1;stroke:none;stroke-width:0.93749994px"
       id="path24295" />
  </g>
  <g
     aria-label="Зображення
перевернуто…"
     style="font-style:normal;font-variant:normal;font-weight:normal;font-stretch:normal;font-size:35.00000763px;line-height:30.50787735px;font-family:'Liberation Serif';-inkscape-font-specification:'Liberation Serif';text-align:center;letter-spacing:0px;word-spacing:0px;text-anchor:middle;fill:none;stroke:#000000;stroke-width:0.93749994px;stroke-linecap:butt;stroke-linejoin:miter;stroke-opacity:1"
     id="text18088">
    <path
       d="m 1202.9618,257.30957 q 0,3.04199 -2.1875,4.81934 -2.1875,1.76025 -5.9644,1.76025 -3.0932,0 -5.9472,-0.73486 l -0.188,-4.81934 h 1.1279 l 0.7349,3.21289 q 0.5981,0.37598 1.7944,0.64942 1.2134,0.27343 2.1533,0.27343 2.5464,0 3.7598,-1.23047 1.2304,-1.24755 1.2304,-4.10156 0,-2.25586 -1.1792,-3.41797 -1.1792,-1.1792 -3.6572,-1.29883 l -2.4438,-0.13672 v -1.40136 l 2.4438,-0.15381 q 2.0508,-0.10254 3.1104,-1.26465 1.0766,-1.1792 1.0766,-3.26416 0,-2.22168 -0.9057,-3.31543 -0.8887,-1.09375 -3.0249,-1.09375 -0.94,0 -2.0166,0.29052 -1.0596,0.27344 -1.6065,0.61524 l -0.5639,2.80273 h -1.128 v -4.40918 q 2.854,-0.73486 5.3833,-0.73486 3.5889,0 5.4688,1.43555 1.897,1.43554 1.897,4.2041 0,2.23877 -1.4014,3.72559 -1.4014,1.46972 -3.8111,1.82861 2.9737,0.35889 4.4092,1.79443 1.4356,1.41846 1.4356,3.96485 z"
       style="text-align:center;text-anchor:middle;fill:#000000;fill-opacity:1;stroke:none;stroke-width:0.93749994px"
       id="path24236" />
    <path
       d="m 1220.7523,255.42969 q 0,8.45947 -7.5195,8.45947 -3.6231,0 -5.4688,-2.17041 -1.8457,-2.17041 -1.8457,-6.28906 0,-4.06739 1.8457,-6.22071 1.8457,-2.15332 5.6055,-2.15332 3.6572,0 5.52,2.11914 1.8628,2.10205 1.8628,6.25489 z m -3.0762,0 q 0,-3.69141 -1.0766,-5.34913 -1.0767,-1.65771 -3.3667,-1.65771 -2.2388,0 -3.2471,1.58935 -0.9912,1.58936 -0.9912,5.41749 0,3.87939 1.0083,5.50293 1.0254,1.60644 3.23,1.60644 2.2558,0 3.3496,-1.6748 1.0937,-1.67481 1.0937,-5.43457 z"
       style="text-align:center;text-anchor:middle;fill:#000000;fill-opacity:1;stroke:none;stroke-width:0.93749994px"
       id="path24238" />
    <path
       d="m 1223.7259,253.66943 q 0,-4.69971 0.7691,-7.43408 0.7861,-2.75147 2.478,-4.27246 1.6919,-1.521 4.4263,-1.84571 2.9223,-0.3247 3.7085,-0.4956 0.7861,-0.18799 1.2988,-0.44434 0.5127,-0.25635 0.7178,-0.68359 h 0.8545 q -0.051,1.35009 -0.4785,2.11914 -0.4273,0.75195 -1.2647,1.1792 -0.8203,0.42724 -2.0508,0.61523 -1.2304,0.18799 -2.8882,0.39307 -2.2045,0.27344 -3.3154,0.92285 -1.0937,0.63232 -1.5893,1.91406 -0.4956,1.26465 -0.6836,4.92188 h 0.1196 q 0.5981,-1.67481 2.0679,-2.58057 1.4697,-0.92285 3.3838,-0.92285 3.623,0 5.4516,2.13623 1.8286,2.11914 1.8286,6.2378 0,8.45947 -7.5195,8.45947 -7.3145,0 -7.3145,-10.21973 z m 11.7579,1.76026 q 0,-3.69141 -1.0767,-5.34913 -1.0767,-1.65771 -3.3667,-1.65771 -2.2388,0 -3.2471,1.58935 -0.9912,1.58936 -0.9912,5.41749 0,7.10937 4.2383,7.10937 2.2559,0 3.3496,-1.6748 1.0938,-1.67481 1.0938,-5.43457 z"
       style="text-align:center;text-anchor:middle;fill:#000000;fill-opacity:1;stroke:none;stroke-width:0.93749994px"
       id="path24240" />
    <path
       d="m 1242.5248,248.6792 -1.8286,-0.42725 v -0.76904 h 4.5117 l 0.034,0.93994 q 0.7177,-0.61524 1.914,-0.99121 1.2134,-0.37598 2.461,-0.37598 3.0761,0 4.7509,2.13623 1.6919,2.13623 1.6919,6.13526 0,4.08447 -1.8457,6.32324 -1.8286,2.23877 -5.2978,2.23877 -1.9312,0 -3.6743,-0.37598 0.1025,1.23047 0.1025,1.93116 v 4.34082 l 2.8027,0.41015 v 0.80323 h -7.6562 v -0.80323 l 2.0337,-0.41015 z m 10.459,6.64795 q 0,-3.28125 -1.0767,-4.87061 -1.0596,-1.60645 -3.23,-1.60645 -1.9995,0 -3.3325,0.56397 v 12.83447 q 1.521,0.29053 3.3325,0.29053 4.3067,0 4.3067,-7.21191 z"
       style="text-align:center;text-anchor:middle;fill:#000000;fill-opacity:1;stroke:none;stroke-width:0.93749994px"
       id="path24242" />
    <path
       d="m 1265.3739,247.12402 q 2.6318,0 3.8623,1.07666 1.2476,1.07666 1.2476,3.29834 v 10.85205 l 1.9995,0.42725 v 0.76904 h -4.4092 l -0.3247,-1.60644 q -1.9483,1.94824 -4.9732,1.94824 -4.1186,0 -4.1186,-4.78516 0,-1.60644 0.6152,-2.64892 0.6323,-1.05957 1.9995,-1.60645 1.3672,-0.56396 3.9649,-0.61523 l 2.4096,-0.0684 v -2.51221 q 0,-1.65772 -0.6152,-2.44385 -0.5981,-0.78613 -1.8628,-0.78613 -1.709,0 -3.1274,0.80322 l -0.5811,1.99951 h -0.957 v -3.50342 q 2.7685,-0.59814 4.8706,-0.59814 z m 2.2729,8.23731 -2.2387,0.0684 q -2.2901,0.0854 -3.1104,0.88867 -0.8032,0.80322 -0.8032,2.6831 0,3.00782 2.4439,3.00782 1.1621,0 1.9995,-0.25635 0.8545,-0.27344 1.7089,-0.68359 z"
       style="text-align:center;text-anchor:middle;fill:#000000;fill-opacity:1;stroke:none;stroke-width:0.93749994px"
       id="path24244" />
    <path
       d="m 1283.7113,257.20703 -2.1875,-1.74316 -4.9219,8.08349 h -3.7939 v -0.76904 l 1.2988,-0.39307 5.6397,-8.86963 -4.3409,-4.8706 -1.726,-0.39307 v -0.76904 h 5.2295 v 0.76904 l -1.504,0.46143 6.3062,7.07519 v -7.10937 l -1.4526,-0.42725 v -0.76904 h 5.5542 v 0.76904 l -1.4356,0.42725 v 7.10937 l 6.3062,-7.07519 -1.5039,-0.46143 v -0.76904 h 5.2295 v 0.76904 l -1.7261,0.39307 -4.3408,4.8706 5.6396,8.86963 1.2988,0.39307 v 0.76904 h -3.7939 l -4.9219,-8.08349 -2.1875,1.74316 v 5.14404 l 1.4356,0.42725 v 0.76904 h -5.5542 v -0.76904 l 1.4526,-0.42725 z"
       style="text-align:center;text-anchor:middle;fill:#000000;fill-opacity:1;stroke:none;stroke-width:0.93749994px"
       id="path24246" />
    <path
       d="m 1301.1088,255.46387 v 0.30761 q 0,2.3584 0.5127,3.67432 0.5297,1.29883 1.6064,1.98242 1.0938,0.6836 2.854,0.6836 0.9229,0 2.1875,-0.15381 1.2647,-0.15381 2.085,-0.3418 v 0.95703 q -0.8203,0.52979 -2.2388,0.92285 -1.4014,0.39307 -2.8711,0.39307 -3.7427,0 -5.4858,-2.0166 -1.7261,-2.0166 -1.7261,-6.47705 0,-4.20411 1.7603,-6.27198 1.7602,-2.06787 5.0244,-2.06787 6.1694,0 6.1694,7.00684 v 1.40137 z m 3.7085,-7.04102 q -1.7774,0 -2.7344,1.43555 -0.94,1.43554 -0.94,4.23828 h 6.8702 q 0,-3.05909 -0.7862,-4.35791 -0.7861,-1.31592 -2.4096,-1.31592 z"
       style="text-align:center;text-anchor:middle;fill:#000000;fill-opacity:1;stroke:none;stroke-width:0.93749994px"
       id="path24248" />
    <path
       d="m 1314.9515,248.6792 -2.1362,-0.42725 v -0.76904 h 6.9214 v 0.76904 l -1.9482,0.42725 v 5.94726 h 7.5195 v -5.94726 l -2.1362,-0.42725 v -0.76904 h 6.9214 v 0.76904 l -1.9483,0.42725 v 13.67187 l 1.9483,0.42725 v 0.76904 h -6.9214 v -0.76904 l 2.1362,-0.42725 v -6.30615 h -7.5195 v 6.30615 l 1.9482,0.42725 v 0.76904 h -6.9214 v -0.76904 l 2.1362,-0.42725 z"
       style="text-align:center;text-anchor:middle;fill:#000000;fill-opacity:1;stroke:none;stroke-width:0.93749994px"
       id="path24250" />
    <path
       d="m 1333.682,248.6792 -2.1362,-0.42725 v -0.76904 h 6.9214 v 0.76904 l -1.9483,0.42725 v 5.94726 h 7.5196 v -5.94726 l -2.1363,-0.42725 v -0.76904 h 6.9214 v 0.76904 l -1.9482,0.42725 v 13.67187 l 1.9482,0.42725 v 0.76904 h -6.9214 v -0.76904 l 2.1363,-0.42725 v -6.30615 h -7.5196 v 6.30615 l 1.9483,0.42725 v 0.76904 h -6.9214 v -0.76904 l 2.1362,-0.42725 z"
       style="text-align:center;text-anchor:middle;fill:#000000;fill-opacity:1;stroke:none;stroke-width:0.93749994px"
       id="path24252" />
    <path
       d="m 1353.643,263.54736 h -3.8965 v -0.76904 l 1.3842,-0.39307 3.8111,-6.25488 q -1.709,-0.39307 -2.666,-1.521 -0.94,-1.12793 -0.94,-2.76855 0,-4.35791 6.8018,-4.35791 h 6.9726 v 0.76904 l -2.1362,0.42725 v 13.67187 l 2.1362,0.42725 v 0.76904 h -7.0752 v -0.76904 l 2.1021,-0.44434 v -5.69092 h -2.4951 z m 6.4941,-14.69727 h -1.7432 q -2.0849,0 -3.042,0.78614 -0.9399,0.76904 -0.9399,2.29004 0,3.34961 3.7256,3.34961 h 1.9995 z"
       style="text-align:center;text-anchor:middle;fill:#000000;fill-opacity:1;stroke:none;stroke-width:0.93749994px"
       id="path24254" />
    <path
       d="m 1169.0726,279.18707 -2.1362,-0.42724 v -0.76905 h 17.2778 v 0.76905 l -1.9482,0.42724 v 13.67188 l 1.9482,0.42725 v 0.76904 h -6.9214 v -0.76904 l 2.1363,-0.42725 v -13.44971 h -7.5196 v 13.44971 l 1.9483,0.42725 v 0.76904 h -6.9214 v -0.76904 l 2.1362,-0.42725 z"
       style="text-align:center;text-anchor:middle;fill:#000000;fill-opacity:1;stroke:none;stroke-width:0.93749994px"
       id="path24256" />
    <path
       d="m 1189.4779,285.97174 v 0.30762 q 0,2.3584 0.5127,3.67432 0.5298,1.29883 1.6064,1.98242 1.0938,0.68359 2.854,0.68359 0.9229,0 2.1875,-0.15381 1.2647,-0.1538 2.085,-0.34179 v 0.95703 q -0.8203,0.52978 -2.2388,0.92285 -1.4013,0.39307 -2.8711,0.39307 -3.7426,0 -5.4858,-2.0166 -1.7261,-2.01661 -1.7261,-6.47706 0,-4.2041 1.7603,-6.27197 1.7602,-2.06787 5.0244,-2.06787 6.1694,0 6.1694,7.00683 v 1.40137 z m 3.7085,-7.04101 q -1.7774,0 -2.7344,1.43554 -0.9399,1.43555 -0.9399,4.23828 h 6.8701 q 0,-3.05908 -0.7861,-4.35791 -0.7862,-1.31591 -2.4097,-1.31591 z"
       style="text-align:center;text-anchor:middle;fill:#000000;fill-opacity:1;stroke:none;stroke-width:0.93749994px"
       id="path24258" />
    <path
       d="m 1203.1498,279.18707 -1.8286,-0.42724 v -0.76905 h 4.5117 l 0.034,0.93995 q 0.7177,-0.61524 1.914,-0.99122 1.2134,-0.37597 2.461,-0.37597 3.0761,0 4.7509,2.13623 1.6919,2.13623 1.6919,6.13525 0,4.08448 -1.8457,6.32325 -1.8286,2.23877 -5.2978,2.23877 -1.9312,0 -3.6743,-0.37598 0.1025,1.23047 0.1025,1.93115 v 4.34082 l 2.8027,0.41016 v 0.80322 h -7.6562 v -0.80322 l 2.0337,-0.41016 z m 10.459,6.64795 q 0,-3.28125 -1.0767,-4.8706 -1.0596,-1.60645 -3.23,-1.60645 -1.9995,0 -3.3325,0.56397 v 12.83447 q 1.521,0.29053 3.3325,0.29053 4.3067,0 4.3067,-7.21192 z"
       style="text-align:center;text-anchor:middle;fill:#000000;fill-opacity:1;stroke:none;stroke-width:0.93749994px"
       id="path24260" />
    <path
       d="m 1222.4955,285.97174 v 0.30762 q 0,2.3584 0.5127,3.67432 0.5298,1.29883 1.6064,1.98242 1.0938,0.68359 2.854,0.68359 0.9229,0 2.1875,-0.15381 1.2647,-0.1538 2.085,-0.34179 v 0.95703 q -0.8203,0.52978 -2.2388,0.92285 -1.4014,0.39307 -2.8711,0.39307 -3.7427,0 -5.4858,-2.0166 -1.7261,-2.01661 -1.7261,-6.47706 0,-4.2041 1.7603,-6.27197 1.7602,-2.06787 5.0244,-2.06787 6.1694,0 6.1694,7.00683 v 1.40137 z m 3.7085,-7.04101 q -1.7774,0 -2.7344,1.43554 -0.9399,1.43555 -0.9399,4.23828 h 6.8701 q 0,-3.05908 -0.7862,-4.35791 -0.7861,-1.31591 -2.4096,-1.31591 z"
       style="text-align:center;text-anchor:middle;fill:#000000;fill-opacity:1;stroke:none;stroke-width:0.93749994px"
       id="path24262" />
    <path
       d="m 1234.202,294.05524 v -0.76904 l 2.1362,-0.42725 v -13.67188 l -2.1362,-0.42724 v -0.76905 h 6.8701 q 3.7769,0 5.3321,0.93995 1.5722,0.93994 1.5722,2.93945 0,1.64062 -0.9399,2.5293 -0.9229,0.88867 -2.6318,1.28173 v 0.13672 q 2.1704,0.23926 3.3325,1.11084 1.1621,0.87159 1.1621,2.61475 0,2.40967 -1.7603,3.46924 -1.7431,1.04248 -5.6738,1.04248 z m 7.0069,-1.36719 q 2.5293,0 3.5717,-0.75195 1.0425,-0.75195 1.0425,-2.46094 0,-1.62353 -1.1108,-2.30713 -1.0938,-0.70068 -3.7256,-0.70068 h -1.8115 v 6.2207 z m -2.0337,-7.58789 h 1.8115 q 2.0508,0 2.9736,-0.68359 0.94,-0.6836 0.94,-2.32422 0,-1.38428 -0.9571,-2.05078 -0.9399,-0.6836 -3.0249,-0.6836 h -1.7431 z"
       style="text-align:center;text-anchor:middle;fill:#000000;fill-opacity:1;stroke:none;stroke-width:0.93749994px"
       id="path24264" />
    <path
       d="m 1254.3509,285.97174 v 0.30762 q 0,2.3584 0.5127,3.67432 0.5298,1.29883 1.6065,1.98242 1.0937,0.68359 2.854,0.68359 0.9228,0 2.1875,-0.15381 1.2646,-0.1538 2.085,-0.34179 v 0.95703 q -0.8204,0.52978 -2.2388,0.92285 -1.4014,0.39307 -2.8711,0.39307 -3.7427,0 -5.4859,-2.0166 -1.726,-2.01661 -1.726,-6.47706 0,-4.2041 1.7602,-6.27197 1.7603,-2.06787 5.0244,-2.06787 6.1695,0 6.1695,7.00683 v 1.40137 z m 3.7085,-7.04101 q -1.7773,0 -2.7343,1.43554 -0.94,1.43555 -0.94,4.23828 h 6.8701 q 0,-3.05908 -0.7861,-4.35791 -0.7861,-1.31591 -2.4097,-1.31591 z"
       style="text-align:center;text-anchor:middle;fill:#000000;fill-opacity:1;stroke:none;stroke-width:0.93749994px"
       id="path24266" />
    <path
       d="m 1268.0228,279.18707 -1.8286,-0.42724 v -0.76905 h 4.5117 l 0.034,0.93995 q 0.7178,-0.61524 1.9141,-0.99122 1.2134,-0.37597 2.4609,-0.37597 3.0762,0 4.751,2.13623 1.6919,2.13623 1.6919,6.13525 0,4.08448 -1.8457,6.32325 -1.8286,2.23877 -5.2979,2.23877 -1.9311,0 -3.6743,-0.37598 0.1026,1.23047 0.1026,1.93115 v 4.34082 l 2.8027,0.41016 v 0.80322 h -7.6563 v -0.80322 l 2.0337,-0.41016 z m 10.459,6.64795 q 0,-3.28125 -1.0766,-4.8706 -1.0596,-1.60645 -3.23,-1.60645 -1.9995,0 -3.3325,0.56397 v 12.83447 q 1.5209,0.29053 3.3325,0.29053 4.3066,0 4.3066,-7.21192 z"
       style="text-align:center;text-anchor:middle;fill:#000000;fill-opacity:1;stroke:none;stroke-width:0.93749994px"
       id="path24268" />
    <path
       d="m 1285.6937,279.18707 -2.1362,-0.42724 v -0.76905 h 6.9214 v 0.76905 l -1.9483,0.42724 v 5.94727 h 7.5196 v -5.94727 l -2.1363,-0.42724 v -0.76905 h 6.9214 v 0.76905 l -1.9482,0.42724 v 13.67188 l 1.9482,0.42725 v 0.76904 h -6.9214 v -0.76904 l 2.1363,-0.42725 v -6.30615 h -7.5196 v 6.30615 l 1.9483,0.42725 v 0.76904 h -6.9214 v -0.76904 l 2.1362,-0.42725 z"
       style="text-align:center;text-anchor:middle;fill:#000000;fill-opacity:1;stroke:none;stroke-width:0.93749994px"
       id="path24270" />
    <path
       d="m 1305.0565,301.60895 q -1.333,0 -2.6318,-0.30761 v -3.46924 h 0.8032 l 0.564,1.64062 q 0.5298,0.39307 1.4697,0.39307 0.8887,0 1.6406,-0.5127 0.752,-0.51269 1.3672,-1.52099 0.6323,-1.0083 1.5723,-3.60596 l -6.1182,-15.03907 -1.6406,-0.42724 v -0.76905 h 7.4512 v 0.76905 l -2.5293,0.46142 4.3408,11.22803 4.2041,-11.26221 -2.5122,-0.42724 v -0.76905 h 5.9814 v 0.76905 l -1.6748,0.35888 -6.2719,15.94483 q -1.1109,2.81983 -1.9312,4.0503 -0.8203,1.23046 -1.8115,1.86279 -0.9912,0.63232 -2.273,0.63232 z"
       style="text-align:center;text-anchor:middle;fill:#000000;fill-opacity:1;stroke:none;stroke-width:0.93749994px"
       id="path24272" />
    <path
       d="m 1333.9384,277.99078 v 4.58008 h -0.94 l -0.7348,-2.83691 q -1.897,-0.32471 -3.4009,-0.32471 h -0.6494 v 13.44971 l 2.29,0.42725 v 0.76904 h -7.605 v -0.76904 l 2.4781,-0.42725 v -13.44971 h -0.6324 q -1.5039,0 -3.4009,0.32471 l -0.7348,2.83691 h -0.94 v -4.58008 z"
       style="text-align:center;text-anchor:middle;fill:#000000;fill-opacity:1;stroke:none;stroke-width:0.93749994px"
       id="path24274" />
    <path
       d="m 1350.1566,285.93756 q 0,8.45948 -7.5195,8.45948 -3.6231,0 -5.4688,-2.17041 -1.8457,-2.17041 -1.8457,-6.28907 0,-4.06738 1.8457,-6.2207 1.8457,-2.15332 5.6055,-2.15332 3.6572,0 5.52,2.11914 1.8628,2.10205 1.8628,6.25488 z m -3.0761,0 q 0,-3.6914 -1.0767,-5.34912 -1.0767,-1.65771 -3.3667,-1.65771 -2.2388,0 -3.2471,1.58935 -0.9912,1.58936 -0.9912,5.41748 0,3.8794 1.0083,5.50293 1.0254,1.60645 3.23,1.60645 2.2559,0 3.3496,-1.67481 1.0938,-1.6748 1.0938,-5.43457 z"
       style="text-align:center;text-anchor:middle;fill:#000000;fill-opacity:1;stroke:none;stroke-width:0.93749994px"
       id="path24276" />
    <path
       d="m 1359.3339,292.48297 q 0,0.83741 -0.5982,1.45264 -0.581,0.61524 -1.4697,0.61524 -0.8887,0 -1.4868,-0.61524 -0.5811,-0.61523 -0.5811,-1.45264 0,-0.87158 0.5982,-1.46972 0.5981,-0.59815 1.4697,-0.59815 0.8716,0 1.4697,0.59815 0.5982,0.59814 0.5982,1.46972 z m 11.7236,0 q 0,0.83741 -0.5981,1.45264 -0.5811,0.61524 -1.4698,0.61524 -0.8886,0 -1.4868,-0.61524 -0.581,-0.61523 -0.581,-1.45264 0,-0.87158 0.5981,-1.46972 0.5982,-0.59815 1.4697,-0.59815 0.8716,0 1.4698,0.59815 0.5981,0.59814 0.5981,1.46972 z m 11.7237,0 q 0,0.83741 -0.5982,1.45264 -0.581,0.61524 -1.4697,0.61524 -0.8887,0 -1.4868,-0.61524 -0.5811,-0.61523 -0.5811,-1.45264 0,-0.87158 0.5982,-1.46972 0.5981,-0.59815 1.4697,-0.59815 0.8716,0 1.4697,0.59815 0.5982,0.59814 0.5982,1.46972 z"
       style="text-align:center;text-anchor:middle;fill:#000000;fill-opacity:1;stroke:none;stroke-width:0.93749994px"
       id="path24278" />
  </g>
</svg>
