<?xml version="1.0" encoding="UTF-8" standalone="no"?>
<svg
   xmlns:osb="http://www.openswatchbook.org/uri/2009/osb"
   xmlns:dc="http://purl.org/dc/elements/1.1/"
   xmlns:cc="http://creativecommons.org/ns#"
   xmlns:rdf="http://www.w3.org/1999/02/22-rdf-syntax-ns#"
   xmlns:svg="http://www.w3.org/2000/svg"
   xmlns="http://www.w3.org/2000/svg"
   xmlns:xlink="http://www.w3.org/1999/xlink"
   xmlns:sodipodi="http://sodipodi.sourceforge.net/DTD/sodipodi-0.dtd"
   xmlns:inkscape="http://www.inkscape.org/namespaces/inkscape"
   version="1.1"
   id="svg6496"
   viewBox="0 0 383.24103 530.75643"
   height="149.79126mm"
   width="108.15913mm"
   sodipodi:docname="projection-cube_02.svg"
   inkscape:version="0.92.1 r15371">
  <sodipodi:namedview
     pagecolor="#ffffff"
     bordercolor="#666666"
     borderopacity="1"
     objecttolerance="10"
     gridtolerance="10"
     guidetolerance="10"
     inkscape:pageopacity="0"
     inkscape:pageshadow="2"
     inkscape:window-width="1920"
     inkscape:window-height="1051"
     id="namedview9645"
     showgrid="false"
     inkscape:zoom="1.6674315"
     inkscape:cx="172.07649"
     inkscape:cy="337.09652"
     inkscape:window-x="0"
     inkscape:window-y="0"
     inkscape:window-maximized="1"
     inkscape:current-layer="text4530" />
  <defs
     id="defs6498">
    <linearGradient
       gradientUnits="userSpaceOnUse"
       y2="83.11602"
       x2="611.9483"
       y1="83.11602"
       x1="410"
       id="linearGradient5594"
       xlink:href="#top"
       gradientTransform="translate(-1143.3869,468.50909)" />
    <linearGradient
       gradientTransform="matrix(0.9422018,-0.33504593,0.33504593,0.9422018,5203.2038,-2086.3603)"
       osb:paint="solid"
       id="top">
      <stop
         id="stop5590"
         offset="0"
         style="stop-color:#f9d455;stop-opacity:1;" />
    </linearGradient>
    <linearGradient
       gradientUnits="userSpaceOnUse"
       y2="228.18353"
       x2="611.9483"
       y1="228.18353"
       x1="560"
       id="linearGradient5532"
       xlink:href="#side"
       gradientTransform="translate(-1143.3869,468.50909)" />
    <linearGradient
       gradientTransform="matrix(0.9422018,-0.33504593,0.33504593,0.9422018,5215.8889,-2083.0982)"
       osb:paint="solid"
       id="side">
      <stop
         id="stop5530"
         offset="0"
         style="stop-color:#265998;stop-opacity:1;" />
    </linearGradient>
    <linearGradient
       gradientUnits="userSpaceOnUse"
       y2="229.88882"
       x2="560"
       y1="229.88882"
       x1="410"
       id="linearGradient5550"
       xlink:href="#red"
       gradientTransform="translate(-1143.3869,468.50909)" />
    <linearGradient
       gradientTransform="matrix(0.94220181,-0.33504593,0.33504593,0.94220181,28770.064,1039.4447)"
       osb:paint="solid"
       id="red">
      <stop
         id="stop5548"
         offset="0"
         style="stop-color:#e31616;stop-opacity:1;" />
    </linearGradient>
  </defs>
  <metadata
     id="metadata6501">
    <rdf:RDF>
      <cc:Work
         rdf:about="">
        <dc:format>image/svg+xml</dc:format>
        <dc:type
           rdf:resource="http://purl.org/dc/dcmitype/StillImage" />
        <dc:title />
      </cc:Work>
    </rdf:RDF>
  </metadata>
  <g
     id="g4158"
     style="fill:#2a7f27;fill-opacity:1;stroke:none;stroke-width:1;stroke-linecap:round;stroke-linejoin:round;stroke-miterlimit:4;stroke-dasharray:none;stroke-dashoffset:0;stroke-opacity:1"
     transform="translate(5.681603,-69.841103)">
    <path
       inkscape:connector-curvature="0"
       id="path4168"
       style="fill:#afafde;fill-rule:evenodd;stroke:none;stroke-width:1px;stroke-linecap:butt;stroke-linejoin:round;stroke-opacity:1"
       d="M 75.756971,349.59647 225.75698,455.1053 277.70532,344.67418 149.1954,285.14544 Z"
       points="225.75698,455.1053 277.70532,344.67418 149.1954,285.14544 75.756971,349.59647 " />
    <path
       inkscape:connector-curvature="0"
       id="path4160"
       style="fill:#353564;fill-rule:evenodd;stroke:none;stroke-width:1px;stroke-linecap:butt;stroke-linejoin:round;stroke-opacity:1"
       d="M 75.756971,150.35925 V 349.59647 L 149.1954,285.14544 v -156.2029 z"
       points="75.756971,349.59647 149.1954,285.14544 149.1954,128.94254 75.756971,150.35925 " />
    <path
       inkscape:connector-curvature="0"
       id="path4170"
       style="fill:#e9e9ff;fill-rule:evenodd;stroke:none;stroke-width:1px;stroke-linecap:butt;stroke-linejoin:round;stroke-opacity:1"
       d="m 149.1954,128.94254 128.50992,18.00613 V 344.67418 L 149.1954,285.14544 Z"
       points="277.70532,146.94867 277.70532,344.67418 149.1954,285.14544 149.1954,128.94254 " />
    <path
       inkscape:connector-curvature="0"
       id="path4162"
       style="fill:url(#linearGradient5594);fill-opacity:1;fill-rule:evenodd;stroke:none;stroke-width:1px;stroke-linecap:butt;stroke-linejoin:round;stroke-opacity:1"
       d="M 75.756971,150.35925 225.75698,182.97641 277.70532,146.94867 149.1954,128.94254 Z"
       points="225.75698,182.97641 277.70532,146.94867 149.1954,128.94254 75.756971,150.35925 " />
    <path
       inkscape:connector-curvature="0"
       id="path4166"
       style="fill:url(#linearGradient5532);fill-opacity:1;fill-rule:evenodd;stroke:none;stroke-width:1px;stroke-linecap:butt;stroke-linejoin:round;stroke-opacity:1"
       d="M 225.75698,182.97641 V 455.1053 L 277.70532,344.67418 V 146.94867 Z"
       points="225.75698,455.1053 277.70532,344.67418 277.70532,146.94867 225.75698,182.97641 " />
    <path
       inkscape:connector-curvature="0"
       id="path4164"
       style="fill:url(#linearGradient5550);fill-opacity:1;fill-rule:evenodd;stroke:none;stroke-width:1px;stroke-linecap:butt;stroke-linejoin:round;stroke-opacity:1"
       d="M 75.756971,150.35925 225.75698,182.97641 V 455.1053 L 75.756971,349.59647 Z"
       points="225.75698,182.97641 225.75698,455.1053 75.756971,349.59647 75.756971,150.35925 " />
  </g>
  <g
     id="text4530"
     style="font-style:normal;font-variant:normal;font-weight:normal;font-stretch:normal;font-size:35px;line-height:23.4375px;font-family:DisneyPark;-inkscape-font-specification:DisneyPark;letter-spacing:0px;word-spacing:0px;fill:none;fill-opacity:1;stroke:#000000;stroke-width:0.9375px;stroke-linecap:butt;stroke-linejoin:miter;stroke-opacity:1"
     aria-label="Згори"
     transform="translate(242.59552,246.47468)">
    <g
       aria-label="Перспектива"
       style="font-style:normal;font-variant:normal;font-weight:normal;font-stretch:normal;font-size:35px;line-height:23.4375px;font-family:'Liberation Serif';-inkscape-font-specification:'Liberation Serif';letter-spacing:0px;word-spacing:0px;fill:#000000;fill-opacity:1;stroke:none;stroke-width:0.93750006px;stroke-linecap:butt;stroke-linejoin:miter;stroke-opacity:1"
       id="text10261">
      <path
         d="m -153.87747,182.51596 v -0.90576 l 2.93945,-0.46143 v -20.20019 l -2.93945,-0.44434 v -0.90576 h 23.24219 v 0.90576 l -2.93946,0.44434 v 20.20019 l 2.93946,0.46143 v 0.90576 h -9.16016 v -0.90576 l 2.93945,-0.46143 v -20.0122 h -10.78369 v 20.0122 l 2.93945,0.46143 v 0.90576 z"
         style="fill:#000000;fill-opacity:1;stroke:none;stroke-width:0.93750006px"
         id="path10273" />
      <path
         d="m -125.14944,174.43246 v 0.30762 q 0,2.3584 0.51269,3.67432 0.52979,1.29883 1.60645,1.98242 1.09375,0.68359 2.854,0.68359 0.92285,0 2.1875,-0.1538 1.26465,-0.15381 2.08496,-0.3418 v 0.95703 q -0.82031,0.52978 -2.23877,0.92285 -1.40137,0.39307 -2.87109,0.39307 -3.74268,0 -5.48584,-2.0166 -1.72608,-2.01661 -1.72608,-6.47705 0,-4.20411 1.76026,-6.27198 1.76025,-2.06787 5.02441,-2.06787 6.16944,0 6.16944,7.00684 v 1.40136 z m 3.70849,-7.04101 q -1.77734,0 -2.73437,1.43555 -0.93994,1.43554 -0.93994,4.23828 h 6.87011 q 0,-3.05908 -0.78613,-4.35791 -0.78613,-1.31592 -2.40967,-1.31592 z"
         style="fill:#000000;fill-opacity:1;stroke:none;stroke-width:0.93750006px"
         id="path10275" />
      <path
         d="m -111.47757,167.6478 -1.82861,-0.42725 v -0.76904 h 4.51172 l 0.0342,0.93994 q 0.71777,-0.61524 1.91406,-0.99121 1.21338,-0.37598 2.46094,-0.37598 3.07617,0 4.750972,2.13623 1.691895,2.13623 1.691895,6.13526 0,4.08447 -1.845703,6.32324 -1.828614,2.23877 -5.297854,2.23877 -1.93115,0 -3.67431,-0.37598 0.10253,1.23047 0.10253,1.93115 v 4.34082 l 2.80274,0.41016 v 0.80322 h -7.65625 v -0.80322 l 2.03369,-0.41016 z m 10.45898,6.64795 q 0,-3.28125 -1.07666,-4.87061 -1.05957,-1.60644 -3.22998,-1.60644 -1.99951,0 -3.33252,0.56396 v 12.83447 q 1.521,0.29053 3.33252,0.29053 4.30664,0 4.30664,-7.21191 z"
         style="fill:#000000;fill-opacity:1;stroke:none;stroke-width:0.93750006px"
         id="path10277" />
      <path
         d="m -82.117218,181.54184 q -0.837402,0.61523 -2.307129,0.97412 -1.469726,0.3418 -3.007812,0.3418 -7.810059,0 -7.810059,-8.49365 0,-4.01612 1.982422,-6.16944 1.999512,-2.17041 5.708008,-2.17041 2.307129,0 5.041504,0.52979 v 4.47754 h -0.939942 l -0.734863,-2.83692 q -1.418457,-0.80322 -3.400879,-0.80322 -4.580078,0 -4.580078,6.97266 0,3.62304 1.384277,5.17822 1.401367,1.53808 4.323731,1.53808 2.495117,0 4.34082,-0.56396 z"
         style="fill:#000000;fill-opacity:1;stroke:none;stroke-width:0.93750006px"
         id="path10279" />
      <path
         d="m -78.289093,167.6478 -2.13623,-0.42725 v -0.76904 h 17.277832 v 0.76904 l -1.948243,0.42725 v 13.67187 l 1.948243,0.42725 v 0.76904 h -6.921387 v -0.76904 l 2.13623,-0.42725 v -13.44971 h -7.519531 v 13.44971 l 1.948242,0.42725 v 0.76904 h -6.921386 v -0.76904 l 2.13623,-0.42725 z"
         style="fill:#000000;fill-opacity:1;stroke:none;stroke-width:0.93750006px"
         id="path10281" />
      <path
         d="m -57.88382,174.43246 v 0.30762 q 0,2.3584 0.512696,3.67432 0.529785,1.29883 1.606445,1.98242 1.09375,0.68359 2.854004,0.68359 0.922852,0 2.1875,-0.1538 1.264648,-0.15381 2.084961,-0.3418 v 0.95703 q -0.820313,0.52978 -2.23877,0.92285 -1.401367,0.39307 -2.871093,0.39307 -3.742676,0 -5.48584,-2.0166 -1.726074,-2.01661 -1.726074,-6.47705 0,-4.20411 1.760253,-6.27198 1.760254,-2.06787 5.024415,-2.06787 6.169433,0 6.169433,7.00684 v 1.40136 z m 3.708497,-7.04101 q -1.777344,0 -2.734375,1.43555 -0.939942,1.43554 -0.939942,4.23828 h 6.870117 q 0,-3.05908 -0.786133,-4.35791 -0.786132,-1.31592 -2.409667,-1.31592 z"
         style="fill:#000000;fill-opacity:1;stroke:none;stroke-width:0.93750006px"
         id="path10283" />
      <path
         d="m -44.041046,167.6478 -2.136231,-0.42725 v -0.76904 h 6.921387 v 0.76904 l -1.948242,0.42725 v 7.10937 l 6.5625,-7.07519 -1.674805,-0.46143 v -0.76904 h 5.673828 v 0.76904 l -1.999511,0.39307 -4.580078,4.68261 5.878906,9.05762 1.572265,0.39307 v 0.76904 h -6.408691 v -0.76904 l 1.469727,-0.42725 -4.40918,-6.92139 -2.084961,1.77735 v 5.14404 l 1.948242,0.42725 v 0.76904 h -6.921387 v -0.76904 l 2.136231,-0.42725 z"
         style="fill:#000000;fill-opacity:1;stroke:none;stroke-width:0.93750006px"
         id="path10285" />
      <path
         d="m -15.483917,166.45151 v 4.58008 h -0.939942 l -0.734863,-2.83692 q -1.896973,-0.32471 -3.400879,-0.32471 h -0.649414 v 13.44971 l 2.290039,0.42725 v 0.76904 h -7.60498 v -0.76904 l 2.478027,-0.42725 v -13.44971 h -0.632324 q -1.503906,0 -3.400879,0.32471 l -0.734863,2.83692 h -0.939942 v -4.58008 z"
         style="fill:#000000;fill-opacity:1;stroke:none;stroke-width:0.93750006px"
         id="path10287" />
      <path
         d="m -12.185577,167.6478 -2.136231,-0.42725 v -0.76904 h 6.9213869 v 0.76904 l -1.9482422,0.42725 v 10.10009 l 7.5195312,-8.13476 v -1.96533 l -2.1362304,-0.42725 v -0.76904 h 6.9213867 v 0.76904 L 1.007782,167.6478 v 13.67187 l 1.9482422,0.42725 v 0.76904 h -6.9213867 v -0.76904 l 2.1362304,-0.42725 v -9.77539 l -7.5195312,8.13477 v 1.64062 l 1.9482422,0.42725 v 0.76904 h -6.9213869 v -0.76904 l 2.136231,-0.42725 z"
         style="fill:#000000;fill-opacity:1;stroke:none;stroke-width:0.93750006px"
         id="path10289" />
      <path
         d="m 4.4086609,182.51596 v -0.76904 l 2.1362305,-0.42725 V 167.6478 l -2.1362305,-0.42725 v -0.76904 h 6.8701171 q 3.776856,0 5.332031,0.93994 1.572266,0.93994 1.572266,2.93945 0,1.64063 -0.939941,2.5293 -0.922852,0.88867 -2.631836,1.28174 v 0.13672 q 2.17041,0.23925 3.332519,1.11084 1.16211,0.87158 1.16211,2.61474 0,2.40967 -1.760254,3.46924 -1.743164,1.04248 -5.673829,1.04248 z m 7.0068361,-1.36719 q 2.529297,0 3.571777,-0.75195 1.042481,-0.75195 1.042481,-2.46094 0,-1.62353 -1.11084,-2.30713 -1.09375,-0.70068 -3.725586,-0.70068 H 9.3818054 v 6.2207 z m -2.0336916,-7.58789 h 1.8115236 q 2.050781,0 2.973633,-0.68359 0.939941,-0.68359 0.939941,-2.32422 0,-1.38428 -0.957031,-2.05078 -0.939942,-0.68359 -3.024903,-0.68359 H 9.3818054 Z"
         style="fill:#000000;fill-opacity:1;stroke:none;stroke-width:0.93750006px"
         id="path10291" />
      <path
         d="m 27.787567,166.09262 q 2.631836,0 3.862305,1.07666 1.247558,1.07666 1.247558,3.29834 v 10.85205 l 1.999512,0.42725 v 0.76904 h -4.40918 l -0.324707,-1.60644 q -1.948242,1.94824 -4.973144,1.94824 -4.118652,0 -4.118652,-4.78516 0,-1.60644 0.615234,-2.64892 0.632324,-1.05957 1.999512,-1.60645 1.367187,-0.56396 3.964843,-0.61523 l 2.409668,-0.0684 v -2.51221 q 0,-1.65772 -0.615234,-2.44385 -0.598145,-0.78613 -1.862793,-0.78613 -1.708984,0 -3.127441,0.80322 l -0.581055,1.99951 h -0.957031 v -3.50341 q 2.768554,-0.59815 4.870605,-0.59815 z m 2.272949,8.23731 -2.238769,0.0684 q -2.290039,0.0855 -3.110352,0.88868 -0.803222,0.80322 -0.803222,2.6831 0,3.00781 2.443847,3.00781 1.16211,0 1.999512,-0.25634 0.854492,-0.27344 1.708984,-0.6836 z"
         style="fill:#000000;fill-opacity:1;stroke:none;stroke-width:0.93750006px"
         id="path10293" />
    </g>
  </g>
</svg>
