<?xml version="1.0" encoding="UTF-8" standalone="no"?>
<svg
   xmlns:osb="http://www.openswatchbook.org/uri/2009/osb"
   xmlns:dc="http://purl.org/dc/elements/1.1/"
   xmlns:cc="http://creativecommons.org/ns#"
   xmlns:rdf="http://www.w3.org/1999/02/22-rdf-syntax-ns#"
   xmlns:svg="http://www.w3.org/2000/svg"
   xmlns="http://www.w3.org/2000/svg"
   xmlns:xlink="http://www.w3.org/1999/xlink"
   xmlns:sodipodi="http://sodipodi.sourceforge.net/DTD/sodipodi-0.dtd"
   xmlns:inkscape="http://www.inkscape.org/namespaces/inkscape"
   version="1.1"
   id="svg13394"
   viewBox="0 0 1397.2544 1108.5505"
   height="312.85757mm"
   width="394.33624mm"
   sodipodi:docname="projection-cube_10.svg"
   inkscape:version="0.92.1 r15371">
  <sodipodi:namedview
     pagecolor="#ffffff"
     bordercolor="#666666"
     borderopacity="1"
     objecttolerance="10"
     gridtolerance="10"
     guidetolerance="10"
     inkscape:pageopacity="0"
     inkscape:pageshadow="2"
     inkscape:window-width="1920"
     inkscape:window-height="1051"
     id="namedview17249"
     showgrid="false"
     inkscape:zoom="0.79833984"
     inkscape:cx="679.7209"
     inkscape:cy="463.78251"
     inkscape:window-x="0"
     inkscape:window-y="0"
     inkscape:window-maximized="1"
     inkscape:current-layer="svg13394" />
  <defs
     id="defs13396">
    <marker
       orient="auto"
       refY="0"
       refX="0"
       id="marker24955"
       style="overflow:visible">
      <path
         id="path24957"
         d="M 0,0 5,-5 -12.5,0 5,5 0,0 Z"
         style="fill:#000000;fill-opacity:1;fill-rule:evenodd;stroke:#000000;stroke-width:1pt;stroke-opacity:1"
         transform="matrix(-0.8,0,0,-0.8,-10,0)" />
    </marker>
    <marker
       orient="auto"
       refY="0"
       refX="0"
       id="marker23269"
       style="overflow:visible">
      <path
         id="path23271"
         d="M 0,0 5,-5 -12.5,0 5,5 0,0 Z"
         style="fill:#000000;fill-opacity:1;fill-rule:evenodd;stroke:#000000;stroke-width:1pt;stroke-opacity:1"
         transform="matrix(-0.8,0,0,-0.8,-10,0)" />
    </marker>
    <marker
       style="overflow:visible"
       id="marker22859"
       refX="0"
       refY="0"
       orient="auto">
      <path
         transform="matrix(-0.8,0,0,-0.8,-10,0)"
         style="fill:#000000;fill-opacity:1;fill-rule:evenodd;stroke:#000000;stroke-width:1pt;stroke-opacity:1"
         d="M 0,0 5,-5 -12.5,0 5,5 0,0 Z"
         id="path22861" />
    </marker>
    <marker
       orient="auto"
       refY="0"
       refX="0"
       id="marker17339"
       style="overflow:visible">
      <path
         id="path17341"
         d="M 0,0 5,-5 -12.5,0 5,5 0,0 Z"
         style="fill:#000000;fill-opacity:1;fill-rule:evenodd;stroke:#000000;stroke-width:1pt;stroke-opacity:1"
         transform="matrix(-0.8,0,0,-0.8,-10,0)" />
    </marker>
    <marker
       style="overflow:visible"
       id="marker23061"
       refX="0"
       refY="0"
       orient="auto">
      <path
         transform="matrix(-0.8,0,0,-0.8,-10,0)"
         style="fill:#000000;fill-opacity:1;fill-rule:evenodd;stroke:#000000;stroke-width:1pt;stroke-opacity:1"
         d="M 0,0 5,-5 -12.5,0 5,5 0,0 Z"
         id="path23063" />
    </marker>
    <linearGradient
       gradientTransform="rotate(-87.836609,-2481.5739,-11868.961)"
       osb:paint="solid"
       id="red">
      <stop
         id="stop5548"
         offset="0"
         style="stop-color:#e31616;stop-opacity:1;" />
    </linearGradient>
    <linearGradient
       y2="1092.722"
       x2="1934.082"
       y1="1092.722"
       x1="1734.1537"
       gradientTransform="rotate(55.869361,1822.8811,383.79547)"
       gradientUnits="userSpaceOnUse"
       id="linearGradient26691"
       xlink:href="#side" />
    <linearGradient
       gradientTransform="rotate(-19.575331,-2251.836,-5209.3293)"
       osb:paint="solid"
       id="side">
      <stop
         id="stop5530"
         offset="0"
         style="stop-color:#265998;stop-opacity:1;" />
    </linearGradient>
    <linearGradient
       y2="1092.722"
       x2="1934.082"
       y1="1092.722"
       x1="1734.1537"
       gradientTransform="rotate(55.869361,1847.7836,108.99879)"
       gradientUnits="userSpaceOnUse"
       id="linearGradient26689"
       xlink:href="#side" />
    <linearGradient
       gradientTransform="rotate(-19.575331,-2267.6335,-5174.1938)"
       osb:paint="solid"
       id="top">
      <stop
         id="stop5590"
         offset="0"
         style="stop-color:#f9d455;stop-opacity:1;" />
    </linearGradient>
    <marker
       orient="auto"
       refY="0"
       refX="0"
       id="marker22265"
       style="overflow:visible">
      <path
         id="path22267"
         d="M 0,0 5,-5 -12.5,0 5,5 0,0 Z"
         style="fill:#000000;fill-opacity:1;fill-rule:evenodd;stroke:#000000;stroke-width:1pt;stroke-opacity:1"
         transform="matrix(-0.8,0,0,-0.8,-10,0)" />
    </marker>
    <marker
       orient="auto"
       refY="0"
       refX="0"
       id="marker20527"
       style="overflow:visible">
      <path
         id="path20529"
         d="M 0,0 5,-5 -12.5,0 5,5 0,0 Z"
         style="fill:#000000;fill-opacity:1;fill-rule:evenodd;stroke:#000000;stroke-width:1pt;stroke-opacity:1"
         transform="matrix(-0.8,0,0,-0.8,-10,0)" />
    </marker>
    <marker
       style="overflow:visible"
       id="marker22571"
       refX="0"
       refY="0"
       orient="auto">
      <path
         transform="matrix(-0.8,0,0,-0.8,-10,0)"
         style="fill:#000000;fill-opacity:1;fill-rule:evenodd;stroke:#000000;stroke-width:1pt;stroke-opacity:1"
         d="M 0,0 5,-5 -12.5,0 5,5 0,0 Z"
         id="path22573" />
    </marker>
    <marker
       style="overflow:visible"
       id="marker21983"
       refX="0"
       refY="0"
       orient="auto">
      <path
         transform="matrix(-0.8,0,0,-0.8,-10,0)"
         style="fill:#000000;fill-opacity:1;fill-rule:evenodd;stroke:#000000;stroke-width:1pt;stroke-opacity:1"
         d="M 0,0 5,-5 -12.5,0 5,5 0,0 Z"
         id="path21985" />
    </marker>
    <linearGradient
       y2="1102.3622"
       x2="120"
       y1="972.36218"
       x1="120"
       gradientTransform="matrix(0.5970231,0.80222404,0.80222404,-0.5970231,-199.83108,974.85869)"
       gradientUnits="userSpaceOnUse"
       id="linearGradient26687"
       xlink:href="#blue_gradient-2" />
    <linearGradient
       osb:paint="gradient"
       id="blue_gradient-2">
      <stop
         id="stop4206"
         offset="0"
         style="stop-color:#2a7fff;stop-opacity:1;" />
      <stop
         id="stop4208"
         offset="1"
         style="stop-color:#2a7fff;stop-opacity:0;" />
    </linearGradient>
    <linearGradient
       y2="1092.722"
       x2="1934.082"
       y1="1092.722"
       x1="1734.1537"
       gradientTransform="rotate(90,1154.3348,111.48823)"
       gradientUnits="userSpaceOnUse"
       id="linearGradient26685"
       xlink:href="#side" />
    <linearGradient
       y2="1092.722"
       x2="1934.082"
       y1="1092.722"
       x1="1734.1537"
       gradientTransform="rotate(90,1442.8819,203.51312)"
       gradientUnits="userSpaceOnUse"
       id="linearGradient26683"
       xlink:href="#side" />
  </defs>
  <metadata
     id="metadata13399">
    <rdf:RDF>
      <cc:Work
         rdf:about="">
        <dc:format>image/svg+xml</dc:format>
        <dc:type
           rdf:resource="http://purl.org/dc/dcmitype/StillImage" />
        <dc:title />
      </cc:Work>
    </rdf:RDF>
  </metadata>
  <path
     inkscape:connector-curvature="0"
     id="path26573"
     d="m 626.20312,1016.2976 -64.9909,-36.27701 -2.343,-163.8412 66.9964,38.1798 z"
     style="fill:url(#side);fill-rule:evenodd;stroke:none;stroke-width:1px;stroke-linecap:butt;stroke-linejoin:miter;stroke-opacity:1" />
  <path
     inkscape:connector-curvature="0"
     id="path26575"
     d="m 625.86562,854.35919 99.2567,-58.0985 2.0598,158.5125 -100.9869,61.51911 z"
     style="fill:url(#red);fill-rule:evenodd;stroke:none;stroke-width:1px;stroke-linecap:butt;stroke-linejoin:miter;stroke-opacity:1" />
  <path
     inkscape:connector-curvature="0"
     id="path26577"
     d="m 725.12232,796.26069 -68.0544,-38.2705 -98.1987,58.1892 66.9964,38.1798 z"
     style="fill:url(#top);fill-rule:evenodd;stroke:none;stroke-width:1px;stroke-linecap:butt;stroke-linejoin:miter;stroke-opacity:1" />
  <path
     inkscape:connector-curvature="0"
     style="opacity:1;fill:none;fill-opacity:1;stroke:#000000;stroke-width:1;stroke-linecap:round;stroke-linejoin:round;stroke-miterlimit:4;stroke-dasharray:8, 4;stroke-dashoffset:0;stroke-opacity:1"
     d="m 661.49357,854.95515 a 36.211906,36.211906 0 0 1 -36.2119,36.2119 36.211906,36.211906 0 0 1 -36.21191,-36.2119 36.211906,36.211906 0 0 1 36.21191,-36.21191 36.211906,36.211906 0 0 1 36.2119,36.21191 z"
     id="circle26579" />
  <g
     style="font-style:normal;font-variant:normal;font-weight:normal;font-stretch:normal;font-size:40px;line-height:125%;font-family:Purisa;-inkscape-font-specification:Purisa;letter-spacing:0px;word-spacing:0px;fill:#000000;fill-opacity:1;stroke:none;stroke-width:1px;stroke-linecap:butt;stroke-linejoin:miter;stroke-opacity:1"
     id="text26581"
     transform="translate(461.48432,53.341617)">
    <path
       inkscape:connector-curvature="0"
       d="m 172.37797,815.53765 q -0.32,0 -0.6,-0.24 -0.28,-0.24 -0.28,-0.68 0,-0.44 0.2,-0.76 0.24,-0.36 0.84,-1 0.6,-0.68 1.12,-1.4 l 1.32,-1.76 q 0.28,-0.36 1,-1.6 0.72,-1.28 1.36,-2.12 0.68,-0.88 1.2,-0.88 0.84,0 1.12,2.56 0.24,2.16 0.48,8.52 0.24,6.32 0.24,10.48 0,2.64 -0.12,2.92 -0.32,0.68 -0.72,0.68 -0.56,0 -1.04,-1.4 -0.52,-1.48 -0.52,-10 -0.04,-8.64 -0.48,-8.64 -0.32,0 -1.28,1.36 -0.96,1.32 -2.08,2.64 -1.08,1.32 -1.76,1.32 z"
       id="path14198" />
    <path
       inkscape:connector-curvature="0"
       d="m 207.20047,826.97765 q 1.56,0 2.24,0.16 0.72,0.16 0.84,0.4 0.16,0.2 0.16,0.72 0,0.64 -0.68,0.72 -0.64,0.08 -3.04,0.2 -2.4,0.12 -5.08,0.64 -1.88,0.36 -4.04,0.64 -2.16,0.32 -3.16,0.48 -1,0.2 -1.28,0.48 -0.32,0.28 -0.88,0.28 -0.64,0 -1.2,-0.36 -0.52,-0.36 -0.52,-0.84 0,-0.52 1.32,-2.24 1.32,-1.76 2.48,-2.76 1.44,-1.2 4,-6.32 2.6,-5.16 2.6,-8.4 0,-1.32 -0.76,-1.8 -0.72,-0.48 -2.52,-0.48 -4.32,0 -8.68,4.4 -2.72,2.64 -2.88,2.64 -0.2,0 -0.2,-1.36 0,-1.4 1.04,-1.96 1.08,-0.52 1.08,-1.08 0,-0.2 0.16,-0.44 0.2,-0.28 0.56,-0.56 0.4,-0.32 0.72,-0.56 0.36,-0.28 0.96,-0.68 0.6,-0.44 0.96,-0.72 0.8,-0.68 2.6,-1.36 1.84,-0.72 4,-0.72 3.64,0 4.72,2 0.44,0.76 0.44,2.56 0,3.28 -1.2,6.36 -0.88,2.08 -3.24,5.92 -2.32,3.8 -3.48,4.88 -0.44,0.44 -0.44,0.56 0,0.04 0.16,0.04 0.04,0 2,-0.36 1.96,-0.36 4.88,-0.72 2.96,-0.36 5.36,-0.36 z"
       id="path14200" />
    <path
       inkscape:connector-curvature="0"
       d="m 221.61985,811.41765 q 0,-0.48 1.44,-1.96 1.44,-1.52 3.32,-2.84 1.88,-1.36 2.84,-1.36 1.4,0 3.04,2.12 1.64,2.08 1.64,5.64 0,5.08 -3.44,11.4 -1.4,2.6 -2.88,3.96 -1.44,1.32 -3.44,1.88 -0.92,0.24 -1.68,0.24 -2.84,0 -4.48,-3.56 -0.88,-1.8 -0.88,-2.68 0,-1.76 2.24,-6.92 2.28,-5.2 2.28,-5.92 z m 10.08,1.04 q 0,-4.12 -2.6,-4.12 -1.08,0 -2.12,0.68 -2.12,1.4 -4.6,6.8 -2.44,5.36 -2.44,8.72 0,1.44 0.92,2.48 0.96,1.04 2.28,1.04 0.88,0 1.6,-0.4 0.72,-0.44 1.96,-1.6 2.04,-1.96 2.04,-2.56 0,-0.32 0.72,-1.88 0.76,-1.56 1.48,-4.04 0.76,-2.52 0.76,-5.12 z"
       id="path14202" />
    <path
       inkscape:connector-curvature="0"
       d="m 237.55797,803.05765 q 0,-1.84 1.2,-2.92 1.2,-1.12 2.72,-1.12 1.72,0 2.92,1.36 1.24,1.32 1.24,2.68 0,1.64 -1.84,2.88 -1.84,1.24 -3.04,1.24 -1.36,0 -2.28,-1.24 -0.92,-1.28 -0.92,-2.88 z m 2.72,-0.4 q 0,0.72 0.24,1.12 0.24,0.4 0.44,0.44 0.24,0.04 0.56,0.04 0.56,0 0.96,-0.24 0.44,-0.28 0.44,-0.68 0,-0.52 -0.84,-1.16 -0.8,-0.64 -1.28,-0.64 -0.52,0 -0.52,1.12 z"
       id="path14204" />
  </g>
  <g
     style="font-style:normal;font-variant:normal;font-weight:normal;font-stretch:normal;font-size:40px;line-height:125%;font-family:Purisa;-inkscape-font-specification:Purisa;letter-spacing:0px;word-spacing:0px;fill:#000000;fill-opacity:1;stroke:none;stroke-width:1px;stroke-linecap:butt;stroke-linejoin:miter;stroke-opacity:1"
     id="text26585"
     transform="translate(461.48432,53.341617)">
    <path
       inkscape:connector-curvature="0"
       d="m 83.449537,819.10894 q -0.32,0 -0.6,-0.24 -0.28,-0.24 -0.28,-0.68 0,-0.44 0.2,-0.76 0.24,-0.36 0.84,-1 0.6,-0.68 1.12,-1.4 l 1.32,-1.76 q 0.28,-0.36 1,-1.6 0.72,-1.28 1.36,-2.12 0.68,-0.88 1.2,-0.88 0.84,0 1.12,2.56 0.24,2.16 0.48,8.52 0.24,6.32 0.24,10.48 0,2.64 -0.12,2.92 -0.32,0.68 -0.72,0.68 -0.56,0 -1.04,-1.4 -0.52,-1.48 -0.52,-10 -0.04,-8.64 -0.48,-8.64 -0.32,0 -1.28,1.36 -0.96,1.32 -2.08,2.64 -1.08,1.32 -1.76,1.32 z"
       id="path14207" />
    <path
       inkscape:connector-curvature="0"
       d="m 118.27204,830.54894 q 1.56,0 2.24,0.16 0.72,0.16 0.84,0.4 0.16,0.2 0.16,0.72 0,0.64 -0.68,0.72 -0.64,0.08 -3.04,0.2 -2.4,0.12 -5.08,0.64 -1.88,0.36 -4.04,0.64 -2.16,0.32 -3.16,0.48 -1,0.2 -1.28,0.48 -0.32,0.28 -0.88,0.28 -0.64,0 -1.2,-0.36 -0.52,-0.36 -0.52,-0.84 0,-0.52 1.32,-2.24 1.32,-1.76 2.48,-2.76 1.44,-1.2 4,-6.32 2.6,-5.16 2.6,-8.4 0,-1.32 -0.76,-1.8 -0.72,-0.48 -2.52,-0.48 -4.32,0 -8.68,4.4 -2.720003,2.64 -2.880003,2.64 -0.2,0 -0.2,-1.36 0,-1.4 1.04,-1.96 1.08,-0.52 1.08,-1.08 0,-0.2 0.16,-0.44 0.2,-0.28 0.56,-0.56 0.400003,-0.32 0.720003,-0.56 0.36,-0.28 0.96,-0.68 0.6,-0.44 0.96,-0.72 0.8,-0.68 2.6,-1.36 1.84,-0.72 4,-0.72 3.64,0 4.72,2 0.44,0.76 0.44,2.56 0,3.28 -1.2,6.36 -0.88,2.08 -3.24,5.92 -2.32,3.8 -3.48,4.88 -0.44,0.44 -0.44,0.56 0,0.04 0.16,0.04 0.04,0 2,-0.36 1.96,-0.36 4.88,-0.72 2.96,-0.36 5.36,-0.36 z"
       id="path14209" />
    <path
       inkscape:connector-curvature="0"
       d="m 132.69141,814.98894 q 0,-0.48 1.44,-1.96 1.44,-1.52 3.32,-2.84 1.88,-1.36 2.84,-1.36 1.4,0 3.04,2.12 1.64,2.08 1.64,5.64 0,5.08 -3.44,11.4 -1.4,2.6 -2.88,3.96 -1.44,1.32 -3.44,1.88 -0.92,0.24 -1.68,0.24 -2.84,0 -4.48,-3.56 -0.88,-1.8 -0.88,-2.68 0,-1.76 2.24,-6.92 2.28,-5.2 2.28,-5.92 z m 10.08,1.04 q 0,-4.12 -2.6,-4.12 -1.08,0 -2.12,0.68 -2.12,1.4 -4.6,6.8 -2.44,5.36 -2.44,8.72 0,1.44 0.92,2.48 0.96,1.04 2.28,1.04 0.88,0 1.6,-0.4 0.72,-0.44 1.96,-1.6 2.04,-1.96 2.04,-2.56 0,-0.32 0.72,-1.88 0.76,-1.56 1.48,-4.04 0.76,-2.52 0.76,-5.12 z"
       id="path14211" />
    <path
       inkscape:connector-curvature="0"
       d="m 148.62954,806.62894 q 0,-1.84 1.2,-2.92 1.2,-1.12 2.72,-1.12 1.72,0 2.92,1.36 1.24,1.32 1.24,2.68 0,1.64 -1.84,2.88 -1.84,1.24 -3.04,1.24 -1.36,0 -2.28,-1.24 -0.92,-1.28 -0.92,-2.88 z m 2.72,-0.4 q 0,0.72 0.24,1.12 0.24,0.4 0.44,0.44 0.24,0.04 0.56,0.04 0.56,0 0.96,-0.24 0.44,-0.28 0.44,-0.68 0,-0.52 -0.84,-1.16 -0.8,-0.64 -1.28,-0.64 -0.52,0 -0.52,1.12 z"
       id="path14213" />
  </g>
  <g
     style="font-style:normal;font-variant:normal;font-weight:normal;font-stretch:normal;font-size:40px;line-height:125%;font-family:Purisa;-inkscape-font-specification:Purisa;letter-spacing:0px;word-spacing:0px;fill:#000000;fill-opacity:1;stroke:none;stroke-width:1px;stroke-linecap:butt;stroke-linejoin:miter;stroke-opacity:1"
     id="text26589"
     transform="translate(461.48432,53.341617)">
    <path
       inkscape:connector-curvature="0"
       d="m 135.94926,757.68047 q -0.32,0 -0.6,-0.24 -0.28,-0.24 -0.28,-0.68 0,-0.44 0.2,-0.76 0.24,-0.36 0.84,-1 0.6,-0.68 1.12,-1.4 l 1.32,-1.76 q 0.28,-0.36 1,-1.6 0.72,-1.28 1.36,-2.12 0.68,-0.88 1.2,-0.88 0.84,0 1.12,2.56 0.24,2.16 0.48,8.52 0.24,6.32 0.24,10.48 0,2.64 -0.12,2.92 -0.32,0.68 -0.72,0.68 -0.56,0 -1.04,-1.4 -0.52,-1.48 -0.52,-10 -0.04,-8.64 -0.48,-8.64 -0.32,0 -1.28,1.36 -0.96,1.32 -2.08,2.64 -1.08,1.32 -1.76,1.32 z"
       id="path14216" />
    <path
       inkscape:connector-curvature="0"
       d="m 170.77176,769.12047 q 1.56,0 2.24,0.16 0.72,0.16 0.84,0.4 0.16,0.2 0.16,0.72 0,0.64 -0.68,0.72 -0.64,0.08 -3.04,0.2 -2.4,0.12 -5.08,0.64 -1.88,0.36 -4.04,0.64 -2.16,0.32 -3.16,0.48 -1,0.2 -1.28,0.48 -0.32,0.28 -0.88,0.28 -0.64,0 -1.2,-0.36 -0.52,-0.36 -0.52,-0.84 0,-0.52 1.32,-2.24 1.32,-1.76 2.48,-2.76 1.44,-1.2 4,-6.32 2.6,-5.16 2.6,-8.4 0,-1.32 -0.76,-1.8 -0.72,-0.48 -2.52,-0.48 -4.32,0 -8.68,4.4 -2.72,2.64 -2.88,2.64 -0.2,0 -0.2,-1.36 0,-1.4 1.04,-1.96 1.08,-0.52 1.08,-1.08 0,-0.2 0.16,-0.44 0.2,-0.28 0.56,-0.56 0.4,-0.32 0.72,-0.56 0.36,-0.28 0.96,-0.68 0.6,-0.44 0.96,-0.72 0.8,-0.68 2.6,-1.36 1.84,-0.72 4,-0.72 3.64,0 4.72,2 0.44,0.76 0.44,2.56 0,3.28 -1.2,6.36 -0.88,2.08 -3.24,5.92 -2.32,3.8 -3.48,4.88 -0.44,0.44 -0.44,0.56 0,0.04 0.16,0.04 0.04,0 2,-0.36 1.96,-0.36 4.88,-0.72 2.96,-0.36 5.36,-0.36 z"
       id="path14218" />
    <path
       inkscape:connector-curvature="0"
       d="m 185.19114,753.56047 q 0,-0.48 1.44,-1.96 1.44,-1.52 3.32,-2.84 1.88,-1.36 2.84,-1.36 1.4,0 3.04,2.12 1.64,2.08 1.64,5.64 0,5.08 -3.44,11.4 -1.4,2.6 -2.88,3.96 -1.44,1.32 -3.44,1.88 -0.92,0.24 -1.68,0.24 -2.84,0 -4.48,-3.56 -0.88,-1.8 -0.88,-2.68 0,-1.76 2.24,-6.92 2.28,-5.2 2.28,-5.92 z m 10.08,1.04 q 0,-4.12 -2.6,-4.12 -1.08,0 -2.12,0.68 -2.12,1.4 -4.6,6.8 -2.44,5.36 -2.44,8.72 0,1.44 0.92,2.48 0.96,1.04 2.28,1.04 0.88,0 1.6,-0.4 0.72,-0.44 1.96,-1.6 2.04,-1.96 2.04,-2.56 0,-0.32 0.72,-1.88 0.76,-1.56 1.48,-4.04 0.76,-2.52 0.76,-5.12 z"
       id="path14220" />
    <path
       inkscape:connector-curvature="0"
       d="m 201.12926,745.20047 q 0,-1.84 1.2,-2.92 1.2,-1.12 2.72,-1.12 1.72,0 2.92,1.36 1.24,1.32 1.24,2.68 0,1.64 -1.84,2.88 -1.84,1.24 -3.04,1.24 -1.36,0 -2.28,-1.24 -0.92,-1.28 -0.92,-2.88 z m 2.72,-0.4 q 0,0.72 0.24,1.12 0.24,0.4 0.44,0.44 0.24,0.04 0.56,0.04 0.56,0 0.96,-0.24 0.44,-0.28 0.44,-0.68 0,-0.52 -0.84,-1.16 -0.8,-0.64 -1.28,-0.64 -0.52,0 -0.52,1.12 z"
       id="path14222" />
  </g>
  <path
     inkscape:connector-curvature="0"
     style="fill:url(#linearGradient26683);fill-opacity:1;stroke:none;stroke-width:1;stroke-linecap:round;stroke-linejoin:round;stroke-miterlimit:4;stroke-dasharray:none;stroke-dashoffset:0;stroke-opacity:1"
     d="M 586.92132,494.78492 V 694.71326 H 520.42461 V 494.78492 Z"
     id="rect26597" />
  <path
     inkscape:connector-curvature="0"
     style="fill:url(#red);fill-opacity:1;stroke:none;stroke-width:1;stroke-linecap:round;stroke-linejoin:round;stroke-miterlimit:4;stroke-dasharray:none;stroke-dashoffset:0;stroke-opacity:1"
     d="m 420.42452,494.71339 h 100 v 200 h -100 z"
     id="rect26599" />
  <path
     inkscape:connector-curvature="0"
     id="path26601"
     d="M 1188.4673,271.82309 306.50582,891.85499"
     style="fill:none;fill-rule:evenodd;stroke:#000000;stroke-width:1;stroke-linecap:butt;stroke-linejoin:miter;stroke-miterlimit:4;stroke-dasharray:3, 1;stroke-dashoffset:0;stroke-opacity:1" />
  <path
     inkscape:connector-curvature="0"
     style="fill:none;fill-rule:evenodd;stroke:#000000;stroke-width:1px;stroke-linecap:butt;stroke-linejoin:miter;stroke-opacity:1"
     d="m 633.94132,353.24499 140.3827,209.9978"
     id="path26603" />
  <path
     inkscape:connector-curvature="0"
     style="fill:url(#red);fill-opacity:1;stroke:none;stroke-width:1;stroke-linecap:round;stroke-linejoin:round;stroke-miterlimit:4;stroke-dasharray:none;stroke-dashoffset:0;stroke-opacity:1"
     d="m 206.34931,691.23548 h 100 v 200 h -100 z"
     id="rect26605" />
  <path
     inkscape:connector-curvature="0"
     style="fill:url(#linearGradient26685);fill-opacity:1;stroke:none;stroke-width:1;stroke-linecap:round;stroke-linejoin:round;stroke-miterlimit:4;stroke-dasharray:none;stroke-dashoffset:0;stroke-opacity:1"
     d="m 206.34931,691.30714 0,199.92834 h -66.4967 V 691.30714 Z"
     id="rect26607" />
  <path
     inkscape:connector-curvature="0"
     id="path26625"
     d="m 639.92352,474.55859 72.2001,-53.7322 -17.9107,-24.0667 61.9401,16.2304 -2.2378,63.9922 -17.9106,-24.0669 -72.2001,53.7321 z"
     style="fill:url(#linearGradient26687);fill-opacity:1;fill-rule:evenodd;stroke:none;stroke-width:1px;stroke-linecap:butt;stroke-linejoin:miter;stroke-opacity:1" />
  <path
     inkscape:connector-curvature="0"
     style="opacity:1;fill:none;fill-opacity:1;stroke:#000000;stroke-width:1;stroke-linecap:round;stroke-linejoin:round;stroke-miterlimit:4;stroke-dasharray:8, 4;stroke-dashoffset:0;stroke-opacity:1"
     d="m 758.1068,539.8359 16.21706,23.40675 -26.59857,18.42847 -16.21706,-23.40675 z"
     id="rect26643" />
  <path
     inkscape:connector-curvature="0"
     style="fill:none;fill-rule:evenodd;stroke:#000000;stroke-width:1;stroke-linecap:butt;stroke-linejoin:miter;stroke-miterlimit:4;stroke-dasharray:3, 1;stroke-dashoffset:0;stroke-opacity:1"
     d="M 1021.8141,71.275178 139.85262,691.30709"
     id="path26645" />
  <path
     inkscape:connector-curvature="0"
     id="path26647"
     d="m 520.42462,494.78489 244.6954,-171.8413"
     style="fill:none;fill-rule:evenodd;stroke:#000000;stroke-width:1px;stroke-linecap:butt;stroke-linejoin:miter;stroke-opacity:1;marker-end:url(#marker21983)" />
  <path
     inkscape:connector-curvature="0"
     id="path26649"
     d="m 520.42462,694.71329 336.0132,-235.9496"
     style="fill:none;fill-rule:evenodd;stroke:#000000;stroke-width:1px;stroke-linecap:butt;stroke-linejoin:miter;stroke-opacity:1;marker-end:url(#marker22571)" />
  <path
     inkscape:connector-curvature="0"
     style="fill:url(#side);fill-rule:evenodd;stroke:none;stroke-width:1px;stroke-linecap:butt;stroke-linejoin:miter;stroke-opacity:1"
     d="m 930.68322,453.51929 -74.2451,5.2448 -91.6984,-135.797 76.9652,-4.7512 z"
     id="path26651" />
  <path
     inkscape:connector-curvature="0"
     style="fill:url(#red);fill-rule:evenodd;stroke:none;stroke-width:1px;stroke-linecap:butt;stroke-linejoin:miter;stroke-opacity:1"
     d="m 841.70492,318.21589 51.2232,-102.9734 88.543,131.4938 -50.7974,106.7829 z"
     id="path26653" />
  <path
     inkscape:connector-curvature="0"
     style="fill:none;fill-rule:evenodd;stroke:#000000;stroke-width:1px;stroke-linecap:butt;stroke-linejoin:miter;stroke-opacity:1;marker-end:url(#marker20527)"
     d="m 206.63662,890.82629 774.8345,-544.09"
     id="path26655" />
  <path
     inkscape:connector-curvature="0"
     style="fill:none;fill-rule:evenodd;stroke:#000000;stroke-width:1px;stroke-linecap:butt;stroke-linejoin:miter;stroke-opacity:1;marker-end:url(#marker22265)"
     d="m 586.92132,494.78489 254.7836,-176.569"
     id="path26657" />
  <path
     inkscape:connector-curvature="0"
     style="fill:url(#top);fill-rule:evenodd;stroke:none;stroke-width:1px;stroke-linecap:butt;stroke-linejoin:miter;stroke-opacity:1"
     d="m 892.92812,215.24249 -77.9,5.2549 -50.2884,102.4697 76.9652,-4.7512 z"
     id="path26659" />
  <path
     inkscape:connector-curvature="0"
     style="fill:url(#red);fill-opacity:1;stroke:none;stroke-width:1;stroke-linecap:round;stroke-linejoin:round;stroke-miterlimit:4;stroke-dasharray:none;stroke-dashoffset:0;stroke-opacity:1"
     d="m 997.22236,548.17549 82.77604,-56.10817 112.2163,165.55209 -82.776,56.10817 z"
     id="rect26661" />
  <path
     inkscape:connector-curvature="0"
     style="fill:url(#linearGradient26689);fill-opacity:1;stroke:none;stroke-width:1;stroke-linecap:round;stroke-linejoin:round;stroke-miterlimit:4;stroke-dasharray:none;stroke-dashoffset:0;stroke-opacity:1"
     d="M 997.26263,548.23491 1109.4388,713.72768 1054.3954,751.03777 942.21929,585.545 Z"
     id="rect26663" />
  <path
     inkscape:connector-curvature="0"
     style="fill:url(#linearGradient26691);fill-opacity:1;stroke:none;stroke-width:1;stroke-linecap:round;stroke-linejoin:round;stroke-miterlimit:4;stroke-dasharray:none;stroke-dashoffset:0;stroke-opacity:1"
     d="m 1213.7983,689.46146 112.1761,165.49279 -55.0433,37.31009 -112.1762,-165.49279 z"
     id="rect26665" />
  <path
     inkscape:connector-curvature="0"
     style="fill:url(#red);fill-opacity:1;stroke:none;stroke-width:1;stroke-linecap:round;stroke-linejoin:round;stroke-miterlimit:4;stroke-dasharray:none;stroke-dashoffset:0;stroke-opacity:1"
     d="m 1075.9788,782.87978 82.776,-56.10817 112.2164,165.55206 -82.7761,56.10817 z"
     id="rect26667" />
  <path
     inkscape:connector-curvature="0"
     id="path26669"
     d="M 1270.9713,892.32349 815.02812,220.49739"
     style="fill:none;fill-rule:evenodd;stroke:#000000;stroke-width:1px;stroke-linecap:butt;stroke-linejoin:miter;stroke-opacity:1;marker-end:url(#marker23061)" />
  <path
     inkscape:connector-curvature="0"
     style="fill:none;fill-rule:evenodd;stroke:#000000;stroke-width:1px;stroke-linecap:butt;stroke-linejoin:miter;stroke-opacity:1;marker-end:url(#marker17339)"
     d="M 1109.4386,713.72739 841.70492,318.21589"
     id="path26671" />
  <path
     inkscape:connector-curvature="0"
     id="path26673"
     d="M 1188.1953,948.43149 856.57022,458.75479"
     style="fill:none;fill-rule:evenodd;stroke:#000000;stroke-width:1px;stroke-linecap:butt;stroke-linejoin:miter;stroke-opacity:1;marker-end:url(#marker22859)" />
  <path
     inkscape:connector-curvature="0"
     style="fill:none;fill-rule:evenodd;stroke:#000000;stroke-width:1px;stroke-linecap:butt;stroke-linejoin:miter;stroke-opacity:1;marker-end:url(#marker23269)"
     d="M 1325.9743,854.95399 981.47112,346.73629"
     id="path26675" />
  <path
     inkscape:connector-curvature="0"
     style="fill:none;fill-rule:evenodd;stroke:#000000;stroke-width:1px;stroke-linecap:butt;stroke-linejoin:miter;stroke-opacity:1;marker-end:url(#marker24955)"
     d="m 206.34932,691.23549 686.5788,-475.993"
     id="path26677" />
  <g
     style="font-style:normal;font-variant:normal;font-weight:normal;font-stretch:normal;font-size:40px;line-height:125%;font-family:Purisa;-inkscape-font-specification:Purisa;letter-spacing:0px;word-spacing:0px;fill:#000000;fill-opacity:1;stroke:none;stroke-width:1px;stroke-linecap:butt;stroke-linejoin:miter;stroke-opacity:1"
     id="text26679"
     transform="translate(461.48432,53.341617)">
    <path
       inkscape:connector-curvature="0"
       d="m -132.31048,809.34894 q -0.84,0 -3.36,0.4 -2.48,0.36 -4.68,0.76 -2.16,0.4 -2.24,0.4 -0.52,0 -0.52,-0.52 0,-0.72 -0.48,-0.72 -0.44,0 -0.44,-0.4 0,-0.28 1.28,-0.68 1.32,-0.4 3.28,-0.8 1.96,-0.4 3.84,-0.76 1.92,-0.36 3.48,-0.6 1.6,-0.28 1.76,-0.32 0.44,-0.08 0.88,-0.16 0.48,-0.12 0.68,-0.16 0.24,-0.04 0.32,-0.04 0.4,0 0.84,0.6 0.48,0.6 0.48,1.08 0,0.48 -2.76,3.6 -2.72,3.08 -2.72,3.24 0,0.24 1.32,0.24 1.12,0 2.6,1.44 1.48,1.4 1.84,2.8 0.16,0.6 0.16,1.52 0,3.36 -1.72,6.08 -1.4,2.2 -4,3.6 -2.6,1.36 -4.92,1.36 -2.6,0 -3.32,-1.64 -0.56,-1.12 -0.56,-2.48 0,-1.64 0.76,-1.64 0.68,0 1.28,0.8 0.64,0.8 0.64,1.72 0.04,0.68 0.32,0.84 0.32,0.16 1.52,0.16 1.64,0 3.44,-0.96 1.8,-1 2.88,-2.48 0.96,-1.32 0.96,-4.12 0,-2.48 -0.64,-3.48 -0.6,-1.04 -2.16,-1.04 -1.48,0 -2.52,0.44 -1,0.44 -1.64,0.92 -0.64,0.44 -1.2,0.44 -0.6,0 -0.96,-0.36 -0.36,-0.36 -0.36,-0.96 0,-0.76 0.48,-0.76 0.52,0 1.64,-1.2 4.76,-5.48 4.76,-6.08 0,-0.08 -0.24,-0.08 z"
       id="path14405" />
    <path
       inkscape:connector-curvature="0"
       d="m -110.0561,820.50894 q 0,-1.92 -0.48,-3.12 -0.48,-1.2 -1.28,-1.2 -0.88,0 -2.52,0.88 -1.6,0.88 -2.4,1.8 -1,1.12 -1.4,1.12 -0.32,0 -0.92,-0.6 -0.68,-0.68 -0.68,-6.28 0,-4.72 0.56,-5.08 0.4,-0.24 4.88,-0.44 4.48,-0.2 5.72,-0.48 1.16,-0.28 1.92,-0.28 0.96,0 0.96,0.56 0,0.64 -3.28,1.56 -3.24,0.92 -5.48,0.92 h -0.64 q -2.72,0 -2.72,2 0,0.32 0.16,1.04 0.2,0.68 0.2,1.48 0,0.36 -0.08,0.92 l -0.24,1.24 1.36,-0.84 q 2.48,-1.56 4.8,-1.56 0.84,0 1.24,0.2 1.08,0.48 1.84,2.4 0.76,1.88 0.76,4.08 0,0.92 -0.2,2 -0.84,4.48 -3,6.52 -2.12,2.04 -5.96,2.04 -1.28,0 -1.8,-0.28 -0.52,-0.24 -1.36,-1.28 -1.6,-1.96 -1.6,-3.36 0,-1 0.28,-1 0.2,0 0.64,0.92 0.8,1.48 1.96,2.08 1.2,0.6 3.28,0.6 1.84,0 2.84,-0.84 1.04,-0.88 1.88,-3.2 0.76,-2.04 0.76,-4.52 z"
       id="path14407" />
    <path
       inkscape:connector-curvature="0"
       d="m -98.932354,830.26894 q 0,-1.44 2,-3.52 2.04,-2.12 2.72,-2.12 0.84,0 0.84,-0.64 0,-0.24 0.28,-0.44 0.32,-0.2 0.72,-0.2 0.4,0 0.68,0.2 0.28,0.2 0.28,0.44 0,0.64 1.16,0.64 1.04,0 1.72,1 0.72,1 0.72,2.36 0,2.2 -2.08,4.4 -2.08,2.24 -4.68,2.24 -2.24,0 -3.32,-1.56 -1.04,-1.56 -1.04,-2.8 z m 5.16,0.16 q 0.72,0 1.4,-0.64 0.72,-0.64 0.72,-0.92 0,-0.2 -0.52,-0.2 -0.96,0 -1.56,0.4 -0.6,0.4 -0.6,0.92 0,0.44 0.56,0.44 z"
       id="path14409" />
    <path
       inkscape:connector-curvature="0"
       d="m -58.415479,827.54894 q 1.56,0 2.24,0.16 0.72,0.16 0.84,0.4 0.16,0.2 0.16,0.72 0,0.64 -0.68,0.72 -0.64,0.08 -3.04,0.2 -2.4,0.12 -5.08,0.64 -1.88,0.36 -4.04,0.64 -2.16,0.32 -3.16,0.48 -1,0.2 -1.28,0.48 -0.32,0.28 -0.88,0.28 -0.64,0 -1.2,-0.36 -0.52,-0.36 -0.52,-0.84 0,-0.52 1.32,-2.24 1.32,-1.76 2.48,-2.76 1.44,-1.2 4,-6.32 2.6,-5.16 2.6,-8.4 0,-1.32 -0.76,-1.8 -0.72,-0.48 -2.52,-0.48 -4.32,0 -8.68,4.4 -2.72,2.64 -2.88,2.64 -0.2,0 -0.2,-1.36 0,-1.4 1.04,-1.96 1.08,-0.52 1.08,-1.08 0,-0.2 0.16,-0.44 0.2,-0.28 0.56,-0.56 0.4,-0.32 0.72,-0.56 0.36,-0.28 0.96,-0.68 0.6,-0.44 0.96,-0.72 0.8,-0.68 2.6,-1.36 1.84,-0.72 4,-0.72 3.64,0 4.72,2 0.44,0.76 0.44,2.56 0,3.28 -1.2,6.36 -0.88,2.08 -3.24,5.92 -2.32,3.8 -3.48,4.88 -0.44,0.44 -0.44,0.56 0,0.04 0.16,0.04 0.04,0 2,-0.36 1.96,-0.36 4.88,-0.72 2.96,-0.36 5.36,-0.36 z"
       id="path14411" />
    <path
       inkscape:connector-curvature="0"
       d="m -45.356104,820.02894 q 0.24,0 1.44,-0.8 1.2,-0.8 2.08,-0.8 1.04,0 2.4,0.6 1.36,0.6 2.04,1.32 0.92,1.04 0.92,2.76 0,0.72 -0.16,1.16 -0.16,0.44 -0.56,1.12 -0.4,0.64 -0.64,1.2 -0.36,0.84 -2.04,2.36 -1.68,1.52 -2.6,1.88 -1,0.36 -2.48,0.36 -1.84,0 -3.12,-1.84 -1.28,-1.88 -1.28,-4.48 0,-1.36 1.04,-5.52 1.04,-4.16 2.08,-7.64 l 1.04,-3.44 q 0.52,-2.12 1.6,-2.12 0.84,0 0.84,0.76 0,1.16 -1.52,6.28 -1.52,5.08 -1.52,6.2 0,0.64 0.44,0.64 z m -1.56,4.68 q 0,1.04 0.16,1.84 0.2,0.8 0.44,1.28 0.24,0.44 0.52,0.76 0.32,0.28 0.52,0.4 0.2,0.08 0.36,0.08 0.6,0 3.44,-1.64 0.88,-0.48 1.8,-2.04 0.96,-1.56 0.96,-2.52 0,-0.72 -0.24,-1.08 -0.24,-0.4 -0.92,-0.72 -1.08,-0.64 -1.88,-0.64 -0.8,0.04 -2.04,0.68 -1.2,0.64 -2.12,1.52 -0.6,0.6 -0.8,1 -0.2,0.4 -0.2,1.08 z"
       id="path14413" />
    <path
       inkscape:connector-curvature="0"
       d="m -20.781729,807.54894 q 0.48,0 0.8,-0.56 0.36,-0.56 0.76,-0.56 0.4,0 0.68,0.36 0.32,0.32 0.32,0.64 0,0.84 -0.88,1.72 -0.68,0.76 -0.84,1.52 -0.12,0.76 -0.12,3.56 0,2.28 0.12,3.36 0.12,1.04 0.24,1.24 0.16,0.16 0.52,0.16 0.56,0 1.72,-0.4 1.16,-0.4 1.44,-0.6 0.16,-0.16 0.56,-0.16 0.64,0 1.24,0.4 0.64,0.36 0.64,0.92 0,0.4 -0.36,0.76 -0.36,0.32 -1,0.36 -1.2,0.16 -2.96,0.72 l -1.8,0.6 0.16,3.36 q 0.08,1.84 0.32,3.04 0.24,1.2 0.44,1.68 0.2,0.48 0.2,0.68 0,0.4 -0.44,0.8 -0.44,0.44 -0.84,0.44 -1.4,0 -1.92,-6.32 -0.2,-1.88 -0.32,-2.4 -0.12,-0.52 -0.44,-0.52 l -3.16,0.68 q -3.2,0.68 -4.4,0.68 -1.44,0 -1.44,-0.88 0,-0.88 1.52,-3.2 2.92,-4.36 5.84,-8.2 2.96,-3.84 3.4,-3.88 z m -4.4,13.24 q 2.24,-0.48 2.72,-0.76 0.48,-0.32 0.48,-1.32 0,-0.88 -0.24,-3.2 l -0.28,-2.68 -1.68,2.04 q -1.16,1.44 -2.64,3.76 -1.48,2.28 -1.48,2.68 0,0.04 0.04,0.04 0.4,0 3.08,-0.56 z"
       id="path14415" />
    <path
       inkscape:connector-curvature="0"
       d="m -10.323604,803.62894 q 0,-1.84 1.2000005,-2.92 1.2,-1.12 2.72,-1.12 1.72,0 2.92,1.36 1.24,1.32 1.24,2.68 0,1.64 -1.84,2.88 -1.84,1.24 -3.04,1.24 -1.36,0 -2.28,-1.24 -0.9200005,-1.28 -0.9200005,-2.88 z m 2.7200005,-0.4 q 0,0.72 0.24,1.12 0.24,0.4 0.44,0.44 0.24,0.04 0.56,0.04 0.56,0 0.96,-0.24 0.44,-0.28 0.44,-0.68 0,-0.52 -0.84,-1.16 -0.8,-0.64 -1.28,-0.64 -0.52,0 -0.52,1.12 z"
       id="path14417" />
  </g>
  <g
     aria-label="Ізометрія"
     style="font-style:normal;font-variant:normal;font-weight:normal;font-stretch:normal;font-size:35.00000381px;line-height:30.50787544px;font-family:'Liberation Serif';-inkscape-font-specification:'Liberation Serif';text-align:center;letter-spacing:0px;word-spacing:0px;text-anchor:middle;fill:none;stroke:#000000;stroke-width:0.93749994px;stroke-linecap:butt;stroke-linejoin:miter;stroke-opacity:1"
     id="text13833">
    <path
       d="m 582.49023,1036.2375 2.93945,0.4615 v 0.9057 h -9.16016 v -0.9057 l 2.93946,-0.4615 v -20.2001 l -2.93946,-0.4444 v -0.9057 h 9.16016 v 0.9057 l -2.93945,0.4444 z"
       style="text-align:center;text-anchor:middle;fill:#000000;fill-opacity:1;stroke:none;stroke-width:0.93749994px"
       id="path18185" />
    <path
       d="m 596.0083,1029.2991 q 1.45263,0.2392 2.39257,1.2134 0.93995,0.957 0.93995,2.2729 0,5.1611 -7.10938,5.1611 -1.26465,0 -2.64893,-0.3589 -1.36718,-0.3588 -1.89697,-0.8544 v -1.0254 q 1.57227,0.4614 3.77686,0.4614 2.37548,0 3.58886,-0.7861 1.21338,-0.7862 1.21338,-2.5293 0,-1.2989 -0.95703,-2.0508 -0.95703,-0.7691 -2.49512,-0.7691 h -2.05078 v -1.4184 h 2.06787 q 1.46973,0 2.32422,-0.7862 0.87159,-0.7861 0.87159,-2.1875 0,-1.5551 -0.76905,-2.3584 -0.75195,-0.8032 -2.56347,-0.8032 -0.70069,0 -1.45264,0.2222 -0.75195,0.2222 -1.24756,0.581 l -0.61523,2.3243 h -0.93995 v -3.9649 q 2.47803,-0.5298 4.375,-0.5298 3.22998,0 4.69971,1.0425 1.46973,1.0425 1.46973,3.2642 0,1.3843 -0.82031,2.3413 -0.82032,0.9399 -2.15332,1.4355 z"
       style="text-align:center;text-anchor:middle;fill:#000000;fill-opacity:1;stroke:none;stroke-width:0.93749994px"
       id="path18187" />
    <path
       d="m 616.46484,1029.4871 q 0,8.4594 -7.51953,8.4594 -3.62305,0 -5.46875,-2.1704 -1.8457,-2.1704 -1.8457,-6.289 0,-4.0674 1.8457,-6.2207 1.8457,-2.1534 5.60547,-2.1534 3.65723,0 5.52002,2.1192 1.86279,2.102 1.86279,6.2549 z m -3.07617,0 q 0,-3.6914 -1.07666,-5.3492 -1.07666,-1.6577 -3.3667,-1.6577 -2.23877,0 -3.24707,1.5894 -0.99121,1.5893 -0.99121,5.4175 0,3.8794 1.0083,5.5029 1.02539,1.6064 3.22998,1.6064 2.25586,0 3.34961,-1.6748 1.09375,-1.6748 1.09375,-5.4345 z"
       style="text-align:center;text-anchor:middle;fill:#000000;fill-opacity:1;stroke:none;stroke-width:0.93749994px"
       id="path18189" />
    <path
       d="m 619.88281,1022.7366 -1.96533,-0.4273 v -0.769 h 5.69092 l 4.61425,11.6382 4.7168,-11.6382 h 5.50293 v 0.769 l -1.94824,0.4273 v 13.6718 l 1.94824,0.4273 v 0.769 h -6.57959 v -0.769 l 1.79443,-0.4273 v -12.8002 l -5.67382,13.9965 h -0.92286 l -5.53711,-13.9453 v 12.749 l 1.60645,0.4273 v 0.769 h -5.2124 v -0.769 l 1.96533,-0.4273 z"
       style="text-align:center;text-anchor:middle;fill:#000000;fill-opacity:1;stroke:none;stroke-width:0.93749994px"
       id="path18191" />
    <path
       d="m 643.70606,1029.5212 v 0.3077 q 0,2.3584 0.51269,3.6743 0.52979,1.2988 1.60645,1.9824 1.09375,0.6836 2.854,0.6836 0.92285,0 2.1875,-0.1538 1.26465,-0.1538 2.08496,-0.3418 v 0.957 q -0.82031,0.5298 -2.23877,0.9229 -1.40137,0.393 -2.87109,0.393 -3.74268,0 -5.48584,-2.0166 -1.72608,-2.0166 -1.72608,-6.477 0,-4.2041 1.76026,-6.272 1.76025,-2.0679 5.02441,-2.0679 6.16944,0 6.16944,7.0069 v 1.4013 z m 3.70849,-7.041 q -1.77734,0 -2.73437,1.4356 -0.93995,1.4355 -0.93995,4.2383 h 6.87012 q 0,-3.0591 -0.78613,-4.358 -0.78613,-1.3159 -2.40967,-1.3159 z"
       style="text-align:center;text-anchor:middle;fill:#000000;fill-opacity:1;stroke:none;stroke-width:0.93749994px"
       id="path18193" />
    <path
       d="m 669.56299,1021.5403 v 4.5801 h -0.93994 l -0.73486,-2.837 q -1.89698,-0.3247 -3.40088,-0.3247 h -0.64942 v 13.4497 l 2.29004,0.4273 v 0.769 h -7.60498 v -0.769 l 2.47803,-0.4273 v -13.4497 h -0.63233 q -1.5039,0 -3.40088,0.3247 l -0.73486,2.837 h -0.93994 v -4.5801 z"
       style="text-align:center;text-anchor:middle;fill:#000000;fill-opacity:1;stroke:none;stroke-width:0.93749994px"
       id="path18195" />
    <path
       d="m 673.10059,1022.7366 -1.82862,-0.4273 v -0.769 h 4.51172 l 0.0342,0.9399 q 0.71778,-0.6152 1.91406,-0.9912 1.21338,-0.376 2.46094,-0.376 3.07617,0 4.75098,2.1363 1.69189,2.1362 1.69189,6.1352 0,4.0845 -1.8457,6.3233 -1.82861,2.2387 -5.29785,2.2387 -1.93115,0 -3.67432,-0.3759 0.10254,1.2304 0.10254,1.9311 v 4.3408 l 2.80274,0.4102 v 0.8032 h -7.65626 v -0.8032 l 2.0337,-0.4102 z m 10.45898,6.6479 q 0,-3.2812 -1.07666,-4.8706 -1.05957,-1.6064 -3.22998,-1.6064 -1.99951,0 -3.33252,0.5639 v 12.8345 q 1.521,0.2905 3.33252,0.2905 4.30664,0 4.30664,-7.2119 z"
       style="text-align:center;text-anchor:middle;fill:#000000;fill-opacity:1;stroke:none;stroke-width:0.93749994px"
       id="path18197" />
    <path
       d="m 694.47999,1016.2937 q 0,0.752 -0.54688,1.2988 -0.54687,0.5469 -1.31591,0.5469 -0.75196,0 -1.29883,-0.5469 -0.54688,-0.5468 -0.54688,-1.2988 0,-0.769 0.54688,-1.3159 0.54687,-0.5469 1.29883,-0.5469 0.76904,0 1.31591,0.5469 0.54688,0.5469 0.54688,1.3159 z m -0.1709,20.1147 2.75147,0.4273 v 0.769 h -8.32276 v -0.769 l 2.73438,-0.4273 v -13.6718 l -2.27295,-0.4273 v -0.769 h 5.10986 z"
       style="text-align:center;text-anchor:middle;fill:#000000;fill-opacity:1;stroke:none;stroke-width:0.93749994px"
       id="path18199" />
    <path
       d="m 701.70899,1037.6047 h -3.89648 v -0.769 l 1.38428,-0.3931 3.81103,-6.2549 q -1.70898,-0.393 -2.66602,-1.521 -0.93994,-1.1279 -0.93994,-2.7685 0,-4.3579 6.80176,-4.3579 h 6.97266 v 0.769 l -2.13623,0.4273 v 13.6718 l 2.13623,0.4273 v 0.769 h -7.0752 v -0.769 l 2.10205,-0.4443 v -5.691 h -2.49511 z m 6.49414,-14.6972 h -1.74316 q -2.08496,0 -3.04199,0.7861 -0.93994,0.769 -0.93994,2.29 0,3.3497 3.72558,3.3497 h 1.99951 z"
       style="text-align:center;text-anchor:middle;fill:#000000;fill-opacity:1;stroke:none;stroke-width:0.93749994px"
       id="path18201" />
  </g>
  <g
     aria-label="Правий бік"
     style="font-style:normal;font-variant:normal;font-weight:normal;font-stretch:normal;font-size:35.00000381px;line-height:30.50787544px;font-family:'Liberation Serif';-inkscape-font-specification:'Liberation Serif';text-align:center;letter-spacing:0px;word-spacing:0px;text-anchor:middle;fill:none;stroke:#000000;stroke-width:0.93749994px;stroke-linecap:butt;stroke-linejoin:miter;stroke-opacity:1"
     id="text13833-0">
    <path
       d="m 809.22021,709.97168 v -0.90576 l 2.93945,-0.46143 v -20.2002 l -2.93945,-0.44433 v -0.90576 h 23.24219 v 0.90576 l -2.93946,0.44433 v 20.2002 l 2.93946,0.46143 v 0.90576 h -9.16016 v -0.90576 l 2.93945,-0.46143 V 688.59228 H 815.458 v 20.01221 l 2.93945,0.46143 v 0.90576 z"
       style="text-align:center;text-anchor:middle;fill:#000000;fill-opacity:1;stroke:none;stroke-width:0.93749994px"
       id="path18166" />
    <path
       d="m 836.10253,695.10351 -1.82861,-0.42724 v -0.76905 h 4.51172 l 0.0342,0.93995 q 0.71777,-0.61524 1.91406,-0.99121 1.21338,-0.37598 2.46094,-0.37598 3.07617,0 4.75098,2.13623 1.69189,2.13623 1.69189,6.13525 0,4.08448 -1.8457,6.32325 -1.82862,2.23877 -5.29786,2.23877 -1.93115,0 -3.67431,-0.37598 0.10254,1.23047 0.10254,1.93115 v 4.34082 l 2.80273,0.41016 v 0.80322 h -7.65625 v -0.80322 l 2.03369,-0.41016 z m 10.45899,6.64795 q 0,-3.28125 -1.07666,-4.8706 -1.05957,-1.60645 -3.22998,-1.60645 -1.99952,0 -3.33252,0.56397 v 12.83447 q 1.52099,0.29053 3.33252,0.29053 4.30664,0 4.30664,-7.21192 z"
       style="text-align:center;text-anchor:middle;fill:#000000;fill-opacity:1;stroke:none;stroke-width:0.93749994px"
       id="path18168" />
    <path
       d="m 858.95166,693.54834 q 2.63183,0 3.8623,1.07666 1.24756,1.07666 1.24756,3.29834 v 10.85205 l 1.99951,0.42725 v 0.76904 h -4.40918 l -0.32471,-1.60645 q -1.94824,1.94825 -4.97314,1.94825 -4.11865,0 -4.11865,-4.78516 0,-1.60645 0.61523,-2.64893 0.63233,-1.05957 1.99951,-1.60644 1.36719,-0.56397 3.96485,-0.61524 l 2.40967,-0.0684 v -2.5122 q 0,-1.65772 -0.61524,-2.44385 -0.59814,-0.78613 -1.86279,-0.78613 -1.70899,0 -3.12744,0.80322 l -0.58106,1.99951 h -0.95703 v -3.50342 q 2.76855,-0.59814 4.87061,-0.59814 z m 2.27295,8.2373 -2.23877,0.0684 q -2.29004,0.0854 -3.11036,0.88867 -0.80322,0.80323 -0.80322,2.68311 0,3.00781 2.44385,3.00781 1.16211,0 1.99951,-0.25634 0.85449,-0.27344 1.70899,-0.6836 z"
       style="text-align:center;text-anchor:middle;fill:#000000;fill-opacity:1;stroke:none;stroke-width:0.93749994px"
       id="path18170" />
    <path
       d="m 867.15478,709.97168 v -0.76904 l 2.13623,-0.42725 v -13.67188 l -2.13623,-0.42724 v -0.76905 h 6.87012 q 3.77686,0 5.33203,0.93995 1.57227,0.93994 1.57227,2.93945 0,1.64062 -0.93994,2.5293 -0.92285,0.88867 -2.63184,1.28174 v 0.13671 q 2.17041,0.23926 3.33252,1.11084 1.16211,0.87159 1.16211,2.61475 0,2.40967 -1.76025,3.46924 -1.74317,1.04248 -5.67383,1.04248 z m 7.00684,-1.36719 q 2.5293,0 3.57178,-0.75195 1.04248,-0.75195 1.04248,-2.46094 0,-1.62353 -1.11084,-2.30713 -1.09375,-0.70068 -3.72559,-0.70068 h -1.81152 v 6.2207 z m -2.03369,-7.58789 h 1.81152 q 2.05078,0 2.97364,-0.68359 0.93994,-0.6836 0.93994,-2.32422 0,-1.38428 -0.95703,-2.05078 -0.93995,-0.6836 -3.02491,-0.6836 h -1.74316 z"
       style="text-align:center;text-anchor:middle;fill:#000000;fill-opacity:1;stroke:none;stroke-width:0.93749994px"
       id="path18172" />
    <path
       d="m 885.83398,695.10351 -2.13623,-0.42724 v -0.76905 h 6.92139 v 0.76905 l -1.94824,0.42724 v 10.1001 l 7.51953,-8.13476 v -1.96534 l -2.13623,-0.42724 v -0.76905 h 6.92139 v 0.76905 l -1.94825,0.42724 v 13.67188 l 1.94825,0.42725 v 0.76904 h -6.92139 v -0.76904 l 2.13623,-0.42725 V 699 l -7.51953,8.13477 v 1.64062 l 1.94824,0.42725 v 0.76904 h -6.92139 v -0.76904 l 2.13623,-0.42725 z"
       style="text-align:center;text-anchor:middle;fill:#000000;fill-opacity:1;stroke:none;stroke-width:0.93749994px"
       id="path18174" />
    <path
       d="m 904.56445,695.10351 -2.13623,-0.42724 v -0.76905 h 6.92139 v 0.76905 l -1.94824,0.42724 v 10.1001 l 7.51953,-8.13476 v -1.96534 l -2.13623,-0.42724 v -0.76905 h 6.92139 v 0.76905 l -1.94825,0.42724 v 13.67188 l 1.94825,0.42725 v 0.76904 h -6.92139 v -0.76904 l 2.13623,-0.42725 V 699 l -7.51953,8.13477 v 1.64062 l 1.94824,0.42725 v 0.76904 h -6.92139 v -0.76904 l 2.13623,-0.42725 z m 6.52832,-4.30664 q -3.12744,0 -4.66552,-1.12793 -1.521,-1.12793 -1.60645,-3.65722 h 2.80273 q 0.10254,1.76025 0.99122,2.66601 0.88867,0.90576 2.47802,0.90576 1.58936,0 2.47803,-0.90576 0.88867,-0.90576 0.99121,-2.66601 h 2.80274 q -0.0854,2.54638 -1.62354,3.67431 -1.521,1.11084 -4.64844,1.11084 z"
       style="text-align:center;text-anchor:middle;fill:#000000;fill-opacity:1;stroke:none;stroke-width:0.93749994px"
       id="path18176" />
    <path
       d="m 930.917,700.09375 q 0,-4.69971 0.76904,-7.43408 0.78613,-2.75147 2.47803,-4.27247 1.69189,-1.52099 4.42627,-1.8457 2.92236,-0.32471 3.7085,-0.4956 0.78613,-0.18799 1.29882,-0.44434 0.5127,-0.25635 0.71778,-0.68359 h 0.85449 q -0.0513,1.35009 -0.47852,2.11914 -0.42724,0.75195 -1.26464,1.1792 -0.82032,0.42724 -2.05079,0.61523 -1.23046,0.18799 -2.88818,0.39307 -2.20459,0.27343 -3.31543,0.92285 -1.09375,0.63232 -1.58936,1.91406 -0.4956,1.26465 -0.68359,4.92188 h 0.11963 q 0.59814,-1.67481 2.06787,-2.58057 1.46973,-0.92285 3.38379,-0.92285 3.62305,0 5.45166,2.13623 1.82861,2.11914 1.82861,6.23779 0,8.45948 -7.51953,8.45948 -7.31445,0 -7.31445,-10.21973 z m 11.75781,1.76025 q 0,-3.6914 -1.07666,-5.34912 -1.07666,-1.65771 -3.3667,-1.65771 -2.23877,0 -3.24707,1.58935 -0.99121,1.58936 -0.99121,5.41748 0,7.10938 4.23828,7.10938 2.25586,0 3.34961,-1.67481 1.09375,-1.6748 1.09375,-5.43457 z"
       style="text-align:center;text-anchor:middle;fill:#000000;fill-opacity:1;stroke:none;stroke-width:0.93749994px"
       id="path18178" />
    <path
       d="m 953.59522,688.66064 q 0,0.75196 -0.54687,1.29883 -0.54688,0.54688 -1.31592,0.54688 -0.75195,0 -1.29883,-0.54688 -0.54687,-0.54687 -0.54687,-1.29883 0,-0.76904 0.54687,-1.31592 0.54688,-0.54687 1.29883,-0.54687 0.76904,0 1.31592,0.54687 0.54687,0.54688 0.54687,1.31592 z m -0.1709,20.11475 2.75147,0.42725 v 0.76904 h -8.32276 v -0.76904 l 2.73438,-0.42725 v -13.67188 l -2.27295,-0.42724 v -0.76905 h 5.10986 z"
       style="text-align:center;text-anchor:middle;fill:#000000;fill-opacity:1;stroke:none;stroke-width:0.93749994px"
       id="path18180" />
    <path
       d="m 959.59376,695.10351 -2.13623,-0.42724 v -0.76905 h 6.92138 v 0.76905 l -1.94824,0.42724 v 7.10938 l 6.5625,-7.0752 -1.6748,-0.46142 v -0.76905 h 5.67383 v 0.76905 l -1.99952,0.39306 -4.58008,4.68262 5.87891,9.05762 1.57227,0.39307 v 0.76904 h -6.40869 v -0.76904 l 1.46972,-0.42725 -4.40918,-6.92139 -2.08496,1.77735 v 5.14404 l 1.94824,0.42725 v 0.76904 h -6.92138 v -0.76904 l 2.13623,-0.42725 z"
       style="text-align:center;text-anchor:middle;fill:#000000;fill-opacity:1;stroke:none;stroke-width:0.93749994px"
       id="path18182" />
  </g>
  <text
     xml:space="preserve"
     style="font-style:normal;font-variant:normal;font-weight:normal;font-stretch:normal;font-size:35.00000381px;line-height:30.50787544px;font-family:'Liberation Serif';-inkscape-font-specification:'Liberation Serif';text-align:center;letter-spacing:0px;word-spacing:0px;text-anchor:middle;fill:none;stroke:#000000;stroke-width:0.93749994px;stroke-linecap:butt;stroke-linejoin:miter;stroke-opacity:1"
     x="505.85501"
     y="731.10931"
     id="text13833-1"><tspan
       sodipodi:role="line"
       x="505.85501"
       y="731.10931"
       style="text-align:center;text-anchor:middle;fill:#000000;fill-opacity:1;stroke:none;stroke-width:0.93749994px"
       id="tspan13831-2">Вид спереду</tspan></text>
  <g
     aria-label="Вид спереду"
     style="font-style:normal;font-variant:normal;font-weight:normal;font-stretch:normal;font-size:35.00000381px;line-height:30.50787544px;font-family:'Liberation Serif';-inkscape-font-specification:'Liberation Serif';text-align:center;letter-spacing:0px;word-spacing:0px;text-anchor:middle;fill:none;stroke:#000000;stroke-width:0.93749994px;stroke-linecap:butt;stroke-linejoin:miter;stroke-opacity:1"
     id="text18068">
    <path
       d="m 429.05324,713.74603 q 0,-2.10205 -1.31591,-3.05908 -1.31592,-0.95703 -4.27246,-0.95703 h -3.5376 v 8.66455 h 3.74267 q 2.76856,0 4.06739,-1.09375 1.31591,-1.09375 1.31591,-3.55469 z m 1.72608,10.83496 q 0,-2.40967 -1.60645,-3.52051 -1.60644,-1.12793 -5.14404,-1.12793 h -4.10156 v 9.63868 q 2.3584,0.10254 5.02441,0.10254 2.92237,0 4.375,-1.23047 1.45264,-1.24756 1.45264,-3.86231 z m -17.08985,6.52832 v -0.90576 l 2.93946,-0.46142 v -20.2002 l -2.93946,-0.44434 v -0.90576 h 10.47608 q 4.35791,0 6.37451,1.29883 2.0166,1.28174 2.0166,4.08447 0,2.0166 -1.24756,3.43506 -1.23046,1.41846 -3.46923,1.89697 3.09326,0.32471 4.78515,1.81153 1.6919,1.46972 1.6919,3.79394 0,3.29834 -2.29004,5.00733 -2.27295,1.69189 -6.64795,1.69189 l -7.31446,-0.10254 z"
       style="text-align:center;text-anchor:middle;fill:#000000;fill-opacity:1;stroke:none;stroke-width:0.93749994px"
       id="path18145" />
    <path
       d="m 438.82864,716.24115 -2.13623,-0.42725 v -0.76904 h 6.92138 v 0.76904 l -1.94824,0.42725 v 10.1001 l 7.51953,-8.13477 v -1.96533 l -2.13623,-0.42725 v -0.76904 h 6.92139 v 0.76904 l -1.94824,0.42725 v 13.67187 l 1.94824,0.42725 v 0.76904 h -6.92139 v -0.76904 l 2.13623,-0.42725 v -9.77539 l -7.51953,8.13477 v 1.64062 l 1.94824,0.42725 v 0.76904 h -6.92138 v -0.76904 l 2.13623,-0.42725 z"
       style="text-align:center;text-anchor:middle;fill:#000000;fill-opacity:1;stroke:none;stroke-width:0.93749994px"
       id="path18147" />
    <path
       d="m 458.7554,715.8139 v -0.76904 h 12.50976 v 0.76904 l -1.94824,0.42725 v 13.67187 l 2.49512,0.27344 -0.29053,7.69043 h -1.11084 l -1.48682,-6.76758 h -11.24511 l -1.48682,6.76758 h -1.11084 l -0.29053,-7.69043 2.5293,-0.3247 q 1.38428,-2.63184 2.34131,-6.16944 0.97412,-3.55469 1.24756,-7.45117 z m 0.35888,13.87696 h 7.36573 v -13.44971 h -4.10157 q -0.22217,3.74267 -1.07666,7.24609 -0.8374,3.48633 -2.1875,6.20362 z"
       style="text-align:center;text-anchor:middle;fill:#000000;fill-opacity:1;stroke:none;stroke-width:0.93749994px"
       id="path18149" />
    <path
       d="m 495.84036,730.13519 q -0.8374,0.61524 -2.30713,0.97412 -1.46972,0.3418 -3.00781,0.3418 -7.81006,0 -7.81006,-8.49365 0,-4.01612 1.98242,-6.16944 1.99951,-2.17041 5.70801,-2.17041 2.30713,0 5.04151,0.52979 v 4.47754 h -0.93995 l -0.73486,-2.83692 q -1.41846,-0.80322 -3.40088,-0.80322 -4.58008,0 -4.58008,6.97266 0,3.62304 1.38428,5.17822 1.40137,1.53809 4.32373,1.53809 2.49512,0 4.34082,-0.56397 z"
       style="text-align:center;text-anchor:middle;fill:#000000;fill-opacity:1;stroke:none;stroke-width:0.93749994px"
       id="path18151" />
    <path
       d="m 499.66849,716.24115 -2.13624,-0.42725 v -0.76904 h 17.27784 v 0.76904 l -1.94824,0.42725 v 13.67187 l 1.94824,0.42725 v 0.76904 h -6.92139 v -0.76904 l 2.13623,-0.42725 v -13.4497 h -7.51953 v 13.4497 l 1.94824,0.42725 v 0.76904 h -6.92139 v -0.76904 l 2.13624,-0.42725 z"
       style="text-align:center;text-anchor:middle;fill:#000000;fill-opacity:1;stroke:none;stroke-width:0.93749994px"
       id="path18153" />
    <path
       d="m 520.07376,723.02582 v 0.30761 q 0,2.3584 0.51269,3.67432 0.52979,1.29883 1.60645,1.98242 1.09375,0.6836 2.854,0.6836 0.92286,0 2.1875,-0.15381 1.26465,-0.15381 2.08497,-0.3418 v 0.95703 q -0.82032,0.52979 -2.23877,0.92285 -1.40137,0.39307 -2.8711,0.39307 -3.74267,0 -5.48584,-2.0166 -1.72607,-2.0166 -1.72607,-6.47705 0,-4.2041 1.76025,-6.27198 1.76025,-2.06787 5.02442,-2.06787 6.16943,0 6.16943,7.00684 v 1.40137 z m 3.7085,-7.04102 q -1.77735,0 -2.73438,1.43555 -0.93994,1.43554 -0.93994,4.23828 h 6.87012 q 0,-3.05908 -0.78614,-4.35791 -0.78613,-1.31592 -2.40966,-1.31592 z"
       style="text-align:center;text-anchor:middle;fill:#000000;fill-opacity:1;stroke:none;stroke-width:0.93749994px"
       id="path18155" />
    <path
       d="m 533.74564,716.24115 -1.82861,-0.42725 v -0.76904 h 4.51172 l 0.0342,0.93994 q 0.71777,-0.61523 1.91406,-0.99121 1.21338,-0.37598 2.46094,-0.37598 3.07617,0 4.75097,2.13623 1.6919,2.13623 1.6919,6.13526 0,4.08447 -1.8457,6.32324 -1.82862,2.23877 -5.29786,2.23877 -1.93115,0 -3.67431,-0.37598 0.10254,1.23047 0.10254,1.93116 v 4.34082 l 2.80273,0.41015 v 0.80323 h -7.65625 v -0.80323 l 2.03369,-0.41015 z m 10.45899,6.64795 q 0,-3.28125 -1.07666,-4.87061 -1.05957,-1.60644 -3.22998,-1.60644 -1.99952,0 -3.33252,0.56396 v 12.83448 q 1.52099,0.29052 3.33252,0.29052 4.30664,0 4.30664,-7.21191 z"
       style="text-align:center;text-anchor:middle;fill:#000000;fill-opacity:1;stroke:none;stroke-width:0.93749994px"
       id="path18157" />
    <path
       d="m 553.09134,723.02582 v 0.30761 q 0,2.3584 0.5127,3.67432 0.52979,1.29883 1.60645,1.98242 1.09375,0.6836 2.854,0.6836 0.92285,0 2.1875,-0.15381 1.26465,-0.15381 2.08496,-0.3418 v 0.95703 q -0.82031,0.52979 -2.23877,0.92285 -1.40137,0.39307 -2.87109,0.39307 -3.74268,0 -5.48584,-2.0166 -1.72608,-2.0166 -1.72608,-6.47705 0,-4.2041 1.76026,-6.27198 1.76025,-2.06787 5.02441,-2.06787 6.16944,0 6.16944,7.00684 v 1.40137 z m 3.7085,-7.04102 q -1.77734,0 -2.73437,1.43555 -0.93995,1.43554 -0.93995,4.23828 h 6.87012 q 0,-3.05908 -0.78613,-4.35791 -0.78613,-1.31592 -2.40967,-1.31592 z"
       style="text-align:center;text-anchor:middle;fill:#000000;fill-opacity:1;stroke:none;stroke-width:0.93749994px"
       id="path18159" />
    <path
       d="m 567.65189,715.8139 v -0.76904 h 12.50977 v 0.76904 l -1.94824,0.42725 v 13.67187 l 2.49511,0.27344 -0.29052,7.69043 h -1.11084 l -1.48682,-6.76758 h -11.24512 l -1.48682,6.76758 h -1.11084 l -0.29052,-7.69043 2.52929,-0.3247 q 1.38428,-2.63184 2.34131,-6.16944 0.97412,-3.55469 1.24756,-7.45117 z m 0.35889,13.87696 h 7.36572 v -13.44971 h -4.10156 q -0.22217,3.74267 -1.07666,7.24609 -0.8374,3.48633 -2.1875,6.20362 z"
       style="text-align:center;text-anchor:middle;fill:#000000;fill-opacity:1;stroke:none;stroke-width:0.93749994px"
       id="path18161" />
    <path
       d="m 584.92972,738.66303 q -1.333,0 -2.63183,-0.30762 v -3.46924 h 0.80322 l 0.56396,1.64063 q 0.52979,0.39306 1.46973,0.39306 0.88867,0 1.64063,-0.51269 0.75195,-0.5127 1.36718,-1.521 0.63233,-1.0083 1.57227,-3.60596 l -6.11816,-15.03906 -1.64063,-0.42725 v -0.76904 h 7.45117 v 0.76904 l -2.52929,0.46143 4.34082,11.22803 4.2041,-11.26221 -2.51221,-0.42725 v -0.76904 h 5.98145 v 0.76904 l -1.67481,0.35889 -6.27197,15.94482 q -1.11084,2.81983 -1.93115,4.0503 -0.82032,1.23047 -1.81153,1.86279 -0.99121,0.63233 -2.27295,0.63233 z"
       style="text-align:center;text-anchor:middle;fill:#000000;fill-opacity:1;stroke:none;stroke-width:0.93749994px"
       id="path18163" />
  </g>
  <g
     aria-label="Вид ззаду, як
його видно
спереду"
     style="font-style:normal;font-variant:normal;font-weight:normal;font-stretch:normal;font-size:35.00000381px;line-height:30.50787544px;font-family:'Liberation Serif';-inkscape-font-specification:'Liberation Serif';text-align:center;letter-spacing:0px;word-spacing:0px;text-anchor:middle;fill:none;stroke:#000000;stroke-width:0.93749994px;stroke-linecap:butt;stroke-linejoin:miter;stroke-opacity:1"
     id="text13833-2">
    <path
       d="m 131.27116,923.94787 q 0,-2.10205 -1.31592,-3.05908 -1.31592,-0.95703 -4.27246,-0.95703 h -3.5376 v 8.66455 h 3.74267 q 2.76856,0 4.06739,-1.09375 1.31592,-1.09375 1.31592,-3.55469 z m 1.72607,10.83497 q 0,-2.40967 -1.60645,-3.52051 -1.60644,-1.12793 -5.14404,-1.12793 h -4.10156 v 9.63867 q 2.3584,0.10254 5.02441,0.10254 2.92237,0 4.375,-1.23047 1.45264,-1.24756 1.45264,-3.8623 z m -17.08985,6.52832 v -0.90576 l 2.93946,-0.46143 v -20.2002 l -2.93946,-0.44433 v -0.90577 h 10.47608 q 4.35791,0 6.37451,1.29883 2.0166,1.28174 2.0166,4.08448 0,2.0166 -1.24756,3.43505 -1.23046,1.41846 -3.46923,1.89698 3.09326,0.3247 4.78515,1.81152 1.6919,1.46973 1.6919,3.79395 0,3.29834 -2.29004,5.00732 -2.27295,1.6919 -6.64795,1.6919 l -7.31446,-0.10254 z"
       style="text-align:center;text-anchor:middle;fill:#000000;fill-opacity:1;stroke:none;stroke-width:0.93749994px"
       id="path18090" />
    <path
       d="m 141.04655,926.44299 -2.13623,-0.42724 v -0.76905 h 6.92138 v 0.76905 l -1.94824,0.42724 v 10.1001 l 7.51953,-8.13477 v -1.96533 l -2.13623,-0.42724 v -0.76905 h 6.92139 v 0.76905 l -1.94824,0.42724 v 13.67188 l 1.94824,0.42724 v 0.76905 h -6.92139 v -0.76905 l 2.13623,-0.42724 v -9.77539 l -7.51953,8.13476 v 1.64063 l 1.94824,0.42724 v 0.76905 h -6.92138 v -0.76905 l 2.13623,-0.42724 z"
       style="text-align:center;text-anchor:middle;fill:#000000;fill-opacity:1;stroke:none;stroke-width:0.93749994px"
       id="path18092" />
    <path
       d="m 160.97331,926.01575 v -0.76905 h 12.50976 v 0.76905 l -1.94824,0.42724 v 13.67188 l 2.49512,0.27344 -0.29053,7.69043 h -1.11084 l -1.48682,-6.76758 h -11.24511 l -1.48682,6.76758 h -1.11084 l -0.29053,-7.69043 2.5293,-0.32471 q 1.38428,-2.63184 2.34131,-6.16944 0.97412,-3.55468 1.24756,-7.45117 z m 0.35888,13.87695 h 7.36573 v -13.44971 h -4.10157 q -0.22216,3.74268 -1.07666,7.2461 -0.8374,3.48632 -2.1875,6.20361 z"
       style="text-align:center;text-anchor:middle;fill:#000000;fill-opacity:1;stroke:none;stroke-width:0.93749994px"
       id="path18094" />
    <path
       d="m 192.91423,933.00549 q 1.45264,0.23926 2.39258,1.21338 0.93994,0.95703 0.93994,2.27295 0,5.16113 -7.10938,5.16113 -1.26465,0 -2.64892,-0.35888 -1.36719,-0.35889 -1.89698,-0.85449 v -1.0254 q 1.57227,0.46143 3.77686,0.46143 2.37549,0 3.58887,-0.78613 1.21338,-0.78614 1.21338,-2.5293 0,-1.29883 -0.95704,-2.05078 -0.95703,-0.76904 -2.49511,-0.76904 h -2.05078 v -1.41846 h 2.06787 q 1.46972,0 2.32422,-0.78613 0.87158,-0.78614 0.87158,-2.1875 0,-1.55518 -0.76904,-2.3584 -0.75196,-0.80323 -2.56348,-0.80323 -0.70069,0 -1.45264,0.22217 -0.75195,0.22217 -1.24756,0.58106 l -0.61523,2.32422 h -0.93994 v -3.96485 q 2.47802,-0.52978 4.375,-0.52978 3.22998,0 4.6997,1.04248 1.46973,1.04248 1.46973,3.26416 0,1.38427 -0.82031,2.34131 -0.82031,0.93994 -2.15332,1.43554 z"
       style="text-align:center;text-anchor:middle;fill:#000000;fill-opacity:1;stroke:none;stroke-width:0.93749994px"
       id="path18096" />
    <path
       d="m 207.13298,933.00549 q 1.45264,0.23926 2.39258,1.21338 0.93994,0.95703 0.93994,2.27295 0,5.16113 -7.10938,5.16113 -1.26465,0 -2.64892,-0.35888 -1.36719,-0.35889 -1.89698,-0.85449 v -1.0254 q 1.57227,0.46143 3.77686,0.46143 2.37549,0 3.58887,-0.78613 1.21338,-0.78614 1.21338,-2.5293 0,-1.29883 -0.95704,-2.05078 -0.95703,-0.76904 -2.49511,-0.76904 h -2.05078 v -1.41846 h 2.06787 q 1.46972,0 2.32422,-0.78613 0.87158,-0.78614 0.87158,-2.1875 0,-1.55518 -0.76904,-2.3584 -0.75196,-0.80323 -2.56348,-0.80323 -0.70069,0 -1.45264,0.22217 -0.75195,0.22217 -1.24756,0.58106 l -0.61523,2.32422 h -0.93994 v -3.96485 q 2.47802,-0.52978 4.375,-0.52978 3.22998,0 4.6997,1.04248 1.46973,1.04248 1.46973,3.26416 0,1.38427 -0.82031,2.34131 -0.82031,0.93994 -2.15332,1.43554 z"
       style="text-align:center;text-anchor:middle;fill:#000000;fill-opacity:1;stroke:none;stroke-width:0.93749994px"
       id="path18098" />
    <path
       d="m 219.57438,924.88782 q 2.63184,0 3.86231,1.07666 1.24756,1.07666 1.24756,3.29834 v 10.85205 l 1.99951,0.42724 v 0.76905 h -4.40918 l -0.32471,-1.60645 q -1.94824,1.94824 -4.97314,1.94824 -4.11865,0 -4.11865,-4.78515 0,-1.60645 0.61523,-2.64893 0.63232,-1.05957 1.99951,-1.60644 1.36719,-0.56397 3.96485,-0.61524 l 2.40966,-0.0684 v -2.51221 q 0,-1.65771 -0.61523,-2.44384 -0.59815,-0.78614 -1.86279,-0.78614 -1.70899,0 -3.12745,0.80323 l -0.58105,1.99951 h -0.95703 v -3.50342 q 2.76855,-0.59814 4.8706,-0.59814 z m 2.27295,8.2373 -2.23877,0.0684 q -2.29004,0.0854 -3.11035,0.88867 -0.80322,0.80323 -0.80322,2.68311 0,3.00781 2.44385,3.00781 1.16211,0 1.99951,-0.25635 0.85449,-0.27343 1.70898,-0.68359 z"
       style="text-align:center;text-anchor:middle;fill:#000000;fill-opacity:1;stroke:none;stroke-width:0.93749994px"
       id="path18100" />
    <path
       d="m 231.11004,926.01575 v -0.76905 h 12.50976 v 0.76905 l -1.94824,0.42724 v 13.67188 l 2.49512,0.27344 -0.29053,7.69043 h -1.11084 l -1.48682,-6.76758 h -11.24511 l -1.48682,6.76758 h -1.11084 l -0.29053,-7.69043 2.5293,-0.32471 q 1.38428,-2.63184 2.34131,-6.16944 0.97412,-3.55468 1.24756,-7.45117 z m 0.35888,13.87695 h 7.36573 v -13.44971 h -4.10157 q -0.22216,3.74268 -1.07666,7.2461 -0.8374,3.48632 -2.1875,6.20361 z"
       style="text-align:center;text-anchor:middle;fill:#000000;fill-opacity:1;stroke:none;stroke-width:0.93749994px"
       id="path18102" />
    <path
       d="m 248.38787,948.86487 q -1.33301,0 -2.63184,-0.30762 v -3.46924 h 0.80322 l 0.56397,1.64063 q 0.52978,0.39306 1.46973,0.39306 0.88867,0 1.64062,-0.51269 0.75195,-0.5127 1.36719,-1.521 0.63232,-1.0083 1.57226,-3.60595 l -6.11816,-15.03907 -1.64062,-0.42724 v -0.76905 h 7.45117 v 0.76905 l -2.5293,0.46142 4.34082,11.22803 4.2041,-11.26221 -2.5122,-0.42724 v -0.76905 h 5.98144 v 0.76905 l -1.6748,0.35888 -6.27198,15.94483 q -1.11084,2.81982 -1.93115,4.05029 -0.82031,1.23047 -1.81152,1.86279 -0.99121,0.63233 -2.27295,0.63233 z"
       style="text-align:center;text-anchor:middle;fill:#000000;fill-opacity:1;stroke:none;stroke-width:0.93749994px"
       id="path18104" />
    <path
       d="m 265.54607,940.47375 q 0,2.34131 -1.36719,3.91358 -1.35009,1.58936 -3.84521,2.30713 v -1.31592 q 3.00781,-0.95703 3.00781,-2.87109 0,-0.3418 -0.25635,-0.61524 -0.25634,-0.27344 -0.88867,-0.59814 -1.16211,-0.59815 -1.16211,-1.6919 0,-0.92285 0.58106,-1.40136 0.58105,-0.49561 1.48681,-0.49561 1.09375,0 1.76026,0.78613 0.68359,0.78614 0.68359,1.98242 z"
       style="text-align:center;text-anchor:middle;fill:#000000;fill-opacity:1;stroke:none;stroke-width:0.93749994px"
       id="path18106" />
    <path
       d="m 280.49968,941.31116 h -3.89648 v -0.76905 l 1.38428,-0.39306 3.81103,-6.25489 q -1.70898,-0.39306 -2.66601,-1.52099 -0.93994,-1.12793 -0.93994,-2.76856 0,-4.35791 6.80175,-4.35791 h 6.97266 v 0.76905 l -2.13623,0.42724 v 13.67188 l 2.13623,0.42724 v 0.76905 h -7.0752 v -0.76905 l 2.10206,-0.44433 v -5.69092 h -2.49512 z m 6.49415,-14.69727 h -1.74317 q -2.08496,0 -3.04199,0.78613 -0.93994,0.76905 -0.93994,2.29004 0,3.34961 3.72558,3.34961 h 1.99952 z"
       style="text-align:center;text-anchor:middle;fill:#000000;fill-opacity:1;stroke:none;stroke-width:0.93749994px"
       id="path18108" />
    <path
       d="m 295.40203,926.44299 -2.13623,-0.42724 v -0.76905 h 6.92139 v 0.76905 l -1.94825,0.42724 v 7.10938 l 6.5625,-7.0752 -1.6748,-0.46142 v -0.76905 h 5.67383 v 0.76905 l -1.99951,0.39306 -4.58008,4.68262 5.8789,9.05762 1.57227,0.39306 v 0.76905 h -6.40869 v -0.76905 l 1.46972,-0.42724 -4.40918,-6.92139 -2.08496,1.77734 v 5.14405 l 1.94825,0.42724 v 0.76905 h -6.92139 v -0.76905 l 2.13623,-0.42724 z"
       style="text-align:center;text-anchor:middle;fill:#000000;fill-opacity:1;stroke:none;stroke-width:0.93749994px"
       id="path18110" />
    <path
       d="m 132.39908,956.95087 -2.13623,-0.42725 v -0.76904 h 6.92139 v 0.76904 l -1.94824,0.42725 v 10.1001 l 7.51953,-8.13477 v -1.96533 l -2.13623,-0.42725 v -0.76904 h 6.92139 v 0.76904 l -1.94824,0.42725 v 13.67187 l 1.94824,0.42725 v 0.76904 h -6.92139 v -0.76904 l 2.13623,-0.42725 v -9.77539 l -7.51953,8.13477 v 1.64062 l 1.94824,0.42725 v 0.76904 h -6.92139 v -0.76904 l 2.13623,-0.42725 z m 6.52833,-4.30664 q -3.12745,0 -4.66553,-1.12793 -1.521,-1.12793 -1.60645,-3.65723 h 2.80274 q 0.10254,1.76025 0.99121,2.66602 0.88867,0.90576 2.47803,0.90576 1.58935,0 2.47802,-0.90576 0.88868,-0.90577 0.99121,-2.66602 h 2.80274 q -0.0854,2.54639 -1.62354,3.67432 -1.52099,1.11084 -4.64843,1.11084 z"
       style="text-align:center;text-anchor:middle;fill:#000000;fill-opacity:1;stroke:none;stroke-width:0.93749994px"
       id="path18112" />
    <path
       d="m 164.52799,963.70136 q 0,8.45947 -7.51953,8.45947 -3.62304,0 -5.46875,-2.17041 -1.8457,-2.17041 -1.8457,-6.28906 0,-4.06739 1.8457,-6.22071 1.84571,-2.15332 5.60547,-2.15332 3.65723,0 5.52002,2.11914 1.86279,2.10205 1.86279,6.25489 z m -3.07617,0 q 0,-3.69141 -1.07666,-5.34913 -1.07666,-1.65771 -3.3667,-1.65771 -2.23877,0 -3.24707,1.58936 -0.99121,1.58935 -0.99121,5.41748 0,3.87939 1.0083,5.50293 1.02539,1.60644 3.22998,1.60644 2.25586,0 3.34961,-1.6748 1.09375,-1.67481 1.09375,-5.43457 z"
       style="text-align:center;text-anchor:middle;fill:#000000;fill-opacity:1;stroke:none;stroke-width:0.93749994px"
       id="path18114" />
    <path
       d="m 179.31071,960.33466 h -0.93994 l -0.73486,-2.83692 q -1.89698,-0.3247 -3.40088,-0.3247 h -2.76856 v 13.4497 l 2.63184,0.42725 v 0.76904 h -7.60498 v -0.76904 l 2.13623,-0.42725 v -13.67187 l -2.13623,-0.42725 v -0.76904 h 12.81738 z"
       style="text-align:center;text-anchor:middle;fill:#000000;fill-opacity:1;stroke:none;stroke-width:0.93749994px"
       id="path18116" />
    <path
       d="m 195.4948,963.70136 q 0,8.45947 -7.51953,8.45947 -3.62305,0 -5.46876,-2.17041 -1.8457,-2.17041 -1.8457,-6.28906 0,-4.06739 1.8457,-6.22071 1.84571,-2.15332 5.60547,-2.15332 3.65723,0 5.52002,2.11914 1.8628,2.10205 1.8628,6.25489 z m -3.07618,0 q 0,-3.69141 -1.07666,-5.34913 -1.07666,-1.65771 -3.36669,-1.65771 -2.23877,0 -3.24708,1.58936 -0.99121,1.58935 -0.99121,5.41748 0,3.87939 1.0083,5.50293 1.02539,1.60644 3.22999,1.60644 2.25585,0 3.3496,-1.6748 1.09375,-1.67481 1.09375,-5.43457 z"
       style="text-align:center;text-anchor:middle;fill:#000000;fill-opacity:1;stroke:none;stroke-width:0.93749994px"
       id="path18118" />
    <path
       d="m 206.21013,971.81903 v -0.76904 l 2.13623,-0.42725 v -13.67187 l -2.13623,-0.42725 v -0.76904 h 6.87012 q 3.77685,0 5.33203,0.93994 1.57226,0.93994 1.57226,2.93945 0,1.64063 -0.93994,2.5293 -0.92285,0.88867 -2.63183,1.28174 v 0.13672 q 2.17041,0.23926 3.33252,1.11084 1.1621,0.87158 1.1621,2.61474 0,2.40967 -1.76025,3.46924 -1.74316,1.04248 -5.67383,1.04248 z m 7.00683,-1.36718 q 2.5293,0 3.57178,-0.75196 1.04248,-0.75195 1.04248,-2.46094 0,-1.62353 -1.11084,-2.30712 -1.09375,-0.70069 -3.72558,-0.70069 h -1.81153 v 6.22071 z m -2.03369,-7.5879 h 1.81153 q 2.05078,0 2.97363,-0.68359 0.93994,-0.68359 0.93994,-2.32422 0,-1.38428 -0.95703,-2.05078 -0.93994,-0.68359 -3.0249,-0.68359 h -1.74317 z"
       style="text-align:center;text-anchor:middle;fill:#000000;fill-opacity:1;stroke:none;stroke-width:0.93749994px"
       id="path18120" />
    <path
       d="m 224.88933,956.95087 -2.13623,-0.42725 v -0.76904 h 6.92138 v 0.76904 l -1.94824,0.42725 v 10.1001 l 7.51953,-8.13477 v -1.96533 l -2.13623,-0.42725 v -0.76904 h 6.92139 v 0.76904 l -1.94824,0.42725 v 13.67187 l 1.94824,0.42725 v 0.76904 h -6.92139 v -0.76904 l 2.13623,-0.42725 v -9.77539 l -7.51953,8.13477 v 1.64062 l 1.94824,0.42725 v 0.76904 h -6.92138 v -0.76904 l 2.13623,-0.42725 z"
       style="text-align:center;text-anchor:middle;fill:#000000;fill-opacity:1;stroke:none;stroke-width:0.93749994px"
       id="path18122" />
    <path
       d="m 244.81609,956.52362 v -0.76904 h 12.50977 v 0.76904 l -1.94824,0.42725 v 13.67187 l 2.49511,0.27344 -0.29052,7.69043 h -1.11084 l -1.48682,-6.76758 h -11.24512 l -1.48681,6.76758 h -1.11084 l -0.29053,-7.69043 2.5293,-0.32471 q 1.38427,-2.63183 2.3413,-6.16943 0.97413,-3.55469 1.24756,-7.45117 z m 0.35889,13.87696 h 7.36572 v -13.44971 h -4.10156 q -0.22217,3.74267 -1.07666,7.24609 -0.8374,3.48633 -2.1875,6.20362 z"
       style="text-align:center;text-anchor:middle;fill:#000000;fill-opacity:1;stroke:none;stroke-width:0.93749994px"
       id="path18124" />
    <path
       d="m 261.4616,956.95087 -2.13623,-0.42725 v -0.76904 h 6.92139 v 0.76904 l -1.94825,0.42725 v 5.94726 h 7.51954 v -5.94726 l -2.13623,-0.42725 v -0.76904 h 6.92138 v 0.76904 l -1.94824,0.42725 v 13.67187 l 1.94824,0.42725 v 0.76904 h -6.92138 v -0.76904 l 2.13623,-0.42725 v -6.30615 h -7.51954 v 6.30615 l 1.94825,0.42725 v 0.76904 h -6.92139 v -0.76904 l 2.13623,-0.42725 z"
       style="text-align:center;text-anchor:middle;fill:#000000;fill-opacity:1;stroke:none;stroke-width:0.93749994px"
       id="path18126" />
    <path
       d="m 293.59051,963.70136 q 0,8.45947 -7.51953,8.45947 -3.62305,0 -5.46875,-2.17041 -1.84571,-2.17041 -1.84571,-6.28906 0,-4.06739 1.84571,-6.22071 1.8457,-2.15332 5.60546,-2.15332 3.65723,0 5.52002,2.11914 1.8628,2.10205 1.8628,6.25489 z m -3.07617,0 q 0,-3.69141 -1.07666,-5.34913 -1.07666,-1.65771 -3.3667,-1.65771 -2.23877,0 -3.24707,1.58936 -0.99122,1.58935 -0.99122,5.41748 0,3.87939 1.00831,5.50293 1.02539,1.60644 3.22998,1.60644 2.25586,0 3.34961,-1.6748 1.09375,-1.67481 1.09375,-5.43457 z"
       style="text-align:center;text-anchor:middle;fill:#000000;fill-opacity:1;stroke:none;stroke-width:0.93749994px"
       id="path18128" />
    <path
       d="m 167.91178,1001.3528 q -0.8374,0.6152 -2.30713,0.9741 -1.46972,0.3418 -3.00781,0.3418 -7.81006,0 -7.81006,-8.49365 0,-4.01611 1.98242,-6.16943 1.99952,-2.17041 5.70801,-2.17041 2.30713,0 5.04151,0.52978 v 4.47754 h -0.93994 l -0.73487,-2.83691 q -1.41845,-0.80322 -3.40088,-0.80322 -4.58008,0 -4.58008,6.97265 0,3.62305 1.38428,5.17823 1.40137,1.53812 4.32373,1.53812 2.49512,0 4.34082,-0.564 z"
       style="text-align:center;text-anchor:middle;fill:#000000;fill-opacity:1;stroke:none;stroke-width:0.93749994px"
       id="path18130" />
    <path
       d="m 171.73991,987.45874 -2.13623,-0.42724 v -0.76905 h 17.27783 v 0.76905 l -1.94824,0.42724 v 13.67186 l 1.94824,0.4273 v 0.769 h -6.92138 v -0.769 l 2.13623,-0.4273 v -13.44969 h -7.51954 v 13.44969 l 1.94825,0.4273 v 0.769 h -6.92139 v -0.769 l 2.13623,-0.4273 z"
       style="text-align:center;text-anchor:middle;fill:#000000;fill-opacity:1;stroke:none;stroke-width:0.93749994px"
       id="path18132" />
    <path
       d="m 192.14519,994.24341 v 0.30762 q 0,2.3584 0.51269,3.67432 0.52979,1.29882 1.60645,1.98245 1.09375,0.6836 2.854,0.6836 0.92285,0 2.1875,-0.1538 1.26465,-0.1539 2.08496,-0.3418 v 0.957 q -0.82031,0.5298 -2.23877,0.9228 -1.40137,0.3931 -2.87109,0.3931 -3.74268,0 -5.48584,-2.0166 -1.72608,-2.0166 -1.72608,-6.47705 0,-4.2041 1.76026,-6.27197 1.76025,-2.06787 5.02441,-2.06787 6.16944,0 6.16944,7.00683 v 1.40137 z m 3.70849,-7.04101 q -1.77734,0 -2.73437,1.43554 -0.93995,1.43555 -0.93995,4.23828 h 6.87012 q 0,-3.05908 -0.78613,-4.35791 -0.78613,-1.31591 -2.40967,-1.31591 z"
       style="text-align:center;text-anchor:middle;fill:#000000;fill-opacity:1;stroke:none;stroke-width:0.93749994px"
       id="path18134" />
    <path
       d="m 205.81706,987.45874 -1.82861,-0.42724 v -0.76905 h 4.51172 l 0.0342,0.93995 q 0.71777,-0.61524 1.91406,-0.99122 1.21338,-0.37597 2.46094,-0.37597 3.07617,0 4.75098,2.13623 1.69189,2.13623 1.69189,6.13525 0,4.08448 -1.8457,6.32321 -1.82862,2.2388 -5.29785,2.2388 -1.93116,0 -3.67432,-0.376 0.10254,1.2305 0.10254,1.9312 v 4.3408 l 2.80273,0.4102 v 0.8032 h -7.65625 v -0.8032 l 2.03369,-0.4102 z m 10.45899,6.64795 q 0,-3.28125 -1.07666,-4.8706 -1.05957,-1.60645 -3.22998,-1.60645 -1.99951,0 -3.33252,0.56397 v 12.83449 q 1.52099,0.2905 3.33252,0.2905 4.30664,0 4.30664,-7.21191 z"
       style="text-align:center;text-anchor:middle;fill:#000000;fill-opacity:1;stroke:none;stroke-width:0.93749994px"
       id="path18136" />
    <path
       d="m 225.16277,994.24341 v 0.30762 q 0,2.3584 0.51269,3.67432 0.52979,1.29882 1.60645,1.98245 1.09375,0.6836 2.854,0.6836 0.92285,0 2.1875,-0.1538 1.26465,-0.1539 2.08496,-0.3418 v 0.957 q -0.82031,0.5298 -2.23877,0.9228 -1.40136,0.3931 -2.87109,0.3931 -3.74268,0 -5.48584,-2.0166 -1.72608,-2.0166 -1.72608,-6.47705 0,-4.2041 1.76026,-6.27197 1.76025,-2.06787 5.02441,-2.06787 6.16944,0 6.16944,7.00683 v 1.40137 z m 3.70849,-7.04101 q -1.77734,0 -2.73437,1.43554 -0.93994,1.43555 -0.93994,4.23828 h 6.87011 q 0,-3.05908 -0.78613,-4.35791 -0.78613,-1.31591 -2.40967,-1.31591 z"
       style="text-align:center;text-anchor:middle;fill:#000000;fill-opacity:1;stroke:none;stroke-width:0.93749994px"
       id="path18138" />
    <path
       d="m 239.72331,987.0315 v -0.76905 h 12.50977 v 0.76905 l -1.94824,0.42724 v 13.67186 l 2.49512,0.2735 -0.29053,7.6904 h -1.11084 l -1.48682,-6.7676 h -11.24512 l -1.48681,6.7676 H 236.049 l -0.29053,-7.6904 2.5293,-0.3248 q 1.38427,-2.63179 2.34131,-6.16938 0.97412,-3.55469 1.24755,-7.45118 z m 0.35889,13.877 h 7.36572 v -13.44976 h -4.10156 q -0.22217,3.74268 -1.07666,7.2461 -0.8374,3.48633 -2.1875,6.20366 z"
       style="text-align:center;text-anchor:middle;fill:#000000;fill-opacity:1;stroke:none;stroke-width:0.93749994px"
       id="path18140" />
    <path
       d="m 257.00115,1009.8806 q -1.333,0 -2.63183,-0.3076 v -3.4692 h 0.80322 l 0.56397,1.6406 q 0.52978,0.3931 1.46972,0.3931 0.88867,0 1.64063,-0.5127 0.75195,-0.5127 1.36718,-1.521 0.63233,-1.0083 1.57227,-3.606 l -6.11816,-15.03906 -1.64063,-0.42724 v -0.76905 h 7.45117 v 0.76905 l -2.52929,0.46142 4.34082,11.22803 4.2041,-11.26221 -2.51221,-0.42724 v -0.76905 h 5.98145 v 0.76905 l -1.67481,0.35888 -6.27197,15.94482 q -1.11084,2.8198 -1.93115,4.0503 -0.82032,1.2305 -1.81153,1.8628 -0.99121,0.6323 -2.27295,0.6323 z"
       style="text-align:center;text-anchor:middle;fill:#000000;fill-opacity:1;stroke:none;stroke-width:0.93749994px"
       id="path18142" />
  </g>
  <g
     aria-label="Вид з лівого боку, як
його видно
з правого боку"
     style="font-style:normal;font-variant:normal;font-weight:normal;font-stretch:normal;font-size:35.00000381px;line-height:30.50787544px;font-family:'Liberation Serif';-inkscape-font-specification:'Liberation Serif';text-align:center;letter-spacing:0px;word-spacing:0px;text-anchor:middle;fill:none;stroke:#000000;stroke-width:0.93749994px;stroke-linecap:butt;stroke-linejoin:miter;stroke-opacity:1"
     id="text18088">
    <path
       d="m 832.96751,837.04877 q 0,-2.10206 -1.31591,-3.05909 -1.31592,-0.95703 -4.27247,-0.95703 h -3.53759 v 8.66455 h 3.74267 q 2.76856,0 4.06739,-1.09375 1.31591,-1.09375 1.31591,-3.55468 z m 1.72608,10.83496 q 0,-2.40967 -1.60645,-3.52051 -1.60644,-1.12793 -5.14404,-1.12793 h -4.10156 v 9.63867 q 2.3584,0.10254 5.02441,0.10254 2.92236,0 4.375,-1.23047 1.45264,-1.24756 1.45264,-3.8623 z m -17.08985,6.52832 v -0.90576 l 2.93946,-0.46143 v -20.2002 l -2.93946,-0.44433 v -0.90576 h 10.47608 q 4.35791,0 6.37451,1.29882 2.0166,1.28174 2.0166,4.08448 0,2.0166 -1.24756,3.43506 -1.23046,1.41845 -3.46923,1.89697 3.09326,0.32471 4.78515,1.81152 1.6919,1.46973 1.6919,3.79395 0,3.29834 -2.29004,5.00732 -2.27295,1.6919 -6.64795,1.6919 l -7.31446,-0.10254 z"
       style="text-align:center;text-anchor:middle;fill:#000000;fill-opacity:1;stroke:none;stroke-width:0.93749994px"
       id="path18204" />
    <path
       d="m 842.74291,839.54388 -2.13624,-0.42724 v -0.76905 h 6.92139 v 0.76905 l -1.94824,0.42724 v 10.1001 l 7.51953,-8.13477 v -1.96533 l -2.13623,-0.42724 v -0.76905 h 6.92139 v 0.76905 l -1.94824,0.42724 v 13.67188 l 1.94824,0.42725 v 0.76904 h -6.92139 v -0.76904 l 2.13623,-0.42725 v -9.77539 l -7.51953,8.13476 v 1.64063 l 1.94824,0.42725 v 0.76904 h -6.92139 v -0.76904 l 2.13624,-0.42725 z"
       style="text-align:center;text-anchor:middle;fill:#000000;fill-opacity:1;stroke:none;stroke-width:0.93749994px"
       id="path18206" />
    <path
       d="m 862.66967,839.11664 v -0.76905 h 12.50976 v 0.76905 l -1.94824,0.42724 v 13.67188 l 2.49512,0.27344 -0.29053,7.69043 h -1.11084 l -1.48682,-6.76758 H 861.593 l -1.48681,6.76758 h -1.11084 l -0.29053,-7.69043 2.5293,-0.32471 q 1.38428,-2.63184 2.34131,-6.16943 0.97412,-3.55469 1.24756,-7.45118 z m 0.35888,13.87695 h 7.36573 v -13.44971 h -4.10157 q -0.22217,3.74268 -1.07666,7.2461 -0.8374,3.48633 -2.1875,6.20361 z"
       style="text-align:center;text-anchor:middle;fill:#000000;fill-opacity:1;stroke:none;stroke-width:0.93749994px"
       id="path18208" />
    <path
       d="m 894.61059,846.10638 q 1.45263,0.23926 2.39258,1.21338 0.93994,0.95703 0.93994,2.27295 0,5.16114 -7.10938,5.16114 -1.26465,0 -2.64892,-0.35889 -1.36719,-0.35889 -1.89698,-0.85449 v -1.02539 q 1.57227,0.46142 3.77686,0.46142 2.37549,0 3.58887,-0.78613 1.21338,-0.78613 1.21338,-2.5293 0,-1.29883 -0.95704,-2.05078 -0.95703,-0.76904 -2.49511,-0.76904 H 889.364 v -1.41846 h 2.06788 q 1.46972,0 2.32422,-0.78613 0.87158,-0.78614 0.87158,-2.1875 0,-1.55518 -0.76905,-2.3584 -0.75195,-0.80323 -2.56347,-0.80323 -0.70069,0 -1.45264,0.22217 -0.75195,0.22217 -1.24756,0.58106 l -0.61523,2.32422 h -0.93994 v -3.96485 q 2.47802,-0.52978 4.375,-0.52978 3.22998,0 4.6997,1.04248 1.46973,1.04248 1.46973,3.26416 0,1.38428 -0.82031,2.34131 -0.82031,0.93994 -2.15332,1.43554 z"
       style="text-align:center;text-anchor:middle;fill:#000000;fill-opacity:1;stroke:none;stroke-width:0.93749994px"
       id="path18210" />
    <path
       d="m 910.33324,852.94232 q 0.75196,0 1.38428,-2.08496 0.64941,-2.08496 1.38428,-6.78467 l 0.71777,-4.52881 -2.23877,-0.42724 v -0.76905 h 12.91993 v 0.76905 l -1.94825,0.42724 v 13.67188 l 1.94825,0.42725 v 0.76904 h -6.92139 v -0.76904 l 2.13623,-0.42725 v -13.44971 h -4.35791 l -0.73487,4.76807 q -0.76904,4.95605 -1.31591,6.7334 -0.52979,1.76025 -1.31592,2.63183 -0.78613,0.8545 -1.94824,0.8545 -0.56397,0 -1.04248,-0.18799 -0.46143,-0.1709 -0.70069,-0.37598 l -0.10254,-2.78564 h 0.76905 l 0.52978,0.90576 q 0.10254,0.18799 0.32471,0.41015 0.23926,0.22217 0.51269,0.22217 z"
       style="text-align:center;text-anchor:middle;fill:#000000;fill-opacity:1;stroke:none;stroke-width:0.93749994px"
       id="path18212" />
    <path
       d="m 931.83227,833.10101 q 0,0.75195 -0.54687,1.29883 -0.54688,0.54687 -1.31592,0.54687 -0.75195,0 -1.29883,-0.54687 -0.54687,-0.54688 -0.54687,-1.29883 0,-0.76904 0.54687,-1.31592 0.54688,-0.54687 1.29883,-0.54687 0.76904,0 1.31592,0.54687 0.54687,0.54688 0.54687,1.31592 z m -0.17089,20.11475 2.75146,0.42725 v 0.76904 h -8.32275 v -0.76904 l 2.73437,-0.42725 v -13.67188 l -2.27295,-0.42724 v -0.76905 h 5.10987 z"
       style="text-align:center;text-anchor:middle;fill:#000000;fill-opacity:1;stroke:none;stroke-width:0.93749994px"
       id="path18214" />
    <path
       d="m 935.69458,854.41205 v -0.76904 l 2.13623,-0.42725 v -13.67188 l -2.13623,-0.42724 v -0.76905 h 6.87012 q 3.77685,0 5.33203,0.93994 1.57226,0.93995 1.57226,2.93946 0,1.64062 -0.93994,2.5293 -0.92285,0.88867 -2.63183,1.28173 v 0.13672 q 2.17041,0.23926 3.33252,1.11084 1.16211,0.87158 1.16211,2.61475 0,2.40967 -1.76026,3.46924 -1.74316,1.04248 -5.67383,1.04248 z m 7.00684,-1.36719 q 2.52929,0 3.57177,-0.75195 1.04248,-0.75196 1.04248,-2.46094 0,-1.62354 -1.11084,-2.30713 -1.09375,-0.70068 -3.72558,-0.70068 h -1.81153 v 6.2207 z m -2.0337,-7.58789 h 1.81153 q 2.05078,0 2.97363,-0.68359 0.93994,-0.6836 0.93994,-2.32422 0,-1.38428 -0.95703,-2.05079 -0.93994,-0.68359 -3.0249,-0.68359 h -1.74317 z"
       style="text-align:center;text-anchor:middle;fill:#000000;fill-opacity:1;stroke:none;stroke-width:0.93749994px"
       id="path18216" />
    <path
       d="m 967.56714,846.29437 q 0,8.45948 -7.51953,8.45948 -3.62305,0 -5.46875,-2.17042 -1.84571,-2.17041 -1.84571,-6.28906 0,-4.06738 1.84571,-6.2207 1.8457,-2.15332 5.60547,-2.15332 3.65722,0 5.52002,2.11914 1.86279,2.10205 1.86279,6.25488 z m -3.07617,0 q 0,-3.6914 -1.07666,-5.34912 -1.07666,-1.65772 -3.3667,-1.65772 -2.23877,0 -3.24707,1.58936 -0.99121,1.58936 -0.99121,5.41748 0,3.8794 1.0083,5.50293 1.02539,1.60645 3.22998,1.60645 2.25586,0 3.34961,-1.67481 1.09375,-1.6748 1.09375,-5.43457 z"
       style="text-align:center;text-anchor:middle;fill:#000000;fill-opacity:1;stroke:none;stroke-width:0.93749994px"
       id="path18218" />
    <path
       d="m 982.34985,842.92767 h -0.93994 l -0.73486,-2.83691 q -1.89697,-0.32471 -3.40088,-0.32471 h -2.76856 v 13.44971 l 2.63184,0.42725 v 0.76904 h -7.60498 v -0.76904 l 2.13623,-0.42725 v -13.67188 l -2.13623,-0.42724 v -0.76905 h 12.81738 z"
       style="text-align:center;text-anchor:middle;fill:#000000;fill-opacity:1;stroke:none;stroke-width:0.93749994px"
       id="path18220" />
    <path
       d="m 998.53394,846.29437 q 0,8.45948 -7.51954,8.45948 -3.62304,0 -5.46875,-2.17042 -1.8457,-2.17041 -1.8457,-6.28906 0,-4.06738 1.8457,-6.2207 1.84571,-2.15332 5.60547,-2.15332 3.65723,0 5.52002,2.11914 1.8628,2.10205 1.8628,6.25488 z m -3.07618,0 q 0,-3.6914 -1.07666,-5.34912 -1.07666,-1.65772 -3.3667,-1.65772 -2.23877,0 -3.24707,1.58936 -0.99121,1.58936 -0.99121,5.41748 0,3.8794 1.0083,5.50293 1.02539,1.60645 3.22998,1.60645 2.25586,0 3.34961,-1.67481 1.09375,-1.6748 1.09375,-5.43457 z"
       style="text-align:center;text-anchor:middle;fill:#000000;fill-opacity:1;stroke:none;stroke-width:0.93749994px"
       id="path18222" />
    <path
       d="m 1010.2576,844.53412 q 0,-4.69971 0.769,-7.43409 0.7861,-2.75146 2.478,-4.27246 1.6919,-1.52099 4.4263,-1.8457 2.9224,-0.32471 3.7085,-0.49561 0.7861,-0.18798 1.2988,-0.44433 0.5127,-0.25635 0.7178,-0.6836 h 0.8545 q -0.051,1.3501 -0.4785,2.11915 -0.4273,0.75195 -1.2647,1.17919 -0.8203,0.42725 -2.0507,0.61524 -1.2305,0.18799 -2.8882,0.39307 -2.2046,0.27343 -3.3155,0.92285 -1.0937,0.63232 -1.5893,1.91406 -0.4956,1.26465 -0.6836,4.92188 h 0.1196 q 0.5982,-1.67481 2.0679,-2.58057 1.4697,-0.92285 3.3838,-0.92285 3.623,0 5.4516,2.13623 1.8287,2.11914 1.8287,6.23779 0,8.45948 -7.5196,8.45948 -7.3144,0 -7.3144,-10.21973 z m 11.7578,1.76025 q 0,-3.6914 -1.0767,-5.34912 -1.0766,-1.65772 -3.3667,-1.65772 -2.2387,0 -3.247,1.58936 -0.9913,1.58936 -0.9913,5.41748 0,7.10938 4.2383,7.10938 2.2559,0 3.3496,-1.67481 1.0938,-1.6748 1.0938,-5.43457 z"
       style="text-align:center;text-anchor:middle;fill:#000000;fill-opacity:1;stroke:none;stroke-width:0.93749994px"
       id="path18224" />
    <path
       d="m 1042.6257,846.29437 q 0,8.45948 -7.5195,8.45948 -3.623,0 -5.4687,-2.17042 -1.8457,-2.17041 -1.8457,-6.28906 0,-4.06738 1.8457,-6.2207 1.8457,-2.15332 5.6054,-2.15332 3.6573,0 5.5201,2.11914 1.8627,2.10205 1.8627,6.25488 z m -3.0761,0 q 0,-3.6914 -1.0767,-5.34912 -1.0766,-1.65772 -3.3667,-1.65772 -2.2388,0 -3.2471,1.58936 -0.9912,1.58936 -0.9912,5.41748 0,3.8794 1.0083,5.50293 1.0254,1.60645 3.23,1.60645 2.2559,0 3.3496,-1.67481 1.0938,-1.6748 1.0938,-5.43457 z"
       style="text-align:center;text-anchor:middle;fill:#000000;fill-opacity:1;stroke:none;stroke-width:0.93749994px"
       id="path18226" />
    <path
       d="m 1046.7273,839.54388 -2.1362,-0.42724 v -0.76905 h 6.9214 v 0.76905 l -1.9483,0.42724 v 7.10938 l 6.5625,-7.0752 -1.6748,-0.46142 v -0.76905 h 5.6738 v 0.76905 l -1.9995,0.39306 -4.58,4.68262 5.8789,9.05762 1.5722,0.39307 v 0.76904 h -6.4087 v -0.76904 l 1.4698,-0.42725 -4.4092,-6.92139 -2.085,1.77735 v 5.14404 l 1.9483,0.42725 v 0.76904 h -6.9214 v -0.76904 l 2.1362,-0.42725 z"
       style="text-align:center;text-anchor:middle;fill:#000000;fill-opacity:1;stroke:none;stroke-width:0.93749994px"
       id="path18228" />
    <path
       d="m 1063.9026,861.96576 q -1.333,0 -2.6318,-0.30762 v -3.46924 h 0.8032 l 0.564,1.64063 q 0.5297,0.39307 1.4697,0.39307 0.8887,0 1.6406,-0.5127 0.752,-0.51269 1.3672,-1.521 0.6323,-1.0083 1.5723,-3.60595 l -6.1182,-15.03907 -1.6406,-0.42724 v -0.76905 h 7.4511 v 0.76905 l -2.5293,0.46142 4.3409,11.22803 4.2041,-11.26221 -2.5122,-0.42724 v -0.76905 h 5.9814 v 0.76905 l -1.6748,0.35888 -6.272,15.94483 q -1.1108,2.81982 -1.9311,4.05029 -0.8203,1.23047 -1.8115,1.8628 -0.9913,0.63232 -2.273,0.63232 z"
       style="text-align:center;text-anchor:middle;fill:#000000;fill-opacity:1;stroke:none;stroke-width:0.93749994px"
       id="path18230" />
    <path
       d="m 1081.0608,853.57465 q 0,2.3413 -1.3672,3.91357 -1.3501,1.58936 -3.8452,2.30713 v -1.31592 q 3.0078,-0.95703 3.0078,-2.87109 0,-0.3418 -0.2563,-0.61524 -0.2564,-0.27343 -0.8887,-0.59814 -1.1621,-0.59815 -1.1621,-1.6919 0,-0.92285 0.581,-1.40136 0.5811,-0.49561 1.4869,-0.49561 1.0937,0 1.7602,0.78613 0.6836,0.78614 0.6836,1.98243 z"
       style="text-align:center;text-anchor:middle;fill:#000000;fill-opacity:1;stroke:none;stroke-width:0.93749994px"
       id="path18232" />
    <path
       d="m 1096.0144,854.41205 h -3.8965 v -0.76904 l 1.3843,-0.39307 3.811,-6.25488 q -1.7089,-0.39307 -2.666,-1.521 -0.9399,-1.12793 -0.9399,-2.76856 0,-4.35791 6.8017,-4.35791 h 6.9727 v 0.76905 l -2.1362,0.42724 v 13.67188 l 2.1362,0.42725 v 0.76904 h -7.0752 v -0.76904 l 2.1021,-0.44434 v -5.69092 h -2.4952 z m 6.4942,-14.69727 h -1.7432 q -2.085,0 -3.042,0.78613 -0.9399,0.76905 -0.9399,2.29004 0,3.34961 3.7255,3.34961 h 1.9996 z"
       style="text-align:center;text-anchor:middle;fill:#000000;fill-opacity:1;stroke:none;stroke-width:0.93749994px"
       id="path18234" />
    <path
       d="m 1110.9168,839.54388 -2.1363,-0.42724 v -0.76905 h 6.9214 v 0.76905 l -1.9482,0.42724 v 7.10938 l 6.5625,-7.0752 -1.6748,-0.46142 v -0.76905 h 5.6738 v 0.76905 l -1.9995,0.39306 -4.5801,4.68262 5.8789,9.05762 1.5723,0.39307 v 0.76904 h -6.4087 v -0.76904 l 1.4697,-0.42725 -4.4092,-6.92139 -2.0849,1.77735 v 5.14404 l 1.9482,0.42725 v 0.76904 h -6.9214 v -0.76904 l 2.1363,-0.42725 z"
       style="text-align:center;text-anchor:middle;fill:#000000;fill-opacity:1;stroke:none;stroke-width:0.93749994px"
       id="path18236" />
    <path
       d="m 891.00463,870.05176 -2.13623,-0.42725 v -0.76904 h 6.92139 v 0.76904 l -1.94825,0.42725 v 10.1001 l 7.51954,-8.13477 v -1.96533 l -2.13623,-0.42725 v -0.76904 h 6.92138 v 0.76904 l -1.94824,0.42725 v 13.67187 l 1.94824,0.42725 v 0.76904 h -6.92138 v -0.76904 l 2.13623,-0.42725 v -9.77539 l -7.51954,8.13477 v 1.64062 l 1.94825,0.42725 v 0.76904 h -6.92139 v -0.76904 l 2.13623,-0.42725 z m 6.52832,-4.30664 q -3.12744,0 -4.66553,-1.12793 -1.52099,-1.12793 -1.60644,-3.65723 h 2.80273 q 0.10254,1.76025 0.99121,2.66602 0.88868,0.90576 2.47803,0.90576 1.58936,0 2.47803,-0.90576 0.88867,-0.90577 0.99121,-2.66602 h 2.80273 q -0.0854,2.54639 -1.62353,3.67432 -1.521,1.11084 -4.64844,1.11084 z"
       style="text-align:center;text-anchor:middle;fill:#000000;fill-opacity:1;stroke:none;stroke-width:0.93749994px"
       id="path18238" />
    <path
       d="m 923.13354,876.80225 q 0,8.45947 -7.51953,8.45947 -3.62305,0 -5.46875,-2.17041 -1.84571,-2.17041 -1.84571,-6.28906 0,-4.06739 1.84571,-6.22071 1.8457,-2.15332 5.60547,-2.15332 3.65722,0 5.52002,2.11914 1.86279,2.10205 1.86279,6.25489 z m -3.07617,0 q 0,-3.69141 -1.07666,-5.34912 -1.07666,-1.65772 -3.3667,-1.65772 -2.23877,0 -3.24707,1.58936 -0.99121,1.58935 -0.99121,5.41748 0,3.87939 1.0083,5.50293 1.02539,1.60644 3.22998,1.60644 2.25586,0 3.34961,-1.6748 1.09375,-1.67481 1.09375,-5.43457 z"
       style="text-align:center;text-anchor:middle;fill:#000000;fill-opacity:1;stroke:none;stroke-width:0.93749994px"
       id="path18240" />
    <path
       d="m 937.91626,873.43555 h -0.93995 l -0.73486,-2.83692 q -1.89697,-0.3247 -3.40088,-0.3247 h -2.76855 v 13.4497 l 2.63183,0.42725 v 0.76904 h -7.60498 v -0.76904 l 2.13623,-0.42725 v -13.67187 l -2.13623,-0.42725 v -0.76904 h 12.81739 z"
       style="text-align:center;text-anchor:middle;fill:#000000;fill-opacity:1;stroke:none;stroke-width:0.93749994px"
       id="path18242" />
    <path
       d="m 954.10034,876.80225 q 0,8.45947 -7.51953,8.45947 -3.62305,0 -5.46875,-2.17041 -1.8457,-2.17041 -1.8457,-6.28906 0,-4.06739 1.8457,-6.22071 1.8457,-2.15332 5.60547,-2.15332 3.65723,0 5.52002,2.11914 1.86279,2.10205 1.86279,6.25489 z m -3.07617,0 q 0,-3.69141 -1.07666,-5.34912 -1.07666,-1.65772 -3.3667,-1.65772 -2.23877,0 -3.24707,1.58936 -0.99121,1.58935 -0.99121,5.41748 0,3.87939 1.0083,5.50293 1.02539,1.60644 3.22998,1.60644 2.25586,0 3.34961,-1.6748 1.09375,-1.67481 1.09375,-5.43457 z"
       style="text-align:center;text-anchor:middle;fill:#000000;fill-opacity:1;stroke:none;stroke-width:0.93749994px"
       id="path18244" />
    <path
       d="m 964.81567,884.91992 v -0.76904 l 2.13623,-0.42725 v -13.67187 l -2.13623,-0.42725 v -0.76904 h 6.87012 q 3.77686,0 5.33203,0.93994 1.57227,0.93994 1.57227,2.93945 0,1.64063 -0.93994,2.5293 -0.92286,0.88867 -2.63184,1.28174 v 0.13672 q 2.17041,0.23926 3.33252,1.11084 1.16211,0.87158 1.16211,2.61474 0,2.40967 -1.76025,3.46924 -1.74317,1.04248 -5.67383,1.04248 z m 7.00684,-1.36718 q 2.5293,0 3.57178,-0.75196 1.04248,-0.75195 1.04248,-2.46093 0,-1.62354 -1.11084,-2.30713 -1.09375,-0.70069 -3.72559,-0.70069 h -1.81152 v 6.22071 z m -2.03369,-7.5879 h 1.81152 q 2.05078,0 2.97363,-0.68359 0.93995,-0.68359 0.93995,-2.32422 0,-1.38428 -0.95704,-2.05078 -0.93994,-0.68359 -3.0249,-0.68359 h -1.74316 z"
       style="text-align:center;text-anchor:middle;fill:#000000;fill-opacity:1;stroke:none;stroke-width:0.93749994px"
       id="path18246" />
    <path
       d="m 983.49487,870.05176 -2.13623,-0.42725 v -0.76904 h 6.92139 v 0.76904 l -1.94824,0.42725 v 10.1001 l 7.51953,-8.13477 v -1.96533 l -2.13623,-0.42725 v -0.76904 h 6.92139 v 0.76904 l -1.94825,0.42725 v 13.67187 l 1.94825,0.42725 v 0.76904 h -6.92139 v -0.76904 l 2.13623,-0.42725 v -9.77539 l -7.51953,8.13477 v 1.64062 l 1.94824,0.42725 v 0.76904 h -6.92139 v -0.76904 l 2.13623,-0.42725 z"
       style="text-align:center;text-anchor:middle;fill:#000000;fill-opacity:1;stroke:none;stroke-width:0.93749994px"
       id="path18248" />
    <path
       d="m 1003.4216,869.62451 v -0.76904 h 12.5098 v 0.76904 l -1.9482,0.42725 v 13.67187 l 2.4951,0.27344 -0.2905,7.69043 h -1.1109 l -1.4868,-6.76758 h -11.2451 l -1.4868,6.76758 h -1.11088 l -0.29053,-7.69043 2.52931,-0.3247 q 1.3843,-2.63184 2.3413,-6.16944 0.9741,-3.55469 1.2476,-7.45117 z m 0.3589,13.87696 h 7.3657 v -13.44971 h -4.1015 q -0.2222,3.74267 -1.0767,7.24609 -0.8374,3.48633 -2.1875,6.20362 z"
       style="text-align:center;text-anchor:middle;fill:#000000;fill-opacity:1;stroke:none;stroke-width:0.93749994px"
       id="path18250" />
    <path
       d="m 1020.0671,870.05176 -2.1362,-0.42725 v -0.76904 h 6.9214 v 0.76904 l -1.9482,0.42725 v 5.94726 h 7.5195 v -5.94726 l -2.1362,-0.42725 v -0.76904 h 6.9213 v 0.76904 l -1.9482,0.42725 v 13.67187 l 1.9482,0.42725 v 0.76904 h -6.9213 v -0.76904 l 2.1362,-0.42725 v -6.30615 h -7.5195 v 6.30615 l 1.9482,0.42725 v 0.76904 h -6.9214 v -0.76904 l 2.1362,-0.42725 z"
       style="text-align:center;text-anchor:middle;fill:#000000;fill-opacity:1;stroke:none;stroke-width:0.93749994px"
       id="path18252" />
    <path
       d="m 1052.1961,876.80225 q 0,8.45947 -7.5196,8.45947 -3.623,0 -5.4687,-2.17041 -1.8457,-2.17041 -1.8457,-6.28906 0,-4.06739 1.8457,-6.22071 1.8457,-2.15332 5.6054,-2.15332 3.6573,0 5.5201,2.11914 1.8628,2.10205 1.8628,6.25489 z m -3.0762,0 q 0,-3.69141 -1.0767,-5.34912 -1.0766,-1.65772 -3.3667,-1.65772 -2.2387,0 -3.247,1.58936 -0.9913,1.58935 -0.9913,5.41748 0,3.87939 1.0083,5.50293 1.0254,1.60644 3.23,1.60644 2.2559,0 3.3496,-1.6748 1.0938,-1.67481 1.0938,-5.43457 z"
       style="text-align:center;text-anchor:middle;fill:#000000;fill-opacity:1;stroke:none;stroke-width:0.93749994px"
       id="path18254" />
    <path
       d="m 871.57348,907.12213 q 1.45263,0.23926 2.39257,1.21338 0.93995,0.95704 0.93995,2.27295 0,5.16114 -7.10938,5.16114 -1.26465,0 -2.64893,-0.35889 -1.36718,-0.35889 -1.89697,-0.85449 v -1.02539 q 1.57227,0.46142 3.77686,0.46142 2.37549,0 3.58886,-0.78613 1.21338,-0.78613 1.21338,-2.5293 0,-1.29883 -0.95703,-2.05078 -0.95703,-0.76904 -2.49512,-0.76904 h -2.05078 v -1.41846 h 2.06787 q 1.46973,0 2.32422,-0.78613 0.87159,-0.78613 0.87159,-2.1875 0,-1.55518 -0.76905,-2.3584 -0.75195,-0.80322 -2.56347,-0.80322 -0.70069,0 -1.45264,0.22216 -0.75195,0.22217 -1.24756,0.58106 l -0.61523,2.32422 h -0.93995 v -3.96485 q 2.47803,-0.52978 4.375,-0.52978 3.22999,0 4.69971,1.04248 1.46973,1.04248 1.46973,3.26416 0,1.38428 -0.82031,2.34131 -0.82032,0.93994 -2.15332,1.43555 z"
       style="text-align:center;text-anchor:middle;fill:#000000;fill-opacity:1;stroke:none;stroke-width:0.93749994px"
       id="path18256" />
    <path
       d="m 887.58666,900.55963 -2.13623,-0.42724 v -0.76905 h 17.27784 v 0.76905 l -1.94825,0.42724 v 13.67188 l 1.94825,0.42725 v 0.76904 h -6.92139 v -0.76904 l 2.13623,-0.42725 V 900.7818 h -7.51953 v 13.44971 l 1.94824,0.42725 v 0.76904 h -6.92139 v -0.76904 l 2.13623,-0.42725 z"
       style="text-align:center;text-anchor:middle;fill:#000000;fill-opacity:1;stroke:none;stroke-width:0.93749994px"
       id="path18258" />
    <path
       d="m 906.14623,900.55963 -1.82861,-0.42724 v -0.76905 h 4.51172 l 0.0342,0.93995 q 0.71777,-0.61524 1.91406,-0.99121 1.21338,-0.37598 2.46094,-0.37598 3.07617,0 4.75098,2.13623 1.69189,2.13623 1.69189,6.13525 0,4.08448 -1.8457,6.32325 -1.82862,2.23877 -5.29786,2.23877 -1.93115,0 -3.67431,-0.37598 0.10254,1.23047 0.10254,1.93115 v 4.34082 l 2.80273,0.41016 v 0.80322 h -7.65625 v -0.80322 l 2.03369,-0.41016 z m 10.45899,6.64795 q 0,-3.28125 -1.07666,-4.8706 -1.05957,-1.60645 -3.22998,-1.60645 -1.99952,0 -3.33252,0.56397 v 12.83447 q 1.52099,0.29053 3.33252,0.29053 4.30664,0 4.30664,-7.21192 z"
       style="text-align:center;text-anchor:middle;fill:#000000;fill-opacity:1;stroke:none;stroke-width:0.93749994px"
       id="path18260" />
    <path
       d="m 928.99536,899.00446 q 2.63183,0 3.8623,1.07666 1.24756,1.07666 1.24756,3.29834 v 10.85205 l 1.99951,0.42725 v 0.76904 h -4.40918 l -0.3247,-1.60645 q -1.94825,1.94825 -4.97315,1.94825 -4.11865,0 -4.11865,-4.78516 0,-1.60645 0.61523,-2.64893 0.63233,-1.05957 1.99952,-1.60644 1.36718,-0.56397 3.96484,-0.61524 l 2.40967,-0.0684 v -2.5122 q 0,-1.65772 -0.61524,-2.44385 -0.59814,-0.78613 -1.86279,-0.78613 -1.70898,0 -3.12744,0.80322 l -0.58106,1.99951 h -0.95703 v -3.50342 q 2.76856,-0.59814 4.87061,-0.59814 z m 2.27295,8.2373 -2.23877,0.0684 q -2.29004,0.0855 -3.11035,0.88868 -0.80323,0.80322 -0.80323,2.6831 0,3.00781 2.44385,3.00781 1.16211,0 1.99951,-0.25634 0.8545,-0.27344 1.70899,-0.6836 z"
       style="text-align:center;text-anchor:middle;fill:#000000;fill-opacity:1;stroke:none;stroke-width:0.93749994px"
       id="path18262" />
    <path
       d="m 937.19848,915.4278 v -0.76904 l 2.13623,-0.42725 v -13.67188 l -2.13623,-0.42724 v -0.76905 h 6.87012 q 3.77686,0 5.33203,0.93995 1.57227,0.93994 1.57227,2.93945 0,1.64063 -0.93994,2.5293 -0.92286,0.88867 -2.63184,1.28174 v 0.13671 q 2.17041,0.23926 3.33252,1.11084 1.16211,0.87159 1.16211,2.61475 0,2.40967 -1.76025,3.46924 -1.74317,1.04248 -5.67383,1.04248 z m 7.00684,-1.36719 q 2.5293,0 3.57178,-0.75195 1.04248,-0.75195 1.04248,-2.46094 0,-1.62353 -1.11084,-2.30713 -1.09375,-0.70068 -3.72559,-0.70068 h -1.81152 v 6.2207 z m -2.03369,-7.58789 h 1.81152 q 2.05078,0 2.97363,-0.68359 0.93995,-0.6836 0.93995,-2.32422 0,-1.38428 -0.95704,-2.05078 -0.93994,-0.6836 -3.0249,-0.6836 h -1.74316 z"
       style="text-align:center;text-anchor:middle;fill:#000000;fill-opacity:1;stroke:none;stroke-width:0.93749994px"
       id="path18264" />
    <path
       d="m 969.07104,907.31012 q 0,8.45948 -7.51953,8.45948 -3.62305,0 -5.46875,-2.17041 -1.8457,-2.17041 -1.8457,-6.28907 0,-4.06738 1.8457,-6.2207 1.8457,-2.15332 5.60547,-2.15332 3.65723,0 5.52002,2.11914 1.86279,2.10205 1.86279,6.25488 z m -3.07617,0 q 0,-3.6914 -1.07666,-5.34912 -1.07666,-1.65771 -3.3667,-1.65771 -2.23877,0 -3.24707,1.58935 -0.99121,1.58936 -0.99121,5.41748 0,3.8794 1.0083,5.50293 1.02539,1.60645 3.22998,1.60645 2.25586,0 3.34961,-1.67481 1.09375,-1.6748 1.09375,-5.43457 z"
       style="text-align:center;text-anchor:middle;fill:#000000;fill-opacity:1;stroke:none;stroke-width:0.93749994px"
       id="path18266" />
    <path
       d="m 983.85376,903.94342 h -0.93994 l -0.73486,-2.83691 q -1.89697,-0.32471 -3.40088,-0.32471 h -2.76855 v 13.44971 l 2.63183,0.42725 v 0.76904 h -7.60498 v -0.76904 l 2.13623,-0.42725 v -13.67188 l -2.13623,-0.42724 v -0.76905 h 12.81738 z"
       style="text-align:center;text-anchor:middle;fill:#000000;fill-opacity:1;stroke:none;stroke-width:0.93749994px"
       id="path18268" />
    <path
       d="m 1000.0378,907.31012 q 0,8.45948 -7.51949,8.45948 -3.62304,0 -5.46875,-2.17041 -1.8457,-2.17041 -1.8457,-6.28907 0,-4.06738 1.8457,-6.2207 1.84571,-2.15332 5.60547,-2.15332 3.65723,0 5.52002,2.11914 1.86275,2.10205 1.86275,6.25488 z m -3.07613,0 q 0,-3.6914 -1.07666,-5.34912 -1.07666,-1.65771 -3.3667,-1.65771 -2.23876,0 -3.24707,1.58935 -0.99121,1.58936 -0.99121,5.41748 0,3.8794 1.0083,5.50293 1.02539,1.60645 3.22998,1.60645 2.25586,0 3.34961,-1.67481 1.09375,-1.6748 1.09375,-5.43457 z"
       style="text-align:center;text-anchor:middle;fill:#000000;fill-opacity:1;stroke:none;stroke-width:0.93749994px"
       id="path18270" />
    <path
       d="m 1011.7615,905.54987 q 0,-4.69971 0.769,-7.43408 0.7862,-2.75147 2.478,-4.27247 1.6919,-1.52099 4.4263,-1.8457 2.9224,-0.32471 3.7085,-0.4956 0.7861,-0.18799 1.2988,-0.44434 0.5127,-0.25635 0.7178,-0.68359 h 0.8545 q -0.051,1.35009 -0.4785,2.11914 -0.4273,0.75195 -1.2647,1.1792 -0.8203,0.42724 -2.0507,0.61523 -1.2305,0.18799 -2.8882,0.39307 -2.2046,0.27343 -3.3155,0.92285 -1.0937,0.63232 -1.5893,1.91406 -0.4956,1.26465 -0.6836,4.92188 h 0.1196 q 0.5982,-1.67481 2.0679,-2.58057 1.4697,-0.92285 3.3838,-0.92285 3.623,0 5.4517,2.13623 1.8286,2.11914 1.8286,6.23779 0,8.45948 -7.5196,8.45948 -7.3144,0 -7.3144,-10.21973 z m 11.7578,1.76025 q 0,-3.6914 -1.0767,-5.34912 -1.0766,-1.65771 -3.3667,-1.65771 -2.2387,0 -3.247,1.58935 -0.9912,1.58936 -0.9912,5.41748 0,7.10938 4.2382,7.10938 2.2559,0 3.3496,-1.67481 1.0938,-1.6748 1.0938,-5.43457 z"
       style="text-align:center;text-anchor:middle;fill:#000000;fill-opacity:1;stroke:none;stroke-width:0.93749994px"
       id="path18272" />
    <path
       d="m 1044.1296,907.31012 q 0,8.45948 -7.5195,8.45948 -3.623,0 -5.4687,-2.17041 -1.8457,-2.17041 -1.8457,-6.28907 0,-4.06738 1.8457,-6.2207 1.8457,-2.15332 5.6054,-2.15332 3.6573,0 5.5201,2.11914 1.8627,2.10205 1.8627,6.25488 z m -3.0761,0 q 0,-3.6914 -1.0767,-5.34912 -1.0766,-1.65771 -3.3667,-1.65771 -2.2388,0 -3.2471,1.58935 -0.9912,1.58936 -0.9912,5.41748 0,3.8794 1.0083,5.50293 1.0254,1.60645 3.23,1.60645 2.2559,0 3.3496,-1.67481 1.0938,-1.6748 1.0938,-5.43457 z"
       style="text-align:center;text-anchor:middle;fill:#000000;fill-opacity:1;stroke:none;stroke-width:0.93749994px"
       id="path18274" />
    <path
       d="m 1048.2312,900.55963 -2.1362,-0.42724 v -0.76905 h 6.9214 v 0.76905 l -1.9483,0.42724 v 7.10938 l 6.5625,-7.0752 -1.6748,-0.46142 v -0.76905 h 5.6738 v 0.76905 l -1.9995,0.39306 -4.58,4.68262 5.8789,9.05762 1.5722,0.39307 v 0.76904 h -6.4087 v -0.76904 l 1.4698,-0.42725 -4.4092,-6.92139 -2.085,1.77735 v 5.14404 l 1.9483,0.42725 v 0.76904 h -6.9214 v -0.76904 l 2.1362,-0.42725 z"
       style="text-align:center;text-anchor:middle;fill:#000000;fill-opacity:1;stroke:none;stroke-width:0.93749994px"
       id="path18276" />
    <path
       d="m 1065.4065,922.98151 q -1.333,0 -2.6318,-0.30762 v -3.46923 h 0.8032 l 0.564,1.64062 q 0.5297,0.39307 1.4697,0.39307 0.8887,0 1.6406,-0.5127 0.752,-0.51269 1.3672,-1.52099 0.6323,-1.00831 1.5723,-3.60596 l -6.1182,-15.03907 -1.6406,-0.42724 v -0.76905 h 7.4512 v 0.76905 l -2.5293,0.46142 4.3408,11.22803 4.2041,-11.26221 -2.5122,-0.42724 v -0.76905 h 5.9814 v 0.76905 l -1.6748,0.35888 -6.272,15.94483 q -1.1108,2.81983 -1.9311,4.05029 -0.8203,1.23047 -1.8115,1.8628 -0.9912,0.63232 -2.273,0.63232 z"
       style="text-align:center;text-anchor:middle;fill:#000000;fill-opacity:1;stroke:none;stroke-width:0.93749994px"
       id="path18278" />
  </g>
</svg>
