<?xml version="1.0" encoding="UTF-8" standalone="no"?>
<svg
   xmlns:osb="http://www.openswatchbook.org/uri/2009/osb"
   xmlns:dc="http://purl.org/dc/elements/1.1/"
   xmlns:cc="http://creativecommons.org/ns#"
   xmlns:rdf="http://www.w3.org/1999/02/22-rdf-syntax-ns#"
   xmlns:svg="http://www.w3.org/2000/svg"
   xmlns="http://www.w3.org/2000/svg"
   xmlns:xlink="http://www.w3.org/1999/xlink"
   xmlns:sodipodi="http://sodipodi.sourceforge.net/DTD/sodipodi-0.dtd"
   xmlns:inkscape="http://www.inkscape.org/namespaces/inkscape"
   version="1.1"
   id="svg16038"
   viewBox="0 0 1542.9731 1048.4191"
   height="295.88718mm"
   width="435.4613mm"
   sodipodi:docname="projection-cube_12.svg"
   inkscape:version="0.92.1 r15371">
  <sodipodi:namedview
     pagecolor="#ffffff"
     bordercolor="#666666"
     borderopacity="1"
     objecttolerance="10"
     gridtolerance="10"
     guidetolerance="10"
     inkscape:pageopacity="0"
     inkscape:pageshadow="2"
     inkscape:window-width="1920"
     inkscape:window-height="1051"
     id="namedview21351"
     showgrid="false"
     inkscape:zoom="0.59688867"
     inkscape:cx="937.71137"
     inkscape:cy="495.30314"
     inkscape:window-x="0"
     inkscape:window-y="0"
     inkscape:window-maximized="1"
     inkscape:current-layer="svg16038" />
  <defs
     id="defs16040">
    <marker
       style="overflow:visible"
       id="marker21522"
       refX="0"
       refY="0"
       orient="auto">
      <path
         transform="matrix(-0.8,0,0,-0.8,-10,0)"
         style="fill:#000000;fill-opacity:1;fill-rule:evenodd;stroke:#000000;stroke-width:1pt;stroke-opacity:1"
         d="M 0,0 5,-5 -12.5,0 5,5 0,0 Z"
         id="path21524" />
    </marker>
    <marker
       orient="auto"
       refY="0"
       refX="0"
       id="marker17490"
       style="overflow:visible">
      <path
         id="path17492"
         d="M 0,0 5,-5 -12.5,0 5,5 0,0 Z"
         style="fill:#000000;fill-opacity:1;fill-rule:evenodd;stroke:#000000;stroke-width:1pt;stroke-opacity:1"
         transform="matrix(-0.8,0,0,-0.8,-10,0)" />
    </marker>
    <marker
       style="overflow:visible"
       id="marker16832"
       refX="0"
       refY="0"
       orient="auto">
      <path
         transform="matrix(-0.8,0,0,-0.8,-10,0)"
         style="fill:#000000;fill-opacity:1;fill-rule:evenodd;stroke:#000000;stroke-width:1pt;stroke-opacity:1"
         d="M 0,0 5,-5 -12.5,0 5,5 0,0 Z"
         id="path16834" />
    </marker>
    <marker
       style="overflow:visible"
       id="marker16382"
       refX="0"
       refY="0"
       orient="auto">
      <path
         transform="matrix(-0.8,0,0,-0.8,-10,0)"
         style="fill:#000000;fill-opacity:1;fill-rule:evenodd;stroke:#000000;stroke-width:1pt;stroke-opacity:1"
         d="M 0,0 5,-5 -12.5,0 5,5 0,0 Z"
         id="path16384" />
    </marker>
    <marker
       orient="auto"
       refY="0"
       refX="0"
       id="marker15998"
       style="overflow:visible">
      <path
         id="path16000"
         d="M 0,0 5,-5 -12.5,0 5,5 0,0 Z"
         style="fill:#000000;fill-opacity:1;fill-rule:evenodd;stroke:#000000;stroke-width:1pt;stroke-opacity:1"
         transform="matrix(-0.8,0,0,-0.8,-10,0)" />
    </marker>
    <marker
       style="overflow:visible"
       id="marker15620"
       refX="0"
       refY="0"
       orient="auto">
      <path
         transform="matrix(-0.8,0,0,-0.8,-10,0)"
         style="fill:#000000;fill-opacity:1;fill-rule:evenodd;stroke:#000000;stroke-width:1pt;stroke-opacity:1"
         d="M 0,0 5,-5 -12.5,0 5,5 0,0 Z"
         id="path15622" />
    </marker>
    <marker
       orient="auto"
       refY="0"
       refX="0"
       id="marker15248"
       style="overflow:visible">
      <path
         id="path15250"
         d="M 0,0 5,-5 -12.5,0 5,5 0,0 Z"
         style="fill:#000000;fill-opacity:1;fill-rule:evenodd;stroke:#000000;stroke-width:1pt;stroke-opacity:1"
         transform="matrix(-0.8,0,0,-0.8,-10,0)" />
    </marker>
    <linearGradient
       y2="351.71454"
       x2="4180.9253"
       y1="351.71454"
       x1="4019.4543"
       gradientUnits="userSpaceOnUse"
       id="linearGradient15234"
       xlink:href="#side" />
    <linearGradient
       gradientTransform="matrix(0.9422018,-0.33504593,0.33504593,0.9422018,5215.8889,-2083.0982)"
       osb:paint="solid"
       id="side">
      <stop
         id="stop5530"
         offset="0"
         style="stop-color:#265998;stop-opacity:1;" />
    </linearGradient>
    <linearGradient
       y2="381.53329"
       x2="4081.2812"
       y1="381.53329"
       x1="3983.3206"
       gradientUnits="userSpaceOnUse"
       id="linearGradient15236"
       xlink:href="#red" />
    <linearGradient
       gradientTransform="rotate(-49.820261,-2926.6942,-26931.457)"
       osb:paint="solid"
       id="red">
      <stop
         id="stop5548"
         offset="0"
         style="stop-color:#e31616;stop-opacity:1;" />
    </linearGradient>
    <linearGradient
       y2="364.30023"
       x2="4139.792"
       y1="364.30023"
       x1="4005.9314"
       gradientUnits="userSpaceOnUse"
       id="linearGradient15238"
       xlink:href="#top" />
    <linearGradient
       gradientTransform="matrix(0.9422018,-0.33504593,0.33504593,0.9422018,5203.2038,-2086.3603)"
       osb:paint="solid"
       id="top">
      <stop
         id="stop5590"
         offset="0"
         style="stop-color:#f9d455;stop-opacity:1;" />
    </linearGradient>
    <linearGradient
       y2="1092.722"
       x2="1934.082"
       y1="1092.722"
       x1="1734.1537"
       gradientTransform="rotate(59.75507,1829.6676,234.59191)"
       gradientUnits="userSpaceOnUse"
       id="linearGradient14635"
       xlink:href="#side" />
    <marker
       style="overflow:visible"
       id="marker14089"
       refX="0"
       refY="0"
       orient="auto">
      <path
         transform="matrix(-0.8,0,0,-0.8,-10,0)"
         style="fill:#000000;fill-opacity:1;fill-rule:evenodd;stroke:#000000;stroke-width:1pt;stroke-opacity:1"
         d="M 0,0 5,-5 -12.5,0 5,5 0,0 Z"
         id="path14091" />
    </marker>
    <marker
       orient="auto"
       refY="0"
       refX="0"
       id="marker13547"
       style="overflow:visible">
      <path
         id="path13549"
         d="M 0,0 5,-5 -12.5,0 5,5 0,0 Z"
         style="fill:#000000;fill-opacity:1;fill-rule:evenodd;stroke:#000000;stroke-width:1pt;stroke-opacity:1"
         transform="matrix(-0.8,0,0,-0.8,-10,0)" />
    </marker>
    <linearGradient
       y2="1092.722"
       x2="1934.082"
       y1="1092.722"
       x1="1734.1537"
       gradientTransform="rotate(90,1162.8427,134.17996)"
       gradientUnits="userSpaceOnUse"
       id="linearGradient13471"
       xlink:href="#side" />
    <linearGradient
       y2="1092.722"
       x2="1934.082"
       y1="1092.722"
       x1="1734.1537"
       gradientTransform="rotate(59.75507,1916.6994,284.59201)"
       gradientUnits="userSpaceOnUse"
       id="linearGradient11465"
       xlink:href="#side" />
    <linearGradient
       gradientUnits="userSpaceOnUse"
       y2="364.30023"
       x2="4139.792"
       y1="364.30023"
       x1="4005.9314"
       id="linearGradient14043"
       xlink:href="#top"
       gradientTransform="translate(-3141.5209,-68.081867)" />
    <marker
       style="overflow:visible"
       id="marker6311"
       refX="0"
       refY="0"
       orient="auto">
      <path
         transform="matrix(-0.8,0,0,-0.8,-10,0)"
         style="fill:#000000;fill-opacity:1;fill-rule:evenodd;stroke:#000000;stroke-width:1pt;stroke-opacity:1"
         d="M 0,0 5,-5 -12.5,0 5,5 0,0 Z"
         id="path6313" />
    </marker>
    <marker
       orient="auto"
       refY="0"
       refX="0"
       id="marker11073"
       style="overflow:visible">
      <path
         id="path11075"
         d="M 0,0 5,-5 -12.5,0 5,5 0,0 Z"
         style="fill:#000000;fill-opacity:1;fill-rule:evenodd;stroke:#000000;stroke-width:1pt;stroke-opacity:1"
         transform="matrix(-0.8,0,0,-0.8,-10,0)" />
    </marker>
    <marker
       orient="auto"
       refY="0"
       refX="0"
       id="marker5869"
       style="overflow:visible">
      <path
         id="path5871"
         d="M 0,0 5,-5 -12.5,0 5,5 0,0 Z"
         style="fill:#000000;fill-opacity:1;fill-rule:evenodd;stroke:#000000;stroke-width:1pt;stroke-opacity:1"
         transform="matrix(-0.8,0,0,-0.8,-10,0)" />
    </marker>
    <marker
       orient="auto"
       refY="0"
       refX="0"
       id="marker5203"
       style="overflow:visible">
      <path
         id="path5205"
         d="M 0,0 5,-5 -12.5,0 5,5 0,0 Z"
         style="fill:#000000;fill-opacity:1;fill-rule:evenodd;stroke:#000000;stroke-width:1pt;stroke-opacity:1"
         transform="matrix(-0.8,0,0,-0.8,-10,0)" />
    </marker>
    <marker
       style="overflow:visible"
       id="marker5541"
       refX="0"
       refY="0"
       orient="auto">
      <path
         transform="matrix(-0.8,0,0,-0.8,-10,0)"
         style="fill:#000000;fill-opacity:1;fill-rule:evenodd;stroke:#000000;stroke-width:1pt;stroke-opacity:1"
         d="M 0,0 5,-5 -12.5,0 5,5 0,0 Z"
         id="path5543" />
    </marker>
    <linearGradient
       gradientUnits="userSpaceOnUse"
       y2="381.53329"
       x2="4081.2812"
       y1="381.53329"
       x1="3983.3206"
       id="linearGradient5533"
       xlink:href="#red"
       gradientTransform="translate(-3141.5209,-68.081867)" />
    <linearGradient
       gradientUnits="userSpaceOnUse"
       y2="351.71454"
       x2="4180.9253"
       y1="351.71454"
       x1="4019.4543"
       id="linearGradient6657"
       xlink:href="#side"
       gradientTransform="translate(-3141.5209,-68.081867)" />
    <linearGradient
       y2="1092.722"
       x2="1934.082"
       y1="1092.722"
       x1="1734.1537"
       gradientTransform="rotate(90,1112.8427,84.179955)"
       gradientUnits="userSpaceOnUse"
       id="linearGradient4877"
       xlink:href="#side" />
  </defs>
  <metadata
     id="metadata16043">
    <rdf:RDF>
      <cc:Work
         rdf:about="">
        <dc:format>image/svg+xml</dc:format>
        <dc:type
           rdf:resource="http://purl.org/dc/dcmitype/StillImage" />
        <dc:title />
      </cc:Work>
    </rdf:RDF>
  </metadata>
  <path
     inkscape:connector-curvature="0"
     style="fill:url(#red);fill-opacity:1;stroke:none;stroke-width:1;stroke-linecap:round;stroke-linejoin:round;stroke-miterlimit:4;stroke-dasharray:none;stroke-dashoffset:0;stroke-opacity:1"
     d="m 137.54888,705.41919 h 100 v 200 h -100 z"
     id="rect4873" />
  <path
     inkscape:connector-curvature="0"
     style="fill:url(#linearGradient4877);fill-opacity:1;stroke:none;stroke-width:1;stroke-linecap:round;stroke-linejoin:round;stroke-miterlimit:4;stroke-dasharray:none;stroke-dashoffset:0;stroke-opacity:1"
     d="M 137.54888,705.49085 V 905.4192 H 71.05218 V 705.49085 Z"
     id="rect4875" />
  <path
     inkscape:connector-curvature="0"
     style="fill:none;fill-rule:evenodd;stroke:#000000;stroke-width:1px;stroke-linecap:butt;stroke-linejoin:miter;stroke-opacity:1"
     d="m 643.01457,170.91098 240.6684,418.49447"
     id="path5181" />
  <path
     inkscape:connector-curvature="0"
     style="fill:url(#linearGradient6657);fill-opacity:1;fill-rule:evenodd;stroke:none;stroke-width:1px;stroke-linecap:butt;stroke-linejoin:miter;stroke-opacity:1"
     d="m 842.22317,107.84995 82.7445,10.38758 72.4689,125.47258 -72.6634,7.12077 z"
     id="path6651" />
  <path
     inkscape:connector-curvature="0"
     style="fill:url(#linearGradient5533);fill-opacity:1;fill-rule:evenodd;stroke:none;stroke-width:1px;stroke-linecap:butt;stroke-linejoin:miter;stroke-opacity:1"
     d="m 793.23707,222.66439 72.2965,125.75715 59.2397,-97.59056 -82.5501,-142.98102 z"
     id="path5527" />
  <path
     inkscape:connector-curvature="0"
     style="fill:none;fill-rule:evenodd;stroke:#000000;stroke-width:1px;stroke-linecap:butt;stroke-linejoin:miter;stroke-opacity:1;marker-end:url(#marker5541)"
     d="m 237.54887,905.41917 425.2647,-699.15285 179.4096,-98.41637"
     id="path5183" />
  <path
     inkscape:connector-curvature="0"
     style="fill:none;fill-rule:evenodd;stroke:#000000;stroke-width:1;stroke-linecap:butt;stroke-linejoin:miter;stroke-miterlimit:4;stroke-dasharray:1, 1;stroke-dashoffset:0;stroke-opacity:1;marker-end:url(#marker5203)"
     d="m 237.54887,705.41917 508.2237,-355.94069 179.0007,-98.6475"
     id="path5189" />
  <path
     inkscape:connector-curvature="0"
     style="fill:none;fill-rule:evenodd;stroke:#000000;stroke-width:1px;stroke-linecap:butt;stroke-linejoin:miter;stroke-opacity:1;marker-end:url(#marker5869)"
     d="m 137.54887,905.41917 565.4292,-630.68379 90.259,-52.07099"
     id="path5191" />
  <path
     inkscape:connector-curvature="0"
     style="fill:none;fill-rule:evenodd;stroke:#000000;stroke-width:1;stroke-linecap:butt;stroke-linejoin:miter;stroke-miterlimit:4;stroke-dasharray:1, 1;stroke-dashoffset:0;stroke-opacity:1;marker-end:url(#marker11073)"
     d="m 137.54887,705.49082 637.5689,-304.86765 90.4158,-52.20163"
     id="path5193" />
  <path
     inkscape:connector-curvature="0"
     style="fill:none;fill-rule:evenodd;stroke:#000000;stroke-width:1;stroke-linecap:butt;stroke-linejoin:miter;stroke-miterlimit:4;stroke-dasharray:1, 1;stroke-dashoffset:0;stroke-opacity:1;marker-end:url(#marker6311)"
     d="m 71.05227,705.49082 712.9459,-285.94801 149.7596,-86.14449"
     id="path6645" />
  <path
     inkscape:connector-curvature="0"
     style="fill:url(#linearGradient14043);fill-opacity:1;fill-rule:evenodd;stroke:none;stroke-width:1px;stroke-linecap:butt;stroke-linejoin:miter;stroke-opacity:1"
     d="m 997.43657,243.71011 -63.6788,89.68823 -68.2242,15.0232 58.8878,-97.39665 z"
     id="path14037" />
  <path
     inkscape:connector-curvature="0"
     id="path6661"
     d="m 335.54147,348.89374 208.1415,360.51171"
     style="fill:none;fill-rule:evenodd;stroke:#000000;stroke-width:1px;stroke-linecap:butt;stroke-linejoin:miter;stroke-opacity:1" />
  <path
     inkscape:connector-curvature="0"
     style="fill:url(#linearGradient11465);fill-opacity:1;stroke:none;stroke-width:1;stroke-linecap:round;stroke-linejoin:round;stroke-miterlimit:4;stroke-dasharray:none;stroke-dashoffset:0;stroke-opacity:1"
     d="m 1155.3458,517.20139 100.7034,172.71412 -57.4451,33.49423 -100.7035,-172.71412 z"
     id="rect11461" />
  <path
     inkscape:connector-curvature="0"
     style="fill:url(#red);fill-opacity:1;stroke:none;stroke-width:1;stroke-linecap:round;stroke-linejoin:round;stroke-miterlimit:4;stroke-dasharray:none;stroke-dashoffset:0;stroke-opacity:1"
     d="m 1011.5123,601.06555 86.388,-50.36975 100.7395,172.77602 -86.388,50.36975 z"
     id="rect11463" />
  <path
     inkscape:connector-curvature="0"
     style="opacity:0.40100002;fill:url(#linearGradient13471);fill-opacity:1;stroke:none;stroke-width:1;stroke-linecap:round;stroke-linejoin:round;stroke-miterlimit:4;stroke-dasharray:none;stroke-dashoffset:0;stroke-opacity:1"
     d="M 237.54888,705.49085 V 905.4192 h -66.4967 V 705.49085 Z"
     id="rect13469" />
  <path
     inkscape:connector-curvature="0"
     style="fill:none;fill-rule:evenodd;stroke:#000000;stroke-width:1;stroke-linecap:butt;stroke-linejoin:miter;stroke-miterlimit:4;stroke-dasharray:1, 1;stroke-dashoffset:0;stroke-opacity:1;marker-end:url(#marker13547)"
     d="M 172.05227,707.49082 763.11777,379.62316 997.44327,243.70625"
     id="path13473" />
  <path
     inkscape:connector-curvature="0"
     style="fill:none;fill-rule:evenodd;stroke:#000000;stroke-width:1px;stroke-linecap:butt;stroke-linejoin:miter;stroke-opacity:1;marker-end:url(#marker14089)"
     d="M 171.05217,905.41917 690.59097,253.64089 924.98807,118.22572"
     id="path14081" />
  <path
     inkscape:connector-curvature="0"
     style="opacity:0.45199998;fill:url(#linearGradient14635);fill-opacity:1;stroke:none;stroke-width:1;stroke-linecap:round;stroke-linejoin:round;stroke-miterlimit:4;stroke-dasharray:none;stroke-dashoffset:0;stroke-opacity:1"
     d="M 1068.9576,567.57127 1169.661,740.28539 1112.2158,773.77962 1011.5124,601.0655 Z"
     id="rect14633" />
  <g
     id="g15229"
     transform="rotate(-150,2437.0071,981.48871)">
    <path
       inkscape:connector-curvature="0"
       style="fill:url(#linearGradient15234);fill-opacity:1;fill-rule:evenodd;stroke:none;stroke-width:1px;stroke-linecap:butt;stroke-linejoin:miter;stroke-opacity:1"
       d="m 3983.7441,175.93182 82.7445,10.38758 72.4689,125.47258 -72.6634,7.12077 z"
       id="path15223" />
    <path
       inkscape:connector-curvature="0"
       style="fill:url(#linearGradient15236);fill-opacity:1;fill-rule:evenodd;stroke:none;stroke-width:1px;stroke-linecap:butt;stroke-linejoin:miter;stroke-opacity:1"
       d="m 3934.758,290.74626 72.2965,125.75715 59.2397,-97.59056 -82.5501,-142.98102 z"
       id="path15225" />
    <path
       inkscape:connector-curvature="0"
       style="fill:url(#linearGradient15238);fill-opacity:1;fill-rule:evenodd;stroke:none;stroke-width:1px;stroke-linecap:butt;stroke-linejoin:miter;stroke-opacity:1"
       d="m 4138.9575,311.79198 -63.6788,89.68823 -68.2242,15.0232 58.8878,-97.39665 z"
       id="path15227" />
  </g>
  <path
     inkscape:connector-curvature="0"
     style="fill:none;fill-rule:evenodd;stroke:#000000;stroke-width:1;stroke-linecap:butt;stroke-linejoin:miter;stroke-miterlimit:4;stroke-dasharray:2, 4;stroke-dashoffset:0;stroke-opacity:1;marker-end:url(#marker15248)"
     d="M 1112.2158,773.77983 865.53357,348.42154"
     id="path15240" />
  <path
     inkscape:connector-curvature="0"
     style="fill:none;fill-rule:evenodd;stroke:#000000;stroke-width:1;stroke-linecap:butt;stroke-linejoin:miter;stroke-miterlimit:4;stroke-dasharray:2, 4;stroke-dashoffset:0;stroke-opacity:1;marker-end:url(#marker15620)"
     d="M 1068.9577,567.57132 933.75767,333.39835"
     id="path15612" />
  <path
     inkscape:connector-curvature="0"
     style="fill:none;fill-rule:evenodd;stroke:#000000;stroke-width:1;stroke-linecap:butt;stroke-linejoin:miter;stroke-miterlimit:4;stroke-dasharray:2, 4;stroke-dashoffset:0;stroke-opacity:1;marker-end:url(#marker15998)"
     d="M 1097.9007,550.69561 924.77317,250.83088"
     id="path15990" />
  <path
     inkscape:connector-curvature="0"
     style="fill:none;fill-rule:evenodd;stroke:#000000;stroke-width:1;stroke-linecap:butt;stroke-linejoin:miter;stroke-miterlimit:4;stroke-dasharray:2, 4;stroke-dashoffset:0;stroke-opacity:1;marker-end:url(#marker16382)"
     d="M 1155.3458,517.20144 997.44327,243.70625"
     id="path16374" />
  <path
     inkscape:connector-curvature="0"
     style="fill:none;fill-rule:evenodd;stroke:#000000;stroke-width:5.80000019;stroke-linecap:butt;stroke-linejoin:miter;stroke-miterlimit:4;stroke-dasharray:none;stroke-opacity:1;marker-end:url(#marker16832)"
     d="m 267.47907,491.28033 c 7,2 142.9558,51.64079 142.9558,51.64079"
     id="path16824" />
  <path
     inkscape:connector-curvature="0"
     id="path17488"
     d="m 403.58477,197.81846 c 21.5417,-76.52506 90.4485,-126.734072 202.6602,-52.36332"
     style="fill:none;fill-rule:evenodd;stroke:#000000;stroke-width:5.80000019;stroke-linecap:butt;stroke-linejoin:miter;stroke-miterlimit:4;stroke-dasharray:none;stroke-opacity:1;marker-end:url(#marker17490)" />
  <path
     inkscape:connector-curvature="0"
     style="fill:none;fill-rule:evenodd;stroke:#000000;stroke-width:5.80000019;stroke-linecap:butt;stroke-linejoin:miter;stroke-miterlimit:4;stroke-dasharray:none;stroke-opacity:1;marker-end:url(#marker21522)"
     d="M 999.58477,153.81846 C 1156.9535,20.570978 1399.0062,60.786778 1424.9674,236.5953 c 12.9806,87.90426 -49.0175,183.83184 -113.2603,235.15079 -64.2428,51.31895 -159.9616,26.56681 -158.7284,-32.50096 1.2332,-59.06777 109.9807,-81.8512 181.4519,-24.78269 71.4712,57.06851 140.4347,162.52651 134.4058,265.55419 C 1456.7787,886.072 1246.692,853.36245 902.24497,829.45514"
     id="path21520" />
  <g
     aria-label="Перспектива (одно-/двоточкова)"
     style="font-style:normal;font-variant:normal;font-weight:normal;font-stretch:normal;font-size:35.00000381px;line-height:30.50787735px;font-family:'Liberation Serif';-inkscape-font-specification:'Liberation Serif';text-align:center;letter-spacing:0px;word-spacing:0px;text-anchor:middle;fill:none;stroke:#000000;stroke-width:0.93749994px;stroke-linecap:butt;stroke-linejoin:miter;stroke-opacity:1"
     id="text13833">
    <path
       d="m 481.21775,952.45667 v -0.90577 l 2.93945,-0.46142 v -20.2002 l -2.93945,-0.44434 v -0.90576 h 23.24219 v 0.90576 l -2.93946,0.44434 v 20.2002 l 2.93946,0.46142 v 0.90577 h -9.16016 v -0.90577 l 2.93945,-0.46142 v -20.01221 h -10.78369 v 20.01221 l 2.93945,0.46142 v 0.90577 z"
       style="text-align:center;text-anchor:middle;fill:#000000;fill-opacity:1;stroke:none;stroke-width:0.93749994px"
       id="path22301" />
    <path
       d="m 509.94578,944.37317 v 0.30762 q 0,2.35839 0.51269,3.67431 0.52979,1.29883 1.60645,1.98242 1.09375,0.6836 2.854,0.6836 0.92285,0 2.1875,-0.15381 1.26465,-0.15381 2.08496,-0.3418 v 0.95703 q -0.82031,0.52979 -2.23877,0.92286 -1.40136,0.39306 -2.87109,0.39306 -3.74268,0 -5.48584,-2.0166 -1.72608,-2.0166 -1.72608,-6.47705 0,-4.2041 1.76026,-6.27197 1.76025,-2.06788 5.02441,-2.06788 6.16944,0 6.16944,7.00684 v 1.40137 z m 3.70849,-7.04102 q -1.77734,0 -2.73437,1.43555 -0.93994,1.43555 -0.93994,4.23828 h 6.87011 q 0,-3.05908 -0.78613,-4.35791 -0.78613,-1.31592 -2.40967,-1.31592 z"
       style="text-align:center;text-anchor:middle;fill:#000000;fill-opacity:1;stroke:none;stroke-width:0.93749994px"
       id="path22303" />
    <path
       d="m 523.61765,937.5885 -1.82861,-0.42725 v -0.76904 h 4.51172 l 0.0342,0.93994 q 0.71777,-0.61523 1.91406,-0.99121 1.21338,-0.37598 2.46094,-0.37598 3.07617,0 4.75098,2.13623 1.69189,2.13624 1.69189,6.13526 0,4.08447 -1.8457,6.32324 -1.82862,2.23877 -5.29785,2.23877 -1.93116,0 -3.67432,-0.37597 0.10254,1.23046 0.10254,1.93115 v 4.34082 l 2.80273,0.41015 v 0.80323 h -7.65625 v -0.80323 l 2.03369,-0.41015 z m 10.45899,6.64795 q 0,-3.28125 -1.07666,-4.87061 -1.05957,-1.60644 -3.22998,-1.60644 -1.99951,0 -3.33252,0.56396 v 12.83448 q 1.52099,0.29052 3.33252,0.29052 4.30664,0 4.30664,-7.21191 z"
       style="text-align:center;text-anchor:middle;fill:#000000;fill-opacity:1;stroke:none;stroke-width:0.93749994px"
       id="path22305" />
    <path
       d="m 552.97801,951.48254 q -0.8374,0.61524 -2.30713,0.97413 -1.46973,0.34179 -3.00781,0.34179 -7.81006,0 -7.81006,-8.49365 0,-4.01612 1.98242,-6.16944 1.99951,-2.17041 5.70801,-2.17041 2.30713,0 5.0415,0.52979 v 4.47754 H 551.645 l -0.73486,-2.83692 q -1.41846,-0.80322 -3.40088,-0.80322 -4.58008,0 -4.58008,6.97266 0,3.62305 1.38428,5.17822 1.40137,1.53809 4.32373,1.53809 2.49512,0 4.34082,-0.56397 z"
       style="text-align:center;text-anchor:middle;fill:#000000;fill-opacity:1;stroke:none;stroke-width:0.93749994px"
       id="path22307" />
    <path
       d="m 556.80613,937.5885 -2.13623,-0.42725 v -0.76904 h 17.27784 v 0.76904 l -1.94825,0.42725 v 13.67188 l 1.94825,0.42724 v 0.76905 h -6.92139 v -0.76905 l 2.13623,-0.42724 v -13.44971 h -7.51953 v 13.44971 l 1.94824,0.42724 v 0.76905 h -6.92139 v -0.76905 l 2.13623,-0.42724 z"
       style="text-align:center;text-anchor:middle;fill:#000000;fill-opacity:1;stroke:none;stroke-width:0.93749994px"
       id="path22309" />
    <path
       d="m 577.21141,944.37317 v 0.30762 q 0,2.35839 0.51269,3.67431 0.52979,1.29883 1.60645,1.98242 1.09375,0.6836 2.854,0.6836 0.92285,0 2.1875,-0.15381 1.26465,-0.15381 2.08496,-0.3418 v 0.95703 q -0.82031,0.52979 -2.23877,0.92286 -1.40136,0.39306 -2.87109,0.39306 -3.74268,0 -5.48584,-2.0166 -1.72607,-2.0166 -1.72607,-6.47705 0,-4.2041 1.76025,-6.27197 1.76025,-2.06788 5.02441,-2.06788 6.16944,0 6.16944,7.00684 v 1.40137 z m 3.70849,-7.04102 q -1.77734,0 -2.73437,1.43555 -0.93994,1.43555 -0.93994,4.23828 h 6.87012 q 0,-3.05908 -0.78614,-4.35791 -0.78613,-1.31592 -2.40967,-1.31592 z"
       style="text-align:center;text-anchor:middle;fill:#000000;fill-opacity:1;stroke:none;stroke-width:0.93749994px"
       id="path22311" />
    <path
       d="m 591.05419,937.5885 -2.13623,-0.42725 v -0.76904 h 6.92139 v 0.76904 l -1.94825,0.42725 v 7.10938 l 6.5625,-7.0752 -1.6748,-0.46143 v -0.76904 h 5.67383 v 0.76904 l -1.99951,0.39307 -4.58008,4.68262 5.8789,9.05762 1.57227,0.39306 v 0.76905 h -6.40869 v -0.76905 l 1.46972,-0.42724 -4.40918,-6.92139 -2.08496,1.77734 v 5.14405 l 1.94825,0.42724 v 0.76905 h -6.92139 v -0.76905 l 2.13623,-0.42724 z"
       style="text-align:center;text-anchor:middle;fill:#000000;fill-opacity:1;stroke:none;stroke-width:0.93749994px"
       id="path22313" />
    <path
       d="m 619.61132,936.39221 v 4.58008 h -0.93994 l -0.73487,-2.83692 q -1.89697,-0.3247 -3.40088,-0.3247 h -0.64941 v 13.44971 l 2.29004,0.42724 v 0.76905 h -7.60498 v -0.76905 l 2.47803,-0.42724 v -13.44971 h -0.63233 q -1.5039,0 -3.40088,0.3247 l -0.73486,2.83692 h -0.93994 v -4.58008 z"
       style="text-align:center;text-anchor:middle;fill:#000000;fill-opacity:1;stroke:none;stroke-width:0.93749994px"
       id="path22315" />
    <path
       d="m 622.90966,937.5885 -2.13623,-0.42725 v -0.76904 h 6.92138 v 0.76904 l -1.94824,0.42725 v 10.1001 l 7.51953,-8.13477 v -1.96533 l -2.13623,-0.42725 v -0.76904 h 6.92139 v 0.76904 l -1.94824,0.42725 v 13.67188 l 1.94824,0.42724 v 0.76905 h -6.92139 v -0.76905 l 2.13623,-0.42724 v -9.7754 l -7.51953,8.13477 v 1.64063 l 1.94824,0.42724 v 0.76905 h -6.92138 v -0.76905 l 2.13623,-0.42724 z"
       style="text-align:center;text-anchor:middle;fill:#000000;fill-opacity:1;stroke:none;stroke-width:0.93749994px"
       id="path22317" />
    <path
       d="m 639.5039,952.45667 v -0.76905 l 2.13623,-0.42724 V 937.5885 l -2.13623,-0.42725 v -0.76904 h 6.87011 q 3.77686,0 5.33204,0.93994 1.57226,0.93994 1.57226,2.93946 0,1.64062 -0.93994,2.52929 -0.92285,0.88867 -2.63184,1.28174 v 0.13672 q 2.17041,0.23926 3.33252,1.11084 1.16211,0.87158 1.16211,2.61475 0,2.40966 -1.76025,3.46923 -1.74317,1.04249 -5.67383,1.04249 z m 7.00683,-1.36719 q 2.5293,0 3.57178,-0.75196 1.04248,-0.75195 1.04248,-2.46093 0,-1.62354 -1.11084,-2.30713 -1.09375,-0.70069 -3.72559,-0.70069 h -1.81152 v 6.22071 z m -2.03369,-7.58789 h 1.81152 q 2.05079,0 2.97364,-0.6836 0.93994,-0.68359 0.93994,-2.32422 0,-1.38427 -0.95703,-2.05078 -0.93994,-0.68359 -3.02491,-0.68359 h -1.74316 z"
       style="text-align:center;text-anchor:middle;fill:#000000;fill-opacity:1;stroke:none;stroke-width:0.93749994px"
       id="path22319" />
    <path
       d="m 662.8828,936.03332 q 2.63184,0 3.86231,1.07666 1.24756,1.07666 1.24756,3.29834 v 10.85206 l 1.99951,0.42724 v 0.76905 H 665.583 l -0.32471,-1.60645 q -1.94824,1.94824 -4.97314,1.94824 -4.11866,0 -4.11866,-4.78515 0,-1.60645 0.61524,-2.64893 0.63232,-1.05957 1.99951,-1.60645 1.36719,-0.56396 3.96484,-0.61523 l 2.40967,-0.0684 v -2.51221 q 0,-1.65771 -0.61523,-2.44385 -0.59815,-0.78613 -1.8628,-0.78613 -1.70898,0 -3.12744,0.80322 l -0.58105,1.99952 h -0.95703 v -3.50342 q 2.76855,-0.59815 4.8706,-0.59815 z m 2.27295,8.23731 -2.23877,0.0684 q -2.29004,0.0855 -3.11035,0.88867 -0.80322,0.80322 -0.80322,2.68311 0,3.00781 2.44385,3.00781 1.1621,0 1.99951,-0.25635 0.85449,-0.27344 1.70898,-0.68359 z"
       style="text-align:center;text-anchor:middle;fill:#000000;fill-opacity:1;stroke:none;stroke-width:0.93749994px"
       id="path22321" />
    <path
       d="m 684.04003,944.01428 q 0,4.44336 0.59814,7.09229 0.59815,2.63183 1.87989,4.44336 1.28173,1.81152 3.21289,2.92236 v 1.43555 q -3.38379,-1.79444 -5.29785,-3.93067 -1.89698,-2.11914 -2.80274,-4.99023 -0.88867,-2.88819 -0.88867,-6.97266 0,-4.06738 0.88867,-6.92139 0.88867,-2.87109 2.78565,-4.99023 1.89697,-2.11914 5.31494,-3.93067 v 1.43555 q -2.08496,1.19629 -3.31543,3.07617 -1.23047,1.8628 -1.81153,4.35791 -0.56396,2.49512 -0.56396,6.97266 z"
       style="text-align:center;text-anchor:middle;fill:#000000;fill-opacity:1;stroke:none;stroke-width:0.93749994px"
       id="path22323" />
    <path
       d="m 707.06006,944.33899 q 0,8.45947 -7.51953,8.45947 -3.62304,0 -5.46875,-2.17041 -1.8457,-2.17041 -1.8457,-6.28906 0,-4.06738 1.8457,-6.22071 1.84571,-2.15332 5.60547,-2.15332 3.65723,0 5.52002,2.11914 1.86279,2.10206 1.86279,6.25489 z m -3.07617,0 q 0,-3.69141 -1.07666,-5.34912 -1.07666,-1.65772 -3.3667,-1.65772 -2.23877,0 -3.24707,1.58936 -0.99121,1.58935 -0.99121,5.41748 0,3.87939 1.0083,5.50293 1.02539,1.60644 3.22998,1.60644 2.25586,0 3.34961,-1.6748 1.09375,-1.67481 1.09375,-5.43457 z"
       style="text-align:center;text-anchor:middle;fill:#000000;fill-opacity:1;stroke:none;stroke-width:0.93749994px"
       id="path22325" />
    <path
       d="m 711.33252,937.16125 v -0.76904 h 12.50977 v 0.76904 l -1.94824,0.42725 v 13.67188 l 2.49512,0.27343 -0.29053,7.69043 h -1.11084 l -1.48682,-6.76757 h -11.24512 l -1.48681,6.76757 h -1.11084 l -0.29053,-7.69043 2.5293,-0.3247 q 1.38427,-2.63184 2.34131,-6.16944 0.97412,-3.55469 1.24755,-7.45117 z m 0.35889,13.87696 h 7.36572 V 937.5885 h -4.10156 q -0.22217,3.74268 -1.07666,7.24609 -0.8374,3.48633 -2.1875,6.20362 z"
       style="text-align:center;text-anchor:middle;fill:#000000;fill-opacity:1;stroke:none;stroke-width:0.93749994px"
       id="path22327" />
    <path
       d="m 727.97803,937.5885 -2.13623,-0.42725 v -0.76904 h 6.92139 v 0.76904 l -1.94824,0.42725 v 5.94727 h 7.51953 v -5.94727 l -2.13623,-0.42725 v -0.76904 h 6.92139 v 0.76904 l -1.94825,0.42725 v 13.67188 l 1.94825,0.42724 v 0.76905 h -6.92139 v -0.76905 l 2.13623,-0.42724 v -6.30616 h -7.51953 v 6.30616 l 1.94824,0.42724 v 0.76905 h -6.92139 v -0.76905 l 2.13623,-0.42724 z"
       style="text-align:center;text-anchor:middle;fill:#000000;fill-opacity:1;stroke:none;stroke-width:0.93749994px"
       id="path22329" />
    <path
       d="m 760.10694,944.33899 q 0,8.45947 -7.51953,8.45947 -3.62305,0 -5.46875,-2.17041 -1.84571,-2.17041 -1.84571,-6.28906 0,-4.06738 1.84571,-6.22071 1.8457,-2.15332 5.60547,-2.15332 3.65722,0 5.52002,2.11914 1.86279,2.10206 1.86279,6.25489 z m -3.07617,0 q 0,-3.69141 -1.07666,-5.34912 -1.07666,-1.65772 -3.3667,-1.65772 -2.23877,0 -3.24707,1.58936 -0.99121,1.58935 -0.99121,5.41748 0,3.87939 1.0083,5.50293 1.02539,1.60644 3.22998,1.60644 2.25586,0 3.34961,-1.6748 1.09375,-1.67481 1.09375,-5.43457 z"
       style="text-align:center;text-anchor:middle;fill:#000000;fill-opacity:1;stroke:none;stroke-width:0.93749994px"
       id="path22331" />
    <path
       d="m 762.73877,945.51819 v -2.61475 h 9.0918 v 2.61475 z"
       style="text-align:center;text-anchor:middle;fill:#000000;fill-opacity:1;stroke:none;stroke-width:0.93749994px"
       id="path22333" />
    <path
       d="m 774.83838,952.79846 h -1.70898 l 8.04932,-23.41309 h 1.6748 z"
       style="text-align:center;text-anchor:middle;fill:#000000;fill-opacity:1;stroke:none;stroke-width:0.93749994px"
       id="path22335" />
    <path
       d="m 786.80127,937.16125 v -0.76904 h 12.50977 v 0.76904 l -1.94824,0.42725 v 13.67188 l 2.49512,0.27343 -0.29053,7.69043 h -1.11084 l -1.48682,-6.76757 h -11.24512 l -1.48681,6.76757 h -1.11084 l -0.29053,-7.69043 2.5293,-0.3247 q 1.38427,-2.63184 2.34131,-6.16944 0.97412,-3.55469 1.24755,-7.45117 z m 0.35889,13.87696 h 7.36572 V 937.5885 h -4.10156 q -0.22217,3.74268 -1.07666,7.24609 -0.8374,3.48633 -2.1875,6.20362 z"
       style="text-align:center;text-anchor:middle;fill:#000000;fill-opacity:1;stroke:none;stroke-width:0.93749994px"
       id="path22337" />
    <path
       d="m 801.31055,952.45667 v -0.76905 l 2.13623,-0.42724 V 937.5885 l -2.13623,-0.42725 v -0.76904 h 6.87012 q 3.77686,0 5.33203,0.93994 1.57227,0.93994 1.57227,2.93946 0,1.64062 -0.93994,2.52929 -0.92286,0.88867 -2.63184,1.28174 v 0.13672 q 2.17041,0.23926 3.33252,1.11084 1.16211,0.87158 1.16211,2.61475 0,2.40966 -1.76026,3.46923 -1.74316,1.04249 -5.67382,1.04249 z m 7.00684,-1.36719 q 2.5293,0 3.57178,-0.75196 1.04248,-0.75195 1.04248,-2.46093 0,-1.62354 -1.11084,-2.30713 -1.09375,-0.70069 -3.72559,-0.70069 h -1.81152 v 6.22071 z m -2.03369,-7.58789 h 1.81152 q 2.05078,0 2.97363,-0.6836 0.93994,-0.68359 0.93994,-2.32422 0,-1.38427 -0.95703,-2.05078 -0.93994,-0.68359 -3.0249,-0.68359 h -1.74316 z"
       style="text-align:center;text-anchor:middle;fill:#000000;fill-opacity:1;stroke:none;stroke-width:0.93749994px"
       id="path22339" />
    <path
       d="m 833.18311,944.33899 q 0,8.45947 -7.51953,8.45947 -3.62305,0 -5.46875,-2.17041 -1.8457,-2.17041 -1.8457,-6.28906 0,-4.06738 1.8457,-6.22071 1.8457,-2.15332 5.60547,-2.15332 3.65723,0 5.52002,2.11914 1.86279,2.10206 1.86279,6.25489 z m -3.07617,0 q 0,-3.69141 -1.07666,-5.34912 -1.07666,-1.65772 -3.3667,-1.65772 -2.23877,0 -3.24707,1.58936 -0.99121,1.58935 -0.99121,5.41748 0,3.87939 1.0083,5.50293 1.02539,1.60644 3.22998,1.60644 2.25586,0 3.34961,-1.6748 1.09375,-1.67481 1.09375,-5.43457 z"
       style="text-align:center;text-anchor:middle;fill:#000000;fill-opacity:1;stroke:none;stroke-width:0.93749994px"
       id="path22341" />
    <path
       d="m 848.82032,936.39221 v 4.58008 h -0.93994 l -0.73487,-2.83692 q -1.89697,-0.3247 -3.40088,-0.3247 h -0.64941 v 13.44971 l 2.29004,0.42724 v 0.76905 h -7.60498 v -0.76905 l 2.47803,-0.42724 v -13.44971 h -0.63233 q -1.5039,0 -3.40088,0.3247 l -0.73486,2.83692 h -0.93994 v -4.58008 z"
       style="text-align:center;text-anchor:middle;fill:#000000;fill-opacity:1;stroke:none;stroke-width:0.93749994px"
       id="path22343" />
    <path
       d="m 865.03858,944.33899 q 0,8.45947 -7.51953,8.45947 -3.62305,0 -5.46875,-2.17041 -1.84571,-2.17041 -1.84571,-6.28906 0,-4.06738 1.84571,-6.22071 1.8457,-2.15332 5.60547,-2.15332 3.65722,0 5.52002,2.11914 1.86279,2.10206 1.86279,6.25489 z m -3.07617,0 q 0,-3.69141 -1.07666,-5.34912 -1.07666,-1.65772 -3.3667,-1.65772 -2.23877,0 -3.24707,1.58936 -0.99121,1.58935 -0.99121,5.41748 0,3.87939 1.0083,5.50293 1.02539,1.60644 3.22998,1.60644 2.25586,0 3.34961,-1.6748 1.09375,-1.67481 1.09375,-5.43457 z"
       style="text-align:center;text-anchor:middle;fill:#000000;fill-opacity:1;stroke:none;stroke-width:0.93749994px"
       id="path22345" />
    <path
       d="m 870.98584,943.02307 q 0,1.05957 0.64942,1.74316 0.6665,0.6836 1.81152,0.6836 1.72608,0 4.01612,-0.56397 v -7.29736 l -2.13623,-0.42725 v -0.76904 h 6.92138 v 0.76904 l -1.94824,0.42725 v 13.67188 l 1.94824,0.42724 v 0.76905 h -6.92138 v -0.76905 l 2.13623,-0.42724 v -5.41749 q -1.8628,0.90577 -3.09327,1.26465 -1.21337,0.3418 -2.20459,0.3418 -1.93115,0 -2.97363,-1.12793 -1.04248,-1.12793 -1.04248,-3.24707 v -5.48584 l -2.13623,-0.42725 v -0.76904 h 6.92139 v 0.76904 l -1.94825,0.42725 z"
       style="text-align:center;text-anchor:middle;fill:#000000;fill-opacity:1;stroke:none;stroke-width:0.93749994px"
       id="path22347" />
    <path
       d="m 885.88819,937.5885 -2.13623,-0.42725 v -0.76904 h 6.92139 v 0.76904 l -1.94825,0.42725 v 7.10938 l 6.5625,-7.0752 -1.6748,-0.46143 v -0.76904 h 5.67383 v 0.76904 l -1.99951,0.39307 -4.58008,4.68262 5.8789,9.05762 1.57227,0.39306 v 0.76905 h -6.40869 v -0.76905 l 1.46972,-0.42724 -4.40918,-6.92139 -2.08496,1.77734 v 5.14405 l 1.94825,0.42724 v 0.76905 h -6.92139 v -0.76905 l 2.13623,-0.42724 z"
       style="text-align:center;text-anchor:middle;fill:#000000;fill-opacity:1;stroke:none;stroke-width:0.93749994px"
       id="path22349" />
    <path
       d="m 914.5308,944.33899 q 0,8.45947 -7.51953,8.45947 -3.62305,0 -5.46875,-2.17041 -1.84571,-2.17041 -1.84571,-6.28906 0,-4.06738 1.84571,-6.22071 1.8457,-2.15332 5.60547,-2.15332 3.65722,0 5.52002,2.11914 1.86279,2.10206 1.86279,6.25489 z m -3.07617,0 q 0,-3.69141 -1.07666,-5.34912 -1.07666,-1.65772 -3.3667,-1.65772 -2.23877,0 -3.24707,1.58936 -0.99122,1.58935 -0.99122,5.41748 0,3.87939 1.00831,5.50293 1.02539,1.60644 3.22998,1.60644 2.25586,0 3.34961,-1.6748 1.09375,-1.67481 1.09375,-5.43457 z"
       style="text-align:center;text-anchor:middle;fill:#000000;fill-opacity:1;stroke:none;stroke-width:0.93749994px"
       id="path22351" />
    <path
       d="m 916.49613,952.45667 v -0.76905 l 2.13623,-0.42724 V 937.5885 l -2.13623,-0.42725 v -0.76904 h 6.87012 q 3.77685,0 5.33203,0.93994 1.57226,0.93994 1.57226,2.93946 0,1.64062 -0.93994,2.52929 -0.92285,0.88867 -2.63183,1.28174 v 0.13672 q 2.17041,0.23926 3.33252,1.11084 1.16211,0.87158 1.16211,2.61475 0,2.40966 -1.76026,3.46923 -1.74316,1.04249 -5.67383,1.04249 z m 7.00684,-1.36719 q 2.52929,0 3.57177,-0.75196 1.04248,-0.75195 1.04248,-2.46093 0,-1.62354 -1.11084,-2.30713 -1.09375,-0.70069 -3.72558,-0.70069 h -1.81153 v 6.22071 z m -2.0337,-7.58789 h 1.81153 q 2.05078,0 2.97363,-0.6836 0.93994,-0.68359 0.93994,-2.32422 0,-1.38427 -0.95703,-2.05078 -0.93994,-0.68359 -3.0249,-0.68359 h -1.74317 z"
       style="text-align:center;text-anchor:middle;fill:#000000;fill-opacity:1;stroke:none;stroke-width:0.93749994px"
       id="path22353" />
    <path
       d="m 939.87504,936.03332 q 2.63183,0 3.8623,1.07666 1.24756,1.07666 1.24756,3.29834 v 10.85206 l 1.99951,0.42724 v 0.76905 h -4.40918 l -0.32471,-1.60645 q -1.94824,1.94824 -4.97314,1.94824 -4.11865,0 -4.11865,-4.78515 0,-1.60645 0.61523,-2.64893 0.63233,-1.05957 1.99951,-1.60645 1.36719,-0.56396 3.96485,-0.61523 l 2.40967,-0.0684 v -2.51221 q 0,-1.65771 -0.61524,-2.44385 -0.59814,-0.78613 -1.86279,-0.78613 -1.70899,0 -3.12744,0.80322 l -0.58106,1.99952 h -0.95703 v -3.50342 q 2.76855,-0.59815 4.87061,-0.59815 z m 2.27295,8.23731 -2.23877,0.0684 q -2.29004,0.0855 -3.11036,0.88867 -0.80322,0.80322 -0.80322,2.68311 0,3.00781 2.44385,3.00781 1.16211,0 1.99951,-0.25635 0.85449,-0.27344 1.70899,-0.68359 z"
       style="text-align:center;text-anchor:middle;fill:#000000;fill-opacity:1;stroke:none;stroke-width:0.93749994px"
       id="path22355" />
    <path
       d="m 948.57377,959.90784 v -1.43555 q 1.93115,-1.11084 3.21289,-2.93945 1.28173,-1.81153 1.87988,-4.44336 0.59814,-2.64893 0.59814,-7.0752 0,-4.47754 -0.58105,-6.97266 -0.56397,-2.49511 -1.79443,-4.35791 -1.23047,-1.87988 -3.31543,-3.07617 v -1.43555 q 3.41796,1.82862 5.31494,3.94776 1.89697,2.10205 2.78564,4.97314 0.88867,2.85401 0.88867,6.92139 0,4.06738 -0.88867,6.95557 -0.88867,2.87109 -2.78564,4.99023 -1.89698,2.11914 -5.31494,3.94776 z"
       style="text-align:center;text-anchor:middle;fill:#000000;fill-opacity:1;stroke:none;stroke-width:0.93749994px"
       id="path22357" />
  </g>
  <g
     aria-label="Проекція"
     style="font-style:normal;font-variant:normal;font-weight:normal;font-stretch:normal;font-size:35.00000381px;line-height:30.50787735px;font-family:'Liberation Serif';-inkscape-font-specification:'Liberation Serif';text-align:center;letter-spacing:0px;word-spacing:0px;text-anchor:middle;fill:none;stroke:#000000;stroke-width:0.93749994px;stroke-linecap:butt;stroke-linejoin:miter;stroke-opacity:1"
     id="text13833-0">
    <path
       d="m 318.812,246.29828 v -0.90576 l 2.93946,-0.46143 v -20.2002 l -2.93946,-0.44433 v -0.90576 h 23.24219 v 0.90576 l -2.93945,0.44433 v 20.2002 l 2.93945,0.46143 v 0.90576 h -9.16015 v -0.90576 l 2.93945,-0.46143 V 224.91888 H 325.0498 v 20.01221 l 2.93945,0.46143 v 0.90576 z"
       style="text-align:center;text-anchor:middle;fill:#000000;fill-opacity:1;stroke:none;stroke-width:0.93749994px"
       id="path22212" />
    <path
       d="m 345.69433,231.43011 -1.82861,-0.42724 v -0.76905 h 4.51172 l 0.0342,0.93995 q 0.71777,-0.61524 1.91406,-0.99122 1.21338,-0.37597 2.46094,-0.37597 3.07617,0 4.75097,2.13623 1.6919,2.13623 1.6919,6.13525 0,4.08448 -1.8457,6.32325 -1.82862,2.23877 -5.29786,2.23877 -1.93115,0 -3.67431,-0.37598 0.10254,1.23047 0.10254,1.93115 v 4.34082 l 2.80273,0.41016 v 0.80322 h -7.65625 v -0.80322 l 2.03369,-0.41016 z m 10.45899,6.64795 q 0,-3.28125 -1.07666,-4.8706 -1.05957,-1.60645 -3.22998,-1.60645 -1.99952,0 -3.33252,0.56397 v 12.83447 q 1.52099,0.29053 3.33252,0.29053 4.30664,0 4.30664,-7.21192 z"
       style="text-align:center;text-anchor:middle;fill:#000000;fill-opacity:1;stroke:none;stroke-width:0.93749994px"
       id="path22214" />
    <path
       d="m 376.76367,238.1806 q 0,8.45948 -7.51953,8.45948 -3.62305,0 -5.46875,-2.17041 -1.84571,-2.17042 -1.84571,-6.28907 0,-4.06738 1.84571,-6.2207 1.8457,-2.15332 5.60547,-2.15332 3.65722,0 5.52002,2.11914 1.86279,2.10205 1.86279,6.25488 z m -3.07617,0 q 0,-3.6914 -1.07666,-5.34912 -1.07666,-1.65771 -3.3667,-1.65771 -2.23877,0 -3.24707,1.58935 -0.99121,1.58936 -0.99121,5.41748 0,3.8794 1.0083,5.50293 1.02539,1.60645 3.22998,1.60645 2.25586,0 3.34961,-1.67481 1.09375,-1.6748 1.09375,-5.43457 z"
       style="text-align:center;text-anchor:middle;fill:#000000;fill-opacity:1;stroke:none;stroke-width:0.93749994px"
       id="path22216" />
    <path
       d="m 382.9502,238.21478 v 0.30762 q 0,2.3584 0.51269,3.67432 0.52979,1.29882 1.60645,1.98242 1.09375,0.68359 2.854,0.68359 0.92285,0 2.1875,-0.15381 1.26465,-0.15381 2.08496,-0.34179 v 0.95703 q -0.82031,0.52978 -2.23877,0.92285 -1.40136,0.39307 -2.87109,0.39307 -3.74268,0 -5.48584,-2.01661 -1.72608,-2.0166 -1.72608,-6.47705 0,-4.2041 1.76026,-6.27197 1.76025,-2.06787 5.02441,-2.06787 6.16944,0 6.16944,7.00683 v 1.40137 z m 3.70849,-7.04101 q -1.77734,0 -2.73437,1.43554 -0.93994,1.43555 -0.93994,4.23828 h 6.87011 q 0,-3.05908 -0.78613,-4.35791 -0.78613,-1.31591 -2.40967,-1.31591 z"
       style="text-align:center;text-anchor:middle;fill:#000000;fill-opacity:1;stroke:none;stroke-width:0.93749994px"
       id="path22218" />
    <path
       d="m 396.79297,231.43011 -2.13623,-0.42724 v -0.76905 h 6.92139 v 0.76905 l -1.94825,0.42724 v 7.10938 l 6.5625,-7.0752 -1.6748,-0.46142 v -0.76905 h 5.67383 v 0.76905 l -1.99951,0.39306 -4.58008,4.68262 5.8789,9.05762 1.57227,0.39307 v 0.76904 h -6.40869 v -0.76904 l 1.46972,-0.42725 -4.40918,-6.92139 -2.08496,1.77735 v 5.14404 l 1.94825,0.42725 v 0.76904 h -6.92139 v -0.76904 l 2.13623,-0.42725 z"
       style="text-align:center;text-anchor:middle;fill:#000000;fill-opacity:1;stroke:none;stroke-width:0.93749994px"
       id="path22220" />
    <path
       d="m 411.67822,246.29828 v -0.76904 l 2.13623,-0.42725 v -13.67188 l -2.13623,-0.42724 v -0.76905 h 6.92139 v 0.76905 l -1.94824,0.42724 v 13.44971 h 7.51953 v -13.44971 l -2.13623,-0.42724 v -0.76905 h 6.92139 v 0.76905 l -1.94825,0.42724 v 13.67188 l 1.98243,0.27344 -0.29053,7.69043 h -1.11084 l -1.65772,-6.76758 z"
       style="text-align:center;text-anchor:middle;fill:#000000;fill-opacity:1;stroke:none;stroke-width:0.93749994px"
       id="path22222" />
    <path
       d="m 436.25343,224.98724 q 0,0.75195 -0.54688,1.29883 -0.54687,0.54687 -1.31592,0.54687 -0.75195,0 -1.29883,-0.54687 -0.54687,-0.54688 -0.54687,-1.29883 0,-0.76904 0.54687,-1.31592 0.54688,-0.54687 1.29883,-0.54687 0.76905,0 1.31592,0.54687 0.54688,0.54688 0.54688,1.31592 z m -0.1709,20.11475 2.75146,0.42725 v 0.76904 h -8.32275 v -0.76904 l 2.73437,-0.42725 v -13.67188 l -2.27295,-0.42724 v -0.76905 h 5.10987 z"
       style="text-align:center;text-anchor:middle;fill:#000000;fill-opacity:1;stroke:none;stroke-width:0.93749994px"
       id="path22224" />
    <path
       d="m 443.48243,246.29828 h -3.89648 v -0.76904 l 1.38427,-0.39307 3.81104,-6.25488 q -1.70899,-0.39307 -2.66602,-1.521 -0.93994,-1.12793 -0.93994,-2.76856 0,-4.35791 6.80176,-4.35791 h 6.97266 v 0.76905 l -2.13623,0.42724 v 13.67188 l 2.13623,0.42725 v 0.76904 h -7.0752 v -0.76904 l 2.10205,-0.44434 v -5.69092 h -2.49512 z m 6.49414,-14.69727 h -1.74316 q -2.08496,0 -3.042,0.78613 -0.93994,0.76905 -0.93994,2.29004 0,3.34961 3.72559,3.34961 h 1.99951 z"
       style="text-align:center;text-anchor:middle;fill:#000000;fill-opacity:1;stroke:none;stroke-width:0.93749994px"
       id="path22226" />
  </g>
  <g
     aria-label="Фокальна точка"
     style="font-style:normal;font-variant:normal;font-weight:normal;font-stretch:normal;font-size:35.00000381px;line-height:30.50787735px;font-family:'Liberation Serif';-inkscape-font-specification:'Liberation Serif';text-align:center;letter-spacing:0px;word-spacing:0px;text-anchor:middle;fill:none;stroke:#000000;stroke-width:0.93749994px;stroke-linecap:butt;stroke-linejoin:miter;stroke-opacity:1"
     id="text18068">
    <path
       d="m 105.21244,468.68182 2.93945,0.46143 v 0.90576 h -9.160157 v -0.90576 l 2.939457,-0.46143 v -2.42675 h -1.65772 q -2.768553,0 -4.785155,-0.90577 -2.016602,-0.90576 -3.178711,-2.76855 -1.14502,-1.86279 -1.14502,-4.35791 0,-3.55469 2.375488,-5.57129 2.375489,-2.03369 6.921388,-2.03369 h 1.46973 v -2.13623 l -2.939457,-0.44434 v -0.90576 h 9.160157 v 0.90576 l -2.93945,0.44434 v 2.13623 h 1.48681 q 4.56299,0 6.92139,2.03369 2.37549,2.03369 2.37549,5.57129 0,2.49512 -1.16211,4.35791 -1.14502,1.86279 -3.17871,2.76855 -2.0166,0.90577 -4.76807,0.90577 h -1.6748 z m 0.8374,-3.75976 q 3.1958,0 4.87061,-1.70899 1.6748,-1.70898 1.6748,-4.95605 0,-3.16162 -1.69189,-4.73389 -1.6919,-1.58936 -4.97315,-1.58936 h -0.71777 v 12.98829 z m -11.484377,-6.66504 q 0,3.22998 1.657715,4.95605 1.674805,1.70899 4.887692,1.70899 h 0.82032 v -12.98829 h -0.70069 q -3.281247,0 -4.973142,1.58936 -1.691895,1.57227 -1.691895,4.73389 z"
       style="text-align:center;text-anchor:middle;fill:#000000;fill-opacity:1;stroke:none;stroke-width:0.93749994px"
       id="path22229" />
    <path
       d="m 133.59867,461.93133 q 0,8.45948 -7.51953,8.45948 -3.62305,0 -5.46875,-2.17041 -1.8457,-2.17041 -1.8457,-6.28907 0,-4.06738 1.8457,-6.2207 1.8457,-2.15332 5.60547,-2.15332 3.65723,0 5.52002,2.11914 1.86279,2.10205 1.86279,6.25488 z m -3.07617,0 q 0,-3.6914 -1.07666,-5.34912 -1.07666,-1.65771 -3.3667,-1.65771 -2.23877,0 -3.24707,1.58935 -0.99121,1.58936 -0.99121,5.41748 0,3.8794 1.0083,5.50293 1.02539,1.60645 3.22998,1.60645 2.25586,0 3.34961,-1.6748 1.09375,-1.67481 1.09375,-5.43458 z"
       style="text-align:center;text-anchor:middle;fill:#000000;fill-opacity:1;stroke:none;stroke-width:0.93749994px"
       id="path22231" />
    <path
       d="m 137.70024,455.18085 -2.13623,-0.42725 v -0.76904 h 6.92138 v 0.76904 l -1.94824,0.42725 v 7.10937 l 6.5625,-7.07519 -1.6748,-0.46143 v -0.76904 h 5.67383 v 0.76904 l -1.99952,0.39307 -4.58008,4.68261 5.87891,9.05762 1.57227,0.39307 v 0.76904 h -6.40869 v -0.76904 l 1.46972,-0.42725 -4.40918,-6.92139 -2.08496,1.77735 v 5.14404 l 1.94824,0.42725 v 0.76904 h -6.92138 v -0.76904 l 2.13623,-0.42725 z"
       style="text-align:center;text-anchor:middle;fill:#000000;fill-opacity:1;stroke:none;stroke-width:0.93749994px"
       id="path22233" />
    <path
       d="m 159.35307,453.62567 q 2.63184,0 3.8623,1.07666 1.24756,1.07666 1.24756,3.29834 v 10.85205 l 1.99951,0.42725 v 0.76904 h -4.40918 l -0.3247,-1.60644 q -1.94825,1.94824 -4.97315,1.94824 -4.11865,0 -4.11865,-4.78516 0,-1.60644 0.61523,-2.64892 0.63233,-1.05958 1.99952,-1.60645 1.36718,-0.56397 3.96484,-0.61523 l 2.40967,-0.0684 v -2.51221 q 0,-1.65772 -0.61524,-2.44385 -0.59814,-0.78613 -1.86279,-0.78613 -1.70898,0 -3.12744,0.80322 l -0.58106,1.99951 h -0.95703 v -3.50342 q 2.76856,-0.59814 4.87061,-0.59814 z m 2.27295,8.23731 -2.23877,0.0684 q -2.29004,0.0854 -3.11035,0.88868 -0.80323,0.80322 -0.80323,2.6831 0,3.00782 2.44385,3.00782 1.16211,0 1.99951,-0.25635 0.8545,-0.27344 1.70899,-0.6836 z"
       style="text-align:center;text-anchor:middle;fill:#000000;fill-opacity:1;stroke:none;stroke-width:0.93749994px"
       id="path22235" />
    <path
       d="m 169.74369,468.57928 q 0.75196,0 1.38428,-2.08496 0.64941,-2.08496 1.38428,-6.78467 l 0.71777,-4.5288 -2.23877,-0.42725 v -0.76904 h 12.91993 v 0.76904 l -1.94825,0.42725 v 13.67187 l 1.94825,0.42725 v 0.76904 h -6.92139 v -0.76904 l 2.13623,-0.42725 v -13.44971 h -4.35791 l -0.73487,4.76807 q -0.76904,4.95606 -1.31591,6.7334 -0.52979,1.76025 -1.31592,2.63184 -0.78613,0.85449 -1.94824,0.85449 -0.56397,0 -1.04248,-0.18799 -0.46143,-0.1709 -0.70069,-0.37598 l -0.10254,-2.78564 h 0.76905 l 0.52978,0.90576 q 0.10254,0.18799 0.32471,0.41016 0.23926,0.22216 0.51269,0.22216 z"
       style="text-align:center;text-anchor:middle;fill:#000000;fill-opacity:1;stroke:none;stroke-width:0.93749994px"
       id="path22237" />
    <path
       d="m 192.09722,468.68182 q 2.46093,0 3.46924,-0.76904 1.02539,-0.78613 1.02539,-2.44385 0,-1.62353 -1.0083,-2.30713 -1.00831,-0.70068 -3.48633,-0.70068 h -1.72608 v 6.2207 z m 0.41015,-14.69726 v 0.76904 l -2.13623,0.42725 v 5.91308 h 2.03369 q 3.72559,0 5.48584,1.0083 1.77735,1.0083 1.77735,3.28125 0,2.54639 -1.6919,3.60596 -1.69189,1.05957 -5.62256,1.05957 H 185.398 v -0.76904 l 2.13623,-0.42725 V 455.18085 L 185.398,454.7536 v -0.76904 z"
       style="text-align:center;text-anchor:middle;fill:#000000;fill-opacity:1;stroke:none;stroke-width:0.93749994px"
       id="path22239" />
    <path
       d="m 203.53032,455.18085 -2.13623,-0.42725 v -0.76904 h 6.92139 v 0.76904 l -1.94824,0.42725 v 5.94726 h 7.51953 v -5.94726 l -2.13623,-0.42725 v -0.76904 h 6.92139 v 0.76904 l -1.94825,0.42725 v 13.67187 l 1.94825,0.42725 v 0.76904 h -6.92139 v -0.76904 l 2.13623,-0.42725 v -6.30615 h -7.51953 v 6.30615 l 1.94824,0.42725 v 0.76904 h -6.92139 v -0.76904 l 2.13623,-0.42725 z"
       style="text-align:center;text-anchor:middle;fill:#000000;fill-opacity:1;stroke:none;stroke-width:0.93749994px"
       id="path22241" />
    <path
       d="m 227.43901,453.62567 q 2.63184,0 3.86231,1.07666 1.24756,1.07666 1.24756,3.29834 v 10.85205 l 1.99951,0.42725 v 0.76904 h -4.40918 l -0.32471,-1.60644 q -1.94824,1.94824 -4.97314,1.94824 -4.11866,0 -4.11866,-4.78516 0,-1.60644 0.61524,-2.64892 0.63232,-1.05958 1.99951,-1.60645 1.36719,-0.56397 3.96485,-0.61523 l 2.40966,-0.0684 v -2.51221 q 0,-1.65772 -0.61523,-2.44385 -0.59815,-0.78613 -1.86279,-0.78613 -1.70899,0 -3.12745,0.80322 l -0.58105,1.99951 h -0.95703 v -3.50342 q 2.76855,-0.59814 4.8706,-0.59814 z m 2.27295,8.23731 -2.23877,0.0684 q -2.29004,0.0854 -3.11035,0.88868 -0.80322,0.80322 -0.80322,2.6831 0,3.00782 2.44385,3.00782 1.16211,0 1.99951,-0.25635 0.85449,-0.27344 1.70898,-0.6836 z"
       style="text-align:center;text-anchor:middle;fill:#000000;fill-opacity:1;stroke:none;stroke-width:0.93749994px"
       id="path22243" />
    <path
       d="m 258.54253,453.98456 v 4.58007 h -0.93994 l -0.73486,-2.83691 q -1.89698,-0.32471 -3.40088,-0.32471 h -0.64942 v 13.44971 l 2.29004,0.42725 v 0.76904 h -7.60498 v -0.76904 l 2.47803,-0.42725 v -13.44971 h -0.63233 q -1.5039,0 -3.40088,0.32471 l -0.73486,2.83691 h -0.93994 v -4.58007 z"
       style="text-align:center;text-anchor:middle;fill:#000000;fill-opacity:1;stroke:none;stroke-width:0.93749994px"
       id="path22245" />
    <path
       d="m 274.76079,461.93133 q 0,8.45948 -7.51953,8.45948 -3.62305,0 -5.46875,-2.17041 -1.8457,-2.17041 -1.8457,-6.28907 0,-4.06738 1.8457,-6.2207 1.8457,-2.15332 5.60547,-2.15332 3.65723,0 5.52002,2.11914 1.86279,2.10205 1.86279,6.25488 z m -3.07617,0 q 0,-3.6914 -1.07666,-5.34912 -1.07666,-1.65771 -3.3667,-1.65771 -2.23877,0 -3.24707,1.58935 -0.99121,1.58936 -0.99121,5.41748 0,3.8794 1.0083,5.50293 1.02539,1.60645 3.22998,1.60645 2.25586,0 3.34961,-1.6748 1.09375,-1.67481 1.09375,-5.43458 z"
       style="text-align:center;text-anchor:middle;fill:#000000;fill-opacity:1;stroke:none;stroke-width:0.93749994px"
       id="path22247" />
    <path
       d="m 280.70806,460.61542 q 0,1.05957 0.64941,1.74316 0.6665,0.68359 1.81152,0.68359 1.72608,0 4.01612,-0.56396 v -7.29736 l -2.13623,-0.42725 v -0.76904 h 6.92138 v 0.76904 l -1.94824,0.42725 v 13.67187 l 1.94824,0.42725 v 0.76904 h -6.92138 v -0.76904 l 2.13623,-0.42725 v -5.41748 q -1.8628,0.90576 -3.09326,1.26465 -1.21338,0.3418 -2.20459,0.3418 -1.93116,0 -2.97364,-1.12793 -1.04248,-1.12793 -1.04248,-3.24707 v -5.48584 l -2.13623,-0.42725 v -0.76904 h 6.92139 v 0.76904 l -1.94824,0.42725 z"
       style="text-align:center;text-anchor:middle;fill:#000000;fill-opacity:1;stroke:none;stroke-width:0.93749994px"
       id="path22249" />
    <path
       d="m 295.61042,455.18085 -2.13624,-0.42725 v -0.76904 h 6.92139 v 0.76904 l -1.94824,0.42725 v 7.10937 l 6.5625,-7.07519 -1.6748,-0.46143 v -0.76904 h 5.67382 v 0.76904 l -1.99951,0.39307 -4.58008,4.68261 5.87891,9.05762 1.57227,0.39307 v 0.76904 h -6.4087 v -0.76904 l 1.46973,-0.42725 -4.40918,-6.92139 -2.08496,1.77735 v 5.14404 l 1.94824,0.42725 v 0.76904 h -6.92139 v -0.76904 l 2.13624,-0.42725 z"
       style="text-align:center;text-anchor:middle;fill:#000000;fill-opacity:1;stroke:none;stroke-width:0.93749994px"
       id="path22251" />
    <path
       d="m 317.26325,453.62567 q 2.63183,0 3.8623,1.07666 1.24756,1.07666 1.24756,3.29834 v 10.85205 l 1.99951,0.42725 v 0.76904 h -4.40918 l -0.3247,-1.60644 q -1.94825,1.94824 -4.97315,1.94824 -4.11865,0 -4.11865,-4.78516 0,-1.60644 0.61523,-2.64892 0.63233,-1.05958 1.99951,-1.60645 1.36719,-0.56397 3.96485,-0.61523 l 2.40967,-0.0684 v -2.51221 q 0,-1.65772 -0.61524,-2.44385 -0.59814,-0.78613 -1.86279,-0.78613 -1.70898,0 -3.12744,0.80322 l -0.58106,1.99951 h -0.95703 v -3.50342 q 2.76856,-0.59814 4.87061,-0.59814 z m 2.27295,8.23731 -2.23877,0.0684 q -2.29004,0.0854 -3.11035,0.88868 -0.80323,0.80322 -0.80323,2.6831 0,3.00782 2.44385,3.00782 1.16211,0 1.99951,-0.25635 0.8545,-0.27344 1.70899,-0.6836 z"
       style="text-align:center;text-anchor:middle;fill:#000000;fill-opacity:1;stroke:none;stroke-width:0.93749994px"
       id="path22253" />
  </g>
  <g
     aria-label="Зображення
перевернуто…"
     style="font-style:normal;font-variant:normal;font-weight:normal;font-stretch:normal;font-size:35.00000381px;line-height:30.50787735px;font-family:'Liberation Serif';-inkscape-font-specification:'Liberation Serif';text-align:center;letter-spacing:0px;word-spacing:0px;text-anchor:middle;fill:none;stroke:#000000;stroke-width:0.93749994px;stroke-linecap:butt;stroke-linejoin:miter;stroke-opacity:1"
     id="text18088">
    <path
       d="m 1159.6028,276.12631 q 0,3.04199 -2.1875,4.81934 -2.1875,1.76025 -5.9644,1.76025 -3.0932,0 -5.9472,-0.73486 l -0.188,-4.81934 h 1.1279 l 0.7349,3.21289 q 0.5981,0.37598 1.7944,0.64942 1.2134,0.27343 2.1533,0.27343 2.5464,0 3.7598,-1.23046 1.2304,-1.24756 1.2304,-4.10157 0,-2.25586 -1.1792,-3.41797 -1.1792,-1.1792 -3.6572,-1.29882 l -2.4438,-0.13672 v -1.40137 l 2.4438,-0.15381 q 2.0508,-0.10254 3.1104,-1.26465 1.0766,-1.1792 1.0766,-3.26416 0,-2.22168 -0.9057,-3.31543 -0.8887,-1.09375 -3.0249,-1.09375 -0.94,0 -2.0166,0.29053 -1.0596,0.27344 -1.6065,0.61523 l -0.5639,2.80274 h -1.128 v -4.40918 q 2.854,-0.73487 5.3833,-0.73487 3.5889,0 5.4688,1.43555 1.897,1.43555 1.897,4.2041 0,2.23877 -1.4014,3.72559 -1.4014,1.46973 -3.8111,1.82861 2.9737,0.35889 4.4092,1.79444 1.4356,1.41845 1.4356,3.96484 z"
       style="text-align:center;text-anchor:middle;fill:#000000;fill-opacity:1;stroke:none;stroke-width:0.93749994px"
       id="path22256" />
    <path
       d="m 1177.3933,274.24643 q 0,8.45947 -7.5195,8.45947 -3.6231,0 -5.4688,-2.17041 -1.8457,-2.17041 -1.8457,-6.28906 0,-4.06738 1.8457,-6.22071 1.8457,-2.15332 5.6055,-2.15332 3.6572,0 5.52,2.11915 1.8628,2.10205 1.8628,6.25488 z m -3.0762,0 q 0,-3.69141 -1.0766,-5.34912 -1.0767,-1.65772 -3.3667,-1.65772 -2.2388,0 -3.2471,1.58936 -0.9912,1.58935 -0.9912,5.41748 0,3.87939 1.0083,5.50293 1.0254,1.60644 3.23,1.60644 2.2558,0 3.3496,-1.6748 1.0937,-1.67481 1.0937,-5.43457 z"
       style="text-align:center;text-anchor:middle;fill:#000000;fill-opacity:1;stroke:none;stroke-width:0.93749994px"
       id="path22258" />
    <path
       d="m 1180.3669,272.48617 q 0,-4.6997 0.7691,-7.43408 0.7861,-2.75146 2.478,-4.27246 1.6919,-1.521 4.4263,-1.8457 2.9223,-0.32471 3.7085,-0.49561 0.7861,-0.18799 1.2988,-0.44433 0.5127,-0.25635 0.7178,-0.6836 h 0.8545 q -0.051,1.3501 -0.4785,2.11914 -0.4273,0.75196 -1.2647,1.1792 -0.8203,0.42725 -2.0508,0.61524 -1.2304,0.18798 -2.8882,0.39306 -2.2046,0.27344 -3.3154,0.92285 -1.0937,0.63233 -1.5893,1.91407 -0.4957,1.26465 -0.6836,4.92187 h 0.1196 q 0.5981,-1.6748 2.0679,-2.58056 1.4697,-0.92286 3.3837,-0.92286 3.6231,0 5.4517,2.13623 1.8286,2.11915 1.8286,6.2378 0,8.45947 -7.5195,8.45947 -7.3145,0 -7.3145,-10.21973 z m 11.7579,1.76026 q 0,-3.69141 -1.0767,-5.34912 -1.0767,-1.65772 -3.3667,-1.65772 -2.2388,0 -3.2471,1.58936 -0.9912,1.58935 -0.9912,5.41748 0,7.10937 4.2383,7.10937 2.2559,0 3.3496,-1.6748 1.0938,-1.67481 1.0938,-5.43457 z"
       style="text-align:center;text-anchor:middle;fill:#000000;fill-opacity:1;stroke:none;stroke-width:0.93749994px"
       id="path22260" />
    <path
       d="m 1199.1658,267.49594 -1.8286,-0.42725 v -0.76904 h 4.5117 l 0.034,0.93994 q 0.7177,-0.61523 1.914,-0.99121 1.2134,-0.37598 2.461,-0.37598 3.0761,0 4.7509,2.13623 1.6919,2.13624 1.6919,6.13526 0,4.08447 -1.8457,6.32324 -1.8286,2.23877 -5.2978,2.23877 -1.9312,0 -3.6743,-0.37597 0.1025,1.23046 0.1025,1.93115 v 4.34082 l 2.8027,0.41016 v 0.80322 h -7.6562 v -0.80322 l 2.0337,-0.41016 z m 10.459,6.64795 q 0,-3.28125 -1.0767,-4.87061 -1.0596,-1.60644 -3.23,-1.60644 -1.9995,0 -3.3325,0.56396 v 12.83448 q 1.521,0.29052 3.3325,0.29052 4.3067,0 4.3067,-7.21191 z"
       style="text-align:center;text-anchor:middle;fill:#000000;fill-opacity:1;stroke:none;stroke-width:0.93749994px"
       id="path22262" />
    <path
       d="m 1222.0149,265.94076 q 2.6318,0 3.8623,1.07666 1.2476,1.07666 1.2476,3.29834 v 10.85206 l 1.9995,0.42724 v 0.76905 h -4.4092 l -0.3247,-1.60645 q -1.9483,1.94824 -4.9732,1.94824 -4.1186,0 -4.1186,-4.78515 0,-1.60645 0.6152,-2.64893 0.6323,-1.05957 1.9995,-1.60645 1.3672,-0.56396 3.9649,-0.61523 l 2.4096,-0.0684 v -2.51221 q 0,-1.65771 -0.6152,-2.44385 -0.5981,-0.78613 -1.8628,-0.78613 -1.709,0 -3.1274,0.80322 l -0.5811,1.99952 h -0.957 v -3.50342 q 2.7685,-0.59815 4.8706,-0.59815 z m 2.2729,8.23731 -2.2387,0.0684 q -2.2901,0.0855 -3.1104,0.88867 -0.8032,0.80322 -0.8032,2.68311 0,3.00781 2.4438,3.00781 1.1622,0 1.9996,-0.25635 0.8544,-0.27344 1.7089,-0.68359 z"
       style="text-align:center;text-anchor:middle;fill:#000000;fill-opacity:1;stroke:none;stroke-width:0.93749994px"
       id="path22264" />
    <path
       d="m 1240.3523,276.02377 -2.1875,-1.74316 -4.9219,8.0835 h -3.7939 v -0.76905 l 1.2988,-0.39306 5.6396,-8.86963 -4.3408,-4.87061 -1.726,-0.39307 v -0.76904 h 5.2294 v 0.76904 l -1.5039,0.46143 6.3062,7.0752 v -7.10938 l -1.4526,-0.42725 v -0.76904 h 5.5542 v 0.76904 l -1.4356,0.42725 v 7.10938 l 6.3062,-7.0752 -1.5039,-0.46143 v -0.76904 h 5.2294 v 0.76904 l -1.726,0.39307 -4.3408,4.87061 5.6396,8.86963 1.2988,0.39306 v 0.76905 h -3.7939 l -4.9219,-8.0835 -2.1875,1.74316 v 5.14405 l 1.4356,0.42724 v 0.76905 h -5.5542 v -0.76905 l 1.4526,-0.42724 z"
       style="text-align:center;text-anchor:middle;fill:#000000;fill-opacity:1;stroke:none;stroke-width:0.93749994px"
       id="path22266" />
    <path
       d="m 1257.7498,274.28061 v 0.30762 q 0,2.35839 0.5127,3.67431 0.5297,1.29883 1.6064,1.98242 1.0938,0.6836 2.854,0.6836 0.9229,0 2.1875,-0.15381 1.2647,-0.15381 2.085,-0.3418 v 0.95703 q -0.8203,0.52979 -2.2388,0.92286 -1.4014,0.39306 -2.8711,0.39306 -3.7427,0 -5.4858,-2.0166 -1.7261,-2.0166 -1.7261,-6.47705 0,-4.2041 1.7602,-6.27197 1.7603,-2.06788 5.0245,-2.06788 6.1694,0 6.1694,7.00684 v 1.40137 z m 3.7085,-7.04102 q -1.7774,0 -2.7344,1.43555 -0.94,1.43555 -0.94,4.23828 h 6.8702 q 0,-3.05908 -0.7862,-4.35791 -0.7861,-1.31592 -2.4096,-1.31592 z"
       style="text-align:center;text-anchor:middle;fill:#000000;fill-opacity:1;stroke:none;stroke-width:0.93749994px"
       id="path22268" />
    <path
       d="m 1271.5925,267.49594 -2.1362,-0.42725 v -0.76904 h 6.9214 v 0.76904 l -1.9483,0.42725 v 5.94727 h 7.5196 v -5.94727 l -2.1362,-0.42725 v -0.76904 h 6.9213 v 0.76904 l -1.9482,0.42725 v 13.67188 l 1.9482,0.42724 v 0.76905 h -6.9213 v -0.76905 l 2.1362,-0.42724 v -6.30616 h -7.5196 v 6.30616 l 1.9483,0.42724 v 0.76905 h -6.9214 v -0.76905 l 2.1362,-0.42724 z"
       style="text-align:center;text-anchor:middle;fill:#000000;fill-opacity:1;stroke:none;stroke-width:0.93749994px"
       id="path22270" />
    <path
       d="m 1290.323,267.49594 -2.1362,-0.42725 v -0.76904 h 6.9214 v 0.76904 l -1.9483,0.42725 v 5.94727 h 7.5196 v -5.94727 l -2.1363,-0.42725 v -0.76904 h 6.9214 v 0.76904 l -1.9482,0.42725 v 13.67188 l 1.9482,0.42724 v 0.76905 h -6.9214 v -0.76905 l 2.1363,-0.42724 v -6.30616 h -7.5196 v 6.30616 l 1.9483,0.42724 v 0.76905 h -6.9214 v -0.76905 l 2.1362,-0.42724 z"
       style="text-align:center;text-anchor:middle;fill:#000000;fill-opacity:1;stroke:none;stroke-width:0.93749994px"
       id="path22272" />
    <path
       d="m 1310.2839,282.36411 h -3.8964 v -0.76905 l 1.3842,-0.39306 3.8111,-6.25489 q -1.709,-0.39306 -2.666,-1.52099 -0.94,-1.12793 -0.94,-2.76856 0,-4.35791 6.8018,-4.35791 h 6.9726 v 0.76904 l -2.1362,0.42725 v 13.67188 l 2.1362,0.42724 v 0.76905 h -7.0752 v -0.76905 l 2.1021,-0.44433 v -5.69092 h -2.4951 z m 6.4942,-14.69727 h -1.7432 q -2.0849,0 -3.042,0.78613 -0.9399,0.76904 -0.9399,2.29004 0,3.34961 3.7256,3.34961 h 1.9995 z"
       style="text-align:center;text-anchor:middle;fill:#000000;fill-opacity:1;stroke:none;stroke-width:0.93749994px"
       id="path22274" />
    <path
       d="m 1125.7136,298.00382 -2.1362,-0.42725 v -0.76904 h 17.2778 v 0.76904 l -1.9482,0.42725 v 13.67187 l 1.9482,0.42725 v 0.76904 h -6.9214 v -0.76904 l 2.1363,-0.42725 v -13.4497 h -7.5196 v 13.4497 l 1.9483,0.42725 v 0.76904 h -6.9214 v -0.76904 l 2.1362,-0.42725 z"
       style="text-align:center;text-anchor:middle;fill:#000000;fill-opacity:1;stroke:none;stroke-width:0.93749994px"
       id="path22276" />
    <path
       d="m 1146.1189,304.78849 v 0.30761 q 0,2.3584 0.5127,3.67432 0.5298,1.29883 1.6064,1.98242 1.0938,0.6836 2.854,0.6836 0.9229,0 2.1875,-0.15381 1.2647,-0.15381 2.085,-0.3418 v 0.95703 q -0.8203,0.52979 -2.2388,0.92285 -1.4013,0.39307 -2.8711,0.39307 -3.7426,0 -5.4858,-2.0166 -1.7261,-2.0166 -1.7261,-6.47705 0,-4.20411 1.7603,-6.27198 1.7602,-2.06787 5.0244,-2.06787 6.1694,0 6.1694,7.00684 v 1.40137 z m 3.7085,-7.04102 q -1.7774,0 -2.7344,1.43555 -0.9399,1.43554 -0.9399,4.23828 h 6.8701 q 0,-3.05908 -0.7861,-4.35791 -0.7862,-1.31592 -2.4097,-1.31592 z"
       style="text-align:center;text-anchor:middle;fill:#000000;fill-opacity:1;stroke:none;stroke-width:0.93749994px"
       id="path22278" />
    <path
       d="m 1159.7908,298.00382 -1.8286,-0.42725 v -0.76904 h 4.5117 l 0.034,0.93994 q 0.7178,-0.61523 1.9141,-0.99121 1.2134,-0.37598 2.4609,-0.37598 3.0762,0 4.751,2.13623 1.6919,2.13623 1.6919,6.13526 0,4.08447 -1.8457,6.32324 -1.8286,2.23877 -5.2978,2.23877 -1.9312,0 -3.6744,-0.37598 0.1026,1.23047 0.1026,1.93116 v 4.34082 l 2.8027,0.41015 v 0.80323 h -7.6562 v -0.80323 l 2.0337,-0.41015 z m 10.4589,6.64795 q 0,-3.28125 -1.0766,-4.87061 -1.0596,-1.60644 -3.23,-1.60644 -1.9995,0 -3.3325,0.56396 v 12.83447 q 1.521,0.29053 3.3325,0.29053 4.3066,0 4.3066,-7.21191 z"
       style="text-align:center;text-anchor:middle;fill:#000000;fill-opacity:1;stroke:none;stroke-width:0.93749994px"
       id="path22280" />
    <path
       d="m 1179.1365,304.78849 v 0.30761 q 0,2.3584 0.5127,3.67432 0.5298,1.29883 1.6064,1.98242 1.0938,0.6836 2.854,0.6836 0.9229,0 2.1875,-0.15381 1.2647,-0.15381 2.085,-0.3418 v 0.95703 q -0.8203,0.52979 -2.2388,0.92285 -1.4014,0.39307 -2.8711,0.39307 -3.7427,0 -5.4858,-2.0166 -1.7261,-2.0166 -1.7261,-6.47705 0,-4.20411 1.7603,-6.27198 1.7602,-2.06787 5.0244,-2.06787 6.1694,0 6.1694,7.00684 v 1.40137 z m 3.7085,-7.04102 q -1.7774,0 -2.7344,1.43555 -0.9399,1.43554 -0.9399,4.23828 h 6.8701 q 0,-3.05908 -0.7862,-4.35791 -0.7861,-1.31592 -2.4096,-1.31592 z"
       style="text-align:center;text-anchor:middle;fill:#000000;fill-opacity:1;stroke:none;stroke-width:0.93749994px"
       id="path22282" />
    <path
       d="m 1190.843,312.87198 v -0.76904 l 2.1362,-0.42725 v -13.67187 l -2.1362,-0.42725 v -0.76904 h 6.8701 q 3.7769,0 5.3321,0.93994 1.5722,0.93994 1.5722,2.93945 0,1.64063 -0.9399,2.5293 -0.9229,0.88867 -2.6318,1.28174 v 0.13672 q 2.1704,0.23926 3.3325,1.11084 1.1621,0.87158 1.1621,2.61474 0,2.40967 -1.7603,3.46924 -1.7431,1.04248 -5.6738,1.04248 z m 7.0068,-1.36718 q 2.5293,0 3.5718,-0.75196 1.0425,-0.75195 1.0425,-2.46094 0,-1.62353 -1.1108,-2.30712 -1.0938,-0.70069 -3.7256,-0.70069 h -1.8115 v 6.22071 z m -2.0336,-7.5879 h 1.8115 q 2.0508,0 2.9736,-0.68359 0.94,-0.68359 0.94,-2.32422 0,-1.38428 -0.9571,-2.05078 -0.9399,-0.68359 -3.0249,-0.68359 h -1.7431 z"
       style="text-align:center;text-anchor:middle;fill:#000000;fill-opacity:1;stroke:none;stroke-width:0.93749994px"
       id="path22284" />
    <path
       d="m 1210.9919,304.78849 v 0.30761 q 0,2.3584 0.5127,3.67432 0.5298,1.29883 1.6065,1.98242 1.0937,0.6836 2.854,0.6836 0.9228,0 2.1875,-0.15381 1.2646,-0.15381 2.0849,-0.3418 v 0.95703 q -0.8203,0.52979 -2.2387,0.92285 -1.4014,0.39307 -2.8711,0.39307 -3.7427,0 -5.4859,-2.0166 -1.726,-2.0166 -1.726,-6.47705 0,-4.20411 1.7602,-6.27198 1.7603,-2.06787 5.0244,-2.06787 6.1695,0 6.1695,7.00684 v 1.40137 z m 3.7085,-7.04102 q -1.7773,0 -2.7343,1.43555 -0.94,1.43554 -0.94,4.23828 h 6.8701 q 0,-3.05908 -0.7861,-4.35791 -0.7861,-1.31592 -2.4097,-1.31592 z"
       style="text-align:center;text-anchor:middle;fill:#000000;fill-opacity:1;stroke:none;stroke-width:0.93749994px"
       id="path22286" />
    <path
       d="m 1224.6638,298.00382 -1.8286,-0.42725 v -0.76904 h 4.5117 l 0.034,0.93994 q 0.7178,-0.61523 1.9141,-0.99121 1.2133,-0.37598 2.4609,-0.37598 3.0762,0 4.751,2.13623 1.6919,2.13623 1.6919,6.13526 0,4.08447 -1.8457,6.32324 -1.8286,2.23877 -5.2979,2.23877 -1.9311,0 -3.6743,-0.37598 0.1025,1.23047 0.1025,1.93116 v 4.34082 l 2.8028,0.41015 v 0.80323 h -7.6563 v -0.80323 l 2.0337,-0.41015 z m 10.459,6.64795 q 0,-3.28125 -1.0767,-4.87061 -1.0595,-1.60644 -3.2299,-1.60644 -1.9995,0 -3.3326,0.56396 v 12.83447 q 1.521,0.29053 3.3326,0.29053 4.3066,0 4.3066,-7.21191 z"
       style="text-align:center;text-anchor:middle;fill:#000000;fill-opacity:1;stroke:none;stroke-width:0.93749994px"
       id="path22288" />
    <path
       d="m 1242.3347,298.00382 -2.1362,-0.42725 v -0.76904 h 6.9214 v 0.76904 l -1.9483,0.42725 v 5.94726 h 7.5196 v -5.94726 l -2.1363,-0.42725 v -0.76904 h 6.9214 v 0.76904 l -1.9482,0.42725 v 13.67187 l 1.9482,0.42725 v 0.76904 h -6.9214 v -0.76904 l 2.1363,-0.42725 v -6.30615 h -7.5196 v 6.30615 l 1.9483,0.42725 v 0.76904 h -6.9214 v -0.76904 l 2.1362,-0.42725 z"
       style="text-align:center;text-anchor:middle;fill:#000000;fill-opacity:1;stroke:none;stroke-width:0.93749994px"
       id="path22290" />
    <path
       d="m 1261.6975,320.42569 q -1.333,0 -2.6318,-0.30761 v -3.46924 h 0.8032 l 0.564,1.64062 q 0.5298,0.39307 1.4697,0.39307 0.8887,0 1.6406,-0.51269 0.752,-0.5127 1.3672,-1.521 0.6323,-1.0083 1.5723,-3.60596 l -6.1182,-15.03906 -1.6406,-0.42725 v -0.76904 h 7.4512 v 0.76904 l -2.5293,0.46143 4.3408,11.22803 4.2041,-11.26221 -2.5122,-0.42725 v -0.76904 h 5.9814 v 0.76904 l -1.6748,0.35889 -6.272,15.94482 q -1.1108,2.81983 -1.9311,4.0503 -0.8203,1.23047 -1.8115,1.86279 -0.9912,0.63232 -2.273,0.63232 z"
       style="text-align:center;text-anchor:middle;fill:#000000;fill-opacity:1;stroke:none;stroke-width:0.93749994px"
       id="path22292" />
    <path
       d="m 1290.5794,296.80753 v 4.58008 h -0.94 l -0.7349,-2.83692 q -1.8969,-0.3247 -3.4008,-0.3247 h -0.6494 v 13.4497 l 2.29,0.42725 v 0.76904 h -7.605 v -0.76904 l 2.478,-0.42725 v -13.4497 h -0.6323 q -1.5039,0 -3.4009,0.3247 l -0.7348,2.83692 h -0.94 v -4.58008 z"
       style="text-align:center;text-anchor:middle;fill:#000000;fill-opacity:1;stroke:none;stroke-width:0.93749994px"
       id="path22294" />
    <path
       d="m 1306.7976,304.75431 q 0,8.45947 -7.5195,8.45947 -3.6231,0 -5.4688,-2.17041 -1.8457,-2.17041 -1.8457,-6.28906 0,-4.06739 1.8457,-6.22071 1.8457,-2.15332 5.6055,-2.15332 3.6572,0 5.52,2.11914 1.8628,2.10205 1.8628,6.25489 z m -3.0762,0 q 0,-3.69141 -1.0766,-5.34913 -1.0767,-1.65771 -3.3667,-1.65771 -2.2388,0 -3.2471,1.58936 -0.9912,1.58935 -0.9912,5.41748 0,3.87939 1.0083,5.50293 1.0254,1.60644 3.23,1.60644 2.2558,0 3.3496,-1.6748 1.0937,-1.67481 1.0937,-5.43457 z"
       style="text-align:center;text-anchor:middle;fill:#000000;fill-opacity:1;stroke:none;stroke-width:0.93749994px"
       id="path22296" />
    <path
       d="m 1315.9749,311.29972 q 0,0.8374 -0.5982,1.45263 -0.581,0.61524 -1.4697,0.61524 -0.8887,0 -1.4868,-0.61524 -0.5811,-0.61523 -0.5811,-1.45263 0,-0.87158 0.5982,-1.46973 0.5981,-0.59814 1.4697,-0.59814 0.8716,0 1.4697,0.59814 0.5982,0.59815 0.5982,1.46973 z m 11.7236,0 q 0,0.8374 -0.5982,1.45263 -0.581,0.61524 -1.4697,0.61524 -0.8887,0 -1.4868,-0.61524 -0.5811,-0.61523 -0.5811,-1.45263 0,-0.87158 0.5982,-1.46973 0.5981,-0.59814 1.4697,-0.59814 0.8716,0 1.4697,0.59814 0.5982,0.59815 0.5982,1.46973 z m 11.7236,0 q 0,0.8374 -0.5981,1.45263 -0.5811,0.61524 -1.4697,0.61524 -0.8887,0 -1.4869,-0.61524 -0.581,-0.61523 -0.581,-1.45263 0,-0.87158 0.5981,-1.46973 0.5982,-0.59814 1.4698,-0.59814 0.8715,0 1.4697,0.59814 0.5981,0.59815 0.5981,1.46973 z"
       style="text-align:center;text-anchor:middle;fill:#000000;fill-opacity:1;stroke:none;stroke-width:0.93749994px"
       id="path22298" />
  </g>
</svg>
