<?xml version="1.0" encoding="UTF-8" standalone="no"?>
<!-- Created with Inkscape (http://www.inkscape.org/) -->

<svg
   xmlns:osb="http://www.openswatchbook.org/uri/2009/osb"
   xmlns:dc="http://purl.org/dc/elements/1.1/"
   xmlns:cc="http://creativecommons.org/ns#"
   xmlns:rdf="http://www.w3.org/1999/02/22-rdf-syntax-ns#"
   xmlns:svg="http://www.w3.org/2000/svg"
   xmlns="http://www.w3.org/2000/svg"
   xmlns:xlink="http://www.w3.org/1999/xlink"
   xmlns:sodipodi="http://sodipodi.sourceforge.net/DTD/sodipodi-0.dtd"
   xmlns:inkscape="http://www.inkscape.org/namespaces/inkscape"
   width="113.37778mm"
   height="159.97241mm"
   viewBox="0 0 401.73228 566.83138"
   id="svg5176"
   version="1.1"
   inkscape:version="0.92.1 r15371"
   sodipodi:docname="projection-cube_1.svg">
  <defs
     id="defs5178">
    <linearGradient
       gradientTransform="translate(174.70189,20)"
       inkscape:collect="always"
       xlink:href="#side"
       id="linearGradient5534"
       x1="192.3622"
       y1="-265"
       x2="392.36221"
       y2="-265"
       gradientUnits="userSpaceOnUse" />
    <linearGradient
       id="side"
       osb:paint="solid"
       gradientTransform="matrix(0.9422018,-0.33504593,0.33504593,0.9422018,5215.8889,-2083.0982)">
      <stop
         style="stop-color:#265998;stop-opacity:1;"
         offset="0"
         id="stop5530" />
    </linearGradient>
    <linearGradient
       gradientTransform="translate(-20,174.70189)"
       inkscape:collect="always"
       xlink:href="#top"
       id="linearGradient5598"
       x1="50"
       y1="127.76065"
       x2="191.01016"
       y2="127.76065"
       gradientUnits="userSpaceOnUse" />
    <linearGradient
       id="top"
       osb:paint="solid"
       gradientTransform="matrix(0.9422018,-0.33504593,0.33504593,0.9422018,5203.2038,-2086.3603)">
      <stop
         style="stop-color:#f9d455;stop-opacity:1;"
         offset="0"
         id="stop5590" />
    </linearGradient>
    <linearGradient
       id="red"
       osb:paint="solid"
       gradientTransform="matrix(0.94220181,-0.33504593,0.33504593,0.94220181,28750.064,1214.1466)">
      <stop
         style="stop-color:#e31616;stop-opacity:1;"
         offset="0"
         id="stop5548" />
    </linearGradient>
  </defs>
  <sodipodi:namedview
     id="base"
     pagecolor="#ffffff"
     bordercolor="#666666"
     borderopacity="1.0"
     inkscape:pageopacity="0.0"
     inkscape:pageshadow="2"
     inkscape:zoom="1.4"
     inkscape:cx="69.147322"
     inkscape:cy="248.92009"
     inkscape:document-units="px"
     inkscape:current-layer="layer1"
     showgrid="false"
     fit-margin-top="20"
     fit-margin-left="20"
     fit-margin-right="20"
     fit-margin-bottom="20"
     inkscape:window-width="1920"
     inkscape:window-height="1051"
     inkscape:window-x="0"
     inkscape:window-y="0"
     inkscape:window-maximized="1" />
  <metadata
     id="metadata5181">
    <rdf:RDF>
      <cc:Work
         rdf:about="">
        <dc:format>image/svg+xml</dc:format>
        <dc:type
           rdf:resource="http://purl.org/dc/dcmitype/StillImage" />
        <dc:title />
      </cc:Work>
    </rdf:RDF>
  </metadata>
  <g
     inkscape:label="Layer 1"
     inkscape:groupmode="layer"
     id="layer1"
     transform="translate(40.866142,-137.51795)">
    <rect
       style="fill:url(#red);fill-opacity:1;stroke:none;stroke-width:1;stroke-linecap:round;stroke-linejoin:round;stroke-miterlimit:4;stroke-dasharray:none;stroke-dashoffset:0;stroke-opacity:1"
       id="rect4136"
       width="140"
       height="200"
       x="30"
       y="367.06409"
       ry="0"
       inkscape:export-xdpi="72"
       inkscape:export-ydpi="72" />
    <rect
       ry="0"
       y="257.06409"
       x="30"
       height="90.796883"
       width="141.01016"
       id="rect4140"
       style="fill:url(#linearGradient5598);fill-opacity:1;stroke:none;stroke-width:1;stroke-linecap:round;stroke-linejoin:round;stroke-miterlimit:4;stroke-dasharray:none;stroke-dashoffset:0;stroke-opacity:1"
       inkscape:export-xdpi="72"
       inkscape:export-ydpi="72" />
    <rect
       style="fill:url(#linearGradient5534);fill-opacity:1;stroke:none;stroke-width:1;stroke-linecap:round;stroke-linejoin:round;stroke-miterlimit:4;stroke-dasharray:none;stroke-dashoffset:0;stroke-opacity:1"
       id="rect4142"
       width="200"
       height="90"
       x="367.06409"
       y="-290"
       ry="0"
       transform="matrix(0,1,-1,0,0,0)"
       inkscape:export-xdpi="72"
       inkscape:export-ydpi="72" />
    <g
       style="font-style:normal;font-variant:normal;font-weight:normal;font-stretch:normal;font-size:40px;line-height:125%;font-family:Purisa;-inkscape-font-specification:Purisa;letter-spacing:0px;word-spacing:0px;fill:#000000;fill-opacity:1;stroke:none;stroke-width:1px;stroke-linecap:butt;stroke-linejoin:miter;stroke-opacity:1"
       id="text4144"
       transform="translate(-3.8553577,-3.8719197)">
      <g
         aria-label="Згори"
         style="font-style:normal;font-variant:normal;font-weight:normal;font-stretch:normal;font-size:35px;line-height:23.4375px;font-family:DisneyPark;-inkscape-font-specification:DisneyPark;letter-spacing:0px;word-spacing:0px;fill:none;stroke:#000000;stroke-width:0.9375px;stroke-linecap:butt;stroke-linejoin:miter;stroke-opacity:1"
         id="text4530">
        <path
           inkscape:connector-curvature="0"
           d="m 72.953167,237.56104 q 0,3.04199 -2.1875,4.81933 -2.1875,1.76025 -5.964356,1.76025 -3.093261,0 -5.947265,-0.73486 l -0.187988,-4.81933 h 1.127929 l 0.734864,3.21289 q 0.598144,0.37597 1.794433,0.64941 1.213379,0.27344 2.15332,0.27344 2.546387,0 3.759766,-1.23047 1.230469,-1.24756 1.230469,-4.10156 0,-2.25586 -1.179199,-3.41797 -1.1792,-1.1792 -3.657227,-1.29883 l -2.443848,-0.13672 v -1.40137 l 2.443848,-0.1538 q 2.050781,-0.10254 3.110352,-1.26465 1.07666,-1.1792 1.07666,-3.26416 0,-2.22168 -0.905762,-3.31543 -0.888672,-1.09375 -3.024902,-1.09375 -0.939942,0 -2.016602,0.29052 -1.05957,0.27344 -1.606445,0.61524 l -0.563965,2.80273 h -1.12793 v -4.40918 q 2.854004,-0.73486 5.383301,-0.73486 3.588867,0 5.46875,1.43555 1.896973,1.43554 1.896973,4.2041 0,2.23877 -1.401367,3.72558 -1.401368,1.46973 -3.811036,1.82862 2.973633,0.35888 4.40918,1.79443 1.435547,1.41846 1.435547,3.96485 z"
           style="font-style:normal;font-variant:normal;font-weight:normal;font-stretch:normal;font-family:'Liberation Serif';-inkscape-font-specification:'Liberation Serif';fill:#000000;fill-opacity:1;stroke:none;stroke-width:0.9375px"
           id="path7542" />
        <path
           inkscape:connector-curvature="0"
           d="m 88.026409,232.31445 h -0.939941 l -0.734864,-2.83691 q -1.896972,-0.32471 -3.400878,-0.32471 h -2.768555 v 13.44971 l 2.631836,0.42725 v 0.76904 h -7.604981 v -0.76904 l 2.136231,-0.42725 v -13.67188 l -2.136231,-0.42724 v -0.76905 h 12.817383 z"
           style="font-style:normal;font-variant:normal;font-weight:normal;font-stretch:normal;font-family:'Liberation Serif';-inkscape-font-specification:'Liberation Serif';fill:#000000;fill-opacity:1;stroke:none;stroke-width:0.9375px"
           id="path7544" />
        <path
           inkscape:connector-curvature="0"
           d="m 104.21049,235.68115 q 0,8.45947 -7.51953,8.45947 -3.623047,0 -5.46875,-2.17041 -1.845703,-2.17041 -1.845703,-6.28906 0,-4.06738 1.845703,-6.2207 1.845703,-2.15332 5.605469,-2.15332 3.657231,0 5.520021,2.11914 1.86279,2.10205 1.86279,6.25488 z m -3.07617,0 q 0,-3.6914 -1.07666,-5.34912 -1.076661,-1.65771 -3.3667,-1.65771 -2.23877,0 -3.24707,1.58935 -0.991211,1.58936 -0.991211,5.41748 0,3.8794 1.0083,5.50293 1.025391,1.60645 3.229981,1.60645 2.255859,0 3.34961,-1.67481 1.09375,-1.6748 1.09375,-5.43457 z"
           style="font-style:normal;font-variant:normal;font-weight:normal;font-stretch:normal;font-family:'Liberation Serif';-inkscape-font-specification:'Liberation Serif';fill:#000000;fill-opacity:1;stroke:none;stroke-width:0.9375px"
           id="path7546" />
        <path
           inkscape:connector-curvature="0"
           d="m 108.14116,228.93066 -1.82862,-0.42724 v -0.76905 h 4.51172 l 0.0342,0.93995 q 0.71777,-0.61524 1.91406,-0.99121 1.21338,-0.37598 2.46094,-0.37598 3.07617,0 4.75098,2.13623 1.69189,2.13623 1.69189,6.13525 0,4.08448 -1.8457,6.32325 -1.82861,2.23876 -5.29785,2.23876 -1.93116,0 -3.67432,-0.37597 0.10254,1.23047 0.10254,1.93115 v 4.34082 l 2.80273,0.41016 V 251.25 h -7.65625 v -0.80322 l 2.0337,-0.41016 z m 10.45898,6.64795 q 0,-3.28125 -1.07666,-4.8706 -1.05957,-1.60645 -3.22998,-1.60645 -1.99951,0 -3.33252,0.56397 V 242.5 q 1.521,0.29053 3.33252,0.29053 4.30664,0 4.30664,-7.21192 z"
           style="font-style:normal;font-variant:normal;font-weight:normal;font-stretch:normal;font-family:'Liberation Serif';-inkscape-font-specification:'Liberation Serif';fill:#000000;fill-opacity:1;stroke:none;stroke-width:0.9375px"
           id="path7548" />
        <path
           inkscape:connector-curvature="0"
           d="m 125.81205,228.93066 -2.13623,-0.42724 v -0.76905 h 6.92139 v 0.76905 l -1.94824,0.42724 v 10.1001 l 7.51953,-8.13476 v -1.96534 l -2.13623,-0.42724 v -0.76905 h 6.92139 v 0.76905 l -1.94825,0.42724 v 13.67188 l 1.94825,0.42725 v 0.76904 h -6.92139 v -0.76904 l 2.13623,-0.42725 v -9.77539 l -7.51953,8.13476 v 1.64063 l 1.94824,0.42725 v 0.76904 h -6.92139 v -0.76904 l 2.13623,-0.42725 z"
           style="font-style:normal;font-variant:normal;font-weight:normal;font-stretch:normal;font-family:'Liberation Serif';-inkscape-font-specification:'Liberation Serif';fill:#000000;fill-opacity:1;stroke:none;stroke-width:0.9375px"
           id="path7550" />
      </g>
      <g
         aria-label="Спереду"
         style="font-style:normal;font-variant:normal;font-weight:normal;font-stretch:normal;font-size:35px;line-height:23.4375px;font-family:DisneyPark;-inkscape-font-specification:DisneyPark;letter-spacing:0px;word-spacing:0px;fill:none;stroke:#000000;stroke-width:0.9375px;stroke-linecap:butt;stroke-linejoin:miter;stroke-opacity:1"
         id="text4534">
        <path
           inkscape:connector-curvature="0"
           d="m 48.018974,619.42627 q -5.571289,0 -8.68164,-3.0249 -3.110352,-3.042 -3.110352,-8.51075 0,-5.91308 2.990723,-8.93798 2.990722,-3.042 8.869629,-3.042 3.571777,0 7.67334,0.87159 l 0.102539,5.00732 h -1.12793 l -0.512695,-2.97363 q -1.196289,-0.73487 -2.785645,-1.12793 -1.572266,-0.41016 -3.212891,-0.41016 -4.392089,0 -6.408691,2.58057 -2.016602,2.58056 -2.016602,7.99805 0,4.99023 2.102051,7.62207 2.119141,2.63183 6.152344,2.63183 1.948242,0 3.674316,-0.46142 1.726075,-0.47852 2.734375,-1.26465 l 0.632325,-3.41797 h 1.110839 l -0.102539,5.3833 q -3.759765,1.07666 -8.083496,1.07666 z"
           style="font-style:normal;font-variant:normal;font-weight:normal;font-stretch:normal;font-family:'Liberation Serif';-inkscape-font-specification:'Liberation Serif';fill:#000000;fill-opacity:1;stroke:none;stroke-width:0.9375px"
           id="path7553" />
        <path
           inkscape:connector-curvature="0"
           d="m 60.938896,604.21631 -2.13623,-0.42725 v -0.76904 h 17.277832 v 0.76904 l -1.948242,0.42725 v 13.67187 l 1.948242,0.42725 v 0.76904 h -6.921387 v -0.76904 l 2.13623,-0.42725 v -13.4497 H 63.77581 v 13.4497 l 1.948242,0.42725 v 0.76904 h -6.921386 v -0.76904 l 2.13623,-0.42725 z"
           style="font-style:normal;font-variant:normal;font-weight:normal;font-stretch:normal;font-family:'Liberation Serif';-inkscape-font-specification:'Liberation Serif';fill:#000000;fill-opacity:1;stroke:none;stroke-width:0.9375px"
           id="path7555" />
        <path
           inkscape:connector-curvature="0"
           d="m 81.34417,611.00098 v 0.30761 q 0,2.3584 0.512695,3.67432 0.529785,1.29883 1.606445,1.98242 1.09375,0.6836 2.854004,0.6836 0.922852,0 2.1875,-0.15381 1.264649,-0.15381 2.084961,-0.3418 v 0.95703 q -0.820312,0.52979 -2.238769,0.92285 -1.401368,0.39307 -2.871094,0.39307 -3.742676,0 -5.48584,-2.0166 -1.726074,-2.0166 -1.726074,-6.47705 0,-4.2041 1.760254,-6.27198 1.760254,-2.06787 5.024414,-2.06787 6.169433,0 6.169433,7.00684 v 1.40137 z m 3.708496,-7.04102 q -1.777344,0 -2.734375,1.43555 -0.939942,1.43554 -0.939942,4.23828 h 6.870117 q 0,-3.05908 -0.786132,-4.35791 -0.786133,-1.31592 -2.409668,-1.31592 z"
           style="font-style:normal;font-variant:normal;font-weight:normal;font-stretch:normal;font-family:'Liberation Serif';-inkscape-font-specification:'Liberation Serif';fill:#000000;fill-opacity:1;stroke:none;stroke-width:0.9375px"
           id="path7557" />
        <path
           inkscape:connector-curvature="0"
           d="m 95.016045,604.21631 -1.828614,-0.42725 v -0.76904 h 4.511719 l 0.03418,0.93994 q 0.717773,-0.61523 1.914062,-0.99121 1.213378,-0.37598 2.460938,-0.37598 3.07617,0 4.75098,2.13623 1.69189,2.13623 1.69189,6.13526 0,4.08447 -1.8457,6.32324 -1.82862,2.23877 -5.29785,2.23877 -1.931156,0 -3.67432,-0.37598 0.102539,1.23047 0.102539,1.93116 v 4.34082 l 2.802731,0.41015 v 0.80322 h -7.656247 v -0.80322 l 2.033692,-0.41015 z m 10.458985,6.64795 q 0,-3.28125 -1.07666,-4.87061 -1.05957,-1.60644 -3.22998,-1.60644 -1.999513,0 -3.332521,0.56396 v 12.83447 q 1.520996,0.29053 3.332521,0.29053 4.30664,0 4.30664,-7.21191 z"
           style="font-style:normal;font-variant:normal;font-weight:normal;font-stretch:normal;font-family:'Liberation Serif';-inkscape-font-specification:'Liberation Serif';fill:#000000;fill-opacity:1;stroke:none;stroke-width:0.9375px"
           id="path7559" />
        <path
           inkscape:connector-curvature="0"
           d="m 114.36175,611.00098 v 0.30761 q 0,2.3584 0.51269,3.67432 0.52979,1.29883 1.60645,1.98242 1.09375,0.6836 2.854,0.6836 0.92285,0 2.1875,-0.15381 1.26465,-0.15381 2.08496,-0.3418 v 0.95703 q -0.82031,0.52979 -2.23877,0.92285 -1.40136,0.39307 -2.87109,0.39307 -3.74268,0 -5.48584,-2.0166 -1.72607,-2.0166 -1.72607,-6.47705 0,-4.2041 1.76025,-6.27198 1.76025,-2.06787 5.02441,-2.06787 6.16944,0 6.16944,7.00684 v 1.40137 z m 3.70849,-7.04102 q -1.77734,0 -2.73437,1.43555 -0.93994,1.43554 -0.93994,4.23828 h 6.87011 q 0,-3.05908 -0.78613,-4.35791 -0.78613,-1.31592 -2.40967,-1.31592 z"
           style="font-style:normal;font-variant:normal;font-weight:normal;font-stretch:normal;font-family:'Liberation Serif';-inkscape-font-specification:'Liberation Serif';fill:#000000;fill-opacity:1;stroke:none;stroke-width:0.9375px"
           id="path7561" />
        <path
           inkscape:connector-curvature="0"
           d="m 128.92229,603.78906 v -0.76904 h 12.50977 v 0.76904 l -1.94824,0.42725 v 13.67187 l 2.49512,0.27344 -0.29053,7.69043 h -1.11084 l -1.48682,-6.76758 h -11.24512 l -1.48681,6.76758 h -1.11084 l -0.29053,-7.69043 2.5293,-0.32471 q 1.38428,-2.63183 2.34131,-6.16943 0.97412,-3.55469 1.24755,-7.45117 z m 0.35889,13.87696 h 7.36572 v -13.44971 h -4.10156 q -0.22217,3.74267 -1.07666,7.24609 -0.8374,3.48633 -2.1875,6.20362 z"
           style="font-style:normal;font-variant:normal;font-weight:normal;font-stretch:normal;font-family:'Liberation Serif';-inkscape-font-specification:'Liberation Serif';fill:#000000;fill-opacity:1;stroke:none;stroke-width:0.9375px"
           id="path7563" />
        <path
           inkscape:connector-curvature="0"
           d="m 146.20013,626.63818 q -1.33301,0 -2.63184,-0.30761 v -3.46924 h 0.80322 l 0.56397,1.64062 q 0.52978,0.39307 1.46972,0.39307 0.88868,0 1.64063,-0.5127 0.75195,-0.51269 1.36719,-1.52099 0.63232,-1.0083 1.57226,-3.60596 l -6.11816,-15.03906 -1.64063,-0.42725 v -0.76904 h 7.45118 v 0.76904 l -2.5293,0.46143 4.34082,11.22803 4.2041,-11.26221 -2.51221,-0.42725 v -0.76904 h 5.98145 v 0.76904 l -1.67481,0.35889 -6.27197,15.94482 q -1.11084,2.81983 -1.93115,4.0503 -0.82031,1.23047 -1.81152,1.86279 -0.99122,0.63232 -2.27295,0.63232 z"
           style="font-style:normal;font-variant:normal;font-weight:normal;font-stretch:normal;font-family:'Liberation Serif';-inkscape-font-specification:'Liberation Serif';fill:#000000;fill-opacity:1;stroke:none;stroke-width:0.9375px"
           id="path7565" />
      </g>
      <g
         aria-label="Збоку"
         style="font-style:normal;font-variant:normal;font-weight:normal;font-stretch:normal;font-size:35px;line-height:23.4375px;font-family:DisneyPark;-inkscape-font-specification:DisneyPark;letter-spacing:0px;word-spacing:0px;fill:none;stroke:#000000;stroke-width:0.9375px;stroke-linecap:butt;stroke-linejoin:miter;stroke-opacity:1"
         id="text4538">
        <path
           inkscape:connector-curvature="0"
           d="m 220.66559,612.84668 q 0,3.04199 -2.1875,4.81934 -2.1875,1.76025 -5.96436,1.76025 -3.09326,0 -5.94726,-0.73486 l -0.18799,-4.81934 h 1.12793 l 0.73486,3.21289 q 0.59815,0.37598 1.79444,0.64941 1.21337,0.27344 2.15332,0.27344 2.54638,0 3.75976,-1.23047 1.23047,-1.24755 1.23047,-4.10156 0,-2.25586 -1.1792,-3.41797 -1.1792,-1.1792 -3.65723,-1.29883 l -2.44384,-0.13671 v -1.40137 l 2.44384,-0.15381 q 2.05079,-0.10254 3.11036,-1.26465 1.07666,-1.1792 1.07666,-3.26416 0,-2.22168 -0.90577,-3.31543 -0.88867,-1.09375 -3.0249,-1.09375 -0.93994,0 -2.0166,0.29053 -1.05957,0.27344 -1.60644,0.61523 l -0.56397,2.80274 h -1.12793 v -4.40918 q 2.854,-0.73487 5.3833,-0.73487 3.58887,0 5.46875,1.43555 1.89697,1.43555 1.89697,4.2041 0,2.23877 -1.40136,3.72559 -1.40137,1.46973 -3.81104,1.82861 2.97363,0.35889 4.40918,1.79444 1.43555,1.41845 1.43555,3.96484 z"
           style="font-style:normal;font-variant:normal;font-weight:normal;font-stretch:normal;font-family:'Liberation Serif';-inkscape-font-specification:'Liberation Serif';fill:#000000;fill-opacity:1;stroke:none;stroke-width:0.9375px"
           id="path7568" />
        <path
           inkscape:connector-curvature="0"
           d="m 223.92975,609.20654 q 0,-4.6997 0.76904,-7.43408 0.78613,-2.75146 2.47803,-4.27246 1.69189,-1.521 4.42627,-1.8457 2.92236,-0.32471 3.70849,-0.49561 0.78614,-0.18799 1.29883,-0.44433 0.5127,-0.25635 0.71778,-0.6836 h 0.85449 q -0.0513,1.3501 -0.47852,2.11914 -0.42724,0.75196 -1.26465,1.1792 -0.82031,0.42725 -2.05078,0.61524 -1.23047,0.18798 -2.88818,0.39306 -2.20459,0.27344 -3.31543,0.92285 -1.09375,0.63233 -1.58936,1.91407 -0.4956,1.26464 -0.68359,4.92187 h 0.11963 q 0.59814,-1.6748 2.06787,-2.58057 1.46973,-0.92285 3.38379,-0.92285 3.62305,0 5.45166,2.13623 1.82861,2.11914 1.82861,6.2378 0,8.45947 -7.51953,8.45947 -7.31445,0 -7.31445,-10.21973 z m 11.75781,1.76026 q 0,-3.69141 -1.07666,-5.34912 -1.07666,-1.65772 -3.3667,-1.65772 -2.23877,0 -3.24707,1.58936 -0.99121,1.58935 -0.99121,5.41748 0,7.10937 4.23828,7.10937 2.25586,0 3.34961,-1.6748 1.09375,-1.67481 1.09375,-5.43457 z"
           style="font-style:normal;font-variant:normal;font-weight:normal;font-stretch:normal;font-family:'Liberation Serif';-inkscape-font-specification:'Liberation Serif';fill:#000000;fill-opacity:1;stroke:none;stroke-width:0.9375px"
           id="path7570" />
        <path
           inkscape:connector-curvature="0"
           d="m 256.29791,610.9668 q 0,8.45947 -7.51953,8.45947 -3.62305,0 -5.46875,-2.17041 -1.8457,-2.17041 -1.8457,-6.28906 0,-4.06739 1.8457,-6.22071 1.8457,-2.15332 5.60547,-2.15332 3.65723,0 5.52002,2.11914 1.86279,2.10205 1.86279,6.25489 z m -3.07617,0 q 0,-3.69141 -1.07666,-5.34912 -1.07666,-1.65772 -3.3667,-1.65772 -2.23877,0 -3.24707,1.58936 -0.99121,1.58935 -0.99121,5.41748 0,3.87939 1.0083,5.50293 1.02539,1.60644 3.22998,1.60644 2.25586,0 3.34961,-1.6748 1.09375,-1.67481 1.09375,-5.43457 z"
           style="font-style:normal;font-variant:normal;font-weight:normal;font-stretch:normal;font-family:'Liberation Serif';-inkscape-font-specification:'Liberation Serif';fill:#000000;fill-opacity:1;stroke:none;stroke-width:0.9375px"
           id="path7572" />
        <path
           inkscape:connector-curvature="0"
           d="m 260.39948,604.21631 -2.13624,-0.42725 v -0.76904 h 6.92139 v 0.76904 l -1.94824,0.42725 v 7.10937 l 6.5625,-7.07519 -1.67481,-0.46143 v -0.76904 h 5.67383 v 0.76904 l -1.99951,0.39307 -4.58008,4.68262 5.87891,9.05761 1.57226,0.39307 v 0.76904 h -6.40869 v -0.76904 l 1.46973,-0.42725 -4.40918,-6.92138 -2.08496,1.77734 v 5.14404 l 1.94824,0.42725 v 0.76904 h -6.92139 v -0.76904 l 2.13624,-0.42725 z"
           style="font-style:normal;font-variant:normal;font-weight:normal;font-stretch:normal;font-family:'Liberation Serif';-inkscape-font-specification:'Liberation Serif';fill:#000000;fill-opacity:1;stroke:none;stroke-width:0.9375px"
           id="path7574" />
        <path
           inkscape:connector-curvature="0"
           d="m 277.57477,626.63818 q -1.33301,0 -2.63184,-0.30761 v -3.46924 h 0.80322 l 0.56397,1.64062 q 0.52978,0.39307 1.46973,0.39307 0.88867,0 1.64062,-0.5127 0.75195,-0.51269 1.36719,-1.52099 0.63232,-1.0083 1.57226,-3.60596 l -6.11816,-15.03906 -1.64062,-0.42725 v -0.76904 h 7.45117 v 0.76904 l -2.5293,0.46143 4.34082,11.22803 4.2041,-11.26221 -2.5122,-0.42725 v -0.76904 h 5.98144 v 0.76904 l -1.6748,0.35889 -6.27198,15.94482 q -1.11084,2.81983 -1.93115,4.0503 -0.82031,1.23047 -1.81152,1.86279 -0.99121,0.63232 -2.27295,0.63232 z"
           style="font-style:normal;font-variant:normal;font-weight:normal;font-stretch:normal;font-family:'Liberation Serif';-inkscape-font-specification:'Liberation Serif';fill:#000000;fill-opacity:1;stroke:none;stroke-width:0.9375px"
           id="path7576" />
      </g>
    </g>
  </g>
</svg>
