<?xml version="1.0" encoding="UTF-8" standalone="no"?>
<svg
   xmlns:osb="http://www.openswatchbook.org/uri/2009/osb"
   xmlns:dc="http://purl.org/dc/elements/1.1/"
   xmlns:cc="http://creativecommons.org/ns#"
   xmlns:rdf="http://www.w3.org/1999/02/22-rdf-syntax-ns#"
   xmlns:svg="http://www.w3.org/2000/svg"
   xmlns="http://www.w3.org/2000/svg"
   xmlns:xlink="http://www.w3.org/1999/xlink"
   xmlns:sodipodi="http://sodipodi.sourceforge.net/DTD/sodipodi-0.dtd"
   xmlns:inkscape="http://www.inkscape.org/namespaces/inkscape"
   version="1.1"
   id="svg11167"
   viewBox="0 0 1535.3185 989.17805"
   height="279.16803mm"
   width="433.30099mm"
   sodipodi:docname="projection-cube_08.svg"
   inkscape:version="0.92.1 r15371">
  <sodipodi:namedview
     pagecolor="#ffffff"
     bordercolor="#666666"
     borderopacity="1"
     objecttolerance="10"
     gridtolerance="10"
     guidetolerance="10"
     inkscape:pageopacity="0"
     inkscape:pageshadow="2"
     inkscape:window-width="1920"
     inkscape:window-height="1051"
     id="namedview12983"
     showgrid="false"
     inkscape:zoom="0.4473411"
     inkscape:cx="1035.8967"
     inkscape:cy="939.74318"
     inkscape:window-x="0"
     inkscape:window-y="0"
     inkscape:window-maximized="1"
     inkscape:current-layer="svg11167" />
  <defs
     id="defs11169">
    <linearGradient
       y2="1102.3622"
       x2="120"
       y1="972.36218"
       x1="120"
       gradientTransform="matrix(0.70710678,0.70710678,0.70710678,-0.70710678,-220.0685,959.79273)"
       gradientUnits="userSpaceOnUse"
       id="linearGradient6453"
       xlink:href="#blue_gradient-2" />
    <linearGradient
       osb:paint="gradient"
       id="blue_gradient-2">
      <stop
         id="stop4206"
         offset="0"
         style="stop-color:#2a7fff;stop-opacity:1;" />
      <stop
         id="stop4208"
         offset="1"
         style="stop-color:#2a7fff;stop-opacity:0;" />
    </linearGradient>
    <linearGradient
       gradientTransform="rotate(-19.575331,-6046.5404,-12900.455)"
       osb:paint="solid"
       id="top">
      <stop
         id="stop5590"
         offset="0"
         style="stop-color:#f9d455;stop-opacity:1;" />
    </linearGradient>
    <linearGradient
       gradientTransform="rotate(-19.575331,8077.0153,-75979.914)"
       osb:paint="solid"
       id="red">
      <stop
         id="stop5548"
         offset="0"
         style="stop-color:#e31616;stop-opacity:1;" />
    </linearGradient>
    <linearGradient
       gradientTransform="rotate(-19.575331,-6030.7429,-12935.591)"
       osb:paint="solid"
       id="side">
      <stop
         id="stop5530"
         offset="0"
         style="stop-color:#265998;stop-opacity:1;" />
    </linearGradient>
    <marker
       orient="auto"
       refY="0"
       refX="0"
       id="marker13605"
       style="overflow:visible">
      <path
         id="path13607"
         d="M 0,0 5,-5 -12.5,0 5,5 0,0 Z"
         style="fill:#000000;fill-opacity:1;fill-rule:evenodd;stroke:#000000;stroke-width:1pt;stroke-opacity:1"
         transform="matrix(-0.8,0,0,-0.8,-10,0)" />
    </marker>
    <linearGradient
       y2="1092.722"
       x2="1934.082"
       y1="1092.722"
       x1="1734.1537"
       gradientTransform="translate(-1158.2857,-1264.2548)"
       gradientUnits="userSpaceOnUse"
       id="linearGradient15173"
       xlink:href="#side" />
    <marker
       style="overflow:visible"
       id="marker14931"
       refX="0"
       refY="0"
       orient="auto">
      <path
         transform="matrix(-0.8,0,0,-0.8,-10,0)"
         style="fill:#000000;fill-opacity:1;fill-rule:evenodd;stroke:#000000;stroke-width:1pt;stroke-opacity:1"
         d="M 0,0 5,-5 -12.5,0 5,5 0,0 Z"
         id="path14933" />
    </marker>
    <marker
       orient="auto"
       refY="0"
       refX="0"
       id="marker14307"
       style="overflow:visible">
      <path
         id="path14309"
         d="M 0,0 5,-5 -12.5,0 5,5 0,0 Z"
         style="fill:#000000;fill-opacity:1;fill-rule:evenodd;stroke:#000000;stroke-width:1pt;stroke-opacity:1"
         transform="matrix(-0.8,0,0,-0.8,-10,0)" />
    </marker>
    <marker
       style="overflow:visible"
       id="marker14031"
       refX="0"
       refY="0"
       orient="auto">
      <path
         transform="matrix(-0.8,0,0,-0.8,-10,0)"
         style="fill:#000000;fill-opacity:1;fill-rule:evenodd;stroke:#000000;stroke-width:1pt;stroke-opacity:1"
         d="M 0,0 5,-5 -12.5,0 5,5 0,0 Z"
         id="path14033" />
    </marker>
    <marker
       orient="auto"
       refY="0"
       refX="0"
       id="marker10023"
       style="overflow:visible">
      <path
         id="path10025"
         d="M 0,0 5,-5 -12.5,0 5,5 0,0 Z"
         style="fill:#000000;fill-opacity:1;fill-rule:evenodd;stroke:#000000;stroke-width:1pt;stroke-opacity:1"
         transform="matrix(-0.8,0,0,-0.8,-10,0)" />
    </marker>
    <linearGradient
       y2="1092.722"
       x2="1934.082"
       y1="1092.722"
       x1="1734.1537"
       gradientTransform="translate(-608.56591,-1509.689)"
       gradientUnits="userSpaceOnUse"
       id="linearGradient10003"
       xlink:href="#side" />
    <linearGradient
       y2="1092.722"
       x2="1934.082"
       y1="1092.722"
       x1="1734.1537"
       gradientTransform="translate(-846.96196,-1409.689)"
       gradientUnits="userSpaceOnUse"
       id="linearGradient9997"
       xlink:href="#side" />
    <marker
       style="overflow:visible"
       id="marker7041"
       refX="0"
       refY="0"
       orient="auto">
      <path
         transform="matrix(-0.8,0,0,-0.8,-10,0)"
         style="fill:#000000;fill-opacity:1;fill-rule:evenodd;stroke:#000000;stroke-width:1pt;stroke-opacity:1"
         d="M 0,0 5,-5 -12.5,0 5,5 0,0 Z"
         id="path7043" />
    </marker>
    <marker
       style="overflow:visible"
       id="marker6743"
       refX="0"
       refY="0"
       orient="auto">
      <path
         transform="matrix(-0.8,0,0,-0.8,-10,0)"
         style="fill:#000000;fill-opacity:1;fill-rule:evenodd;stroke:#000000;stroke-width:1pt;stroke-opacity:1"
         d="M 0,0 5,-5 -12.5,0 5,5 0,0 Z"
         id="path6745" />
    </marker>
    <marker
       style="overflow:visible"
       id="marker6455"
       refX="0"
       refY="0"
       orient="auto">
      <path
         transform="matrix(-0.8,0,0,-0.8,-10,0)"
         style="fill:#000000;fill-opacity:1;fill-rule:evenodd;stroke:#000000;stroke-width:1pt;stroke-opacity:1"
         d="M 0,0 5,-5 -12.5,0 5,5 0,0 Z"
         id="path6457" />
    </marker>
    <marker
       orient="auto"
       refY="0"
       refX="0"
       id="marker6539"
       style="overflow:visible">
      <path
         id="path6541"
         d="M 0,0 5,-5 -12.5,0 5,5 0,0 Z"
         style="fill:#000000;fill-opacity:1;fill-rule:evenodd;stroke:#000000;stroke-width:1pt;stroke-opacity:1"
         transform="matrix(-0.8,0,0,-0.8,-10,0)" />
    </marker>
    <linearGradient
       y2="1092.722"
       x2="1934.082"
       y1="1092.722"
       x1="1734.1537"
       gradientTransform="translate(-1344.2858,-1550.7514)"
       gradientUnits="userSpaceOnUse"
       id="linearGradient6435"
       xlink:href="#side" />
  </defs>
  <metadata
     id="metadata11172">
    <rdf:RDF>
      <cc:Work
         rdf:about="">
        <dc:format>image/svg+xml</dc:format>
        <dc:type
           rdf:resource="http://purl.org/dc/dcmitype/StillImage" />
        <dc:title />
      </cc:Work>
    </rdf:RDF>
  </metadata>
  <rect
     transform="rotate(90)"
     ry="0"
     y="-491.27777"
     x="389.86792"
     height="66.496704"
     width="199.92834"
     id="rect6431"
     style="fill:url(#linearGradient6435);fill-opacity:1;stroke:none;stroke-width:1;stroke-linecap:round;stroke-linejoin:round;stroke-miterlimit:4;stroke-dasharray:none;stroke-dashoffset:0;stroke-opacity:1" />
  <rect
     ry="0"
     y="389.79639"
     x="324.78104"
     height="200"
     width="100"
     id="rect6433"
     style="fill:url(#red);fill-opacity:1;stroke:none;stroke-width:1;stroke-linecap:round;stroke-linejoin:round;stroke-miterlimit:4;stroke-dasharray:none;stroke-dashoffset:0;stroke-opacity:1" />
  <path
     inkscape:connector-curvature="0"
     id="path6445"
     d="M 985.12655,95.9998 304.78105,775.79641"
     style="fill:none;fill-rule:evenodd;stroke:#000000;stroke-width:1;stroke-linecap:butt;stroke-linejoin:miter;stroke-miterlimit:4;stroke-dasharray:3, 1;stroke-dashoffset:0;stroke-opacity:1" />
  <path
     inkscape:connector-curvature="0"
     style="fill:none;fill-rule:evenodd;stroke:#000000;stroke-width:1px;stroke-linecap:butt;stroke-linejoin:miter;stroke-opacity:1"
     d="m 517.63655,194.81248 213.9948,214.70189"
     id="path6447" />
  <path
     inkscape:connector-curvature="0"
     id="path6537"
     d="M 424.78105,389.86793 607.93565,206.64175"
     style="fill:none;fill-rule:evenodd;stroke:#000000;stroke-width:1px;stroke-linecap:butt;stroke-linejoin:miter;stroke-opacity:1;marker-end:url(#marker6539)" />
  <path
     inkscape:connector-curvature="0"
     style="fill:url(#side);fill-rule:evenodd;stroke:none;stroke-width:1px;stroke-linecap:butt;stroke-linejoin:miter;stroke-opacity:1"
     d="m 788.20675,292.92728 -80.2986,13.74188 -99.9805,-99.98054 80.285,-13.75552 z"
     id="path7023" />
  <path
     inkscape:connector-curvature="0"
     style="fill:url(#red);fill-rule:evenodd;stroke:none;stroke-width:1px;stroke-linecap:butt;stroke-linejoin:miter;stroke-opacity:1"
     d="m 688.21255,192.93307 20.6409,-120.78049 100.034,100.03407 -20.6899,120.74221 z"
     id="path9973" />
  <path
     inkscape:connector-curvature="0"
     style="fill:none;fill-rule:evenodd;stroke:#000000;stroke-width:1px;stroke-linecap:butt;stroke-linejoin:miter;stroke-opacity:1;marker-end:url(#marker6455)"
     d="m 491.63135,389.51437 196.5812,-196.5813"
     id="path6451" />
  <rect
     style="fill:url(#red);fill-opacity:1;stroke:none;stroke-width:1;stroke-linecap:round;stroke-linejoin:round;stroke-miterlimit:4;stroke-dasharray:none;stroke-dashoffset:0;stroke-opacity:1"
     id="rect9975"
     width="100"
     height="200"
     x="350.21545"
     y="887.12012"
     ry="0"
     transform="rotate(-45)" />
  <path
     inkscape:connector-curvature="0"
     style="fill:url(#top);fill-rule:evenodd;stroke:none;stroke-width:1px;stroke-linecap:butt;stroke-linejoin:miter;stroke-opacity:1"
     d="m 708.85345,72.1526 -80.2346,13.80596 -20.6912,120.73006 80.285,-13.75552 z"
     id="path9991" />
  <path
     inkscape:connector-curvature="0"
     style="fill:none;fill-rule:evenodd;stroke:#000000;stroke-width:1px;stroke-linecap:butt;stroke-linejoin:miter;stroke-opacity:1;marker-end:url(#marker6743)"
     d="m 424.78105,589.79639 283.0799,-283.1744"
     id="path6741" />
  <path
     inkscape:connector-curvature="0"
     style="fill:none;fill-rule:evenodd;stroke:#000000;stroke-width:1px;stroke-linecap:butt;stroke-linejoin:miter;stroke-opacity:1;marker-end:url(#marker7041)"
     d="M 204.78105,575.86805 708.85345,72.15261"
     id="path7039" />
  <rect
     style="fill:url(#linearGradient9997);fill-opacity:1;stroke:none;stroke-width:1;stroke-linecap:round;stroke-linejoin:round;stroke-miterlimit:4;stroke-dasharray:none;stroke-dashoffset:0;stroke-opacity:1"
     id="rect9995"
     width="199.92834"
     height="66.496704"
     x="887.19177"
     y="-350.21545"
     ry="0"
     transform="rotate(45)" />
  <rect
     transform="rotate(45)"
     ry="0"
     y="-450.21548"
     x="1125.5878"
     height="66.496704"
     width="199.92834"
     id="rect10001"
     style="fill:url(#linearGradient10003);fill-opacity:1;stroke:none;stroke-width:1;stroke-linecap:round;stroke-linejoin:round;stroke-miterlimit:4;stroke-dasharray:none;stroke-dashoffset:0;stroke-opacity:1" />
  <rect
     transform="rotate(-45)"
     ry="0"
     y="1125.5878"
     x="283.71875"
     height="200"
     width="100"
     id="rect10005"
     style="fill:url(#red);fill-opacity:1;stroke:none;stroke-width:1;stroke-linecap:round;stroke-linejoin:round;stroke-miterlimit:4;stroke-dasharray:none;stroke-dashoffset:0;stroke-opacity:1" />
  <path
     inkscape:connector-curvature="0"
     id="path10021"
     d="M 1208.6622,666.00201 628.61895,85.95855"
     style="fill:none;fill-rule:evenodd;stroke:#000000;stroke-width:1px;stroke-linecap:butt;stroke-linejoin:miter;stroke-opacity:1;marker-end:url(#marker10023)" />
  <path
     inkscape:connector-curvature="0"
     style="fill:none;fill-rule:evenodd;stroke:#000000;stroke-width:1px;stroke-linecap:butt;stroke-linejoin:miter;stroke-opacity:1;marker-end:url(#marker14031)"
     d="M 1016.3497,521.07026 688.21255,192.93307"
     id="path14029" />
  <path
     inkscape:connector-curvature="0"
     id="path14305"
     d="M 1137.9516,736.71261 707.86095,306.62199"
     style="fill:none;fill-rule:evenodd;stroke:#000000;stroke-width:1px;stroke-linecap:butt;stroke-linejoin:miter;stroke-opacity:1;marker-end:url(#marker14307)" />
  <path
     inkscape:connector-curvature="0"
     style="fill:none;fill-rule:evenodd;stroke:#000000;stroke-width:1px;stroke-linecap:butt;stroke-linejoin:miter;stroke-opacity:1;marker-end:url(#marker14931)"
     d="M 1255.6318,618.93103 808.88745,172.1867"
     id="path14929" />
  <rect
     ry="0"
     y="575.79639"
     x="204.78104"
     height="200"
     width="100"
     id="rect15169"
     style="fill:url(#red);fill-opacity:1;stroke:none;stroke-width:1;stroke-linecap:round;stroke-linejoin:round;stroke-miterlimit:4;stroke-dasharray:none;stroke-dashoffset:0;stroke-opacity:1" />
  <rect
     transform="rotate(90)"
     ry="0"
     y="-204.78104"
     x="575.86804"
     height="66.496704"
     width="199.92834"
     id="rect15171"
     style="fill:url(#linearGradient15173);fill-opacity:1;stroke:none;stroke-width:1;stroke-linecap:round;stroke-linejoin:round;stroke-miterlimit:4;stroke-dasharray:none;stroke-dashoffset:0;stroke-opacity:1" />
  <path
     inkscape:connector-curvature="0"
     id="path13603"
     d="M 204.78105,775.79641 808.88745,172.1867"
     style="fill:none;fill-rule:evenodd;stroke:#000000;stroke-width:1px;stroke-linecap:butt;stroke-linejoin:miter;stroke-opacity:1;marker-end:url(#marker13605)" />
  <path
     inkscape:connector-curvature="0"
     id="path16529"
     d="m 710.14845,788.44421 -66.4967,-47.0627 V 599.98776 l 66.4968,47.0434 z"
     style="fill:url(#side);fill-rule:evenodd;stroke:none;stroke-width:1px;stroke-linecap:butt;stroke-linejoin:miter;stroke-opacity:1" />
  <path
     inkscape:connector-curvature="0"
     id="path16531"
     d="m 710.14845,647.03116 100,-70.80943 v 141.46948 l -100.0076,70.7476 z"
     style="fill:url(#red);fill-rule:evenodd;stroke:none;stroke-width:1px;stroke-linecap:butt;stroke-linejoin:miter;stroke-opacity:1" />
  <path
     inkscape:connector-curvature="0"
     id="path16533"
     d="m 810.14845,576.22174 -66.4967,-46.97214 -100,70.73816 66.4968,47.0434 z"
     style="fill:url(#top);fill-rule:evenodd;stroke:none;stroke-width:1px;stroke-linecap:butt;stroke-linejoin:miter;stroke-opacity:1" />
  <circle
     style="opacity:1;fill:none;fill-opacity:1;stroke:#000000;stroke-width:1;stroke-linecap:round;stroke-linejoin:round;stroke-miterlimit:4;stroke-dasharray:8, 4;stroke-dashoffset:0;stroke-opacity:1"
     id="path16535"
     cx="709.99762"
     cy="646.4295"
     r="36.211906" />
  <g
     style="font-style:normal;font-variant:normal;font-weight:normal;font-stretch:normal;font-size:40px;line-height:125%;font-family:Purisa;-inkscape-font-specification:Purisa;letter-spacing:0px;word-spacing:0px;fill:#000000;fill-opacity:1;stroke:none;stroke-width:1px;stroke-linecap:butt;stroke-linejoin:miter;stroke-opacity:1"
     id="text16537"
     transform="translate(664.80212,-129.20177)">
    <path
       inkscape:connector-curvature="0"
       d="m 53.776109,789.55529 q -0.32,0 -0.6,-0.24 -0.28,-0.24 -0.28,-0.68 0,-0.44 0.2,-0.76 0.24,-0.36 0.84,-1 0.6,-0.68 1.12,-1.4 l 1.32,-1.76 q 0.28,-0.36 1,-1.6 0.72,-1.28 1.36,-2.12 0.68,-0.88 1.2,-0.88 0.84,0 1.12,2.56 0.24,2.16 0.48,8.52 0.24,6.32 0.24,10.48 0,2.64 -0.12,2.92 -0.32,0.68 -0.72,0.68 -0.56,0 -1.04,-1.4 -0.52,-1.48 -0.52,-10 -0.04,-8.64 -0.48,-8.64 -0.32,0 -1.28,1.36 -0.96,1.32 -2.08,2.64 -1.08,1.32 -1.76,1.32 z"
       id="path12159" />
    <path
       inkscape:connector-curvature="0"
       d="m 88.598609,800.99529 q 1.56,0 2.24,0.16 0.72,0.16 0.84,0.4 0.16,0.2 0.16,0.72 0,0.64 -0.68,0.72 -0.64,0.08 -3.04,0.2 -2.4,0.12 -5.08,0.64 -1.88,0.36 -4.04,0.64 -2.16,0.32 -3.16,0.48 -1,0.2 -1.28,0.48 -0.32,0.28 -0.88,0.28 -0.64,0 -1.2,-0.36 -0.52,-0.36 -0.52,-0.84 0,-0.52 1.32,-2.24 1.32,-1.76 2.48,-2.76 1.44,-1.2 4,-6.32 2.6,-5.16 2.6,-8.4 0,-1.32 -0.76,-1.8 -0.72,-0.48 -2.52,-0.48 -4.32,0 -8.68,4.4 -2.72,2.64 -2.88,2.64 -0.2,0 -0.2,-1.36 0,-1.4 1.04,-1.96 1.08,-0.52 1.08,-1.08 0,-0.2 0.16,-0.44 0.2,-0.28 0.56,-0.56 0.4,-0.32 0.72,-0.56 0.36,-0.28 0.96,-0.68 0.6,-0.44 0.96,-0.72 0.8,-0.68 2.6,-1.36 1.84,-0.72 4,-0.72 3.64,0 4.72,2 0.44,0.76 0.44,2.56 0,3.28 -1.2,6.36 -0.88,2.08 -3.24,5.92 -2.32,3.8 -3.48,4.88 -0.44,0.44 -0.44,0.56 0,0.04 0.16,0.04 0.04,0 2,-0.36 1.96,-0.36 4.88,-0.72 2.96,-0.36 5.36,-0.36 z"
       id="path12161" />
    <path
       inkscape:connector-curvature="0"
       d="m 109.45798,793.95529 q 0,-1.92 -0.48,-3.12 -0.48,-1.2 -1.28,-1.2 -0.88,0 -2.52,0.88 -1.6,0.88 -2.4,1.8 -1,1.12 -1.4,1.12 -0.32,0 -0.92,-0.6 -0.679996,-0.68 -0.679996,-6.28 0,-4.72 0.559996,-5.08 0.4,-0.24 4.88,-0.44 4.48,-0.2 5.72,-0.48 1.16,-0.28 1.92,-0.28 0.96,0 0.96,0.56 0,0.64 -3.28,1.56 -3.24,0.92 -5.48,0.92 h -0.64 q -2.72,0 -2.72,2 0,0.32 0.16,1.04 0.2,0.68 0.2,1.48 0,0.36 -0.08,0.92 l -0.24,1.24 1.36,-0.84 q 2.48,-1.56 4.8,-1.56 0.84,0 1.24,0.2 1.08,0.48 1.84,2.4 0.76,1.88 0.76,4.08 0,0.92 -0.2,2 -0.84,4.48 -3,6.52 -2.12,2.04 -5.96,2.04 -1.28,0 -1.8,-0.28 -0.52,-0.24 -1.359996,-1.28 -1.6,-1.96 -1.6,-3.36 0,-1 0.28,-1 0.2,0 0.64,0.92 0.8,1.48 1.959996,2.08 1.2,0.6 3.28,0.6 1.84,0 2.84,-0.84 1.04,-0.88 1.88,-3.2 0.76,-2.04 0.76,-4.52 z"
       id="path12163" />
    <path
       inkscape:connector-curvature="0"
       d="m 116.22173,777.07529 q 0,-1.84 1.2,-2.92 1.2,-1.12 2.72,-1.12 1.72,0 2.92,1.36 1.24,1.32 1.24,2.68 0,1.64 -1.84,2.88 -1.84,1.24 -3.04,1.24 -1.36,0 -2.28,-1.24 -0.92,-1.28 -0.92,-2.88 z m 2.72,-0.4 q 0,0.72 0.24,1.12 0.24,0.4 0.44,0.44 0.24,0.04 0.56,0.04 0.56,0 0.96,-0.24 0.44,-0.28 0.44,-0.68 0,-0.52 -0.84,-1.16 -0.8,-0.64 -1.28,-0.64 -0.52,0 -0.52,1.12 z"
       id="path12165" />
  </g>
  <g
     style="font-style:normal;font-variant:normal;font-weight:normal;font-stretch:normal;font-size:40px;line-height:125%;font-family:Purisa;-inkscape-font-specification:Purisa;letter-spacing:0px;word-spacing:0px;fill:#000000;fill-opacity:1;stroke:none;stroke-width:1px;stroke-linecap:butt;stroke-linejoin:miter;stroke-opacity:1"
     id="text16541"
     transform="translate(664.80212,-129.20177)">
    <path
       inkscape:connector-curvature="0"
       d="m -35.15248,793.1267 q -0.32,0 -0.6,-0.24 -0.28,-0.24 -0.28,-0.68 0,-0.44 0.2,-0.76 0.24,-0.36 0.84,-1 0.6,-0.68 1.12,-1.4 l 1.32,-1.76 q 0.28,-0.36 1,-1.6 0.72,-1.28 1.36,-2.12 0.68,-0.88 1.2,-0.88 0.84,0 1.12,2.56 0.24,2.16 0.48,8.52 0.24,6.32 0.24,10.48 0,2.64 -0.12,2.92 -0.32,0.68 -0.72,0.68 -0.56,0 -1.04,-1.4 -0.52,-1.48 -0.52,-10 -0.04,-8.64 -0.48,-8.64 -0.32,0 -1.28,1.36 -0.96,1.32 -2.08,2.64 -1.08,1.32 -1.76,1.32 z"
       id="path12141" />
    <path
       inkscape:connector-curvature="0"
       d="m -0.32997971,804.5667 q 1.56000001,0 2.24000001,0.16 0.72,0.16 0.84,0.4 0.16,0.2 0.16,0.72 0,0.64 -0.68,0.72 -0.64,0.08 -3.04000001,0.2 -2.39999999,0.12 -5.07999999,0.64 -1.88,0.36 -4.04,0.64 -2.1600003,0.32 -3.1600003,0.48 -1,0.2 -1.28,0.48 -0.32,0.28 -0.88,0.28 -0.64,0 -1.2,-0.36 -0.52,-0.36 -0.52,-0.84 0,-0.52 1.32,-2.24 1.32,-1.76 2.48,-2.76 1.44,-1.2 4.0000003,-6.32 2.6,-5.16 2.6,-8.4 0,-1.32 -0.76,-1.8 -0.72,-0.48 -2.52,-0.48 -4.3200003,0 -8.6800003,4.4 -2.72,2.64 -2.88,2.64 -0.2,0 -0.2,-1.36 0,-1.4 1.04,-1.96 1.08,-0.52 1.08,-1.08 0,-0.2 0.16,-0.44 0.2,-0.28 0.56,-0.56 0.4,-0.32 0.72,-0.56 0.36,-0.28 0.96,-0.68 0.6,-0.44 0.96,-0.72 0.8,-0.68 2.6,-1.36 1.84,-0.72 4.0000003,-0.72 3.64,0 4.72,2 0.44,0.76 0.44,2.56 0,3.28 -1.2,6.36 -0.88,2.08 -3.24,5.92 -2.3200003,3.8 -3.4800003,4.88 -0.44,0.44 -0.44,0.56 0,0.04 0.16,0.04 0.04,0 2,-0.36 1.9600003,-0.36 4.8800003,-0.72 2.96,-0.36 5.35999999,-0.36 z"
       id="path12143" />
    <path
       inkscape:connector-curvature="0"
       d="m 20.529395,797.5267 q 0,-1.92 -0.48,-3.12 -0.48,-1.2 -1.28,-1.2 -0.88,0 -2.52,0.88 -1.6,0.88 -2.4,1.8 -1,1.12 -1.4,1.12 -0.32,0 -0.92,-0.6 -0.68,-0.68 -0.68,-6.28 0,-4.72 0.56,-5.08 0.4,-0.24 4.88,-0.44 4.48,-0.2 5.72,-0.48 1.16,-0.28 1.92,-0.28 0.96,0 0.96,0.56 0,0.64 -3.28,1.56 -3.24,0.92 -5.48,0.92 h -0.64 q -2.72,0 -2.72,2 0,0.32 0.16,1.04 0.2,0.68 0.2,1.48 0,0.36 -0.08,0.92 l -0.24,1.24 1.36,-0.84 q 2.48,-1.56 4.8,-1.56 0.84,0 1.24,0.2 1.08,0.48 1.84,2.4 0.76,1.88 0.76,4.08 0,0.92 -0.2,2 -0.84,4.48 -3,6.52 -2.12,2.04 -5.96,2.04 -1.28,0 -1.8,-0.28 -0.52,-0.24 -1.36,-1.28 -1.5999997,-1.96 -1.5999997,-3.36 0,-1 0.28,-1 0.2,0 0.64,0.92 0.7999997,1.48 1.9599997,2.08 1.2,0.6 3.28,0.6 1.84,0 2.84,-0.84 1.04,-0.88 1.88,-3.2 0.76,-2.04 0.76,-4.52 z"
       id="path12145" />
    <path
       inkscape:connector-curvature="0"
       d="m 27.293145,780.6467 q 0,-1.84 1.2,-2.92 1.2,-1.12 2.72,-1.12 1.72,0 2.92,1.36 1.24,1.32 1.24,2.68 0,1.64 -1.84,2.88 -1.84,1.24 -3.04,1.24 -1.36,0 -2.28,-1.24 -0.92,-1.28 -0.92,-2.88 z m 2.72,-0.4 q 0,0.72 0.24,1.12 0.24,0.4 0.44,0.44 0.24,0.04 0.56,0.04 0.56,0 0.96,-0.24 0.44,-0.28 0.44,-0.68 0,-0.52 -0.84,-1.16 -0.8,-0.64 -1.28,-0.64 -0.52,0 -0.52,1.12 z"
       id="path12147" />
  </g>
  <g
     style="font-style:normal;font-variant:normal;font-weight:normal;font-stretch:normal;font-size:40px;line-height:125%;font-family:Purisa;-inkscape-font-specification:Purisa;letter-spacing:0px;word-spacing:0px;fill:#000000;fill-opacity:1;stroke:none;stroke-width:1px;stroke-linecap:butt;stroke-linejoin:miter;stroke-opacity:1"
     id="text16545"
     transform="translate(664.80212,-129.20177)">
    <path
       inkscape:connector-curvature="0"
       d="m 17.347521,731.69811 q -0.32,0 -0.6,-0.24 -0.28,-0.24 -0.28,-0.68 0,-0.44 0.2,-0.76 0.24,-0.36 0.84,-1 0.6,-0.68 1.12,-1.4 l 1.32,-1.76 q 0.28,-0.36 1,-1.6 0.72,-1.28 1.36,-2.12 0.68,-0.88 1.2,-0.88 0.84,0 1.12,2.56 0.24,2.16 0.48,8.52 0.24,6.32 0.24,10.48 0,2.64 -0.12,2.92 -0.32,0.68 -0.72,0.68 -0.56,0 -1.04,-1.4 -0.52,-1.48 -0.52,-10 -0.04,-8.64 -0.48,-8.64 -0.32,0 -1.28,1.36 -0.96,1.32 -2.08,2.64 -1.08,1.32 -1.76,1.32 z"
       id="path12150" />
    <path
       inkscape:connector-curvature="0"
       d="m 31.410021,731.69811 q -0.32,0 -0.6,-0.24 -0.28,-0.24 -0.28,-0.68 0,-0.44 0.2,-0.76 0.24,-0.36 0.84,-1 0.6,-0.68 1.12,-1.4 l 1.32,-1.76 q 0.28,-0.36 1,-1.6 0.72,-1.28 1.36,-2.12 0.68,-0.88 1.2,-0.88 0.84,0 1.12,2.56 0.24,2.16 0.48,8.52 0.24,6.32 0.24,10.48 0,2.64 -0.12,2.92 -0.32,0.68 -0.72,0.68 -0.56,0 -1.04,-1.4 -0.52,-1.48 -0.52,-10 -0.04,-8.64 -0.48,-8.64 -0.32,0 -1.28,1.36 -0.96,1.32 -2.08,2.64 -1.08,1.32 -1.76,1.32 z"
       id="path12152" />
    <path
       inkscape:connector-curvature="0"
       d="m 49.792521,727.57811 q 0,-0.48 1.44,-1.96 1.44,-1.52 3.32,-2.84 1.88,-1.36 2.84,-1.36 1.4,0 3.04,2.12 1.64,2.08 1.64,5.64 0,5.08 -3.44,11.4 -1.4,2.6 -2.88,3.96 -1.44,1.32 -3.44,1.88 -0.92,0.24 -1.68,0.24 -2.84,0 -4.48,-3.56 -0.88,-1.8 -0.88,-2.68 0,-1.76 2.24,-6.92 2.28,-5.2 2.28,-5.92 z m 10.08,1.04 q 0,-4.12 -2.6,-4.12 -1.08,0 -2.12,0.68 -2.12,1.4 -4.6,6.8 -2.44,5.36 -2.44,8.72 0,1.44 0.92,2.48 0.96,1.04 2.28,1.04 0.88,0 1.6,-0.4 0.72,-0.44 1.96,-1.6 2.04,-1.96 2.04,-2.56 0,-0.32 0.72,-1.88 0.76,-1.56 1.48,-4.04 0.76,-2.52 0.76,-5.12 z"
       id="path12154" />
    <path
       inkscape:connector-curvature="0"
       d="m 65.730646,719.21811 q 0,-1.84 1.2,-2.92 1.2,-1.12 2.72,-1.12 1.72,0 2.92,1.36 1.24,1.32 1.24,2.68 0,1.64 -1.84,2.88 -1.84,1.24 -3.04,1.24 -1.36,0 -2.28,-1.24 -0.92,-1.28 -0.92,-2.88 z m 2.72,-0.4 q 0,0.72 0.24,1.12 0.24,0.4 0.44,0.44 0.24,0.04 0.56,0.04 0.56,0 0.96,-0.24 0.44,-0.28 0.44,-0.68 0,-0.52 -0.84,-1.16 -0.8,-0.64 -1.28,-0.64 -0.52,0 -0.52,1.12 z"
       id="path12156" />
  </g>
  <path
     inkscape:connector-curvature="0"
     id="path6449"
     d="m 538.20615,342.93951 63.6396,-63.63959 -21.2132,-21.2132 63.6396,7.0711 7.0711,63.6396 -21.2132,-21.2132 -63.6396,63.63959 z"
     style="fill:url(#linearGradient6453);fill-opacity:1;fill-rule:evenodd;stroke:none;stroke-width:1px;stroke-linecap:butt;stroke-linejoin:miter;stroke-opacity:1" />
  <g
     aria-label="Задник, як
його видно
спереду"
     style="font-style:normal;font-variant:normal;font-weight:normal;font-stretch:normal;font-size:35px;line-height:30.50787354px;font-family:'Liberation Serif';-inkscape-font-specification:'Liberation Serif';text-align:center;letter-spacing:0px;word-spacing:0px;text-anchor:middle;fill:none;stroke:#000000;stroke-width:0.93749994px;stroke-linecap:butt;stroke-linejoin:miter;stroke-opacity:1"
     id="text13772">
    <path
       d="m 157.12743,807.89148 q 0,3.04199 -2.1875,4.81934 -2.1875,1.76025 -5.96436,1.76025 -3.09326,0 -5.94726,-0.73486 l -0.18799,-4.81934 h 1.12793 l 0.73486,3.21289 q 0.59814,0.37598 1.79443,0.64941 1.21338,0.27344 2.15332,0.27344 2.54639,0 3.75977,-1.23047 1.23047,-1.24756 1.23047,-4.10156 0,-2.25586 -1.1792,-3.41797 -1.1792,-1.1792 -3.65723,-1.29883 l -2.44385,-0.13671 v -1.40137 l 2.44385,-0.15381 q 2.05078,-0.10254 3.11035,-1.26465 1.07666,-1.1792 1.07666,-3.26416 0,-2.22168 -0.90576,-3.31543 -0.88867,-1.09375 -3.0249,-1.09375 -0.93994,0 -2.0166,0.29053 -1.05957,0.27344 -1.60645,0.61523 l -0.56396,2.80274 h -1.12793 v -4.40918 q 2.854,-0.73487 5.3833,-0.73487 3.58887,0 5.46875,1.43555 1.89697,1.43555 1.89697,4.2041 0,2.23877 -1.40137,3.72559 -1.40136,1.46973 -3.81103,1.82861 2.97363,0.35889 4.40918,1.79444 1.43555,1.41845 1.43555,3.96484 z"
       style="text-align:center;text-anchor:middle;fill:#000000;fill-opacity:1;stroke:none;stroke-width:0.93749994px"
       id="path13957" />
    <path
       d="m 166.69774,797.70593 q 2.63183,0 3.8623,1.07666 1.24756,1.07666 1.24756,3.29834 v 10.85205 l 1.99951,0.42725 v 0.76904 h -4.40918 l -0.3247,-1.60644 q -1.94825,1.94824 -4.97315,1.94824 -4.11865,0 -4.11865,-4.78516 0,-1.60644 0.61523,-2.64892 0.63233,-1.05957 1.99952,-1.60645 1.36718,-0.56396 3.96484,-0.61523 l 2.40967,-0.0684 v -2.51221 q 0,-1.65771 -0.61524,-2.44385 -0.59814,-0.78613 -1.86279,-0.78613 -1.70898,0 -3.12744,0.80322 l -0.58106,1.99952 h -0.95703 v -3.50342 q 2.76856,-0.59815 4.87061,-0.59815 z m 2.27295,8.23731 -2.23877,0.0684 q -2.29004,0.0854 -3.11035,0.88867 -0.80323,0.80322 -0.80323,2.6831 0,3.00782 2.44385,3.00782 1.16211,0 1.99951,-0.25635 0.8545,-0.27344 1.70899,-0.68359 z"
       style="text-align:center;text-anchor:middle;fill:#000000;fill-opacity:1;stroke:none;stroke-width:0.93749994px"
       id="path13959" />
    <path
       d="m 178.23338,798.83386 v -0.76904 h 12.50977 v 0.76904 l -1.94824,0.42725 v 13.67187 l 2.49511,0.27344 -0.29052,7.69043 h -1.11084 l -1.48682,-6.76758 h -11.24512 l -1.48681,6.76758 h -1.11084 l -0.29053,-7.69043 2.5293,-0.32471 q 1.38427,-2.63183 2.3413,-6.16943 0.97413,-3.55469 1.24756,-7.45117 z m 0.35889,13.87696 h 7.36572 v -13.44971 h -4.10156 q -0.22217,3.74267 -1.07666,7.24609 -0.8374,3.48633 -2.1875,6.20362 z"
       style="text-align:center;text-anchor:middle;fill:#000000;fill-opacity:1;stroke:none;stroke-width:0.93749994px"
       id="path13961" />
    <path
       d="m 194.87889,799.26111 -2.13623,-0.42725 v -0.76904 h 6.92139 v 0.76904 l -1.94824,0.42725 v 5.94726 h 7.51953 v -5.94726 l -2.13623,-0.42725 v -0.76904 h 6.92138 v 0.76904 l -1.94824,0.42725 v 13.67187 l 1.94824,0.42725 v 0.76904 h -6.92138 v -0.76904 l 2.13623,-0.42725 v -6.30615 h -7.51953 v 6.30615 l 1.94824,0.42725 v 0.76904 h -6.92139 v -0.76904 l 2.13623,-0.42725 z"
       style="text-align:center;text-anchor:middle;fill:#000000;fill-opacity:1;stroke:none;stroke-width:0.93749994px"
       id="path13963" />
    <path
       d="m 213.60936,799.26111 -2.13623,-0.42725 v -0.76904 h 6.92139 v 0.76904 l -1.94825,0.42725 v 10.1001 l 7.51954,-8.13477 v -1.96533 l -2.13624,-0.42725 v -0.76904 h 6.92139 v 0.76904 l -1.94824,0.42725 v 13.67187 l 1.94824,0.42725 v 0.76904 h -6.92139 v -0.76904 l 2.13624,-0.42725 v -9.77539 l -7.51954,8.13477 v 1.64062 l 1.94825,0.42725 v 0.76904 h -6.92139 v -0.76904 l 2.13623,-0.42725 z"
       style="text-align:center;text-anchor:middle;fill:#000000;fill-opacity:1;stroke:none;stroke-width:0.93749994px"
       id="path13965" />
    <path
       d="m 232.33983,799.26111 -2.13623,-0.42725 v -0.76904 h 6.92138 v 0.76904 l -1.94824,0.42725 v 7.10937 l 6.5625,-7.07519 -1.6748,-0.46143 v -0.76904 h 5.67383 v 0.76904 l -1.99952,0.39307 -4.58007,4.68262 5.8789,9.05761 1.57227,0.39307 v 0.76904 h -6.40869 v -0.76904 l 1.46972,-0.42725 -4.40918,-6.92138 -2.08496,1.77734 v 5.14404 l 1.94824,0.42725 v 0.76904 h -6.92138 v -0.76904 l 2.13623,-0.42725 z"
       style="text-align:center;text-anchor:middle;fill:#000000;fill-opacity:1;stroke:none;stroke-width:0.93749994px"
       id="path13967" />
    <path
       d="m 253.13817,813.29187 q 0,2.34131 -1.36719,3.91357 -1.3501,1.58936 -3.84521,2.30713 v -1.31591 q 3.00781,-0.95704 3.00781,-2.8711 0,-0.3418 -0.25635,-0.61523 -0.25635,-0.27344 -0.88867,-0.59815 -1.16211,-0.59814 -1.16211,-1.69189 0,-0.92285 0.58105,-1.40137 0.58106,-0.4956 1.48682,-0.4956 1.09375,0 1.76025,0.78613 0.6836,0.78613 0.6836,1.98242 z"
       style="text-align:center;text-anchor:middle;fill:#000000;fill-opacity:1;stroke:none;stroke-width:0.93749994px"
       id="path13969" />
    <path
       d="m 268.09178,814.12927 h -3.89648 v -0.76904 l 1.38427,-0.39307 3.81104,-6.25488 q -1.70898,-0.39307 -2.66602,-1.521 -0.93994,-1.12793 -0.93994,-2.76855 0,-4.35791 6.80176,-4.35791 h 6.97266 v 0.76904 l -2.13623,0.42725 v 13.67187 l 2.13623,0.42725 v 0.76904 h -7.0752 v -0.76904 l 2.10205,-0.44434 v -5.69091 h -2.49511 z m 6.49414,-14.69726 h -1.74316 q -2.08496,0 -3.04199,0.78613 -0.93995,0.76904 -0.93995,2.29004 0,3.34961 3.72559,3.34961 h 1.99951 z"
       style="text-align:center;text-anchor:middle;fill:#000000;fill-opacity:1;stroke:none;stroke-width:0.93749994px"
       id="path13971" />
    <path
       d="m 282.99413,799.26111 -2.13624,-0.42725 v -0.76904 h 6.92139 v 0.76904 l -1.94824,0.42725 v 7.10937 l 6.5625,-7.07519 -1.67481,-0.46143 v -0.76904 h 5.67383 v 0.76904 l -1.99951,0.39307 -4.58008,4.68262 5.87891,9.05761 1.57226,0.39307 v 0.76904 h -6.40869 v -0.76904 l 1.46973,-0.42725 -4.40918,-6.92138 -2.08496,1.77734 v 5.14404 l 1.94824,0.42725 v 0.76904 h -6.92139 v -0.76904 l 2.13624,-0.42725 z"
       style="text-align:center;text-anchor:middle;fill:#000000;fill-opacity:1;stroke:none;stroke-width:0.93749994px"
       id="path13973" />
    <path
       d="m 139.3369,829.76898 -2.13623,-0.42724 v -0.76905 h 6.92139 v 0.76905 l -1.94825,0.42724 v 10.1001 l 7.51953,-8.13477 v -1.96533 l -2.13623,-0.42724 v -0.76905 h 6.92139 v 0.76905 l -1.94824,0.42724 v 13.67188 l 1.94824,0.42724 v 0.76905 h -6.92139 v -0.76905 l 2.13623,-0.42724 v -9.77539 l -7.51953,8.13476 v 1.64063 l 1.94825,0.42724 v 0.76905 h -6.92139 v -0.76905 l 2.13623,-0.42724 z m 6.52832,-4.30664 q -3.12744,0 -4.66553,-1.12793 -1.52099,-1.12793 -1.60644,-3.65722 h 2.80273 q 0.10254,1.76025 0.99121,2.66601 0.88867,0.90576 2.47803,0.90576 1.58935,0 2.47803,-0.90576 0.88867,-0.90576 0.99121,-2.66601 h 2.80273 q -0.0855,2.54638 -1.62353,3.67431 -1.521,1.11084 -4.64844,1.11084 z"
       style="text-align:center;text-anchor:middle;fill:#000000;fill-opacity:1;stroke:none;stroke-width:0.93749994px"
       id="path13975" />
    <path
       d="m 171.46581,836.51947 q 0,8.45947 -7.51954,8.45947 -3.62304,0 -5.46875,-2.17041 -1.8457,-2.17041 -1.8457,-6.28906 0,-4.06738 1.8457,-6.2207 1.84571,-2.15332 5.60547,-2.15332 3.65723,0 5.52002,2.11914 1.8628,2.10205 1.8628,6.25488 z m -3.07618,0 q 0,-3.69141 -1.07666,-5.34912 -1.07666,-1.65771 -3.3667,-1.65771 -2.23877,0 -3.24707,1.58935 -0.99121,1.58936 -0.99121,5.41748 0,3.8794 1.0083,5.50293 1.02539,1.60645 3.22998,1.60645 2.25586,0 3.34961,-1.67481 1.09375,-1.6748 1.09375,-5.43457 z"
       style="text-align:center;text-anchor:middle;fill:#000000;fill-opacity:1;stroke:none;stroke-width:0.93749994px"
       id="path13977" />
    <path
       d="m 186.24852,833.15277 h -0.93994 l -0.73486,-2.83691 q -1.89698,-0.32471 -3.40088,-0.32471 h -2.76856 v 13.44971 l 2.63184,0.42724 v 0.76905 h -7.60498 v -0.76905 l 2.13623,-0.42724 v -13.67188 l -2.13623,-0.42724 v -0.76905 h 12.81738 z"
       style="text-align:center;text-anchor:middle;fill:#000000;fill-opacity:1;stroke:none;stroke-width:0.93749994px"
       id="path13979" />
    <path
       d="m 202.4326,836.51947 q 0,8.45947 -7.51953,8.45947 -3.62305,0 -5.46875,-2.17041 -1.8457,-2.17041 -1.8457,-6.28906 0,-4.06738 1.8457,-6.2207 1.8457,-2.15332 5.60547,-2.15332 3.65723,0 5.52002,2.11914 1.86279,2.10205 1.86279,6.25488 z m -3.07617,0 q 0,-3.69141 -1.07666,-5.34912 -1.07666,-1.65771 -3.3667,-1.65771 -2.23877,0 -3.24707,1.58935 -0.99121,1.58936 -0.99121,5.41748 0,3.8794 1.0083,5.50293 1.02539,1.60645 3.22998,1.60645 2.25586,0 3.34961,-1.67481 1.09375,-1.6748 1.09375,-5.43457 z"
       style="text-align:center;text-anchor:middle;fill:#000000;fill-opacity:1;stroke:none;stroke-width:0.93749994px"
       id="path13981" />
    <path
       d="m 213.14793,844.63715 v -0.76905 l 2.13623,-0.42724 v -13.67188 l -2.13623,-0.42724 v -0.76905 h 6.87012 q 3.77686,0 5.33203,0.93995 1.57227,0.93994 1.57227,2.93945 0,1.64062 -0.93994,2.5293 -0.92285,0.88867 -2.63184,1.28173 v 0.13672 q 2.17041,0.23926 3.33252,1.11084 1.16211,0.87158 1.16211,2.61475 0,2.40967 -1.76025,3.46924 -1.74317,1.04248 -5.67383,1.04248 z m 7.00684,-1.36719 q 2.5293,0 3.57178,-0.75195 1.04248,-0.75196 1.04248,-2.46094 0,-1.62354 -1.11084,-2.30713 -1.09375,-0.70068 -3.72559,-0.70068 h -1.81152 v 6.2207 z m -2.03369,-7.58789 h 1.81152 q 2.05078,0 2.97363,-0.68359 0.93995,-0.6836 0.93995,-2.32422 0,-1.38428 -0.95704,-2.05078 -0.93994,-0.6836 -3.0249,-0.6836 h -1.74316 z"
       style="text-align:center;text-anchor:middle;fill:#000000;fill-opacity:1;stroke:none;stroke-width:0.93749994px"
       id="path13983" />
    <path
       d="m 231.82713,829.76898 -2.13623,-0.42724 v -0.76905 h 6.92139 v 0.76905 l -1.94824,0.42724 v 10.1001 l 7.51953,-8.13477 v -1.96533 l -2.13623,-0.42724 v -0.76905 h 6.92138 v 0.76905 l -1.94824,0.42724 v 13.67188 l 1.94824,0.42724 v 0.76905 h -6.92138 v -0.76905 l 2.13623,-0.42724 v -9.77539 l -7.51953,8.13476 v 1.64063 l 1.94824,0.42724 v 0.76905 h -6.92139 v -0.76905 l 2.13623,-0.42724 z"
       style="text-align:center;text-anchor:middle;fill:#000000;fill-opacity:1;stroke:none;stroke-width:0.93749994px"
       id="path13985" />
    <path
       d="m 251.75389,829.34174 v -0.76905 h 12.50977 v 0.76905 l -1.94825,0.42724 v 13.67188 l 2.49512,0.27344 -0.29053,7.69043 h -1.11084 l -1.48681,-6.76758 h -11.24512 l -1.48682,6.76758 h -1.11084 l -0.29052,-7.69043 2.52929,-0.32471 q 1.38428,-2.63184 2.34131,-6.16944 0.97412,-3.55468 1.24756,-7.45117 z m 0.35889,13.87695 h 7.36572 v -13.44971 h -4.10156 q -0.22217,3.74268 -1.07666,7.2461 -0.8374,3.48632 -2.1875,6.20361 z"
       style="text-align:center;text-anchor:middle;fill:#000000;fill-opacity:1;stroke:none;stroke-width:0.93749994px"
       id="path13987" />
    <path
       d="m 268.3994,829.76898 -2.13623,-0.42724 v -0.76905 h 6.92139 v 0.76905 l -1.94825,0.42724 v 5.94727 h 7.51953 v -5.94727 l -2.13623,-0.42724 v -0.76905 h 6.92139 v 0.76905 l -1.94824,0.42724 v 13.67188 l 1.94824,0.42724 v 0.76905 h -6.92139 v -0.76905 l 2.13623,-0.42724 v -6.30615 h -7.51953 v 6.30615 l 1.94825,0.42724 v 0.76905 h -6.92139 v -0.76905 l 2.13623,-0.42724 z"
       style="text-align:center;text-anchor:middle;fill:#000000;fill-opacity:1;stroke:none;stroke-width:0.93749994px"
       id="path13989" />
    <path
       d="m 300.52831,836.51947 q 0,8.45947 -7.51954,8.45947 -3.62304,0 -5.46875,-2.17041 -1.8457,-2.17041 -1.8457,-6.28906 0,-4.06738 1.8457,-6.2207 1.84571,-2.15332 5.60547,-2.15332 3.65723,0 5.52002,2.11914 1.8628,2.10205 1.8628,6.25488 z m -3.07618,0 q 0,-3.69141 -1.07666,-5.34912 -1.07666,-1.65771 -3.3667,-1.65771 -2.23877,0 -3.24707,1.58935 -0.99121,1.58936 -0.99121,5.41748 0,3.8794 1.0083,5.50293 1.02539,1.60645 3.22998,1.60645 2.25586,0 3.34961,-1.67481 1.09375,-1.6748 1.09375,-5.43457 z"
       style="text-align:center;text-anchor:middle;fill:#000000;fill-opacity:1;stroke:none;stroke-width:0.93749994px"
       id="path13991" />
    <path
       d="m 174.84959,874.1709 q -0.8374,0.61523 -2.30712,0.97412 -1.46973,0.3418 -3.00782,0.3418 -7.81006,0 -7.81006,-8.49365 0,-4.01612 1.98243,-6.16944 1.99951,-2.17041 5.708,-2.17041 2.30713,0 5.04151,0.52979 v 4.47754 h -0.93994 l -0.73487,-2.83692 q -1.41845,-0.80322 -3.40088,-0.80322 -4.58007,0 -4.58007,6.97266 0,3.62304 1.38427,5.17822 1.40137,1.53808 4.32373,1.53808 2.49512,0 4.34082,-0.56396 z"
       style="text-align:center;text-anchor:middle;fill:#000000;fill-opacity:1;stroke:none;stroke-width:0.93749994px"
       id="path13993" />
    <path
       d="m 178.67772,860.27686 -2.13623,-0.42725 v -0.76904 h 17.27783 v 0.76904 l -1.94824,0.42725 v 13.67187 l 1.94824,0.42725 v 0.76904 h -6.92139 v -0.76904 l 2.13623,-0.42725 v -13.4497 h -7.51953 v 13.4497 l 1.94825,0.42725 v 0.76904 h -6.92139 v -0.76904 l 2.13623,-0.42725 z"
       style="text-align:center;text-anchor:middle;fill:#000000;fill-opacity:1;stroke:none;stroke-width:0.93749994px"
       id="path13995" />
    <path
       d="m 199.08299,867.06153 v 0.30761 q 0,2.3584 0.5127,3.67432 0.52978,1.29883 1.60644,1.98242 1.09375,0.68359 2.85401,0.68359 0.92285,0 2.1875,-0.1538 1.26465,-0.15381 2.08496,-0.3418 v 0.95703 q -0.82031,0.52979 -2.23877,0.92285 -1.40137,0.39307 -2.8711,0.39307 -3.74267,0 -5.48584,-2.0166 -1.72607,-2.0166 -1.72607,-6.47705 0,-4.20411 1.76025,-6.27198 1.76026,-2.06787 5.02442,-2.06787 6.16943,0 6.16943,7.00684 v 1.40137 z m 3.7085,-7.04102 q -1.77735,0 -2.73438,1.43555 -0.93994,1.43554 -0.93994,4.23828 h 6.87012 q 0,-3.05908 -0.78613,-4.35791 -0.78614,-1.31592 -2.40967,-1.31592 z"
       style="text-align:center;text-anchor:middle;fill:#000000;fill-opacity:1;stroke:none;stroke-width:0.93749994px"
       id="path13997" />
    <path
       d="m 212.75487,860.27686 -1.82862,-0.42725 v -0.76904 h 4.51172 l 0.0342,0.93994 q 0.71778,-0.61523 1.91407,-0.99121 1.21337,-0.37598 2.46093,-0.37598 3.07617,0 4.75098,2.13623 1.69189,2.13623 1.69189,6.13526 0,4.08447 -1.8457,6.32324 -1.82861,2.23877 -5.29785,2.23877 -1.93115,0 -3.67432,-0.37598 0.10254,1.23047 0.10254,1.93115 v 4.34082 l 2.80274,0.41016 v 0.80322 h -7.65625 v -0.80322 l 2.03369,-0.41016 z m 10.45898,6.64795 q 0,-3.28125 -1.07666,-4.87061 -1.05957,-1.60644 -3.22998,-1.60644 -1.99951,0 -3.33252,0.56396 v 12.83447 q 1.521,0.29053 3.33252,0.29053 4.30664,0 4.30664,-7.21191 z"
       style="text-align:center;text-anchor:middle;fill:#000000;fill-opacity:1;stroke:none;stroke-width:0.93749994px"
       id="path13999" />
    <path
       d="m 232.10057,867.06153 v 0.30761 q 0,2.3584 0.5127,3.67432 0.52978,1.29883 1.60644,1.98242 1.09375,0.68359 2.85401,0.68359 0.92285,0 2.1875,-0.1538 1.26464,-0.15381 2.08496,-0.3418 v 0.95703 q -0.82032,0.52979 -2.23877,0.92285 -1.40137,0.39307 -2.8711,0.39307 -3.74267,0 -5.48584,-2.0166 -1.72607,-2.0166 -1.72607,-6.47705 0,-4.20411 1.76025,-6.27198 1.76026,-2.06787 5.02442,-2.06787 6.16943,0 6.16943,7.00684 v 1.40137 z m 3.7085,-7.04102 q -1.77735,0 -2.73438,1.43555 -0.93994,1.43554 -0.93994,4.23828 h 6.87012 q 0,-3.05908 -0.78614,-4.35791 -0.78613,-1.31592 -2.40966,-1.31592 z"
       style="text-align:center;text-anchor:middle;fill:#000000;fill-opacity:1;stroke:none;stroke-width:0.93749994px"
       id="path14001" />
    <path
       d="m 246.66112,859.84961 v -0.76904 h 12.50976 v 0.76904 l -1.94824,0.42725 v 13.67187 l 2.49512,0.27344 -0.29053,7.69043 h -1.11084 l -1.48682,-6.76758 h -11.24511 l -1.48682,6.76758 h -1.11084 l -0.29053,-7.69043 2.5293,-0.32471 q 1.38428,-2.63183 2.34131,-6.16943 0.97412,-3.55469 1.24756,-7.45117 z m 0.35888,13.87695 h 7.36573 v -13.4497 h -4.10157 q -0.22216,3.74267 -1.07666,7.24609 -0.8374,3.48633 -2.1875,6.20361 z"
       style="text-align:center;text-anchor:middle;fill:#000000;fill-opacity:1;stroke:none;stroke-width:0.93749994px"
       id="path14003" />
    <path
       d="m 263.93895,882.69873 q -1.33301,0 -2.63184,-0.30761 v -3.46924 h 0.80323 l 0.56396,1.64062 q 0.52979,0.39307 1.46973,0.39307 0.88867,0 1.64062,-0.5127 0.75196,-0.51269 1.36719,-1.52099 0.63232,-1.0083 1.57227,-3.60596 l -6.11817,-15.03906 -1.64062,-0.42725 v -0.76904 h 7.45117 v 0.76904 l -2.5293,0.46143 4.34082,11.22802 4.2041,-11.2622 -2.5122,-0.42725 v -0.76904 h 5.98144 v 0.76904 l -1.6748,0.35889 -6.27198,15.94482 q -1.11084,2.81983 -1.93115,4.0503 -0.82031,1.23046 -1.81152,1.86279 -0.99121,0.63232 -2.27295,0.63232 z"
       style="text-align:center;text-anchor:middle;fill:#000000;fill-opacity:1;stroke:none;stroke-width:0.93749994px"
       id="path14005" />
  </g>
  <g
     aria-label="Вид
спереду"
     style="font-style:normal;font-variant:normal;font-weight:normal;font-stretch:normal;font-size:35px;line-height:30.50787354px;font-family:'Liberation Serif';-inkscape-font-specification:'Liberation Serif';text-align:center;letter-spacing:0px;word-spacing:0px;text-anchor:middle;fill:none;stroke:#000000;stroke-width:0.93749994px;stroke-linecap:butt;stroke-linejoin:miter;stroke-opacity:1"
     id="text13784">
    <path
       d="m 395.29388,607.08344 q 0,-2.10206 -1.31591,-3.05909 -1.31592,-0.95703 -4.27246,-0.95703 h -3.5376 v 8.66455 h 3.74267 q 2.76856,0 4.06739,-1.09375 1.31591,-1.09375 1.31591,-3.55468 z m 1.72608,10.83496 q 0,-2.40967 -1.60645,-3.52051 -1.60644,-1.12793 -5.14404,-1.12793 h -4.10156 v 9.63867 q 2.3584,0.10254 5.02441,0.10254 2.92237,0 4.375,-1.23047 1.45264,-1.24756 1.45264,-3.8623 z m -17.08985,6.52832 v -0.90577 l 2.93946,-0.46142 v -20.2002 l -2.93946,-0.44433 v -0.90576 h 10.47608 q 4.35791,0 6.37451,1.29882 2.0166,1.28174 2.0166,4.08448 0,2.0166 -1.24756,3.43506 -1.23047,1.41845 -3.46923,1.89697 3.09326,0.3247 4.78515,1.81152 1.6919,1.46973 1.6919,3.79395 0,3.29834 -2.29004,5.00732 -2.27295,1.6919 -6.64795,1.6919 l -7.31446,-0.10254 z"
       style="text-align:center;text-anchor:middle;fill:#000000;fill-opacity:1;stroke:none;stroke-width:0.93749994px"
       id="path14008" />
    <path
       d="m 405.06927,609.57855 -2.13623,-0.42724 v -0.76905 h 6.92139 v 0.76905 l -1.94824,0.42724 v 10.1001 l 7.51953,-8.13477 v -1.96533 l -2.13623,-0.42724 v -0.76905 h 6.92139 v 0.76905 l -1.94825,0.42724 v 13.67188 l 1.94825,0.42724 v 0.76905 h -6.92139 v -0.76905 l 2.13623,-0.42724 v -9.77539 l -7.51953,8.13476 v 1.64063 l 1.94824,0.42724 v 0.76905 h -6.92139 v -0.76905 l 2.13623,-0.42724 z"
       style="text-align:center;text-anchor:middle;fill:#000000;fill-opacity:1;stroke:none;stroke-width:0.93749994px"
       id="path14010" />
    <path
       d="m 424.99603,609.15131 v -0.76905 h 12.50977 v 0.76905 l -1.94824,0.42724 v 13.67188 l 2.49511,0.27343 -0.29052,7.69043 h -1.11084 l -1.48682,-6.76757 h -11.24512 l -1.48681,6.76757 h -1.11084 l -0.29053,-7.69043 2.5293,-0.3247 q 1.38427,-2.63184 2.3413,-6.16944 0.97413,-3.55468 1.24756,-7.45117 z m 0.35889,13.87695 h 7.36572 v -13.44971 h -4.10156 q -0.22217,3.74268 -1.07666,7.2461 -0.8374,3.48632 -2.1875,6.20361 z"
       style="text-align:center;text-anchor:middle;fill:#000000;fill-opacity:1;stroke:none;stroke-width:0.93749994px"
       id="path14012" />
    <path
       d="m 364.53217,653.98047 q -0.83741,0.61523 -2.30713,0.97412 -1.46973,0.3418 -3.00782,0.3418 -7.81005,0 -7.81005,-8.49365 0,-4.01612 1.98242,-6.16944 1.99951,-2.17041 5.70801,-2.17041 2.30712,0 5.0415,0.52979 v 4.47754 h -0.93994 l -0.73487,-2.83692 q -1.41845,-0.80322 -3.40087,-0.80322 -4.58008,0 -4.58008,6.97266 0,3.62304 1.38427,5.17822 1.40137,1.53808 4.32374,1.53808 2.49511,0 4.34082,-0.56396 z"
       style="text-align:center;text-anchor:middle;fill:#000000;fill-opacity:1;stroke:none;stroke-width:0.93749994px"
       id="path14014" />
    <path
       d="m 368.36029,640.08643 -2.13623,-0.42725 v -0.76904 h 17.27783 v 0.76904 l -1.94824,0.42725 v 13.67187 l 1.94824,0.42725 v 0.76904 h -6.92138 v -0.76904 l 2.13623,-0.42725 v -13.44971 h -7.51954 v 13.44971 l 1.94825,0.42725 v 0.76904 h -6.92139 v -0.76904 l 2.13623,-0.42725 z"
       style="text-align:center;text-anchor:middle;fill:#000000;fill-opacity:1;stroke:none;stroke-width:0.93749994px"
       id="path14016" />
    <path
       d="m 388.76556,646.87109 v 0.30762 q 0,2.3584 0.5127,3.67432 0.52978,1.29883 1.60644,1.98242 1.09375,0.68359 2.85401,0.68359 0.92285,0 2.1875,-0.1538 1.26465,-0.15381 2.08496,-0.3418 v 0.95703 q -0.82031,0.52978 -2.23877,0.92285 -1.40137,0.39307 -2.87109,0.39307 -3.74268,0 -5.48584,-2.0166 -1.72608,-2.01661 -1.72608,-6.47705 0,-4.20411 1.76026,-6.27198 1.76025,-2.06787 5.02441,-2.06787 6.16943,0 6.16943,7.00684 v 1.40136 z m 3.7085,-7.04101 q -1.77734,0 -2.73437,1.43555 -0.93995,1.43554 -0.93995,4.23828 h 6.87012 q 0,-3.05908 -0.78613,-4.35791 -0.78613,-1.31592 -2.40967,-1.31592 z"
       style="text-align:center;text-anchor:middle;fill:#000000;fill-opacity:1;stroke:none;stroke-width:0.93749994px"
       id="path14018" />
    <path
       d="m 402.43744,640.08643 -1.82861,-0.42725 v -0.76904 h 4.51171 l 0.0342,0.93994 q 0.71778,-0.61524 1.91407,-0.99121 1.21338,-0.37598 2.46093,-0.37598 3.07618,0 4.75098,2.13623 1.6919,2.13623 1.6919,6.13526 0,4.08447 -1.84571,6.32324 -1.82861,2.23877 -5.29785,2.23877 -1.93115,0 -3.67432,-0.37598 0.10254,1.23047 0.10254,1.93115 v 4.34082 l 2.80274,0.41016 v 0.80322 h -7.65625 v -0.80322 l 2.03369,-0.41016 z m 10.45898,6.64795 q 0,-3.28125 -1.07666,-4.87061 -1.05957,-1.60644 -3.22998,-1.60644 -1.99951,0 -3.33252,0.56396 v 12.83447 q 1.521,0.29053 3.33252,0.29053 4.30664,0 4.30664,-7.21191 z"
       style="text-align:center;text-anchor:middle;fill:#000000;fill-opacity:1;stroke:none;stroke-width:0.93749994px"
       id="path14020" />
    <path
       d="m 421.78314,646.87109 v 0.30762 q 0,2.3584 0.5127,3.67432 0.52978,1.29883 1.60644,1.98242 1.09375,0.68359 2.85401,0.68359 0.92285,0 2.1875,-0.1538 1.26465,-0.15381 2.08496,-0.3418 v 0.95703 q -0.82031,0.52978 -2.23877,0.92285 -1.40137,0.39307 -2.8711,0.39307 -3.74267,0 -5.48584,-2.0166 -1.72607,-2.01661 -1.72607,-6.47705 0,-4.20411 1.76025,-6.27198 1.76026,-2.06787 5.02442,-2.06787 6.16943,0 6.16943,7.00684 v 1.40136 z m 3.7085,-7.04101 q -1.77735,0 -2.73438,1.43555 -0.93994,1.43554 -0.93994,4.23828 h 6.87012 q 0,-3.05908 -0.78613,-4.35791 -0.78614,-1.31592 -2.40967,-1.31592 z"
       style="text-align:center;text-anchor:middle;fill:#000000;fill-opacity:1;stroke:none;stroke-width:0.93749994px"
       id="path14022" />
    <path
       d="m 436.34369,639.65918 v -0.76904 h 12.50976 v 0.76904 l -1.94824,0.42725 v 13.67187 l 2.49512,0.27344 -0.29053,7.69043 h -1.11084 l -1.48681,-6.76758 h -11.24512 l -1.48682,6.76758 h -1.11084 l -0.29052,-7.69043 2.52929,-0.32471 q 1.38428,-2.63183 2.34131,-6.16943 0.97412,-3.55469 1.24756,-7.45117 z m 0.35889,13.87695 h 7.36572 v -13.4497 h -4.10156 q -0.22217,3.74267 -1.07666,7.24609 -0.83741,3.48633 -2.1875,6.20361 z"
       style="text-align:center;text-anchor:middle;fill:#000000;fill-opacity:1;stroke:none;stroke-width:0.93749994px"
       id="path14024" />
    <path
       d="m 453.62152,662.5083 q -1.33301,0 -2.63183,-0.30762 v -3.46923 h 0.80322 l 0.56396,1.64062 q 0.52979,0.39307 1.46973,0.39307 0.88867,0 1.64062,-0.5127 0.75196,-0.51269 1.36719,-1.52099 0.63233,-1.0083 1.57227,-3.60596 l -6.11817,-15.03906 -1.64062,-0.42725 v -0.76904 h 7.45117 v 0.76904 l -2.5293,0.46143 4.34082,11.22802 4.20411,-11.2622 -2.51221,-0.42725 v -0.76904 h 5.98144 v 0.76904 l -1.6748,0.35889 -6.27197,15.94482 q -1.11084,2.81983 -1.93116,4.05029 -0.82031,1.23047 -1.81152,1.8628 -0.99121,0.63232 -2.27295,0.63232 z"
       style="text-align:center;text-anchor:middle;fill:#000000;fill-opacity:1;stroke:none;stroke-width:0.93749994px"
       id="path14026" />
  </g>
  <g
     aria-label="Диметрична проекція
з кутом 45°"
     style="font-style:normal;font-variant:normal;font-weight:normal;font-stretch:normal;font-size:35px;line-height:34.05118179px;font-family:'Liberation Serif';-inkscape-font-specification:'Liberation Serif';text-align:center;letter-spacing:0px;word-spacing:0px;text-anchor:middle;fill:none;stroke:#000000;stroke-width:0.93749994px;stroke-linecap:butt;stroke-linejoin:miter;stroke-opacity:1"
     id="text13797">
    <path
       d="m 571.00732,816.29596 v -19.84131 h -6.90429 q 0,5.05859 -1.16211,10.33936 -1.14502,5.28076 -3.22998,9.50195 z m -13.36425,1.53809 -1.65772,7.45117 h -1.11084 l -0.29053,-8.47657 3.00782,-0.34179 q 2.23877,-4.23828 3.50341,-9.53613 1.26465,-5.29786 1.26465,-10.66407 l -2.93945,-0.44433 v -0.90577 h 17.80762 v 0.90577 l -2.93946,0.44433 v 20.2002 l 3.07618,0.34179 -0.29053,8.47657 h -1.11084 l -1.65772,-7.45117 z"
       style="text-align:center;text-anchor:middle;fill:#000000;fill-opacity:1;stroke:none;stroke-width:0.93749994px"
       id="path13902" />
    <path
       d="m 580.9707,802.96588 -2.13623,-0.42724 v -0.76905 h 6.92139 v 0.76905 l -1.94824,0.42724 v 10.1001 l 7.51953,-8.13477 v -1.96533 l -2.13623,-0.42724 v -0.76905 h 6.92138 v 0.76905 l -1.94824,0.42724 v 13.67188 l 1.94824,0.42724 v 0.76905 h -6.92138 V 817.065 l 2.13623,-0.42724 v -9.77539 l -7.51953,8.13476 v 1.64063 l 1.94824,0.42724 v 0.76905 h -6.92139 V 817.065 l 2.13623,-0.42724 z"
       style="text-align:center;text-anchor:middle;fill:#000000;fill-opacity:1;stroke:none;stroke-width:0.93749994px"
       id="path13904" />
    <path
       d="m 599.70117,802.96588 -1.96533,-0.42724 v -0.76905 h 5.69092 l 4.61426,11.63819 4.71679,-11.63819 h 5.50293 v 0.76905 l -1.94824,0.42724 v 13.67188 l 1.94824,0.42724 v 0.76905 h -6.57959 V 817.065 l 1.79444,-0.42724 v -12.8003 l -5.67383,13.99659 h -0.92285 l -5.53711,-13.94532 v 12.74903 l 1.60644,0.42724 v 0.76905 h -5.2124 V 817.065 l 1.96533,-0.42724 z"
       style="text-align:center;text-anchor:middle;fill:#000000;fill-opacity:1;stroke:none;stroke-width:0.93749994px"
       id="path13906" />
    <path
       d="m 623.52441,809.75055 v 0.30762 q 0,2.35839 0.5127,3.67431 0.52978,1.29883 1.60644,1.98242 1.09375,0.6836 2.85401,0.6836 0.92285,0 2.1875,-0.15381 1.26465,-0.15381 2.08496,-0.3418 v 0.95703 q -0.82031,0.52979 -2.23877,0.92286 -1.40137,0.39306 -2.87109,0.39306 -3.74268,0 -5.48584,-2.0166 -1.72608,-2.0166 -1.72608,-6.47705 0,-4.2041 1.76026,-6.27197 1.76025,-2.06787 5.02441,-2.06787 6.16943,0 6.16943,7.00683 v 1.40137 z m 3.7085,-7.04102 q -1.77734,0 -2.73437,1.43555 -0.93995,1.43555 -0.93995,4.23828 h 6.87012 q 0,-3.05908 -0.78613,-4.35791 -0.78613,-1.31592 -2.40967,-1.31592 z"
       style="text-align:center;text-anchor:middle;fill:#000000;fill-opacity:1;stroke:none;stroke-width:0.93749994px"
       id="path13908" />
    <path
       d="m 649.38135,801.76959 v 4.58008 h -0.93994 l -0.73487,-2.83691 q -1.89697,-0.32471 -3.40088,-0.32471 h -0.64941 v 13.44971 l 2.29004,0.42724 v 0.76905 h -7.60498 V 817.065 l 2.47803,-0.42724 v -13.44971 h -0.63233 q -1.5039,0 -3.40088,0.32471 l -0.73486,2.83691 h -0.93994 v -4.58008 z"
       style="text-align:center;text-anchor:middle;fill:#000000;fill-opacity:1;stroke:none;stroke-width:0.93749994px"
       id="path13910" />
    <path
       d="m 652.91895,802.96588 -1.82862,-0.42724 v -0.76905 h 4.51172 l 0.0342,0.93994 q 0.71777,-0.61523 1.91406,-0.99121 1.21338,-0.37597 2.46094,-0.37597 3.07617,0 4.75098,2.13623 1.69189,2.13623 1.69189,6.13525 0,4.08447 -1.8457,6.32324 -1.82861,2.23877 -5.29785,2.23877 -1.93116,0 -3.67432,-0.37597 0.10254,1.23046 0.10254,1.93115 v 4.34082 l 2.80273,0.41015 v 0.80323 h -7.65625 v -0.80323 l 2.0337,-0.41015 z m 10.45898,6.64795 q 0,-3.28125 -1.07666,-4.8706 -1.05957,-1.60645 -3.22998,-1.60645 -1.99951,0 -3.33252,0.56396 v 12.83448 q 1.521,0.29052 3.33252,0.29052 4.30664,0 4.30664,-7.21191 z"
       style="text-align:center;text-anchor:middle;fill:#000000;fill-opacity:1;stroke:none;stroke-width:0.93749994px"
       id="path13912" />
    <path
       d="m 670.58984,802.96588 -2.13623,-0.42724 v -0.76905 h 6.92139 v 0.76905 l -1.94824,0.42724 v 10.1001 l 7.51953,-8.13477 v -1.96533 l -2.13623,-0.42724 v -0.76905 h 6.92139 v 0.76905 l -1.94825,0.42724 v 13.67188 l 1.94825,0.42724 v 0.76905 h -6.92139 V 817.065 l 2.13623,-0.42724 v -9.77539 l -7.51953,8.13476 v 1.64063 l 1.94824,0.42724 v 0.76905 h -6.92139 V 817.065 l 2.13623,-0.42724 z"
       style="text-align:center;text-anchor:middle;fill:#000000;fill-opacity:1;stroke:none;stroke-width:0.93749994px"
       id="path13914" />
    <path
       d="m 692.05469,808.40045 q 0,1.05957 0.64941,1.74317 0.66651,0.68359 1.81152,0.68359 1.72608,0 4.01612,-0.56397 v -7.29736 l -2.13623,-0.42724 v -0.76905 h 6.92138 v 0.76905 l -1.94824,0.42724 v 13.67188 l 1.94824,0.42724 v 0.76905 h -6.92138 V 817.065 l 2.13623,-0.42724 v -5.41748 q -1.86279,0.90576 -3.09326,1.26464 -1.21338,0.3418 -2.20459,0.3418 -1.93116,0 -2.97364,-1.12793 -1.04248,-1.12793 -1.04248,-3.24707 v -5.48584 l -2.13623,-0.42724 v -0.76905 h 6.92139 v 0.76905 l -1.94824,0.42724 z"
       style="text-align:center;text-anchor:middle;fill:#000000;fill-opacity:1;stroke:none;stroke-width:0.93749994px"
       id="path13916" />
    <path
       d="m 706.95703,802.96588 -2.13623,-0.42724 v -0.76905 h 6.92139 v 0.76905 l -1.94824,0.42724 v 5.94727 h 7.51953 v -5.94727 l -2.13623,-0.42724 v -0.76905 h 6.92138 v 0.76905 l -1.94824,0.42724 v 13.67188 l 1.94824,0.42724 v 0.76905 h -6.92138 V 817.065 l 2.13623,-0.42724 v -6.30616 h -7.51953 v 6.30616 l 1.94824,0.42724 v 0.76905 H 704.8208 V 817.065 l 2.13623,-0.42724 z"
       style="text-align:center;text-anchor:middle;fill:#000000;fill-opacity:1;stroke:none;stroke-width:0.93749994px"
       id="path13918" />
    <path
       d="m 730.86572,801.41071 q 2.63184,0 3.86231,1.07666 1.24756,1.07666 1.24756,3.29834 v 10.85205 l 1.99951,0.42724 v 0.76905 h -4.40918 l -0.32471,-1.60645 q -1.94824,1.94824 -4.97314,1.94824 -4.11866,0 -4.11866,-4.78515 0,-1.60645 0.61524,-2.64893 0.63232,-1.05957 1.99951,-1.60645 1.36719,-0.56396 3.96484,-0.61523 l 2.40967,-0.0684 v -2.51221 q 0,-1.65771 -0.61523,-2.44384 -0.59815,-0.78614 -1.8628,-0.78614 -1.70898,0 -3.12744,0.80323 l -0.58105,1.99951 h -0.95703 v -3.50342 q 2.76855,-0.59814 4.8706,-0.59814 z m 2.27295,8.2373 -2.23877,0.0684 q -2.29004,0.0855 -3.11035,0.88867 -0.80322,0.80322 -0.80322,2.68311 0,3.00781 2.44385,3.00781 1.16211,0 1.99951,-0.25635 0.85449,-0.27344 1.70898,-0.68359 z"
       style="text-align:center;text-anchor:middle;fill:#000000;fill-opacity:1;stroke:none;stroke-width:0.93749994px"
       id="path13920" />
    <path
       d="m 749.95508,802.96588 -2.13623,-0.42724 v -0.76905 h 17.27783 v 0.76905 l -1.94824,0.42724 v 13.67188 l 1.94824,0.42724 v 0.76905 h -6.92139 V 817.065 l 2.13623,-0.42724 v -13.44971 h -7.51953 v 13.44971 l 1.94824,0.42724 v 0.76905 h -6.92138 V 817.065 l 2.13623,-0.42724 z"
       style="text-align:center;text-anchor:middle;fill:#000000;fill-opacity:1;stroke:none;stroke-width:0.93749994px"
       id="path13922" />
    <path
       d="m 768.51465,802.96588 -1.82861,-0.42724 v -0.76905 h 4.51171 l 0.0342,0.93994 q 0.71778,-0.61523 1.91407,-0.99121 1.21337,-0.37597 2.46093,-0.37597 3.07618,0 4.75098,2.13623 1.69189,2.13623 1.69189,6.13525 0,4.08447 -1.8457,6.32324 -1.82861,2.23877 -5.29785,2.23877 -1.93115,0 -3.67432,-0.37597 0.10254,1.23046 0.10254,1.93115 v 4.34082 l 2.80274,0.41015 v 0.80323 h -7.65625 v -0.80323 l 2.03369,-0.41015 z m 10.45898,6.64795 q 0,-3.28125 -1.07666,-4.8706 -1.05957,-1.60645 -3.22998,-1.60645 -1.99951,0 -3.33252,0.56396 v 12.83448 q 1.521,0.29052 3.33252,0.29052 4.30664,0 4.30664,-7.21191 z"
       style="text-align:center;text-anchor:middle;fill:#000000;fill-opacity:1;stroke:none;stroke-width:0.93749994px"
       id="path13924" />
    <path
       d="m 799.58398,809.71637 q 0,8.45947 -7.51953,8.45947 -3.62304,0 -5.46875,-2.17041 -1.8457,-2.17041 -1.8457,-6.28906 0,-4.06738 1.8457,-6.2207 1.84571,-2.15332 5.60547,-2.15332 3.65723,0 5.52002,2.11914 1.86279,2.10205 1.86279,6.25488 z m -3.07617,0 q 0,-3.69141 -1.07666,-5.34912 -1.07666,-1.65772 -3.3667,-1.65772 -2.23877,0 -3.24707,1.58936 -0.99121,1.58935 -0.99121,5.41748 0,3.87939 1.0083,5.50293 1.02539,1.60644 3.22998,1.60644 2.25586,0 3.34961,-1.6748 1.09375,-1.6748 1.09375,-5.43457 z"
       style="text-align:center;text-anchor:middle;fill:#000000;fill-opacity:1;stroke:none;stroke-width:0.93749994px"
       id="path13926" />
    <path
       d="m 805.77051,809.75055 v 0.30762 q 0,2.35839 0.51269,3.67431 0.52979,1.29883 1.60645,1.98242 1.09375,0.6836 2.854,0.6836 0.92285,0 2.1875,-0.15381 1.26465,-0.15381 2.08496,-0.3418 v 0.95703 q -0.82031,0.52979 -2.23877,0.92286 -1.40136,0.39306 -2.87109,0.39306 -3.74268,0 -5.48584,-2.0166 -1.72607,-2.0166 -1.72607,-6.47705 0,-4.2041 1.76025,-6.27197 1.76025,-2.06787 5.02441,-2.06787 6.16944,0 6.16944,7.00683 v 1.40137 z m 3.70849,-7.04102 q -1.77734,0 -2.73437,1.43555 -0.93994,1.43555 -0.93994,4.23828 h 6.87011 q 0,-3.05908 -0.78613,-4.35791 -0.78613,-1.31592 -2.40967,-1.31592 z"
       style="text-align:center;text-anchor:middle;fill:#000000;fill-opacity:1;stroke:none;stroke-width:0.93749994px"
       id="path13928" />
    <path
       d="m 819.61328,802.96588 -2.13623,-0.42724 v -0.76905 h 6.92139 v 0.76905 l -1.94824,0.42724 v 7.10938 l 6.5625,-7.0752 -1.67481,-0.46142 v -0.76905 h 5.67383 v 0.76905 l -1.99951,0.39306 -4.58008,4.68262 5.87891,9.05762 1.57226,0.39306 v 0.76905 h -6.40869 V 817.065 l 1.46973,-0.42724 -4.40918,-6.92139 -2.08496,1.77734 v 5.14405 l 1.94824,0.42724 v 0.76905 h -6.92139 V 817.065 l 2.13623,-0.42724 z"
       style="text-align:center;text-anchor:middle;fill:#000000;fill-opacity:1;stroke:none;stroke-width:0.93749994px"
       id="path13930" />
    <path
       d="M 834.49854,817.83405 V 817.065 l 2.13623,-0.42724 v -13.67188 l -2.13623,-0.42724 v -0.76905 h 6.92138 v 0.76905 l -1.94824,0.42724 v 13.44971 h 7.51953 v -13.44971 l -2.13623,-0.42724 v -0.76905 h 6.92139 v 0.76905 l -1.94825,0.42724 v 13.67188 l 1.98243,0.27343 -0.29053,7.69043 h -1.11084 l -1.65772,-6.76757 z"
       style="text-align:center;text-anchor:middle;fill:#000000;fill-opacity:1;stroke:none;stroke-width:0.93749994px"
       id="path13932" />
    <path
       d="m 859.07373,796.52301 q 0,0.75195 -0.54687,1.29883 -0.54688,0.54687 -1.31592,0.54687 -0.75196,0 -1.29883,-0.54687 -0.54688,-0.54688 -0.54688,-1.29883 0,-0.76904 0.54688,-1.31592 0.54687,-0.54687 1.29883,-0.54687 0.76904,0 1.31592,0.54687 0.54687,0.54688 0.54687,1.31592 z m -0.1709,20.11475 2.75147,0.42724 v 0.76905 h -8.32276 V 817.065 l 2.73438,-0.42724 v -13.67188 l -2.27295,-0.42724 v -0.76905 h 5.10986 z"
       style="text-align:center;text-anchor:middle;fill:#000000;fill-opacity:1;stroke:none;stroke-width:0.93749994px"
       id="path13934" />
    <path
       d="m 866.30273,817.83405 h -3.89648 V 817.065 l 1.38428,-0.39306 3.81103,-6.25489 q -1.70898,-0.39306 -2.66601,-1.52099 -0.93994,-1.12793 -0.93994,-2.76856 0,-4.35791 6.80175,-4.35791 h 6.97266 v 0.76905 l -2.13623,0.42724 v 13.67188 l 2.13623,0.42724 v 0.76905 h -7.0752 V 817.065 l 2.10205,-0.44433 v -5.69092 h -2.49511 z m 6.49414,-14.69727 h -1.74316 q -2.08496,0 -3.04199,0.78613 -0.93994,0.76905 -0.93994,2.29004 0,3.34961 3.72558,3.34961 h 1.99951 z"
       style="text-align:center;text-anchor:middle;fill:#000000;fill-opacity:1;stroke:none;stroke-width:0.93749994px"
       id="path13936" />
    <path
       d="m 641.62256,843.57956 q 1.45264,0.23926 2.39258,1.21338 0.93994,0.95703 0.93994,2.27295 0,5.16113 -7.10938,5.16113 -1.26465,0 -2.64892,-0.35888 -1.36719,-0.35889 -1.89698,-0.85449 v -1.0254 q 1.57227,0.46143 3.77686,0.46143 2.37549,0 3.58887,-0.78613 1.21338,-0.78614 1.21338,-2.5293 0,-1.29883 -0.95704,-2.05078 -0.95703,-0.76904 -2.49511,-0.76904 h -2.05078 v -1.41846 h 2.06787 q 1.46972,0 2.32422,-0.78613 0.87158,-0.78614 0.87158,-2.1875 0,-1.55518 -0.76904,-2.3584 -0.75196,-0.80322 -2.56348,-0.80322 -0.70068,0 -1.45264,0.22216 -0.75195,0.22217 -1.24756,0.58106 l -0.61523,2.32422 h -0.93994 v -3.96485 q 2.47803,-0.52978 4.375,-0.52978 3.22998,0 4.6997,1.04248 1.46973,1.04248 1.46973,3.26416 0,1.38428 -0.82031,2.34131 -0.82031,0.93994 -2.15332,1.43554 z"
       style="text-align:center;text-anchor:middle;fill:#000000;fill-opacity:1;stroke:none;stroke-width:0.93749994px"
       id="path13938" />
    <path
       d="m 657.63574,837.01706 -2.13623,-0.42724 v -0.76905 h 6.92139 v 0.76905 l -1.94824,0.42724 v 7.10938 l 6.5625,-7.0752 -1.67481,-0.46142 v -0.76905 h 5.67383 v 0.76905 l -1.99951,0.39306 -4.58008,4.68262 5.87891,9.05762 1.57226,0.39306 v 0.76905 h -6.40869 v -0.76905 l 1.46973,-0.42724 -4.40918,-6.92139 -2.08496,1.77735 v 5.14404 l 1.94824,0.42724 v 0.76905 h -6.92139 v -0.76905 l 2.13623,-0.42724 z"
       style="text-align:center;text-anchor:middle;fill:#000000;fill-opacity:1;stroke:none;stroke-width:0.93749994px"
       id="path13940" />
    <path
       d="m 674.81104,859.43894 q -1.33301,0 -2.63184,-0.30762 v -3.46924 h 0.80322 l 0.56397,1.64063 q 0.52978,0.39306 1.46972,0.39306 0.88868,0 1.64063,-0.51269 0.75195,-0.5127 1.36719,-1.521 0.63232,-1.0083 1.57226,-3.60595 l -6.11816,-15.03907 -1.64063,-0.42724 v -0.76905 h 7.45117 v 0.76905 l -2.52929,0.46142 4.34082,11.22803 4.2041,-11.26221 -2.51221,-0.42724 v -0.76905 h 5.98145 v 0.76905 l -1.67481,0.35888 -6.27197,15.94483 q -1.11084,2.81982 -1.93115,4.05029 -0.82031,1.23047 -1.81153,1.86279 -0.99121,0.63233 -2.27294,0.63233 z"
       style="text-align:center;text-anchor:middle;fill:#000000;fill-opacity:1;stroke:none;stroke-width:0.93749994px"
       id="path13942" />
    <path
       d="m 703.69287,835.82077 v 4.58008 h -0.93994 l -0.73486,-2.83691 q -1.89698,-0.32471 -3.40088,-0.32471 h -0.64942 v 13.44971 l 2.29004,0.42724 v 0.76905 h -7.60498 v -0.76905 l 2.47803,-0.42724 v -13.44971 h -0.63232 q -1.50391,0 -3.40088,0.32471 l -0.73487,2.83691 h -0.93994 v -4.58008 z"
       style="text-align:center;text-anchor:middle;fill:#000000;fill-opacity:1;stroke:none;stroke-width:0.93749994px"
       id="path13944" />
    <path
       d="m 719.91113,843.76755 q 0,8.45947 -7.51953,8.45947 -3.62305,0 -5.46875,-2.17041 -1.8457,-2.17041 -1.8457,-6.28906 0,-4.06738 1.8457,-6.2207 1.8457,-2.15332 5.60547,-2.15332 3.65723,0 5.52002,2.11914 1.86279,2.10205 1.86279,6.25488 z m -3.07617,0 q 0,-3.6914 -1.07666,-5.34912 -1.07666,-1.65771 -3.3667,-1.65771 -2.23877,0 -3.24707,1.58935 -0.99121,1.58936 -0.99121,5.41748 0,3.8794 1.0083,5.50293 1.02539,1.60645 3.22998,1.60645 2.25586,0 3.34961,-1.67481 1.09375,-1.6748 1.09375,-5.43457 z"
       style="text-align:center;text-anchor:middle;fill:#000000;fill-opacity:1;stroke:none;stroke-width:0.93749994px"
       id="path13946" />
    <path
       d="m 723.3291,837.01706 -1.96533,-0.42724 v -0.76905 h 5.69092 l 4.61426,11.63819 4.71679,-11.63819 h 5.50293 v 0.76905 l -1.94824,0.42724 v 13.67188 l 1.94824,0.42724 v 0.76905 h -6.57959 v -0.76905 l 1.79444,-0.42724 v -12.80029 l -5.67383,13.99658 h -0.92285 l -5.53711,-13.94532 v 12.74903 l 1.60644,0.42724 v 0.76905 h -5.2124 v -0.76905 l 1.96533,-0.42724 z"
       style="text-align:center;text-anchor:middle;fill:#000000;fill-opacity:1;stroke:none;stroke-width:0.93749994px"
       id="path13948" />
    <path
       d="m 765.30176,846.84372 v 5.04151 h -2.93946 v -5.04151 h -10.21972 v -2.27295 l 11.19385,-15.72265 h 1.96533 v 15.55176 h 3.11035 v 2.44384 z m -2.93946,-13.97949 h -0.0854 l -8.20313,11.53565 h 8.28857 z"
       style="text-align:center;text-anchor:middle;fill:#000000;fill-opacity:1;stroke:none;stroke-width:0.93749994px"
       id="path13950" />
    <path
       d="m 777.24756,838.48679 q 3.96484,0 5.89599,1.62354 1.94825,1.62353 1.94825,4.95605 0,3.45215 -2.10205,5.31494 -2.10205,1.8457 -6.01563,1.8457 -3.24707,0 -5.79346,-0.73486 l -0.18798,-4.81933 h 1.12793 l 0.76904,3.21289 q 0.75195,0.41015 1.79443,0.6665 1.05957,0.25635 2.0166,0.25635 2.7002,0 3.96485,-1.26465 1.28174,-1.28174 1.28174,-4.30664 0,-2.11914 -0.54688,-3.1958 -0.54687,-1.09375 -1.74316,-1.60645 -1.19629,-0.51269 -3.21289,-0.51269 -1.55518,0 -3.042,0.41015 h -1.64062 v -11.36474 h 11.62109 v 2.61474 H 773.2998 v 7.31446 q 1.84571,-0.41016 3.94776,-0.41016 z"
       style="text-align:center;text-anchor:middle;fill:#000000;fill-opacity:1;stroke:none;stroke-width:0.93749994px"
       id="path13952" />
    <path
       d="m 788.13379,833.9238 q 0,-1.41846 0.70068,-2.64892 0.70069,-1.23047 1.93115,-1.94825 1.24756,-0.71777 2.66602,-0.71777 1.41846,0 2.64893,0.71777 1.23047,0.70069 1.94824,1.93116 0.71777,1.23046 0.71777,2.66601 0,1.43555 -0.73486,2.68311 -0.71777,1.23047 -1.94824,1.93115 -1.23047,0.68359 -2.63184,0.68359 -2.22168,0 -3.75977,-1.53808 -1.53808,-1.53809 -1.53808,-3.75977 z m 1.74316,0 q 0,1.521 1.04248,2.56348 1.05957,1.02539 2.51221,1.02539 1.50391,0 2.5293,-1.04248 1.04248,-1.04248 1.04248,-2.54639 0,-1.52099 -1.04248,-2.56347 -1.02539,-1.04249 -2.5293,-1.04249 -1.45264,0 -2.51221,1.04249 -1.04248,1.02539 -1.04248,2.56347 z"
       style="text-align:center;text-anchor:middle;fill:#000000;fill-opacity:1;stroke:none;stroke-width:0.93749994px"
       id="path13954" />
  </g>
  <g
     aria-label="Вид зліва, як
його видно
справа"
     style="font-style:normal;font-variant:normal;font-weight:normal;font-stretch:normal;font-size:35px;line-height:30.50787354px;font-family:'Liberation Serif';-inkscape-font-specification:'Liberation Serif';text-align:center;letter-spacing:0px;word-spacing:0px;text-anchor:middle;fill:none;stroke:#000000;stroke-width:0.93749994px;stroke-linecap:butt;stroke-linejoin:miter;stroke-opacity:1"
     id="text13821">
    <path
       d="m 1163.5999,753.05011 q 0,-2.10205 -1.316,-3.05908 -1.3159,-0.95703 -4.2724,-0.95703 h -3.5376 v 8.66455 h 3.7427 q 2.7685,0 4.0673,-1.09375 1.316,-1.09375 1.316,-3.55469 z m 1.726,10.83496 q 0,-2.40967 -1.6064,-3.52051 -1.6065,-1.12793 -5.1441,-1.12793 h -4.1015 v 9.63868 q 2.3584,0.10253 5.0244,0.10253 2.9224,0 4.375,-1.23046 1.4526,-1.24756 1.4526,-3.86231 z m -17.0898,6.52832 v -0.90576 l 2.9394,-0.46143 v -20.20019 l -2.9394,-0.44434 v -0.90576 h 10.4761 q 4.3579,0 6.3745,1.29883 2.0166,1.28174 2.0166,4.08447 0,2.0166 -1.2476,3.43506 -1.2305,1.41846 -3.4692,1.89697 3.0932,0.32471 4.7851,1.81153 1.6919,1.46972 1.6919,3.79394 0,3.29834 -2.29,5.00733 -2.273,1.69189 -6.648,1.69189 l -7.3144,-0.10254 z"
       style="text-align:center;text-anchor:middle;fill:#000000;fill-opacity:1;stroke:none;stroke-width:0.93749994px"
       id="path13849" />
    <path
       d="m 1173.3752,755.54523 -2.1362,-0.42725 v -0.76904 h 6.9214 v 0.76904 l -1.9482,0.42725 v 10.10009 l 7.5195,-8.13476 v -1.96533 l -2.1362,-0.42725 v -0.76904 h 6.9213 v 0.76904 l -1.9482,0.42725 v 13.67187 l 1.9482,0.42725 v 0.76904 h -6.9213 v -0.76904 l 2.1362,-0.42725 v -9.77539 l -7.5195,8.13477 v 1.64062 l 1.9482,0.42725 v 0.76904 h -6.9214 v -0.76904 l 2.1362,-0.42725 z"
       style="text-align:center;text-anchor:middle;fill:#000000;fill-opacity:1;stroke:none;stroke-width:0.93749994px"
       id="path13851" />
    <path
       d="m 1193.302,755.11798 v -0.76904 h 12.5098 v 0.76904 l -1.9483,0.42725 v 13.67187 l 2.4951,0.27344 -0.2905,7.69043 h -1.1108 l -1.4868,-6.76758 h -11.2452 l -1.4868,6.76758 h -1.1108 l -0.2905,-7.69043 2.5293,-0.32471 q 1.3842,-2.63183 2.3413,-6.16943 0.9741,-3.55469 1.2475,-7.45117 z m 0.3589,13.87695 h 7.3657 v -13.4497 h -4.1016 q -0.2221,3.74267 -1.0766,7.24609 -0.8374,3.48633 -2.1875,6.20361 z"
       style="text-align:center;text-anchor:middle;fill:#000000;fill-opacity:1;stroke:none;stroke-width:0.93749994px"
       id="path13853" />
    <path
       d="m 1225.2429,762.10773 q 1.4527,0.23925 2.3926,1.21338 0.9399,0.95703 0.9399,2.27295 0,5.16113 -7.1093,5.16113 -1.2647,0 -2.649,-0.35889 -1.3671,-0.35889 -1.8969,-0.85449 v -1.02539 q 1.5722,0.46142 3.7768,0.46142 2.3755,0 3.5889,-0.78613 1.2134,-0.78613 1.2134,-2.5293 0,-1.29882 -0.9571,-2.05078 -0.957,-0.76904 -2.4951,-0.76904 h -2.0508 v -1.41846 h 2.0679 q 1.4697,0 2.3242,-0.78613 0.8716,-0.78613 0.8716,-2.1875 0,-1.55518 -0.769,-2.3584 -0.752,-0.80322 -2.5635,-0.80322 -0.7007,0 -1.4526,0.22217 -0.752,0.22217 -1.2476,0.58105 l -0.6152,2.32422 h -0.94 v -3.96484 q 2.478,-0.52979 4.375,-0.52979 3.23,0 4.6997,1.04248 1.4698,1.04248 1.4698,3.26416 0,1.38428 -0.8204,2.34131 -0.8203,0.93994 -2.1533,1.43555 z"
       style="text-align:center;text-anchor:middle;fill:#000000;fill-opacity:1;stroke:none;stroke-width:0.93749994px"
       id="path13855" />
    <path
       d="m 1232.2156,768.94366 q 0.7519,0 1.3843,-2.08496 0.6494,-2.08496 1.3842,-6.78466 l 0.7178,-4.52881 -2.2388,-0.42725 v -0.76904 h 12.92 v 0.76904 l -1.9483,0.42725 v 13.67187 l 1.9483,0.42725 v 0.76904 h -6.9214 v -0.76904 l 2.1362,-0.42725 v -13.4497 h -4.3579 l -0.7349,4.76806 q -0.769,4.95606 -1.3159,6.7334 -0.5298,1.76025 -1.3159,2.63184 -0.7861,0.85449 -1.9483,0.85449 -0.5639,0 -1.0424,-0.18799 -0.4615,-0.1709 -0.7007,-0.37598 l -0.1026,-2.78564 h 0.7691 l 0.5298,0.90576 q 0.1025,0.18799 0.3247,0.41016 0.2392,0.22216 0.5127,0.22216 z"
       style="text-align:center;text-anchor:middle;fill:#000000;fill-opacity:1;stroke:none;stroke-width:0.93749994px"
       id="path13857" />
    <path
       d="m 1253.7146,749.10236 q 0,0.75195 -0.5469,1.29882 -0.5469,0.54688 -1.3159,0.54688 -0.7519,0 -1.2988,-0.54688 -0.5469,-0.54687 -0.5469,-1.29882 0,-0.76905 0.5469,-1.31592 0.5469,-0.54688 1.2988,-0.54688 0.769,0 1.3159,0.54688 0.5469,0.54687 0.5469,1.31592 z m -0.1709,20.11474 2.7515,0.42725 v 0.76904 h -8.3228 v -0.76904 l 2.7344,-0.42725 v -13.67187 l -2.273,-0.42725 v -0.76904 h 5.1099 z"
       style="text-align:center;text-anchor:middle;fill:#000000;fill-opacity:1;stroke:none;stroke-width:0.93749994px"
       id="path13859" />
    <path
       d="m 1257.5769,770.41339 v -0.76904 l 2.1362,-0.42725 v -13.67187 l -2.1362,-0.42725 v -0.76904 h 6.8701 q 3.7769,0 5.3321,0.93994 1.5722,0.93994 1.5722,2.93945 0,1.64063 -0.9399,2.5293 -0.9229,0.88867 -2.6319,1.28174 v 0.13672 q 2.1705,0.23925 3.3326,1.11084 1.1621,0.87158 1.1621,2.61474 0,2.40967 -1.7603,3.46924 -1.7431,1.04248 -5.6738,1.04248 z m 7.0068,-1.36719 q 2.5293,0 3.5718,-0.75195 1.0425,-0.75195 1.0425,-2.46094 0,-1.62353 -1.1108,-2.30713 -1.0938,-0.70068 -3.7256,-0.70068 h -1.8116 v 6.2207 z m -2.0337,-7.58789 h 1.8116 q 2.0508,0 2.9736,-0.68359 0.9399,-0.68359 0.9399,-2.32422 0,-1.38428 -0.957,-2.05078 -0.9399,-0.68359 -3.0249,-0.68359 h -1.7432 z"
       style="text-align:center;text-anchor:middle;fill:#000000;fill-opacity:1;stroke:none;stroke-width:0.93749994px"
       id="path13861" />
    <path
       d="m 1280.9558,753.99005 q 2.6318,0 3.8623,1.07666 1.2476,1.07666 1.2476,3.29834 v 10.85205 l 1.9995,0.42725 v 0.76904 h -4.4092 l -0.3247,-1.60644 q -1.9482,1.94824 -4.9731,1.94824 -4.1187,0 -4.1187,-4.78516 0,-1.60644 0.6152,-2.64892 0.6324,-1.05957 1.9995,-1.60645 1.3672,-0.56396 3.9649,-0.61523 l 2.4097,-0.0684 v -2.51221 q 0,-1.65771 -0.6153,-2.44385 -0.5981,-0.78613 -1.8628,-0.78613 -1.709,0 -3.1274,0.80322 l -0.5811,1.99951 h -0.957 v -3.50341 q 2.7686,-0.59815 4.8706,-0.59815 z m 2.273,8.23731 -2.2388,0.0684 q -2.29,0.0854 -3.1104,0.88867 -0.8032,0.80322 -0.8032,2.6831 0,3.00782 2.4439,3.00782 1.1621,0 1.9995,-0.25635 0.8545,-0.27344 1.709,-0.6836 z"
       style="text-align:center;text-anchor:middle;fill:#000000;fill-opacity:1;stroke:none;stroke-width:0.93749994px"
       id="path13863" />
    <path
       d="m 1295.072,769.57599 q 0,2.34131 -1.3672,3.91357 -1.3501,1.58936 -3.8452,2.30713 v -1.31592 q 3.0078,-0.95703 3.0078,-2.87109 0,-0.3418 -0.2563,-0.61523 -0.2564,-0.27344 -0.8887,-0.59815 -1.1621,-0.59814 -1.1621,-1.69189 0,-0.92285 0.5811,-1.40137 0.581,-0.49561 1.4868,-0.49561 1.0937,0 1.7602,0.78614 0.6836,0.78613 0.6836,1.98242 z"
       style="text-align:center;text-anchor:middle;fill:#000000;fill-opacity:1;stroke:none;stroke-width:0.93749994px"
       id="path13865" />
    <path
       d="m 1310.0256,770.41339 h -3.8964 v -0.76904 l 1.3842,-0.39307 3.8111,-6.25488 q -1.709,-0.39307 -2.6661,-1.521 -0.9399,-1.12793 -0.9399,-2.76855 0,-4.35791 6.8018,-4.35791 h 6.9726 v 0.76904 l -2.1362,0.42725 v 13.67187 l 2.1362,0.42725 v 0.76904 h -7.0752 v -0.76904 l 2.1021,-0.44434 v -5.69092 h -2.4951 z m 6.4942,-14.69726 h -1.7432 q -2.0849,0 -3.042,0.78613 -0.9399,0.76904 -0.9399,2.29004 0,3.34961 3.7256,3.34961 h 1.9995 z"
       style="text-align:center;text-anchor:middle;fill:#000000;fill-opacity:1;stroke:none;stroke-width:0.93749994px"
       id="path13867" />
    <path
       d="m 1324.928,755.54523 -2.1363,-0.42725 v -0.76904 h 6.9214 v 0.76904 l -1.9482,0.42725 v 7.10937 l 6.5625,-7.07519 -1.6748,-0.46143 v -0.76904 h 5.6738 v 0.76904 l -1.9995,0.39307 -4.5801,4.68261 5.8789,9.05762 1.5723,0.39307 v 0.76904 h -6.4087 v -0.76904 l 1.4697,-0.42725 -4.4091,-6.92138 -2.085,1.77734 v 5.14404 l 1.9482,0.42725 v 0.76904 h -6.9214 v -0.76904 l 2.1363,-0.42725 z"
       style="text-align:center;text-anchor:middle;fill:#000000;fill-opacity:1;stroke:none;stroke-width:0.93749994px"
       id="path13869" />
    <path
       d="m 1163.3264,786.0531 -2.1362,-0.42724 v -0.76905 h 6.9214 v 0.76905 l -1.9483,0.42724 v 10.1001 l 7.5196,-8.13477 v -1.96533 l -2.1363,-0.42724 v -0.76905 h 6.9214 v 0.76905 l -1.9482,0.42724 v 13.67188 l 1.9482,0.42724 v 0.76905 h -6.9214 v -0.76905 l 2.1363,-0.42724 v -9.77539 l -7.5196,8.13476 v 1.64063 l 1.9483,0.42724 v 0.76905 h -6.9214 v -0.76905 l 2.1362,-0.42724 z m 6.5283,-4.30664 q -3.1274,0 -4.6655,-1.12793 -1.521,-1.12793 -1.6064,-3.65723 h 2.8027 q 0.1025,1.76026 0.9912,2.66602 0.8887,0.90576 2.478,0.90576 1.5894,0 2.4781,-0.90576 0.8886,-0.90576 0.9912,-2.66602 h 2.8027 q -0.085,2.54639 -1.6235,3.67432 -1.521,1.11084 -4.6485,1.11084 z"
       style="text-align:center;text-anchor:middle;fill:#000000;fill-opacity:1;stroke:none;stroke-width:0.93749994px"
       id="path13871" />
    <path
       d="m 1195.4553,792.80359 q 0,8.45947 -7.5195,8.45947 -3.6231,0 -5.4688,-2.17041 -1.8457,-2.17041 -1.8457,-6.28906 0,-4.06738 1.8457,-6.2207 1.8457,-2.15332 5.6055,-2.15332 3.6572,0 5.52,2.11914 1.8628,2.10205 1.8628,6.25488 z m -3.0761,0 q 0,-3.69141 -1.0767,-5.34912 -1.0767,-1.65772 -3.3667,-1.65772 -2.2388,0 -3.2471,1.58936 -0.9912,1.58935 -0.9912,5.41748 0,3.87939 1.0083,5.50293 1.0254,1.60644 3.23,1.60644 2.2559,0 3.3496,-1.6748 1.0938,-1.6748 1.0938,-5.43457 z"
       style="text-align:center;text-anchor:middle;fill:#000000;fill-opacity:1;stroke:none;stroke-width:0.93749994px"
       id="path13873" />
    <path
       d="m 1210.238,789.43689 h -0.9399 l -0.7349,-2.83691 q -1.8969,-0.32471 -3.4008,-0.32471 h -2.7686 v 13.44971 l 2.6318,0.42724 v 0.76905 h -7.6049 v -0.76905 l 2.1362,-0.42724 V 786.0531 l -2.1362,-0.42724 v -0.76905 h 12.8173 z"
       style="text-align:center;text-anchor:middle;fill:#000000;fill-opacity:1;stroke:none;stroke-width:0.93749994px"
       id="path13875" />
    <path
       d="m 1226.4221,792.80359 q 0,8.45947 -7.5195,8.45947 -3.6231,0 -5.4688,-2.17041 -1.8457,-2.17041 -1.8457,-6.28906 0,-4.06738 1.8457,-6.2207 1.8457,-2.15332 5.6055,-2.15332 3.6572,0 5.52,2.11914 1.8628,2.10205 1.8628,6.25488 z m -3.0762,0 q 0,-3.69141 -1.0766,-5.34912 -1.0767,-1.65772 -3.3667,-1.65772 -2.2388,0 -3.2471,1.58936 -0.9912,1.58935 -0.9912,5.41748 0,3.87939 1.0083,5.50293 1.0254,1.60644 3.23,1.60644 2.2558,0 3.3496,-1.6748 1.0937,-1.6748 1.0937,-5.43457 z"
       style="text-align:center;text-anchor:middle;fill:#000000;fill-opacity:1;stroke:none;stroke-width:0.93749994px"
       id="path13877" />
    <path
       d="m 1237.1375,800.92127 v -0.76905 l 2.1362,-0.42724 V 786.0531 l -2.1362,-0.42724 v -0.76905 h 6.8701 q 3.7768,0 5.332,0.93994 1.5723,0.93995 1.5723,2.93946 0,1.64062 -0.94,2.52929 -0.9228,0.88868 -2.6318,1.28174 v 0.13672 q 2.1704,0.23926 3.3325,1.11084 1.1621,0.87158 1.1621,2.61475 0,2.40966 -1.7602,3.46924 -1.7432,1.04248 -5.6739,1.04248 z m 7.0068,-1.36719 q 2.5293,0 3.5718,-0.75196 1.0424,-0.75195 1.0424,-2.46093 0,-1.62354 -1.1108,-2.30713 -1.0937,-0.70069 -3.7256,-0.70069 h -1.8115 v 6.22071 z m -2.0337,-7.58789 h 1.8115 q 2.0508,0 2.9737,-0.6836 0.9399,-0.68359 0.9399,-2.32422 0,-1.38427 -0.957,-2.05078 -0.94,-0.68359 -3.0249,-0.68359 h -1.7432 z"
       style="text-align:center;text-anchor:middle;fill:#000000;fill-opacity:1;stroke:none;stroke-width:0.93749994px"
       id="path13879" />
    <path
       d="m 1255.8167,786.0531 -2.1363,-0.42724 v -0.76905 h 6.9214 v 0.76905 l -1.9482,0.42724 v 10.1001 l 7.5195,-8.13477 v -1.96533 l -2.1362,-0.42724 v -0.76905 h 6.9214 v 0.76905 l -1.9483,0.42724 v 13.67188 l 1.9483,0.42724 v 0.76905 h -6.9214 v -0.76905 l 2.1362,-0.42724 v -9.77539 l -7.5195,8.13476 v 1.64063 l 1.9482,0.42724 v 0.76905 h -6.9214 v -0.76905 l 2.1363,-0.42724 z"
       style="text-align:center;text-anchor:middle;fill:#000000;fill-opacity:1;stroke:none;stroke-width:0.93749994px"
       id="path13881" />
    <path
       d="m 1275.7434,785.62586 v -0.76905 h 12.5098 v 0.76905 l -1.9483,0.42724 v 13.67188 l 2.4951,0.27343 -0.2905,7.69043 h -1.1108 l -1.4868,-6.76757 h -11.2452 l -1.4868,6.76757 h -1.1108 l -0.2905,-7.69043 2.5293,-0.3247 q 1.3842,-2.63184 2.3413,-6.16944 0.9741,-3.55468 1.2475,-7.45117 z m 0.3589,13.87695 h 7.3657 V 786.0531 h -4.1015 q -0.2222,3.74268 -1.0767,7.2461 -0.8374,3.48632 -2.1875,6.20361 z"
       style="text-align:center;text-anchor:middle;fill:#000000;fill-opacity:1;stroke:none;stroke-width:0.93749994px"
       id="path13883" />
    <path
       d="m 1292.3889,786.0531 -2.1362,-0.42724 v -0.76905 h 6.9214 v 0.76905 l -1.9483,0.42724 v 5.94727 h 7.5196 v -5.94727 l -2.1363,-0.42724 v -0.76905 h 6.9214 v 0.76905 l -1.9482,0.42724 v 13.67188 l 1.9482,0.42724 v 0.76905 h -6.9214 v -0.76905 l 2.1363,-0.42724 v -6.30616 h -7.5196 v 6.30616 l 1.9483,0.42724 v 0.76905 h -6.9214 v -0.76905 l 2.1362,-0.42724 z"
       style="text-align:center;text-anchor:middle;fill:#000000;fill-opacity:1;stroke:none;stroke-width:0.93749994px"
       id="path13885" />
    <path
       d="m 1324.5178,792.80359 q 0,8.45947 -7.5195,8.45947 -3.6231,0 -5.4688,-2.17041 -1.8457,-2.17041 -1.8457,-6.28906 0,-4.06738 1.8457,-6.2207 1.8457,-2.15332 5.6055,-2.15332 3.6572,0 5.52,2.11914 1.8628,2.10205 1.8628,6.25488 z m -3.0761,0 q 0,-3.69141 -1.0767,-5.34912 -1.0767,-1.65772 -3.3667,-1.65772 -2.2388,0 -3.2471,1.58936 -0.9912,1.58935 -0.9912,5.41748 0,3.87939 1.0083,5.50293 1.0254,1.60644 3.23,1.60644 2.2559,0 3.3496,-1.6748 1.0938,-1.6748 1.0938,-5.43457 z"
       style="text-align:center;text-anchor:middle;fill:#000000;fill-opacity:1;stroke:none;stroke-width:0.93749994px"
       id="path13887" />
    <path
       d="m 1208.2385,830.45502 q -0.8374,0.61523 -2.3071,0.97412 -1.4697,0.3418 -3.0078,0.3418 -7.8101,0 -7.8101,-8.49366 0,-4.01611 1.9824,-6.16943 1.9996,-2.17041 5.7081,-2.17041 2.3071,0 5.0415,0.52979 v 4.47754 h -0.94 l -0.7348,-2.83692 q -1.4185,-0.80322 -3.4009,-0.80322 -4.5801,0 -4.5801,6.97265 0,3.62305 1.3843,5.17823 1.4013,1.53808 4.3237,1.53808 2.4951,0 4.3408,-0.56396 z"
       style="text-align:center;text-anchor:middle;fill:#000000;fill-opacity:1;stroke:none;stroke-width:0.93749994px"
       id="path13889" />
    <path
       d="m 1212.0667,816.56098 -2.1363,-0.42725 v -0.76904 h 17.2779 v 0.76904 l -1.9483,0.42725 v 13.67187 l 1.9483,0.42725 v 0.76904 h -6.9214 v -0.76904 l 2.1362,-0.42725 v -13.44971 h -7.5195 v 13.44971 l 1.9482,0.42725 v 0.76904 h -6.9214 v -0.76904 l 2.1363,-0.42725 z"
       style="text-align:center;text-anchor:middle;fill:#000000;fill-opacity:1;stroke:none;stroke-width:0.93749994px"
       id="path13891" />
    <path
       d="m 1230.6262,816.56098 -1.8286,-0.42725 v -0.76904 h 4.5117 l 0.034,0.93994 q 0.7178,-0.61524 1.9141,-0.99121 1.2133,-0.37598 2.4609,-0.37598 3.0762,0 4.751,2.13623 1.6919,2.13623 1.6919,6.13526 0,4.08447 -1.8457,6.32324 -1.8286,2.23877 -5.2979,2.23877 -1.9311,0 -3.6743,-0.37598 0.1025,1.23047 0.1025,1.93115 v 4.34082 l 2.8028,0.41016 v 0.80322 h -7.6563 v -0.80322 l 2.0337,-0.41016 z m 10.459,6.64795 q 0,-3.28125 -1.0767,-4.87061 -1.0595,-1.60645 -3.2299,-1.60645 -1.9995,0 -3.3326,0.56397 v 12.83447 q 1.521,0.29053 3.3326,0.29053 4.3066,0 4.3066,-7.21191 z"
       style="text-align:center;text-anchor:middle;fill:#000000;fill-opacity:1;stroke:none;stroke-width:0.93749994px"
       id="path13893" />
    <path
       d="m 1253.4753,815.0058 q 2.6319,0 3.8623,1.07666 1.2476,1.07666 1.2476,3.29834 v 10.85205 l 1.9995,0.42725 v 0.76904 h -4.4092 l -0.3247,-1.60645 q -1.9482,1.94825 -4.9731,1.94825 -4.1187,0 -4.1187,-4.78516 0,-1.60644 0.6153,-2.64893 0.6323,-1.05957 1.9995,-1.60644 1.3672,-0.56397 3.9648,-0.61523 l 2.4097,-0.0684 v -2.51221 q 0,-1.65772 -0.6152,-2.44385 -0.5982,-0.78613 -1.8628,-0.78613 -1.709,0 -3.1275,0.80322 l -0.581,1.99951 h -0.9571 v -3.50342 q 2.7686,-0.59814 4.8706,-0.59814 z m 2.273,8.2373 -2.2388,0.0684 q -2.29,0.0855 -3.1103,0.88868 -0.8033,0.80322 -0.8033,2.6831 0,3.00781 2.4439,3.00781 1.1621,0 1.9995,-0.25634 0.8545,-0.27344 1.709,-0.6836 z"
       style="text-align:center;text-anchor:middle;fill:#000000;fill-opacity:1;stroke:none;stroke-width:0.93749994px"
       id="path13895" />
    <path
       d="m 1261.6785,831.42914 v -0.76904 l 2.1362,-0.42725 v -13.67187 l -2.1362,-0.42725 v -0.76904 h 6.8701 q 3.7768,0 5.332,0.93994 1.5723,0.93994 1.5723,2.93945 0,1.64063 -0.94,2.5293 -0.9228,0.88867 -2.6318,1.28174 v 0.13672 q 2.1704,0.23925 3.3325,1.11084 1.1621,0.87158 1.1621,2.61474 0,2.40967 -1.7602,3.46924 -1.7432,1.04248 -5.6738,1.04248 z m 7.0068,-1.36719 q 2.5293,0 3.5718,-0.75195 1.0425,-0.75195 1.0425,-2.46094 0,-1.62353 -1.1109,-2.30713 -1.0937,-0.70068 -3.7256,-0.70068 h -1.8115 v 6.2207 z m -2.0337,-7.58789 h 1.8115 q 2.0508,0 2.9737,-0.68359 0.9399,-0.6836 0.9399,-2.32422 0,-1.38428 -0.957,-2.05078 -0.94,-0.6836 -3.0249,-0.6836 h -1.7432 z"
       style="text-align:center;text-anchor:middle;fill:#000000;fill-opacity:1;stroke:none;stroke-width:0.93749994px"
       id="path13897" />
    <path
       d="m 1285.0574,815.0058 q 2.6318,0 3.8623,1.07666 1.2475,1.07666 1.2475,3.29834 v 10.85205 l 1.9995,0.42725 v 0.76904 h -4.4091 l -0.3247,-1.60645 q -1.9483,1.94825 -4.9732,1.94825 -4.1186,0 -4.1186,-4.78516 0,-1.60644 0.6152,-2.64893 0.6323,-1.05957 1.9995,-1.60644 1.3672,-0.56397 3.9649,-0.61523 l 2.4096,-0.0684 v -2.51221 q 0,-1.65772 -0.6152,-2.44385 -0.5982,-0.78613 -1.8628,-0.78613 -1.709,0 -3.1274,0.80322 l -0.5811,1.99951 h -0.957 v -3.50342 q 2.7685,-0.59814 4.8706,-0.59814 z m 2.2729,8.2373 -2.2387,0.0684 q -2.2901,0.0855 -3.1104,0.88868 -0.8032,0.80322 -0.8032,2.6831 0,3.00781 2.4438,3.00781 1.1621,0 1.9995,-0.25634 0.8545,-0.27344 1.709,-0.6836 z"
       style="text-align:center;text-anchor:middle;fill:#000000;fill-opacity:1;stroke:none;stroke-width:0.93749994px"
       id="path13899" />
  </g>
  <g
     aria-label="Вид справа"
     style="font-style:normal;font-variant:normal;font-weight:normal;font-stretch:normal;font-size:35px;line-height:30.50787354px;font-family:'Liberation Serif';-inkscape-font-specification:'Liberation Serif';text-align:center;letter-spacing:0px;word-spacing:0px;text-anchor:middle;fill:none;stroke:#000000;stroke-width:0.93749994px;stroke-linecap:butt;stroke-linejoin:miter;stroke-opacity:1"
     id="text13833">
    <path
       d="m 1055.7684,345.52896 q 0,-2.10205 -1.3159,-3.05908 -1.3159,-0.95703 -4.2724,-0.95703 h -3.5376 v 8.66455 h 3.7426 q 2.7686,0 4.0674,-1.09375 1.3159,-1.09375 1.3159,-3.55469 z m 1.7261,10.83496 q 0,-2.40967 -1.6064,-3.52051 -1.6065,-1.12793 -5.1441,-1.12793 h -4.1015 v 9.63868 q 2.3584,0.10254 5.0244,0.10254 2.9223,0 4.375,-1.23047 1.4526,-1.24756 1.4526,-3.86231 z m -17.0898,6.52832 v -0.90576 l 2.9394,-0.46143 v -20.20019 l -2.9394,-0.44434 v -0.90576 h 10.476 q 4.3579,0 6.3745,1.29883 2.0167,1.28174 2.0167,4.08447 0,2.0166 -1.2476,3.43506 -1.2305,1.41846 -3.4692,1.89697 3.0932,0.32471 4.7851,1.81153 1.6919,1.46972 1.6919,3.79394 0,3.29834 -2.29,5.00733 -2.273,1.69189 -6.648,1.69189 l -7.3144,-0.10254 z"
       style="text-align:center;text-anchor:middle;fill:#000000;fill-opacity:1;stroke:none;stroke-width:0.93749994px"
       id="path14030" />
    <path
       d="m 1065.5438,348.02408 -2.1362,-0.42725 v -0.76904 h 6.9214 v 0.76904 l -1.9483,0.42725 v 10.1001 l 7.5196,-8.13477 v -1.96533 l -2.1363,-0.42725 v -0.76904 h 6.9214 v 0.76904 l -1.9482,0.42725 v 13.67187 l 1.9482,0.42725 v 0.76904 h -6.9214 v -0.76904 l 2.1363,-0.42725 v -9.77539 l -7.5196,8.13477 v 1.64062 l 1.9483,0.42725 v 0.76904 h -6.9214 v -0.76904 l 2.1362,-0.42725 z"
       style="text-align:center;text-anchor:middle;fill:#000000;fill-opacity:1;stroke:none;stroke-width:0.93749994px"
       id="path14032" />
    <path
       d="m 1085.4706,347.59683 v -0.76904 h 12.5097 v 0.76904 l -1.9482,0.42725 v 13.67187 l 2.4951,0.27344 -0.2905,7.69043 h -1.1108 l -1.4869,-6.76758 h -11.2451 l -1.4868,6.76758 h -1.1108 l -0.2906,-7.69043 2.5293,-0.32471 q 1.3843,-2.63183 2.3413,-6.16943 0.9742,-3.55469 1.2476,-7.45117 z m 0.3589,13.87696 h 7.3657 v -13.44971 h -4.1016 q -0.2221,3.74267 -1.0766,7.24609 -0.8374,3.48633 -2.1875,6.20362 z"
       style="text-align:center;text-anchor:middle;fill:#000000;fill-opacity:1;stroke:none;stroke-width:0.93749994px"
       id="path14034" />
    <path
       d="m 1122.5555,361.91812 q -0.8374,0.61524 -2.3071,0.97412 -1.4697,0.3418 -3.0078,0.3418 -7.8101,0 -7.8101,-8.49365 0,-4.01612 1.9825,-6.16944 1.9995,-2.17041 5.708,-2.17041 2.3071,0 5.0415,0.52979 v 4.47754 h -0.94 l -0.7348,-2.83692 q -1.4185,-0.80322 -3.4009,-0.80322 -4.5801,0 -4.5801,6.97266 0,3.62304 1.3843,5.17822 1.4014,1.53809 4.3237,1.53809 2.4951,0 4.3408,-0.56397 z"
       style="text-align:center;text-anchor:middle;fill:#000000;fill-opacity:1;stroke:none;stroke-width:0.93749994px"
       id="path14036" />
    <path
       d="m 1126.3837,348.02408 -2.1363,-0.42725 v -0.76904 h 17.2779 v 0.76904 l -1.9483,0.42725 v 13.67187 l 1.9483,0.42725 v 0.76904 h -6.9214 v -0.76904 l 2.1362,-0.42725 v -13.4497 h -7.5195 v 13.4497 l 1.9482,0.42725 v 0.76904 h -6.9214 v -0.76904 l 2.1363,-0.42725 z"
       style="text-align:center;text-anchor:middle;fill:#000000;fill-opacity:1;stroke:none;stroke-width:0.93749994px"
       id="path14038" />
    <path
       d="m 1144.9432,348.02408 -1.8286,-0.42725 v -0.76904 h 4.5117 l 0.034,0.93994 q 0.7178,-0.61523 1.9141,-0.99121 1.2134,-0.37598 2.4609,-0.37598 3.0762,0 4.751,2.13623 1.6919,2.13623 1.6919,6.13526 0,4.08447 -1.8457,6.32324 -1.8286,2.23877 -5.2979,2.23877 -1.9311,0 -3.6743,-0.37598 0.1026,1.23047 0.1026,1.93116 v 4.34082 l 2.8027,0.41015 v 0.80322 h -7.6563 v -0.80322 l 2.0337,-0.41015 z m 10.459,6.64795 q 0,-3.28125 -1.0766,-4.87061 -1.0596,-1.60644 -3.23,-1.60644 -1.9995,0 -3.3325,0.56396 v 12.83447 q 1.521,0.29053 3.3325,0.29053 4.3066,0 4.3066,-7.21191 z"
       style="text-align:center;text-anchor:middle;fill:#000000;fill-opacity:1;stroke:none;stroke-width:0.93749994px"
       id="path14040" />
    <path
       d="m 1167.7924,346.4689 q 2.6318,0 3.8623,1.07666 1.2475,1.07666 1.2475,3.29834 v 10.85205 l 1.9995,0.42725 v 0.76904 h -4.4091 l -0.3248,-1.60644 q -1.9482,1.94824 -4.9731,1.94824 -4.1187,0 -4.1187,-4.78516 0,-1.60644 0.6153,-2.64892 0.6323,-1.05957 1.9995,-1.60645 1.3672,-0.56396 3.9648,-0.61523 l 2.4097,-0.0684 v -2.51221 q 0,-1.65771 -0.6152,-2.44385 -0.5982,-0.78613 -1.8628,-0.78613 -1.709,0 -3.1275,0.80322 l -0.581,1.99952 h -0.957 v -3.50342 q 2.7685,-0.59815 4.8706,-0.59815 z m 2.2729,8.23731 -2.2388,0.0684 q -2.29,0.0855 -3.1103,0.88867 -0.8032,0.80322 -0.8032,2.6831 0,3.00782 2.4438,3.00782 1.1621,0 1.9995,-0.25635 0.8545,-0.27344 1.709,-0.68359 z"
       style="text-align:center;text-anchor:middle;fill:#000000;fill-opacity:1;stroke:none;stroke-width:0.93749994px"
       id="path14042" />
    <path
       d="m 1175.9955,362.89224 v -0.76904 l 2.1362,-0.42725 v -13.67187 l -2.1362,-0.42725 v -0.76904 h 6.8701 q 3.7769,0 5.332,0.93994 1.5723,0.93994 1.5723,2.93945 0,1.64063 -0.9399,2.5293 -0.9229,0.88867 -2.6319,1.28174 v 0.13672 q 2.1704,0.23926 3.3325,1.11084 1.1621,0.87158 1.1621,2.61474 0,2.40967 -1.7602,3.46924 -1.7432,1.04248 -5.6738,1.04248 z m 7.0068,-1.36719 q 2.5293,0 3.5718,-0.75195 1.0425,-0.75195 1.0425,-2.46094 0,-1.62353 -1.1109,-2.30712 -1.0937,-0.70069 -3.7255,-0.70069 h -1.8116 v 6.2207 z m -2.0337,-7.58789 h 1.8116 q 2.0507,0 2.9736,-0.68359 0.9399,-0.68359 0.9399,-2.32422 0,-1.38428 -0.957,-2.05078 -0.9399,-0.68359 -3.0249,-0.68359 h -1.7432 z"
       style="text-align:center;text-anchor:middle;fill:#000000;fill-opacity:1;stroke:none;stroke-width:0.93749994px"
       id="path14044" />
    <path
       d="m 1199.3744,346.4689 q 2.6318,0 3.8623,1.07666 1.2476,1.07666 1.2476,3.29834 v 10.85205 l 1.9995,0.42725 v 0.76904 h -4.4092 l -0.3247,-1.60644 q -1.9483,1.94824 -4.9732,1.94824 -4.1186,0 -4.1186,-4.78516 0,-1.60644 0.6152,-2.64892 0.6323,-1.05957 1.9995,-1.60645 1.3672,-0.56396 3.9649,-0.61523 l 2.4096,-0.0684 v -2.51221 q 0,-1.65771 -0.6152,-2.44385 -0.5981,-0.78613 -1.8628,-0.78613 -1.709,0 -3.1274,0.80322 l -0.5811,1.99952 h -0.957 v -3.50342 q 2.7685,-0.59815 4.8706,-0.59815 z m 2.2729,8.23731 -2.2387,0.0684 q -2.2901,0.0855 -3.1104,0.88867 -0.8032,0.80322 -0.8032,2.6831 0,3.00782 2.4438,3.00782 1.1622,0 1.9996,-0.25635 0.8544,-0.27344 1.7089,-0.68359 z"
       style="text-align:center;text-anchor:middle;fill:#000000;fill-opacity:1;stroke:none;stroke-width:0.93749994px"
       id="path14046" />
  </g>
</svg>
