<?xml version="1.0" encoding="UTF-8" standalone="no"?>
<svg
   xmlns:osb="http://www.openswatchbook.org/uri/2009/osb"
   xmlns:dc="http://purl.org/dc/elements/1.1/"
   xmlns:cc="http://creativecommons.org/ns#"
   xmlns:rdf="http://www.w3.org/1999/02/22-rdf-syntax-ns#"
   xmlns:svg="http://www.w3.org/2000/svg"
   xmlns="http://www.w3.org/2000/svg"
   xmlns:sodipodi="http://sodipodi.sourceforge.net/DTD/sodipodi-0.dtd"
   xmlns:inkscape="http://www.inkscape.org/namespaces/inkscape"
   version="1.1"
   id="svg12238"
   viewBox="0 0 347.01735 421.42647"
   height="118.93591mm"
   width="97.936005mm"
   sodipodi:docname="projection-cube_09.svg"
   inkscape:version="0.92.1 r15371">
  <sodipodi:namedview
     pagecolor="#ffffff"
     bordercolor="#666666"
     borderopacity="1"
     objecttolerance="10"
     gridtolerance="10"
     guidetolerance="10"
     inkscape:pageopacity="0"
     inkscape:pageshadow="2"
     inkscape:window-width="1920"
     inkscape:window-height="1051"
     id="namedview14951"
     showgrid="false"
     inkscape:zoom="1.4849317"
     inkscape:cx="120.38629"
     inkscape:cy="115.44878"
     inkscape:window-x="0"
     inkscape:window-y="0"
     inkscape:window-maximized="1"
     inkscape:current-layer="svg12238" />
  <defs
     id="defs12240">
    <linearGradient
       gradientTransform="rotate(-19.575331,-5084.743,-9621.2687)"
       osb:paint="solid"
       id="top">
      <stop
         id="stop5590"
         offset="0"
         style="stop-color:#f9d455;stop-opacity:1;" />
    </linearGradient>
    <linearGradient
       gradientTransform="rotate(-19.575331,15758.553,-76364.821)"
       osb:paint="solid"
       id="red">
      <stop
         id="stop5548"
         offset="0"
         style="stop-color:#e31616;stop-opacity:1;" />
    </linearGradient>
    <linearGradient
       gradientTransform="rotate(-19.575331,-5068.9455,-9656.4047)"
       osb:paint="solid"
       id="side">
      <stop
         id="stop5530"
         offset="0"
         style="stop-color:#265998;stop-opacity:1;" />
    </linearGradient>
  </defs>
  <metadata
     id="metadata12243">
    <rdf:RDF>
      <cc:Work
         rdf:about="">
        <dc:format>image/svg+xml</dc:format>
        <dc:type
           rdf:resource="http://purl.org/dc/dcmitype/StillImage" />
        <dc:title />
      </cc:Work>
    </rdf:RDF>
  </metadata>
  <path
     inkscape:connector-curvature="0"
     id="path26573"
     d="m 153.01542,329.17354 -64.9909,-36.277 -2.343,-163.8412 66.9964,38.1798 z"
     style="fill:url(#side);fill-rule:evenodd;stroke:none;stroke-width:1px;stroke-linecap:butt;stroke-linejoin:miter;stroke-opacity:1" />
  <path
     inkscape:connector-curvature="0"
     id="path26575"
     d="m 152.67792,167.23514 99.2567,-58.09851 2.0598,158.5125 -100.9869,61.5191 z"
     style="fill:url(#red);fill-rule:evenodd;stroke:none;stroke-width:1px;stroke-linecap:butt;stroke-linejoin:miter;stroke-opacity:1" />
  <path
     inkscape:connector-curvature="0"
     id="path26577"
     d="m 251.93462,109.13663 -68.0544,-38.270495 -98.1987,58.189205 66.9964,38.1798 z"
     style="fill:url(#top);fill-rule:evenodd;stroke:none;stroke-width:1px;stroke-linecap:butt;stroke-linejoin:miter;stroke-opacity:1" />
  <path
     inkscape:connector-curvature="0"
     style="opacity:1;fill:none;fill-opacity:1;stroke:#000000;stroke-width:1;stroke-linecap:round;stroke-linejoin:round;stroke-miterlimit:4;stroke-dasharray:8, 4;stroke-dashoffset:0;stroke-opacity:1"
     d="m 188.30589,167.83105 a 36.211906,36.211906 0 0 1 -36.2119,36.21191 36.211906,36.211906 0 0 1 -36.21191,-36.21191 36.211906,36.211906 0 0 1 36.21191,-36.21191 36.211906,36.211906 0 0 1 36.2119,36.21191 z"
     id="circle26579" />
  <g
     style="font-style:normal;font-variant:normal;font-weight:normal;font-stretch:normal;font-size:40px;line-height:125%;font-family:Purisa;-inkscape-font-specification:Purisa;letter-spacing:0px;word-spacing:0px;fill:#000000;fill-opacity:1;stroke:none;stroke-width:1px;stroke-linecap:butt;stroke-linejoin:miter;stroke-opacity:1"
     id="text26581"
     transform="translate(-195.06275,-93.077545)">
    <path
       inkscape:connector-curvature="0"
       d="m 355.73736,274.83272 q -0.32,0 -0.6,-0.24 -0.28,-0.24 -0.28,-0.68 0,-0.44 0.2,-0.76 0.24,-0.36 0.84,-1 0.6,-0.68 1.12,-1.4 l 1.32,-1.76 q 0.28,-0.36 1,-1.6 0.72,-1.28 1.36,-2.12 0.68,-0.88 1.2,-0.88 0.84,0 1.12,2.56 0.24,2.16 0.48,8.52 0.24,6.32 0.24,10.48 0,2.64 -0.12,2.92 -0.32,0.68 -0.72,0.68 -0.56,0 -1.04,-1.4 -0.52,-1.48 -0.52,-10 -0.04,-8.64 -0.48,-8.64 -0.32,0 -1.28,1.36 -0.96,1.32 -2.08,2.64 -1.08,1.32 -1.76,1.32 z"
       id="path12828" />
    <path
       inkscape:connector-curvature="0"
       d="m 390.55986,286.27272 q 1.56,0 2.24,0.16 0.72,0.16 0.84,0.4 0.16,0.2 0.16,0.72 0,0.64 -0.68,0.72 -0.64,0.08 -3.04,0.2 -2.4,0.12 -5.08,0.64 -1.88,0.36 -4.04,0.64 -2.16,0.32 -3.16,0.48 -1,0.2 -1.28,0.48 -0.32,0.28 -0.88,0.28 -0.64,0 -1.2,-0.36 -0.52,-0.36 -0.52,-0.84 0,-0.52 1.32,-2.24 1.32,-1.76 2.48,-2.76 1.44,-1.2 4,-6.32 2.6,-5.16 2.6,-8.4 0,-1.32 -0.76,-1.8 -0.72,-0.48 -2.52,-0.48 -4.32,0 -8.68,4.4 -2.72,2.64 -2.88,2.64 -0.2,0 -0.2,-1.36 0,-1.4 1.04,-1.96 1.08,-0.52 1.08,-1.08 0,-0.2 0.16,-0.44 0.2,-0.28 0.56,-0.56 0.4,-0.32 0.72,-0.56 0.36,-0.28 0.96,-0.68 0.6,-0.44 0.96,-0.72 0.8,-0.68 2.6,-1.36 1.84,-0.72 4,-0.72 3.64,0 4.72,2 0.44,0.76 0.44,2.56 0,3.28 -1.2,6.36 -0.88,2.08 -3.24,5.92 -2.32,3.8 -3.48,4.88 -0.44,0.44 -0.44,0.56 0,0.04 0.16,0.04 0.04,0 2,-0.36 1.96,-0.36 4.88,-0.72 2.96,-0.36 5.36,-0.36 z"
       id="path12830" />
    <path
       inkscape:connector-curvature="0"
       d="m 404.97924,270.71272 q 0,-0.48 1.44,-1.96 1.44,-1.52 3.32,-2.84 1.88,-1.36 2.84,-1.36 1.4,0 3.04,2.12 1.64,2.08 1.64,5.64 0,5.08 -3.44,11.4 -1.4,2.6 -2.88,3.96 -1.44,1.32 -3.44,1.88 -0.92,0.24 -1.68,0.24 -2.84,0 -4.48,-3.56 -0.88,-1.8 -0.88,-2.68 0,-1.76 2.24,-6.92 2.28,-5.2 2.28,-5.92 z m 10.08,1.04 q 0,-4.12 -2.6,-4.12 -1.08,0 -2.12,0.68 -2.12,1.4 -4.6,6.8 -2.44,5.36 -2.44,8.72 0,1.44 0.92,2.48 0.96,1.04 2.28,1.04 0.88,0 1.6,-0.4 0.72,-0.44 1.96,-1.6 2.04,-1.96 2.04,-2.56 0,-0.32 0.72,-1.88 0.76,-1.56 1.48,-4.04 0.76,-2.52 0.76,-5.12 z"
       id="path12832" />
    <path
       inkscape:connector-curvature="0"
       d="m 420.91736,262.35272 q 0,-1.84 1.2,-2.92 1.2,-1.12 2.72,-1.12 1.72,0 2.92,1.36 1.24,1.32 1.24,2.68 0,1.64 -1.84,2.88 -1.84,1.24 -3.04,1.24 -1.36,0 -2.28,-1.24 -0.92,-1.28 -0.92,-2.88 z m 2.72,-0.4 q 0,0.72 0.24,1.12 0.24,0.4 0.44,0.44 0.24,0.04 0.56,0.04 0.56,0 0.96,-0.24 0.44,-0.28 0.44,-0.68 0,-0.52 -0.84,-1.16 -0.8,-0.64 -1.28,-0.64 -0.52,0 -0.52,1.12 z"
       id="path12834" />
  </g>
  <g
     style="font-style:normal;font-variant:normal;font-weight:normal;font-stretch:normal;font-size:40px;line-height:125%;font-family:Purisa;-inkscape-font-specification:Purisa;letter-spacing:0px;word-spacing:0px;fill:#000000;fill-opacity:1;stroke:none;stroke-width:1px;stroke-linecap:butt;stroke-linejoin:miter;stroke-opacity:1"
     id="text26585"
     transform="translate(-195.06275,-93.077545)">
    <path
       inkscape:connector-curvature="0"
       d="m 266.8089,278.40401 q -0.32,0 -0.6,-0.24 -0.28,-0.24 -0.28,-0.68 0,-0.44 0.2,-0.76 0.24,-0.36 0.84,-1 0.6,-0.68 1.12,-1.4 l 1.32,-1.76 q 0.28,-0.36 1,-1.6 0.72,-1.28 1.36,-2.12 0.68,-0.88 1.2,-0.88 0.84,0 1.12,2.56 0.24,2.16 0.48,8.52 0.24,6.32 0.24,10.48 0,2.64 -0.12,2.92 -0.32,0.68 -0.72,0.68 -0.56,0 -1.04,-1.4 -0.52,-1.48 -0.52,-10 -0.04,-8.64 -0.48,-8.64 -0.32,0 -1.28,1.36 -0.96,1.32 -2.08,2.64 -1.08,1.32 -1.76,1.32 z"
       id="path12837" />
    <path
       inkscape:connector-curvature="0"
       d="m 301.6314,289.84401 q 1.56,0 2.24,0.16 0.72,0.16 0.84,0.4 0.16,0.2 0.16,0.72 0,0.64 -0.68,0.72 -0.64,0.08 -3.04,0.2 -2.4,0.12 -5.08,0.64 -1.88,0.36 -4.04,0.64 -2.16,0.32 -3.16,0.48 -1,0.2 -1.28,0.48 -0.32,0.28 -0.88,0.28 -0.64,0 -1.2,-0.36 -0.52,-0.36 -0.52,-0.84 0,-0.52 1.32,-2.24 1.32,-1.76 2.48,-2.76 1.44,-1.2 4,-6.32 2.6,-5.16 2.6,-8.4 0,-1.32 -0.76,-1.8 -0.72,-0.48 -2.52,-0.48 -4.32,0 -8.68,4.4 -2.72,2.64 -2.88,2.64 -0.2,0 -0.2,-1.36 0,-1.4 1.04,-1.96 1.08,-0.52 1.08,-1.08 0,-0.2 0.16,-0.44 0.2,-0.28 0.56,-0.56 0.4,-0.32 0.72,-0.56 0.36,-0.28 0.96,-0.68 0.6,-0.44 0.96,-0.72 0.8,-0.68 2.6,-1.36 1.84,-0.72 4,-0.72 3.64,0 4.72,2 0.44,0.76 0.44,2.56 0,3.28 -1.2,6.36 -0.88,2.08 -3.24,5.92 -2.32,3.8 -3.48,4.88 -0.44,0.44 -0.44,0.56 0,0.04 0.16,0.04 0.04,0 2,-0.36 1.96,-0.36 4.88,-0.72 2.96,-0.36 5.36,-0.36 z"
       id="path12839" />
    <path
       inkscape:connector-curvature="0"
       d="m 316.05077,274.28401 q 0,-0.48 1.44,-1.96 1.44,-1.52 3.32,-2.84 1.88,-1.36 2.84,-1.36 1.4,0 3.04,2.12 1.64,2.08 1.64,5.64 0,5.08 -3.44,11.4 -1.4,2.6 -2.88,3.96 -1.44,1.32 -3.44,1.88 -0.92,0.24 -1.68,0.24 -2.84,0 -4.48,-3.56 -0.88,-1.8 -0.88,-2.68 0,-1.76 2.24,-6.92 2.28,-5.2 2.28,-5.92 z m 10.08,1.04 q 0,-4.12 -2.6,-4.12 -1.08,0 -2.12,0.68 -2.12,1.4 -4.6,6.8 -2.44,5.36 -2.44,8.72 0,1.44 0.92,2.48 0.96,1.04 2.28,1.04 0.88,0 1.6,-0.4 0.72,-0.44 1.96,-1.6 2.04,-1.96 2.04,-2.56 0,-0.32 0.72,-1.88 0.76,-1.56 1.48,-4.04 0.76,-2.52 0.76,-5.12 z"
       id="path12841" />
    <path
       inkscape:connector-curvature="0"
       d="m 331.9889,265.92401 q 0,-1.84 1.2,-2.92 1.2,-1.12 2.72,-1.12 1.72,0 2.92,1.36 1.24,1.32 1.24,2.68 0,1.64 -1.84,2.88 -1.84,1.24 -3.04,1.24 -1.36,0 -2.28,-1.24 -0.92,-1.28 -0.92,-2.88 z m 2.72,-0.4 q 0,0.72 0.24,1.12 0.24,0.4 0.44,0.44 0.24,0.04 0.56,0.04 0.56,0 0.96,-0.24 0.44,-0.28 0.44,-0.68 0,-0.52 -0.84,-1.16 -0.8,-0.64 -1.28,-0.64 -0.52,0 -0.52,1.12 z"
       id="path12843" />
  </g>
  <g
     style="font-style:normal;font-variant:normal;font-weight:normal;font-stretch:normal;font-size:40px;line-height:125%;font-family:Purisa;-inkscape-font-specification:Purisa;letter-spacing:0px;word-spacing:0px;fill:#000000;fill-opacity:1;stroke:none;stroke-width:1px;stroke-linecap:butt;stroke-linejoin:miter;stroke-opacity:1"
     id="text26589"
     transform="translate(-195.06275,-93.077545)">
    <path
       inkscape:connector-curvature="0"
       d="m 319.30865,216.97556 q -0.32,0 -0.6,-0.24 -0.28,-0.24 -0.28,-0.68 0,-0.44 0.2,-0.76 0.24,-0.36 0.84,-1 0.6,-0.68 1.12,-1.4 l 1.32,-1.76 q 0.28,-0.36 1,-1.6 0.72,-1.28 1.36,-2.12 0.68,-0.88 1.2,-0.88 0.84,0 1.12,2.56 0.24,2.16 0.48,8.52 0.24,6.32 0.24,10.48 0,2.64 -0.12,2.92 -0.32,0.68 -0.72,0.68 -0.56,0 -1.04,-1.4 -0.52,-1.48 -0.52,-10 -0.04,-8.64 -0.48,-8.64 -0.32,0 -1.28,1.36 -0.96,1.32 -2.08,2.64 -1.08,1.32 -1.76,1.32 z"
       id="path12846" />
    <path
       inkscape:connector-curvature="0"
       d="m 354.13115,228.41556 q 1.56,0 2.24,0.16 0.72,0.16 0.84,0.4 0.16,0.2 0.16,0.72 0,0.64 -0.68,0.72 -0.64,0.08 -3.04,0.2 -2.4,0.12 -5.08,0.64 -1.88,0.36 -4.04,0.64 -2.16,0.32 -3.16,0.48 -1,0.2 -1.28,0.48 -0.32,0.28 -0.88,0.28 -0.64,0 -1.2,-0.36 -0.52,-0.36 -0.52,-0.84 0,-0.52 1.32,-2.24 1.32,-1.76 2.48,-2.76 1.44,-1.2 4,-6.32 2.6,-5.16 2.6,-8.4 0,-1.32 -0.76,-1.8 -0.72,-0.48 -2.52,-0.48 -4.32,0 -8.68,4.4 -2.72,2.64 -2.88,2.64 -0.2,0 -0.2,-1.36 0,-1.4 1.04,-1.96 1.08,-0.52 1.08,-1.08 0,-0.2 0.16,-0.44 0.2,-0.28 0.56,-0.56 0.4,-0.32 0.72,-0.56 0.36,-0.28 0.96,-0.68 0.6,-0.44 0.96,-0.72 0.8,-0.68 2.6,-1.36 1.84,-0.72 4,-0.72 3.64,0 4.72,2 0.44,0.76 0.44,2.56 0,3.28 -1.2,6.36 -0.88,2.08 -3.24,5.92 -2.32,3.8 -3.48,4.88 -0.44,0.44 -0.44,0.56 0,0.04 0.16,0.04 0.04,0 2,-0.36 1.96,-0.36 4.88,-0.72 2.96,-0.36 5.36,-0.36 z"
       id="path12848" />
    <path
       inkscape:connector-curvature="0"
       d="m 368.55053,212.85556 q 0,-0.48 1.44,-1.96 1.44,-1.52 3.32,-2.84 1.88,-1.36 2.84,-1.36 1.4,0 3.04,2.12 1.64,2.08 1.64,5.64 0,5.08 -3.44,11.4 -1.4,2.6 -2.88,3.96 -1.44,1.32 -3.44,1.88 -0.92,0.24 -1.68,0.24 -2.84,0 -4.48,-3.56 -0.88,-1.8 -0.88,-2.68 0,-1.76 2.24,-6.92 2.28,-5.2 2.28,-5.92 z m 10.08,1.04 q 0,-4.12 -2.6,-4.12 -1.08,0 -2.12,0.68 -2.12,1.4 -4.6,6.8 -2.44,5.36 -2.44,8.72 0,1.44 0.92,2.48 0.96,1.04 2.28,1.04 0.88,0 1.6,-0.4 0.72,-0.44 1.96,-1.6 2.04,-1.96 2.04,-2.56 0,-0.32 0.72,-1.88 0.76,-1.56 1.48,-4.04 0.76,-2.52 0.76,-5.12 z"
       id="path12850" />
    <path
       inkscape:connector-curvature="0"
       d="m 384.48865,204.49556 q 0,-1.84 1.2,-2.92 1.2,-1.12 2.72,-1.12 1.72,0 2.92,1.36 1.24,1.32 1.24,2.68 0,1.64 -1.84,2.88 -1.84,1.24 -3.04,1.24 -1.36,0 -2.28,-1.24 -0.92,-1.28 -0.92,-2.88 z m 2.72,-0.4 q 0,0.72 0.24,1.12 0.24,0.4 0.44,0.44 0.24,0.04 0.56,0.04 0.56,0 0.96,-0.24 0.44,-0.28 0.44,-0.68 0,-0.52 -0.84,-1.16 -0.8,-0.64 -1.28,-0.64 -0.52,0 -0.52,1.12 z"
       id="path12852" />
  </g>
  <g
     aria-label="Ізометрія"
     style="font-style:normal;font-variant:normal;font-weight:normal;font-stretch:normal;font-size:35.00000381px;line-height:30.50787544px;font-family:'Liberation Serif';-inkscape-font-specification:'Liberation Serif';text-align:center;letter-spacing:0px;word-spacing:0px;text-anchor:middle;fill:none;stroke:#000000;stroke-width:0.93749994px;stroke-linecap:butt;stroke-linejoin:miter;stroke-opacity:1"
     id="text13833">
    <path
       d="m 108.62969,358.25824 2.93946,0.46143 v 0.90576 h -9.16016 v -0.90576 l 2.93945,-0.46143 v -20.2002 l -2.93945,-0.44433 v -0.90577 h 9.16016 v 0.90577 l -2.93946,0.44433 z"
       style="text-align:center;text-anchor:middle;fill:#000000;fill-opacity:1;stroke:none;stroke-width:0.93749994px"
       id="path15533" />
    <path
       d="m 122.14776,351.31976 q 1.45264,0.23926 2.39258,1.21338 0.93994,0.95703 0.93994,2.27295 0,5.16113 -7.10938,5.16113 -1.26464,0 -2.64892,-0.35888 -1.36719,-0.35889 -1.89697,-0.85449 v -1.0254 q 1.57226,0.46143 3.77685,0.46143 2.37549,0 3.58887,-0.78613 1.21338,-0.78614 1.21338,-2.5293 0,-1.29883 -0.95703,-2.05078 -0.95703,-0.76904 -2.49512,-0.76904 h -2.05078 v -1.41846 h 2.06787 q 1.46973,0 2.32422,-0.78613 0.87158,-0.78614 0.87158,-2.1875 0,-1.55518 -0.76904,-2.3584 -0.75196,-0.80323 -2.56348,-0.80323 -0.70068,0 -1.45264,0.22217 -0.75195,0.22217 -1.24756,0.58106 l -0.61523,2.32422 h -0.93994 v -3.96485 q 2.47803,-0.52978 4.375,-0.52978 3.22998,0 4.69971,1.04248 1.46972,1.04248 1.46972,3.26416 0,1.38427 -0.82031,2.34131 -0.82031,0.93994 -2.15332,1.43554 z"
       style="text-align:center;text-anchor:middle;fill:#000000;fill-opacity:1;stroke:none;stroke-width:0.93749994px"
       id="path15535" />
    <path
       d="m 142.60431,351.50775 q 0,8.45947 -7.51953,8.45947 -3.62305,0 -5.46876,-2.17041 -1.8457,-2.17041 -1.8457,-6.28906 0,-4.06738 1.8457,-6.2207 1.84571,-2.15332 5.60547,-2.15332 3.65723,0 5.52002,2.11914 1.8628,2.10205 1.8628,6.25488 z m -3.07618,0 q 0,-3.69141 -1.07666,-5.34912 -1.07666,-1.65772 -3.36669,-1.65772 -2.23877,0 -3.24708,1.58936 -0.99121,1.58936 -0.99121,5.41748 0,3.8794 1.0083,5.50293 1.02539,1.60645 3.22999,1.60645 2.25585,0 3.3496,-1.67481 1.09375,-1.6748 1.09375,-5.43457 z"
       style="text-align:center;text-anchor:middle;fill:#000000;fill-opacity:1;stroke:none;stroke-width:0.93749994px"
       id="path15537" />
    <path
       d="m 146.02227,344.75726 -1.96533,-0.42724 v -0.76905 h 5.69092 l 4.61426,11.63819 4.7168,-11.63819 h 5.50293 v 0.76905 l -1.94825,0.42724 v 13.67188 l 1.94825,0.42724 v 0.76905 h -6.57959 v -0.76905 l 1.79443,-0.42724 v -12.8003 l -5.67383,13.99659 h -0.92285 l -5.53711,-13.94532 v 12.74903 l 1.60645,0.42724 v 0.76905 h -5.21241 v -0.76905 l 1.96533,-0.42724 z"
       style="text-align:center;text-anchor:middle;fill:#000000;fill-opacity:1;stroke:none;stroke-width:0.93749994px"
       id="path15539" />
    <path
       d="m 169.84552,351.54193 v 0.30762 q 0,2.3584 0.5127,3.67431 0.52978,1.29883 1.60644,1.98243 1.09375,0.68359 2.85401,0.68359 0.92285,0 2.1875,-0.15381 1.26464,-0.15381 2.08496,-0.3418 v 0.95704 q -0.82032,0.52978 -2.23877,0.92285 -1.40137,0.39306 -2.8711,0.39306 -3.74267,0 -5.48584,-2.0166 -1.72607,-2.0166 -1.72607,-6.47705 0,-4.2041 1.76025,-6.27197 1.76026,-2.06787 5.02442,-2.06787 6.16943,0 6.16943,7.00683 v 1.40137 z m 3.7085,-7.04102 q -1.77735,0 -2.73438,1.43555 -0.93994,1.43555 -0.93994,4.23828 h 6.87012 q 0,-3.05908 -0.78613,-4.35791 -0.78614,-1.31592 -2.40967,-1.31592 z"
       style="text-align:center;text-anchor:middle;fill:#000000;fill-opacity:1;stroke:none;stroke-width:0.93749994px"
       id="path15541" />
    <path
       d="m 195.70246,343.56097 v 4.58008 h -0.93995 l -0.73486,-2.83691 q -1.89697,-0.32471 -3.40088,-0.32471 h -0.64941 v 13.44971 l 2.29004,0.42724 v 0.76905 h -7.60498 v -0.76905 l 2.47802,-0.42724 v -13.44971 h -0.63232 q -1.50391,0 -3.40088,0.32471 l -0.73486,2.83691 h -0.93995 v -4.58008 z"
       style="text-align:center;text-anchor:middle;fill:#000000;fill-opacity:1;stroke:none;stroke-width:0.93749994px"
       id="path15543" />
    <path
       d="m 199.24005,344.75726 -1.82861,-0.42724 v -0.76905 h 4.51172 l 0.0342,0.93994 q 0.71777,-0.61523 1.91406,-0.99121 1.21338,-0.37597 2.46094,-0.37597 3.07617,0 4.75097,2.13623 1.6919,2.13623 1.6919,6.13525 0,4.08447 -1.8457,6.32324 -1.82862,2.23877 -5.29786,2.23877 -1.93115,0 -3.67431,-0.37597 0.10254,1.23047 0.10254,1.93115 v 4.34082 l 2.80273,0.41016 v 0.80322 h -7.65625 v -0.80322 l 2.03369,-0.41016 z m 10.45899,6.64795 q 0,-3.28125 -1.07666,-4.8706 -1.05957,-1.60645 -3.22998,-1.60645 -1.99952,0 -3.33252,0.56396 v 12.83448 q 1.52099,0.29053 3.33252,0.29053 4.30664,0 4.30664,-7.21192 z"
       style="text-align:center;text-anchor:middle;fill:#000000;fill-opacity:1;stroke:none;stroke-width:0.93749994px"
       id="path15545" />
    <path
       d="m 220.61945,338.31439 q 0,0.75195 -0.54687,1.29883 -0.54688,0.54687 -1.31592,0.54687 -0.75195,0 -1.29883,-0.54687 -0.54687,-0.54688 -0.54687,-1.29883 0,-0.76904 0.54687,-1.31592 0.54688,-0.54687 1.29883,-0.54687 0.76904,0 1.31592,0.54687 0.54687,0.54688 0.54687,1.31592 z m -0.17089,20.11475 2.75146,0.42724 v 0.76905 h -8.32275 v -0.76905 l 2.73437,-0.42724 v -13.67188 l -2.27295,-0.42724 v -0.76905 h 5.10987 z"
       style="text-align:center;text-anchor:middle;fill:#000000;fill-opacity:1;stroke:none;stroke-width:0.93749994px"
       id="path15547" />
    <path
       d="m 227.84846,359.62543 h -3.89649 v -0.76905 l 1.38428,-0.39306 3.81104,-6.25489 q -1.70899,-0.39306 -2.66602,-1.52099 -0.93994,-1.12793 -0.93994,-2.76856 0,-4.35791 6.80176,-4.35791 h 6.97265 v 0.76905 l -2.13623,0.42724 v 13.67188 l 2.13623,0.42724 v 0.76905 h -7.07519 v -0.76905 l 2.10205,-0.44433 v -5.69092 h -2.49512 z m 6.49414,-14.69727 h -1.74317 q -2.08496,0 -3.04199,0.78613 -0.93994,0.76905 -0.93994,2.29004 0,3.34961 3.72559,3.34961 h 1.99951 z"
       style="text-align:center;text-anchor:middle;fill:#000000;fill-opacity:1;stroke:none;stroke-width:0.93749994px"
       id="path15549" />
  </g>
</svg>
